<?xml version="1.0" encoding="utf-8"?>
<!-- Generator: Adobe Illustrator 18.1.1, SVG Export Plug-In . SVG Version: 6.00 Build 0)  -->
<svg version="1.1" id="Layer_1" xmlns="http://www.w3.org/2000/svg" xmlns:xlink="http://www.w3.org/1999/xlink" x="0px" y="0px"
	 viewBox="0 0 369 100" enable-background="new 0 0 369 100" xml:space="preserve">
<g>
	<g>
		<path fill="#FFFFFF" d="M97.7,68.3l-8.5-27.7H89c0.3,5.6,0.5,9.4,0.5,11.3v16.4h-6.7V33.1h10.2l8.3,27h0.1l8.9-27h10.2v35.3h-7
			V51.6c0-0.8,0-1.7,0-2.7c0-1,0.1-3.8,0.3-8.2h-0.2l-9.1,27.6H97.7z"/>
		<path fill="#FFFFFF" d="M140.9,68.8c-4.3,0-7.7-1.2-10.2-3.6c-2.4-2.4-3.7-5.8-3.7-10.2c0-4.5,1.1-8,3.4-10.5
			c2.3-2.5,5.4-3.7,9.4-3.7c3.8,0,6.8,1.1,8.9,3.3c2.1,2.2,3.2,5.2,3.2,9v3.6h-17.4c0.1,2.1,0.7,3.7,1.9,4.9
			c1.2,1.2,2.8,1.8,4.9,1.8c1.6,0,3.2-0.2,4.6-0.5c1.4-0.3,3-0.9,4.5-1.6v5.7c-1.3,0.6-2.7,1.1-4.1,1.4
			C144.8,68.6,143,68.8,140.9,68.8z M139.9,46.1c-1.6,0-2.8,0.5-3.7,1.5c-0.9,1-1.4,2.4-1.5,4.2H145c0-1.8-0.5-3.2-1.4-4.2
			C142.7,46.6,141.4,46.1,139.9,46.1z"/>
		<path fill="#FFFFFF" d="M166.4,68.8c-3.2,0-5.7-1.2-7.5-3.7c-1.8-2.5-2.7-5.9-2.7-10.2c0-4.4,0.9-7.9,2.8-10.3
			c1.8-2.5,4.4-3.7,7.6-3.7c3.4,0,6,1.3,7.8,4h0.2c-0.4-2-0.6-3.8-0.6-5.4v-8.6h7.4v37.5h-5.6l-1.4-3.5h-0.3
			C172.4,67.5,169.9,68.8,166.4,68.8z M169,62.9c1.9,0,3.3-0.5,4.1-1.6c0.9-1.1,1.4-3,1.4-5.6v-0.8c0-2.9-0.4-5-1.3-6.2
			c-0.9-1.3-2.3-1.9-4.4-1.9c-1.6,0-2.9,0.7-3.8,2.1c-0.9,1.4-1.4,3.4-1.4,6.1s0.5,4.6,1.4,6C166,62.3,167.3,62.9,169,62.9z"/>
	</g>
	<path fill="#FFFFFF" d="M31.7,46.9c0,4,1.3,7.7,3.4,10.8l-7.8,7.8c-1.9,1.9-1.9,5,0.1,6.9c0.9,0.9,2.2,1.5,3.5,1.5
		c1.3,0,2.5-0.5,3.4-1.4l8.4-8.4c2.5,1.2,5.2,1.8,8.1,1.8c10.5,0,19-8.5,19-19c0-10.5-8.5-19-19-19C40.2,27.9,31.7,36.4,31.7,46.9z
		 M62.1,46.9c0,6.3-5.1,11.4-11.4,11.4c-6.3,0-11.4-5.1-11.4-11.4c0-6.3,5.1-11.4,11.4-11.4C57,35.5,62.1,40.6,62.1,46.9z"/>
	<g>
		<path fill="#FFFFFF" d="M274,45.5c-1.5,0-3,0.7-4.4,2.1c-1.4,1.4-2.3,3.2-2.9,5.5h0.7c3,0,5.4-0.4,7.1-1.3
			c1.7-0.9,2.6-2.1,2.6-3.7c0-0.8-0.3-1.5-0.8-1.9C275.8,45.7,275,45.5,274,45.5z"/>
		<path fill="#FFFFFF" d="M233.6,38c-0.9,2.2-2,4.7-3.4,7.4l-4.1,8.1h8.8c-0.6-6.7-1-10.7-1.1-12.1C233.6,40,233.6,38.8,233.6,38z"
			/>
		<path fill="#FFFFFF" d="M318.5,0H195.9H50C22.4,0,0,22.4,0,50c0,27.6,22.4,50,50,50h145.9h122.6c27.6,0,50-22.4,50-50
			C368.5,22.4,346.1,0,318.5,0z M195.9,16.3v67.5v7.7H50C27.2,91.4,8.6,72.8,8.6,50S27.2,8.6,50,8.6h145.9V16.3z M236.2,68.3l-1-9.8
			h-11.7l-5,9.8h-6.1L231.2,33h6.6l4,35.3H236.2z M251.2,68.3h-5.6l8-37.5h5.7L251.2,68.3z M278.5,54.7c-2.7,1.6-6.5,2.5-11.4,2.5
			h-1l0,0.7v0.7c0,1.8,0.5,3.2,1.4,4.2c0.9,1,2.3,1.5,4.1,1.5c1.2,0,2.3-0.2,3.4-0.5c1.1-0.3,2.5-0.8,4.1-1.6v4.5
			c-1.5,0.7-3,1.2-4.3,1.5c-1.3,0.3-2.7,0.4-4.3,0.4c-3.2,0-5.6-0.9-7.4-2.7c-1.8-1.8-2.7-4.3-2.7-7.5c0-3.2,0.6-6.1,1.9-8.9
			c1.2-2.7,2.9-4.9,5.1-6.4c2.1-1.5,4.5-2.2,7.1-2.2c2.6,0,4.6,0.6,6,1.7c1.4,1.2,2.2,2.8,2.2,5C282.5,50.8,281.2,53.1,278.5,54.7z
			 M304.5,46.7c-0.9-0.2-1.7-0.3-2.5-0.3c-2,0-3.8,0.9-5.4,2.7c-1.6,1.8-2.7,4.2-3.3,7.1l-2.6,12.1h-5.7l5.7-26.7h4.4l-0.5,4.9h0.2
			c1.3-1.9,2.7-3.3,4-4.2c1.3-0.8,2.7-1.3,4.2-1.3c1,0,1.9,0.1,2.6,0.3L304.5,46.7z M318.7,67.8c-0.6,0.3-1.3,0.5-2.3,0.7
			c-1,0.2-1.9,0.3-2.9,0.3c-4.4,0-6.6-2-6.6-6c0-0.9,0.1-2,0.4-3.2l2.9-13.7h-3.9l0.5-2.7l4.6-2l3.1-5.6h3.5l-1.3,5.9h6.7l-0.9,4.3
			h-6.7l-2.9,13.8c-0.2,0.9-0.3,1.6-0.3,2.2c0,0.7,0.2,1.2,0.6,1.7c0.4,0.4,1,0.6,1.8,0.6c1.1,0,2.3-0.2,3.6-0.7V67.8z M341.6,47.4
			c-2.3-1.2-4.4-1.8-6.4-1.8c-1.2,0-2.1,0.3-2.9,0.8c-0.7,0.5-1.1,1.3-1.1,2.2c0,0.7,0.3,1.4,0.8,1.9c0.5,0.6,1.6,1.3,3.3,2.2
			c1.7,0.9,2.9,1.8,3.6,2.4c0.7,0.7,1.2,1.4,1.6,2.2s0.6,1.7,0.6,2.8c0,2.8-0.9,4.9-2.8,6.4c-1.9,1.5-4.5,2.3-7.9,2.3
			c-3.1,0-5.6-0.5-7.8-1.6v-4.9c2.5,1.4,5,2.2,7.5,2.2c1.6,0,2.8-0.3,3.8-1c1-0.6,1.4-1.5,1.4-2.6c0-0.8-0.3-1.5-0.8-2.1
			c-0.6-0.6-1.7-1.4-3.4-2.4c-2-1.1-3.4-2.2-4.3-3.3c-0.8-1.1-1.2-2.4-1.2-4c0-2.5,0.9-4.4,2.6-5.9c1.7-1.4,4-2.1,7-2.1
			c3.2,0,5.9,0.7,8.3,2L341.6,47.4z"/>
	</g>
</g>
</svg>
