<?xml version="1.0" encoding="utf-8"?>
<!-- Generator: Adobe Illustrator 18.1.1, SVG Export Plug-In . SVG Version: 6.00 Build 0)  -->
<svg version="1.1" id="Layer_1" xmlns="http://www.w3.org/2000/svg" xmlns:xlink="http://www.w3.org/1999/xlink" x="0px" y="0px"
	 viewBox="0 0 227.9 132.8" enable-background="new 0 0 227.9 132.8" xml:space="preserve">
<g>
	<path fill="#F25444" d="M199.3,84.4h-75.4V7.7h75.4c14.6,0,26.5,17.2,26.5,38.3S213.9,84.4,199.3,84.4z"/>
	<g>
		<path fill="#FFFFFF" d="M197,0h-90.2H30.9C13.9,0,0,20,0,44.7c0,24.6,13.9,44.7,30.9,44.7h31.5l60.1,43.4V89.4H197
			c17.1,0,30.9-20,30.9-44.7C227.9,20,214.1,0,197,0z M197,81.7h-72.8v-74H197c14.1,0,25.6,16.6,25.6,37S211.1,81.7,197,81.7z"/>
		<g>
			<path fill="#F25444" d="M34.9,61.4l-9-26h-0.2c0.2,3.9,0.4,7.5,0.4,10.8v15.1h-4.6V30.3h7.2l8.6,24.7h0.1l8.9-24.7h7.2v31.1h-4.9
				V46c0-1.5,0-3.6,0.1-6c0.1-2.5,0.1-4,0.2-4.5h-0.2l-9.3,25.9H34.9z"/>
			<path fill="#F25444" d="M81.2,61.4H63.6V30.3h17.6v4.3H68.7v8.5h11.7v4.3H68.7v9.8h12.5V61.4z"/>
			<path fill="#F25444" d="M115.2,45.6c0,5.1-1.4,9.1-4.3,11.8c-2.9,2.7-7,4.1-12.3,4.1H90V30.3h9.6c4.9,0,8.8,1.3,11.6,4
				C113.9,37,115.2,40.7,115.2,45.6z M109.9,45.7c0-7.4-3.5-11.2-10.4-11.2H95v22.6h3.6C106.1,57.1,109.9,53.3,109.9,45.7z"/>
			<path fill="#FFFFFF" d="M154.8,39.7c0,3.2-1.1,5.7-3.2,7.5c-2.1,1.7-5.2,2.6-9.1,2.6h-3.2v11.6h-5.1V30.3h9
				c3.9,0,6.8,0.8,8.7,2.4C153.9,34.3,154.8,36.6,154.8,39.7z M139.3,45.5h2.7c2.6,0,4.5-0.5,5.7-1.4c1.2-0.9,1.8-2.3,1.8-4.3
				c0-1.8-0.5-3.1-1.6-4s-2.8-1.3-5.1-1.3h-3.5V45.5z"/>
			<path fill="#FFFFFF" d="M182.4,61.4l-3.1-8.6h-11.9l-3,8.6H159l11.6-31.2h5.5l11.6,31.2H182.4z M177.9,48.4l-2.9-8.5
				c-0.2-0.6-0.5-1.5-0.9-2.7c-0.4-1.2-0.6-2.1-0.8-2.7c-0.4,1.7-0.9,3.7-1.7,5.7l-2.8,8.1H177.9z"/>
			<path fill="#FFFFFF" d="M193.9,61.4V30.3h5.1v26.7h13.2v4.4H193.9z"/>
		</g>
	</g>
</g>
</svg>
