<?xml version="1.0" encoding="utf-8"?>
<!-- Generator: Adobe Illustrator 18.1.1, SVG Export Plug-In . SVG Version: 6.00 Build 0)  -->
<!DOCTYPE svg PUBLIC "-//W3C//DTD SVG 1.1 Tiny//EN" "http://www.w3.org/Graphics/SVG/1.1/DTD/svg11-tiny.dtd">
<svg version="1.1" baseProfile="tiny" id="Layer_1" xmlns="http://www.w3.org/2000/svg" xmlns:xlink="http://www.w3.org/1999/xlink"
	 x="0px" y="0px" viewBox="0 0 17.146 26" xml:space="preserve">
<rect x="-1025" y="-215.827" display="none" fill="#FFFFFF" width="1800" height="504"/>
<g id="industry-aerospace">
	<g id="Deleted_Symbol_29_">
	</g>
</g>
<g id="industry-banking">
	<g id="Deleted_Symbol_28_">
	</g>
</g>
<g id="industry-commercial-contracts">
	<g id="Deleted_Symbol_27_">
	</g>
</g>
<g id="industry-construction">
	<g id="Deleted_Symbol_26_">
	</g>
</g>
<g id="industry-employment">
	<g id="Deleted_Symbol_25_">
	</g>
</g>
<g id="industry-energy">
	<g id="Deleted_Symbol_24_">
	</g>
</g>
<g id="industry-entertainment">
	<g id="Deleted_Symbol_23_">
	</g>
</g>
<g id="industry-finance">
	<g id="Deleted_Symbol_22_">
	</g>
</g>
<g id="industry-franchise-agreements">
	<g id="Deleted_Symbol_21_">
	</g>
</g>
<g id="industry-healthcare">
	<g id="Deleted_Symbol_20_">
	</g>
</g>
<g id="industry-hospitality">
	<g id="Deleted_Symbol_19_">
	</g>
</g>
<g id="industry-insurance-reinsurance">
	<g id="Deleted_Symbol_18_">
	</g>
</g>
<g id="industry-intellectual-property">
	<g id="Deleted_Symbol_17_">
	</g>
</g>
<g id="industry-licensing-agreements">
	<g id="Deleted_Symbol_16_">
	</g>
</g>
<g id="industry-mass-claims-class-actions">
	<g id="Deleted_Symbol_15_">
	</g>
</g>
<g id="industry-mergers-aquisitions">
	<g id="Deleted_Symbol_14_">
	</g>
</g>
<g id="industry-oil-gas">
	<g id="Deleted_Symbol_13_">
	</g>
</g>
<g id="industry-other">
	<g id="Deleted_Symbol_12_">
	</g>
</g>
<g id="industry-partnerships">
	<g id="Deleted_Symbol_11_">
	</g>
</g>
<g id="industry-pharmaceuticals">
	<g id="Deleted_Symbol_10_">
	</g>
</g>
<g id="industry-securities-investments">
	<g id="Deleted_Symbol_9_">
	</g>
</g>
<g id="industry-technology">
	<g id="Deleted_Symbol_8_">
	</g>
</g>
<g id="industry-telecommunications">
	<g id="Deleted_Symbol_7_">
	</g>
</g>
<g id="search-region-africa">
	<g id="Deleted_Symbol_6_">
	</g>
</g>
<g id="search-region-asia">
	<g id="Deleted_Symbol_5_">
	</g>
</g>
<g id="search-region-europe">
	<g id="Deleted_Symbol_4_">
	</g>
</g>
<g id="search-region-latin-amer">
	<g id="Deleted_Symbol_3_">
	</g>
</g>
<g id="search-region-mid-east">
	<g id="Deleted_Symbol_2_">
	</g>
</g>
<g id="search-region-north-amer">
	<g id="Deleted_Symbol_1_">
	</g>
</g>
<g id="search-region-oceania">
	<g id="Deleted_Symbol">
	</g>
</g>
<g id="arrow-gray_x5F_down_3_">
</g>
<g id="arrow-gray_x5F_left_1_">
	<g id="arrow-gray_x5F_right_2_">
		<g id="arrow-gray_x5F_down_2_">
		</g>
	</g>
</g>
<g id="arrow-gray_x5F_right_1_">
	<g id="arrow-gray_x5F_down_1_">
	</g>
</g>
<g id="arrow-gray_x5F_up">
	<g id="arrow-gray_x5F_left">
		<g id="arrow-gray_x5F_right">
			<g id="arrow-gray_x5F_down">
			</g>
		</g>
	</g>
</g>
<g id="check-gray">
</g>
<g id="x-gray">
</g>
<g id="favicon">
	<g id="logo-color-large">
	</g>
</g>
<g id="login-account">
</g>
<g id="login-password">
	<path fill="#BAC2C4" d="M17.146,17.426c0,4.745-3.867,8.574-8.572,8.574C3.829,26,0,22.171,0,17.426
		c0-2.393,0.958-4.546,2.552-6.101V6.022C2.552,2.712,5.265,0,8.574,0s5.982,2.712,5.982,6.022v5.303
		C16.15,12.88,17.146,15.033,17.146,17.426z M5.144,16.468H2.433l-0.399,0.958l0.399,0.957h2.711V16.468z M6.819,14.355
		l-1.954-1.954L3.907,12.76L3.51,13.757l1.954,1.954L6.819,14.355z M5.464,19.101L3.51,21.094l0.398,0.957l0.958,0.359l1.954-1.954
		L5.464,19.101z M5.783,9.331c1.753-0.638,3.669-0.638,5.542,0v-3.31c0-1.515-1.237-2.791-2.751-2.791
		c-1.556,0-2.791,1.276-2.791,2.791V9.331z M9.491,14.036v-2.712l-0.958-0.399l-0.958,0.399v2.712H9.491z M7.576,20.775v2.711
		l0.958,0.399l0.958-0.399v-2.711H7.576L7.576,20.775z M11.564,15.711l1.954-1.954L13.16,12.8l-0.998-0.399l-1.954,1.954
		L11.564,15.711z M10.208,20.456l1.954,1.954l0.998-0.359l0.358-0.957l-1.954-1.994L10.208,20.456z M11.883,18.383h2.711
		l0.399-0.957l-0.399-0.958h-2.711V18.383z"/>
</g>
<g id="tick">
</g>
<g id="social-fb_2">
</g>
<g id="social-linked_2">
</g>
<g id="social-twitter_2">
</g>
</svg>
