<?xml version="1.0" encoding="utf-8"?>
<!-- Generator: Adobe Illustrator 18.1.1, SVG Export Plug-In . SVG Version: 6.00 Build 0)  -->
<!DOCTYPE svg PUBLIC "-//W3C//DTD SVG 1.1 Tiny//EN" "http://www.w3.org/Graphics/SVG/1.1/DTD/svg11-tiny.dtd">
<svg version="1.1" baseProfile="tiny" id="Layer_1" xmlns="http://www.w3.org/2000/svg" xmlns:xlink="http://www.w3.org/1999/xlink"
	 x="0px" y="0px" viewBox="0 0 40.369 40.645" xml:space="preserve">
<g id="arrow-gray_x5F_down">
</g>
<g id="arrow-gray_x5F_left">
	<g id="arrow-gray_x5F_right_2_">
		<g id="arrow-gray_x5F_down_3_">
		</g>
	</g>
</g>
<g id="arrow-gray_x5F_right">
	<g id="arrow-gray_x5F_down_2_">
	</g>
</g>
<g id="arrow-gray_x5F_up">
	<g id="arrow-gray_x5F_left_1_">
		<g id="arrow-gray_x5F_right_1_">
			<g id="arrow-gray_x5F_down_1_">
			</g>
		</g>
	</g>
</g>
<g id="check-gray">
</g>
<g id="x-gray">
</g>
<g id="drd-favicon">
	<g id="logo-color-large">
	</g>
</g>
<g id="login-account">
</g>
<g id="login-password">
</g>
<g id="tick">
</g>
<g id="social-fb_2">
</g>
<g id="social-linked_2">
</g>
<g id="social-twitter_2">
</g>
<g id="industry-aerospace">
</g>
<g id="industry-construction">
</g>
<g id="industry-employment">
</g>
<g id="industry-energy">
	<g id="_x5F_results-icon-box_48_">
	</g>
</g>
<g id="industry-entertainment">
	<g id="_x5F_results-icon-box_47_">
	</g>
</g>
<g id="industry-finance">
	<g id="_x5F_results-icon-box_46_">
	</g>
</g>
<g id="industry-franchise-agreements">
	<g id="_x5F_results-icon-box_45_">
	</g>
</g>
<g id="industry-healthcare">
	<g id="_x5F_results-icon-box_44_">
	</g>
</g>
<g id="industry-hospitality">
	<g id="_x5F_results-icon-box_43_">
	</g>
</g>
<g id="industry-insurance-reinsurance">
	<g id="_x5F_results-icon-box_42_">
	</g>
</g>
<g id="industry-intellectual-property">
	<g id="_x5F_results-icon-box_41_">
	</g>
</g>
<g id="industry-licensing-agreements">
	<g id="_x5F_results-icon-box_40_">
	</g>
</g>
<g id="industry-mass-claims-appeals">
	<g id="_x5F_results-icon-box_39_">
	</g>
</g>
<g id="industry-mergers-aquisitions">
	<g id="_x5F_results-icon-box_38_">
	</g>
</g>
<g id="industry-oil-gas">
	<g id="_x5F_results-icon-box_37_">
	</g>
</g>
<g id="industry-other">
	<g id="_x5F_results-icon-box_36_">
	</g>
</g>
<g id="industry-partnerships">
	<g id="_x5F_results-icon-box_35_">
	</g>
</g>
<g id="industry-pharmaceuticals">
	<g id="_x5F_results-icon-box_34_">
	</g>
</g>
<g id="industry-securities-investments">
	<g id="_x5F_results-icon-box_33_">
	</g>
</g>
<g id="industry-technology">
	<g id="_x5F_results-icon-box_32_">
	</g>
</g>
<g id="industry-telecommunications">
	<g id="_x5F_results-icon-box_31_">
	</g>
</g>
<g id="region-africa">
	<g id="_x5F_results-icon-box_30_">
	</g>
</g>
<g id="region-asia">
	<g id="_x5F_results-icon-box_29_">
	</g>
</g>
<g id="region-europe">
	<g id="_x5F_results-icon-box_28_">
	</g>
</g>
<g id="region-latin-amer">
	<g id="_x5F_results-icon-box_27_">
	</g>
	<g>
		<path fill="#231F20" d="M27.526,40.106c-0.048-0.018-0.058-0.063-0.107-0.077c-0.04-0.011-0.066,0.004-0.108,0
			c-0.087-0.008-0.134-0.031-0.215-0.061c-0.068-0.025-0.105-0.043-0.169-0.077c-0.062-0.032-0.097-0.051-0.153-0.092
			c-0.051-0.038-0.077-0.064-0.123-0.108c-0.043-0.041-0.057-0.077-0.108-0.108c-0.054-0.032-0.117,0.005-0.154-0.046
			c-0.035-0.048,0.027-0.1,0-0.154c-0.029-0.058-0.075-0.078-0.138-0.092c-0.046-0.011-0.077,0.003-0.118,0.011l0.056,0.005
			c0.048,0.066,0.086,0.096,0.123,0.169c0.034,0.068,0.04,0.112,0.061,0.184c0.02,0.066,0.022,0.105,0.046,0.169
			c0.032,0.083,0.049,0.134,0.108,0.2c0.054,0.061,0.103,0.075,0.169,0.123l0.1,0.034c0.016-0.007,0.032-0.014,0.054-0.018
			c0.1-0.021,0.163,0,0.261,0.031c0.056,0.018,0.082,0.043,0.138,0.061c0.098,0.031,0.16,0.049,0.261,0.031
			c0.077-0.014,0.155-0.005,0.185-0.077c0.016-0.039,0.022-0.072,0-0.108C27.659,40.051,27.587,40.129,27.526,40.106z"/>
		<path fill="#231F20" d="M26.188,34.832c0.023,0.043,0.062,0.046,0.108,0.061c0.051,0.018,0.096,0.05,0.138,0.015
			c0.034-0.027,0.042-0.065,0.031-0.107c-0.011-0.042-0.062-0.037-0.077-0.077c-0.017-0.045,0.051-0.09,0.015-0.123
			c-0.023-0.021-0.047-0.013-0.077-0.015c-0.054-0.005-0.104-0.027-0.138,0.015c-0.03,0.037,0,0.075,0,0.123
			C26.188,34.766,26.168,34.795,26.188,34.832z"/>
		<path fill="#231F20" d="M22.789,35.185c0.062-0.037,0.013-0.112,0.015-0.184c0.002-0.054,0.013-0.086,0-0.139
			c-0.012-0.052-0.044-0.072-0.061-0.123c-0.021-0.058,0-0.1-0.031-0.153c-0.025-0.044-0.045-0.075-0.092-0.092
			c-0.039-0.015-0.069-0.017-0.108,0c-0.043,0.019-0.066,0.047-0.077,0.092c-0.012,0.048,0.014,0.077,0.031,0.123
			c0.019,0.05,0.051,0.071,0.062,0.123c0.012,0.059-0.012,0.093-0.015,0.153c-0.003,0.066-0.048,0.124,0,0.169
			c0.04,0.037,0.085,0.009,0.138,0.015C22.705,35.176,22.743,35.213,22.789,35.185z"/>
		<path fill="#231F20" d="M23.266,35.708c-0.017-0.031-0.042-0.042-0.077-0.046c-0.038-0.005-0.056,0.018-0.093,0.031
			c0,0,0.072,0.021,0.046,0.085c-0.026,0.064,0.077,0.038,0.077,0.038c0,0.006,0,0.01,0,0.015
			C23.222,35.883,23.29,35.753,23.266,35.708z"/>
		<path fill="#231F20" d="M22.912,35.785c-0.052,0.018-0.068,0.058-0.092,0.108c-0.022,0.044-0.045,0.076-0.031,0.123
			c0.021,0.07,0.097,0.077,0.169,0.077c0.072,0,0.159-0.005,0.169-0.077c0.005-0.037-0.013-0.059-0.031-0.092
			C23.054,35.845,22.998,35.756,22.912,35.785z"/>
		<path fill="#231F20" d="M23.051,36.677c0.067,0.007,0.12,0.015,0.169-0.031c0.071-0.065,0.045-0.17-0.015-0.246
			c-0.035-0.044-0.068-0.062-0.123-0.077c-0.046-0.012-0.081-0.024-0.123,0c-0.037,0.022-0.031,0.062-0.061,0.092
			c-0.031,0.031-0.057,0.037-0.092,0.062c-0.069,0.05-0.229,0.078-0.169,0.138c0.038,0.039,0.084,0.016,0.138,0.015
			c0.048-0.001,0.075-0.02,0.123-0.015C22.961,36.621,22.987,36.67,23.051,36.677z"/>
		<path fill="#231F20" d="M23.143,37.446c0.03-0.023,0.031-0.054,0.031-0.092c0-0.053-0.01-0.11-0.061-0.123
			c-0.037-0.009-0.057,0.017-0.092,0.031c-0.05,0.02-0.127,0.008-0.123,0.062c0.003,0.048,0.065,0.039,0.108,0.061
			C23.057,37.411,23.096,37.482,23.143,37.446z"/>
		<path fill="#231F20" d="M23.343,37.6L23.343,37.6c-0.048-0.026-0.084,0.01-0.138,0.015c-0.084,0.008-0.172-0.057-0.215,0.016
			c-0.047,0.078,0.113,0.109,0.123,0.2c0.005,0.048-0.037,0.08-0.016,0.123c0.024,0.048,0.07,0.053,0.123,0.062
			c0.048,0.008,0.102,0.028,0.123-0.015c0.022-0.043-0.057-0.06-0.061-0.108c-0.004-0.044,0.009-0.07,0.031-0.108
			c0.025-0.044,0.091-0.041,0.092-0.092C23.406,37.649,23.381,37.621,23.343,37.6z"/>
		<path fill="#231F20" d="M23.666,38.907c-0.017,0.054,0.024,0.144,0.077,0.123c0.032-0.013,0.036-0.043,0.046-0.077
			c0.012-0.04,0.031-0.079,0-0.108C23.75,38.809,23.682,38.856,23.666,38.907z"/>
		<path fill="#231F20" d="M24.466,39.399L24.466,39.399c-0.045-0.024-0.074-0.032-0.123-0.046c-0.059-0.017-0.093-0.034-0.154-0.031
			c-0.05,0.002-0.115-0.018-0.123,0.031c-0.005,0.034,0.024,0.05,0.046,0.077c0.045,0.057,0.083,0.089,0.153,0.108
			c0.071,0.019,0.113-0.009,0.185-0.015c0.06-0.005,0.128,0.039,0.154-0.015C24.633,39.445,24.526,39.431,24.466,39.399z"/>
		<path fill="#231F20" d="M24.85,39.783c-0.033-0.028-0.028-0.064-0.062-0.092c-0.043-0.037-0.09-0.076-0.138-0.046
			c-0.056,0.034-0.032,0.122,0.015,0.169c0.039,0.039,0.105-0.013,0.138,0.031c0.026,0.033-0.013,0.076,0.015,0.107
			c0.041,0.045,0.121,0.035,0.154-0.015c0.023-0.036,0.021-0.071,0-0.108C24.947,39.786,24.889,39.816,24.85,39.783z"/>
		<path fill="#231F20" d="M25.665,39.752c0.055-0.015,0.054-0.082,0.046-0.138c-0.006-0.04-0.008-0.079-0.046-0.093
			c-0.038-0.013-0.067,0.015-0.092,0.046c-0.037,0.047-0.042,0.111,0,0.154C25.599,39.748,25.629,39.762,25.665,39.752z"/>
		<path fill="#231F20" d="M27.387,40.46c-0.055,0.005-0.087,0.011-0.138,0.031c-0.066,0.025-0.155,0.023-0.154,0.093
			c0.002,0.076,0.109,0.061,0.185,0.061c0.055,0,0.084-0.02,0.139-0.031c0.065-0.013,0.142,0.031,0.169-0.03
			c0.017-0.039,0.009-0.073-0.015-0.108C27.53,40.416,27.459,40.454,27.387,40.46z"/>
		<path fill="#231F20" d="M27.126,40.26c-0.043-0.043-0.093-0.029-0.154-0.031c-0.054-0.002-0.085,0.007-0.138,0.016
			c-0.079,0.012-0.127,0.014-0.2,0.046c-0.045,0.019-0.062,0.046-0.108,0.061c-0.057,0.02-0.094,0.009-0.154,0.016l0.077,0.123
			c0.072,0.006,0.114-0.002,0.185,0.016c0.063,0.015,0.09,0.052,0.154,0.062c0.042,0.006,0.077,0.029,0.108,0
			c0.035-0.033-0.041-0.082-0.015-0.123c0.034-0.056,0.104,0.011,0.169,0c0.043-0.008,0.08,0.002,0.108-0.031
			C27.196,40.367,27.169,40.303,27.126,40.26z"/>
		<path fill="#231F20" d="M26.541,40.229c0.071-0.015,0.114,0.002,0.185-0.015c0.028-0.007,0.048-0.018,0.069-0.028l-0.1-0.034
			c-0.066-0.048-0.115-0.062-0.169-0.123c-0.059-0.066-0.076-0.117-0.108-0.2c-0.024-0.064-0.026-0.103-0.046-0.169
			c-0.022-0.073-0.027-0.117-0.061-0.184c-0.037-0.073-0.075-0.103-0.123-0.169l-0.056-0.005c-0.011,0.002-0.023,0.004-0.036,0.005
			c-0.06,0.003-0.094,0-0.154,0c-0.036,0-0.058-0.011-0.092,0c-0.07,0.022-0.094,0.082-0.108,0.154
			c-0.01,0.053,0.009,0.084,0.015,0.138l0.093,0.046c0.03-0.006,0.047-0.011,0.077-0.016c0.06-0.01,0.135-0.072,0.154-0.015
			c0.01,0.029-0.002,0.049-0.015,0.077c-0.023,0.05-0.084,0.042-0.108,0.092c-0.016,0.033-0.025,0.057-0.016,0.092
			c0.017,0.06,0.082,0.051,0.138,0.077c0.064,0.03,0.19-0.005,0.169,0.062c-0.017,0.054-0.082,0.041-0.138,0.046
			c-0.067,0.006-0.108-0.004-0.169-0.031c-0.032-0.014-0.044-0.034-0.077-0.046c-0.062-0.023-0.103-0.002-0.169,0
			c-0.096,0.003-0.214-0.075-0.246,0.015c-0.019,0.052-0.014,0.106,0.031,0.138c0.039,0.028,0.075-0.006,0.123,0
			c0.075,0.009,0.111,0.044,0.185,0.062c0.094,0.022,0.15,0.025,0.246,0.03c0.084,0.005,0.135-0.024,0.215,0
			c0.051,0.015,0.07,0.056,0.123,0.062C26.442,40.299,26.473,40.244,26.541,40.229z"/>
		<path fill="#231F20" d="M35.599,18.439c-0.026-0.083-0.044-0.13-0.061-0.215v0c-0.02-0.094,0.011-0.158-0.031-0.246
			c-0.026-0.054-0.05-0.08-0.092-0.123c-0.066-0.068-0.109-0.111-0.2-0.138c-0.086-0.026-0.141,0.007-0.231,0
			c-0.103-0.008-0.188,0.027-0.261-0.046c-0.034-0.034-0.024-0.077-0.062-0.108c-0.052-0.043-0.113,0.006-0.169-0.031
			c-0.044-0.028-0.053-0.064-0.079-0.104c-0.004-0.006-0.008-0.013-0.013-0.019c-0.047-0.061-0.076-0.093-0.123-0.154
			c-0.037-0.048-0.051-0.079-0.092-0.123c-0.062-0.065-0.114-0.083-0.185-0.138c-0.061-0.047-0.089-0.082-0.154-0.123
			c-0.057-0.036-0.106-0.03-0.154-0.077c-0.044-0.043-0.027-0.103-0.077-0.138c-0.068-0.049-0.132-0.012-0.215,0
			c-0.087,0.012-0.13,0.044-0.215,0.062c-0.095,0.019-0.15,0.04-0.246,0.031c-0.068-0.008-0.104-0.024-0.169-0.046
			c-0.061-0.021-0.092-0.041-0.154-0.062c-0.07-0.023-0.114-0.022-0.185-0.046c-0.081-0.028-0.114-0.095-0.2-0.092
			c-0.03,0.001-0.047,0.008-0.077,0.015c-0.105,0.024-0.165,0.044-0.262,0.092c-0.043,0.021-0.062,0.079-0.108,0.062
			c-0.058-0.022,0.064-0.078,0.077-0.138c0.014-0.065,0.014-0.11-0.015-0.169c-0.026-0.053-0.069-0.063-0.108-0.108
			c-0.039-0.045-0.046-0.085-0.092-0.123c-0.06-0.05-0.123-0.029-0.185-0.077c-0.043-0.034-0.048-0.075-0.092-0.108
			c-0.093-0.069-0.192,0.01-0.292-0.046c-0.063-0.035-0.072-0.095-0.138-0.123c-0.061-0.026-0.104-0.003-0.169-0.016
			c-0.061-0.012-0.092-0.039-0.154-0.046c-0.084-0.009-0.148-0.021-0.215,0.031c-0.041,0.031-0.049,0.064-0.077,0.107
			c-0.05,0.08-0.045,0.145-0.107,0.215c-0.045,0.051-0.088,0.062-0.138,0.108c-0.038,0.034-0.051,0.062-0.093,0.092
			c-0.043,0.032-0.069,0.057-0.123,0.062c-0.036,0.003-0.067,0.011-0.092-0.015c-0.029-0.031,0-0.066,0-0.108l-0.015,0.016
			c0.03-0.036,0.036-0.069,0.077-0.092c0.047-0.027,0.088,0.006,0.138-0.015c0.074-0.032,0.094-0.087,0.139-0.154
			c0.05-0.076,0.055-0.132,0.092-0.215c0.029-0.066,0.099-0.1,0.077-0.169c-0.012-0.037-0.03-0.054-0.061-0.077
			c-0.063-0.046-0.123-0.004-0.2-0.016c-0.06-0.009-0.093-0.027-0.154-0.031c-0.072-0.005-0.112,0.013-0.185,0.016
			c-0.078,0.003-0.122-0.005-0.2,0c-0.054,0.004-0.094-0.016-0.138,0.015c-0.04,0.028-0.045,0.062-0.061,0.108
			c-0.033,0.09,0.008,0.151,0,0.246c-0.004,0.048,0.014,0.084-0.016,0.123c-0.04,0.053-0.11,0-0.169,0.031
			c-0.042,0.022-0.056,0.048-0.092,0.077c-0.047,0.037-0.066,0.074-0.123,0.092c-0.063,0.019-0.107-0.015-0.169-0.015
			c-0.059,0,0.067-0.064,0.108-0.108c0.038-0.041,0.054-0.068,0.093-0.108c0.044-0.045,0.085-0.057,0.123-0.108
			c0.05-0.067,0.042-0.124,0.077-0.2c0.037-0.08,0.048-0.135,0.107-0.2c0.058-0.063,0.131-0.055,0.185-0.123
			c0.014-0.018,0.023-0.035,0.03-0.052c0.017-0.042,0.02-0.084,0.047-0.133c0.052-0.093,0.131-0.116,0.169-0.215
			c0.028-0.074,0.076-0.135,0.031-0.2c-0.034-0.048-0.084-0.038-0.138-0.061c-0.084-0.037-0.169-0.014-0.215-0.092
			c-0.034-0.057-0.007-0.104-0.015-0.169c-0.01-0.085-0.005-0.151-0.019-0.218c-0.007-0.034-0.02-0.068-0.043-0.105
			c-0.029-0.047-0.066-0.059-0.092-0.108c-0.046-0.085-0.026-0.149-0.031-0.246c-0.002-0.054,0.028-0.092,0-0.138
			c-0.033-0.056-0.103-0.022-0.154-0.062l-0.031,0.031c-0.042,0.072-0.067,0.112-0.108,0.184c-0.043,0.077-0.069,0.12-0.108,0.2
			c-0.026,0.054-0.043,0.098-0.06,0.142c0.017-0.044,0.034-0.088,0.06-0.142c0.038-0.08,0.064-0.123,0.108-0.2
			c0.041-0.072,0.066-0.112,0.108-0.184l0.031-0.031c-0.061-0.048-0.068-0.102-0.108-0.169c-0.045-0.076-0.029-0.159-0.108-0.2
			c-0.064-0.033-0.118,0.028-0.184,0c-0.051-0.022-0.059-0.067-0.108-0.092c-0.07-0.036-0.133,0.011-0.2-0.031
			c-0.058-0.036-0.056-0.094-0.108-0.138c-0.045-0.038-0.081-0.058-0.127-0.075c-0.017-0.006-0.036-0.012-0.057-0.017
			c-0.104-0.029-0.17,0.018-0.277,0c-0.08-0.014-0.12-0.047-0.2-0.062c-0.065-0.012-0.103-0.019-0.169-0.015
			c-0.061,0.004-0.094,0.02-0.154,0.031c-0.072,0.013-0.112,0.036-0.184,0.031c-0.076-0.005-0.127-0.013-0.185-0.062h0
			c-0.058-0.048-0.045-0.111-0.093-0.169c-0.053-0.066-0.109-0.077-0.169-0.138c-0.039-0.039-0.041-0.088-0.092-0.108
			c-0.039-0.015-0.066,0.009-0.108,0c-0.069-0.014-0.115-0.034-0.154-0.092c-0.043-0.065,0.008-0.125-0.015-0.2
			c-0.027-0.087-0.066-0.129-0.123-0.2c-0.048-0.059-0.081-0.088-0.138-0.138c-0.068-0.059-0.105-0.097-0.185-0.138v0.076
			c0,0,0,0,0,0V11.52h0c-0.04-0.021-0.063-0.035-0.108-0.046c-0.1-0.025-0.167,0.072-0.262,0.031
			c-0.058-0.025-0.111-0.045-0.123-0.108c-0.013-0.072,0.082-0.085,0.108-0.154c0.027-0.074,0.047-0.129,0.015-0.2
			c-0.033-0.074-0.095-0.089-0.169-0.123c-0.057-0.027-0.092-0.038-0.154-0.046c-0.078-0.01-0.122,0.009-0.2,0.016l0.015-0.016
			c-0.03,0.006-0.047,0.022-0.077,0.016c-0.042-0.009-0.06-0.038-0.077-0.077c-0.027-0.061-0.007-0.114,0.031-0.169
			c0.051-0.076,0.236-0.003,0.215-0.092c-0.012-0.054-0.06-0.064-0.108-0.092c-0.044-0.026-0.072-0.042-0.123-0.046
			c-0.083-0.007-0.125,0.04-0.2,0.077c-0.043,0.022-0.062,0.046-0.108,0.062c-0.079,0.027-0.136-0.028-0.215,0
			c-0.053,0.019-0.071,0.053-0.123,0.077c-0.057,0.026-0.103,0.009-0.153,0.046c-0.056,0.042-0.032,0.119-0.093,0.154
			c-0.092,0.054-0.163-0.035-0.261-0.077c-0.082-0.034-0.125-0.061-0.2-0.108c-0.037-0.023-0.052-0.045-0.092-0.061
			c-0.078-0.032-0.132-0.002-0.215,0c-0.114,0.003-0.178,0.017-0.292,0.016c-0.133-0.002-0.263,0.078-0.338-0.031
			c-0.041-0.06-0.004-0.117-0.031-0.185c-0.018-0.045-0.026-0.075-0.062-0.108c-0.059-0.054-0.12-0.037-0.2-0.046
			c-0.083-0.01-0.152,0.056-0.215,0c-0.072-0.063,0.058-0.17,0-0.246c-0.038-0.049-0.078-0.067-0.138-0.077
			c-0.073-0.012-0.171-0.027-0.185,0.046c-0.011,0.063,0.071,0.071,0.108,0.123c0.028,0.04,0.07,0.06,0.061,0.108
			c-0.01,0.056-0.071,0.055-0.123,0.077c-0.089,0.038-0.158-0.009-0.246,0.031c-0.07,0.032-0.095,0.074-0.154,0.123
			c-0.068,0.058-0.103,0.214-0.169,0.154c-0.048-0.045,0.019-0.106,0-0.169c-0.013-0.041-0.054-0.061-0.077-0.088l0,0
			c-0.011-0.014-0.018-0.029-0.015-0.05c0.006-0.034,0.022-0.051,0.046-0.077c0.037-0.039,0.078-0.032,0.123-0.061
			c0.078-0.051,0.153-0.077,0.169-0.169c0.009-0.048,0.014-0.085-0.015-0.123c-0.037-0.048-0.092-0.033-0.154-0.031
			C21.068,9.8,21.01,9.803,20.959,9.859c-0.045,0.051,0.001,0.12-0.046,0.169c-0.062,0.066-0.148-0.008-0.23,0.031
			c-0.081,0.038-0.092,0.108-0.169,0.154c-0.091,0.054-0.157,0.055-0.261,0.077c-0.083,0.017-0.151-0.024-0.215,0.031
			c-0.033,0.028-0.029,0.064-0.061,0.092c-0.035,0.03-0.064,0.034-0.108,0.046c-0.069,0.02-0.117-0.009-0.185,0.015
			c-0.061,0.022-0.092,0.047-0.138,0.092c-0.112,0.111-0.108,0.228-0.123,0.384c-0.007,0.071,0.047,0.13,0,0.185
			c-0.051,0.059-0.134-0.027-0.2,0.015c-0.054,0.035-0.074,0.076-0.092,0.138c-0.017,0.058,0.027,0.1,0,0.154
			c-0.041,0.079-0.169,0.001-0.215,0.077c-0.031,0.052,0.036,0.123-0.015,0.153c-0.049,0.029-0.092-0.013-0.138-0.046v0
			c-0.064-0.045-0.062-0.106-0.108-0.169c-0.05-0.069-0.08-0.107-0.138-0.169c-0.061-0.065-0.093-0.107-0.169-0.154
			c-0.066-0.041-0.11-0.056-0.185-0.077c-0.07-0.02-0.112-0.022-0.185-0.031c-0.072-0.009-0.114-0.029-0.184-0.015
			c-0.058,0.011-0.092,0.025-0.138,0.061c-0.058,0.045-0.043,0.12-0.108,0.154c-0.053,0.028-0.094,0.005-0.154,0.015
			c-0.073,0.012-0.114,0.024-0.185,0.046c-0.092,0.029-0.134,0.098-0.231,0.092c-0.057-0.003-0.091-0.014-0.138-0.046
			c-0.1-0.068-0.017-0.212-0.108-0.292c-0.037-0.034-0.083-0.03-0.12-0.048c-0.012-0.006-0.024-0.015-0.034-0.029
			c-0.036-0.05,0.018-0.117-0.031-0.154c-0.043-0.032-0.091,0.025-0.138,0c-0.072-0.038-0.036-0.122-0.061-0.2
			c-0.028-0.085-0.056-0.129-0.077-0.215c-0.023-0.094-0.044-0.15-0.031-0.246c0.012-0.083,0.053-0.12,0.077-0.2
			c0.024-0.082,0.003-0.141,0.046-0.215c0.019-0.033,0.043-0.043,0.061-0.077c0.061-0.111-0.035-0.196-0.031-0.323
			c0.003-0.09-0.017-0.153,0.031-0.231c0.027-0.043,0.063-0.05,0.092-0.092c0.049-0.072,0.051-0.129,0.061-0.215
			c0.011-0.095,0.041-0.168-0.015-0.246C16.52,8.495,16.47,8.491,16.408,8.46c-0.069-0.035-0.149-0.007-0.185-0.077
			c-0.024-0.048,0.031-0.094,0-0.138c-0.032-0.047-0.086-0.025-0.138-0.046c-0.062-0.025-0.087-0.07-0.154-0.077
			c-0.075-0.007-0.109,0.072-0.185,0.061c-0.053-0.007-0.07-0.053-0.123-0.061c-0.088-0.015-0.129,0.056-0.215,0.077
			c-0.083,0.02-0.132,0.047-0.215,0.031c-0.066-0.013-0.09-0.057-0.154-0.077c-0.097-0.03-0.16-0.028-0.261-0.015
			c-0.09,0.011-0.137,0.077-0.217,0.079c-0.009,0-0.019,0-0.029-0.002c-0.051-0.008-0.109-0.014-0.143-0.04
			c-0.015-0.012-0.025-0.029-0.027-0.052c-0.005-0.06,0.054-0.077,0.092-0.123c0.079-0.094,0.193-0.098,0.231-0.215
			c0.024-0.074-0.011-0.123,0-0.2c0.01-0.068,0.021-0.106,0.046-0.169c0.027-0.07,0.072-0.097,0.092-0.169
			c0.012-0.043-0.001-0.083-0.011-0.121c-0.01-0.038-0.016-0.074,0.011-0.11c0.023-0.031,0.039-0.066,0.077-0.062
			c0.038,0.004,0.023,0.074,0.062,0.077c0.048,0.004,0.045-0.062,0.061-0.108c0.02-0.056,0.002-0.096,0.011-0.15
			c0.001-0.006,0.003-0.012,0.004-0.019c0.013-0.044,0.032-0.064,0.046-0.108c0.036-0.109-0.058-0.219,0.031-0.292
			c0.035-0.029,0.071-0.018,0.108-0.046c0.041-0.032,0.05-0.063,0.077-0.108c0.039-0.067,0.023-0.128,0.077-0.184
			c0.043-0.044,0.103-0.027,0.138-0.077c0.052-0.074,0.025-0.15-0.015-0.231c-0.025-0.049-0.042-0.085-0.092-0.108
			c-0.073-0.033-0.121,0.038-0.2,0.046c-0.096,0.009-0.155-0.045-0.246-0.015c-0.038,0.012-0.056,0.029-0.092,0.046
			c-0.053,0.025-0.083,0.042-0.138,0.062c-0.064,0.023-0.102,0.034-0.169,0.046c-0.048,0.009-0.075,0.009-0.123,0.016
			c-0.084,0.011-0.138-0.005-0.215,0.031c-0.054,0.026-0.086,0.045-0.123,0.092c-0.058,0.073-0.047,0.139-0.062,0.231
			c-0.013,0.083,0.018,0.138-0.015,0.215c-0.014,0.032-0.016,0.059-0.046,0.077c-0.031,0.018-0.058-0.012-0.092,0
			c-0.079,0.028-0.038,0.126-0.077,0.2c-0.026,0.05-0.047,0.075-0.077,0.123l0.002,0.004l0.013,0.027
			c-0.06-0.006-0.095-0.03-0.154-0.015c-0.047,0.012-0.081,0.021-0.108,0.062c-0.04,0.061,0.078,0.129,0.031,0.184
			c-0.043,0.05-0.11,0.044-0.169,0.015c-0.059-0.028-0.032-0.114-0.093-0.138c-0.039-0.015-0.066-0.006-0.108,0
			c-0.064,0.01-0.094,0.036-0.154,0.061c-0.054,0.023-0.082,0.044-0.138,0.061c-0.075,0.024-0.122,0.016-0.2,0.031
			c-0.077,0.015-0.121,0.034-0.2,0.046c-0.071,0.011-0.121,0.05-0.184,0.016c-0.041-0.023-0.044-0.059-0.077-0.093
			c-0.058-0.058-0.091-0.1-0.169-0.123c-0.064-0.018-0.107,0.023-0.169,0c-0.048-0.018-0.079-0.034-0.108-0.077
			c-0.013-0.02-0.019-0.039-0.021-0.058c-0.003-0.02-0.004-0.041-0.01-0.065c-0.013-0.054-0.026-0.083-0.031-0.138
			c-0.003-0.036,0.001-0.056,0-0.092c-0.003-0.06,0.004-0.097-0.016-0.154c-0.021-0.061-0.043-0.096-0.092-0.138
			c-0.037-0.032-0.073-0.028-0.108-0.061c-0.08-0.077-0.032-0.17-0.061-0.277c-0.021-0.079-0.039-0.121-0.061-0.2
			C11.322,5.55,11.295,5.498,11.287,5.4c-0.008-0.108,0.004-0.172,0.031-0.277c0.014-0.055,0.028-0.085,0.046-0.138l0.092-0.262
			l0.001-0.008c0.01-0.127-0.009-0.207,0.03-0.331c0.022-0.069,0.041-0.106,0.077-0.169c0.032-0.057,0.056-0.085,0.092-0.139
			c0.048-0.072,0.074-0.113,0.123-0.184c0.041-0.06,0.085-0.084,0.108-0.154c0.02-0.06,0.008-0.103,0.002-0.159
			c-0.001-0.013-0.002-0.026-0.002-0.041c-0.002-0.126,0.034-0.207-0.015-0.323c-0.019-0.045-0.044-0.067-0.067-0.105
			c-0.003-0.005-0.007-0.01-0.01-0.017c0.008-0.016,0.015-0.033,0.022-0.048c-0.014-0.005-0.03-0.008-0.046-0.011
			c-0.078-0.016-0.169-0.015-0.24-0.016c-0.004,0-0.009,0-0.013,0c-0.145-0.004-0.238-0.105-0.354-0.159
			c-0.014-0.006-0.027-0.012-0.042-0.017c0,0,0,0,0,0c-0.013-0.004-0.027-0.024-0.03-0.039c-0.012-0.058-0.036-0.113-0.056-0.17
			c-0.002-0.007-0.005-0.013-0.007-0.02c-0.001-0.003-0.002-0.007-0.003-0.01c-0.004-0.012-0.007-0.025-0.01-0.038
			c-0.011-0.048-0.013-0.099,0.003-0.153c0.01-0.035-0.004-0.088-0.026-0.12c-0.055-0.081-0.103-0.165-0.141-0.252
			c-0.025-0.058-0.047-0.118-0.062-0.18c-0.012-0.05-0.021-0.102-0.026-0.156c-0.003-0.042-0.014-0.082-0.028-0.119
			c-0.037-0.095-0.106-0.172-0.18-0.236c-0.063-0.054-0.177-0.048-0.268-0.068c-0.016-0.003-0.034,0-0.051,0
			c-0.084,0-0.153,0.026-0.21,0.073C9.997,1.383,9.969,1.413,9.947,1.453C9.939,1.466,9.93,1.48,9.922,1.493
			C9.905,1.521,9.886,1.549,9.866,1.575c-0.008,0.01-0.015,0.021-0.024,0.031C9.77,1.685,9.727,1.688,9.635,1.637
			C9.621,1.629,9.609,1.62,9.596,1.612c-0.011-0.007-0.021-0.014-0.032-0.02c-0.042-0.022-0.08-0.046-0.115-0.072
			c-0.1-0.073-0.171-0.164-0.19-0.284C9.25,1.185,9.25,1.13,9.261,1.068C9.277,0.977,9.255,0.896,9.157,0.85
			C9.155,0.849,9.153,0.847,9.151,0.846C9.139,0.841,9.127,0.832,9.116,0.822C9.1,0.808,9.085,0.791,9.072,0.773
			c-0.005-0.007-0.01-0.013-0.015-0.02c-0.073-0.098-0.141-0.2-0.216-0.296C8.837,0.453,8.834,0.448,8.83,0.443
			c0-0.001-0.001-0.001-0.002-0.002C8.814,0.424,8.79,0.411,8.765,0.403C8.762,0.402,8.758,0.401,8.754,0.4
			C8.746,0.398,8.738,0.397,8.73,0.397C8.51,0.395,8.29,0.4,8.074,0.403C8.055,0.471,8.039,0.529,8.022,0.588
			C8.02,0.594,8.019,0.6,8.017,0.606c-0.091,0.001-0.18,0-0.268,0c-0.113,0-0.225,0.001-0.335,0.011
			c-0.319,0.03-0.613-0.033-0.902-0.164C6.23,0.325,5.939,0.219,5.653,0.104c0-0.008,0.001-0.015,0.001-0.022
			c0.001-0.025,0.002-0.049,0.003-0.081c0,0,0,0,0,0C5.589,0.008,5.508,0.019,5.42,0.032c-0.155,0.022-0.332,0.05-0.496,0.075
			C4.842,0.12,4.762,0.131,4.691,0.141c0.013,0.019,0.027,0.039,0.046,0.06c0.045,0.05,0.075,0.075,0.123,0.123
			c0.024,0.024,0.044,0.032,0.061,0.061C4.952,0.438,4.935,0.48,4.936,0.54c0.001,0.043-0.004,0.076-0.008,0.109L4.921,0.694
			l0.002,0C4.922,0.708,4.921,0.723,4.921,0.74c0,0.133,0.025,0.207,0.046,0.339C4.983,1.181,4.987,1.24,5.013,1.34
			c0.019,0.073,0.049,0.11,0.061,0.185c0.013,0.077,0,0.122,0,0.2c0,0.072-0.025,0.117,0,0.185c0.021,0.056,0.056,0.075,0.092,0.123
			C5.203,2.08,5.213,2.117,5.259,2.155c0.027,0.022,0.054,0.02,0.077,0.046C5.38,2.251,5.319,2.312,5.351,2.37
			c0.027,0.048,0.077,0.047,0.108,0.092c0.032,0.047,0.062,0.084,0.046,0.138C5.497,2.629,5.48,2.641,5.462,2.659
			C5.456,2.664,5.45,2.67,5.444,2.678C5.409,2.72,5.399,2.757,5.351,2.785C5.309,2.81,5.278,2.811,5.228,2.816
			C5.163,2.823,5.125,2.792,5.059,2.801C5.016,2.807,4.977,2.796,4.952,2.831C4.916,2.882,4.989,2.922,5.028,2.97
			c0.044,0.053,0.1,0.051,0.138,0.108c0.032,0.048,0.004,0.1,0.046,0.138c0.045,0.041,0.099,0.003,0.154,0.031
			c0.042,0.022,0.048,0.061,0.092,0.077c0.063,0.022,0.103-0.019,0.169-0.031l0.231,0.215c0.03,0.03,0.054,0.041,0.077,0.077
			c0.039,0.062,0.032,0.111,0.031,0.184c0,0.048-0.007,0.076-0.016,0.123C5.942,3.94,5.921,3.966,5.92,4.016
			c0,0.062,0.022,0.096,0.046,0.154c0.016,0.037,0.032,0.055,0.046,0.092C6.032,4.313,6.012,4.355,6.044,4.4
			c0.032,0.045,0.082,0.037,0.123,0.077c0.05,0.049,0.041,0.106,0.092,0.154C6.304,4.673,6.37,4.652,6.397,4.707l0.003,0.008
			c0.016,0.039-0.002,0.07-0.003,0.115C6.395,4.903,6.345,4.953,6.382,5.015c0.026,0.045,0.056,0.072,0.108,0.077
			C6.543,5.097,6.564,5.054,6.612,5.03C6.66,5.006,6.7,5.009,6.735,4.969C6.769,4.93,6.782,4.897,6.782,4.846
			c0-0.056-0.035-0.082-0.058-0.131L6.72,4.707C6.68,4.613,6.695,4.539,6.628,4.461c-0.031-0.035-0.05-0.057-0.093-0.077
			C6.486,4.362,6.442,4.4,6.397,4.369C6.349,4.335,6.341,4.29,6.336,4.231C6.331,4.176,6.366,4.148,6.366,4.092
			c0-0.055-0.014-0.086-0.031-0.138c-0.022-0.069-0.06-0.099-0.077-0.169c-0.019-0.082,0-0.131,0-0.215c0-0.06,0.017-0.096,0-0.154
			C6.245,3.369,6.223,3.349,6.197,3.308C6.174,3.271,6.154,3.255,6.136,3.216C6.105,3.15,6.137,3.097,6.105,3.031
			C6.074,2.966,6.012,2.958,5.982,2.893c-0.038-0.082-0.009-0.141-0.015-0.23c0-0.001,0-0.003,0-0.004
			c-0.005-0.07,0.005-0.113-0.015-0.181C5.93,2.406,5.893,2.375,5.859,2.309C5.84,2.273,5.794,2.252,5.813,2.216
			c0.015-0.029,0.06-0.003,0.077-0.031c0.026-0.041-0.027-0.073-0.062-0.108C5.794,2.044,5.759,2.045,5.721,2.016
			c-0.048-0.035-0.08-0.055-0.108-0.108C5.587,1.86,5.59,1.825,5.582,1.77c-0.017-0.113-0.013-0.179,0-0.292
			c0.008-0.067,0.01-0.105,0.031-0.169c0.014-0.043,0.035-0.063,0.046-0.108c0.02-0.075-0.076-0.217,0-0.2
			c0.042,0.01,0.045,0.049,0.077,0.077c0.045,0.04,0.065,0.077,0.123,0.092C5.924,1.188,5.98,1.093,6.028,1.14
			c0.027,0.026,0.006,0.063,0.031,0.092c0.043,0.052,0.131-0.024,0.17,0.031c0.03,0.045,0,0.085,0,0.139c0,0.096-0.004,0.15,0,0.246
			c0.003,0.078,0.002,0.123,0.015,0.2c0.015,0.086,0.035,0.132,0.061,0.215C6.343,2.184,6.372,2.25,6.413,2.37
			c0.031,0.09,0.066,0.137,0.077,0.231c0.002,0.021-0.001,0.04-0.005,0.058C6.479,2.686,6.473,2.711,6.489,2.739
			C6.524,2.8,6.592,2.779,6.659,2.801c0.059,0.02,0.111,0,0.154,0.046c0.057,0.062-0.02,0.134,0,0.215
			C6.836,3.156,6.866,3.21,6.935,3.278C6.972,3.313,7,3.326,7.043,3.354C7.072,3.373,7.101,3.371,7.12,3.4
			c0.036,0.056-0.052,0.092-0.077,0.154C7.009,3.641,6.956,3.695,6.981,3.785C7.003,3.863,7.065,3.879,7.12,3.939
			C7.214,4.042,7.268,4.1,7.366,4.2c0.083,0.085,0.129,0.133,0.215,0.215C7.646,4.477,7.689,4.504,7.75,4.569
			c0.052,0.056,0.095,0.084,0.127,0.146l0.011,0.023c0.024,0.056,0.008,0.097,0.031,0.154c0.024,0.06,0.056,0.085,0.092,0.138
			c0.041,0.06,0.07,0.091,0.108,0.154c0.034,0.057,0.07,0.087,0.077,0.154C8.203,5.406,8.148,5.439,8.15,5.507
			c0.003,0.102,0.083,0.137,0.123,0.231c0.013,0.029,0.031,0.045,0.031,0.077c0,0.055-0.058,0.064-0.093,0.108
			C8.18,5.963,8.122,5.98,8.135,6.03c0.012,0.047,0.087,0.018,0.108,0.062c0.029,0.06-0.043,0.096-0.077,0.154
			C8.133,6.301,8.09,6.321,8.073,6.384C8.049,6.472,8.071,6.536,8.119,6.614c0.032,0.05,0.066,0.066,0.108,0.108h0.061
			c0.006,0.017,0.011,0.034,0.014,0.05c0.012,0.058,0.012,0.109,0.063,0.15C8.423,6.969,8.505,6.909,8.55,6.968
			c0.026,0.035,0.016,0.067,0.031,0.108C8.6,7.131,8.596,7.176,8.642,7.214c0.065,0.053,0.14-0.037,0.215,0
			C8.9,7.234,8.91,7.266,8.95,7.291c0.039,0.024,0.064,0.031,0.108,0.046c0.092,0.032,0.151,0.022,0.246,0.046
			c0.079,0.02,0.136,0.01,0.2,0.062c0.05,0.041,0.046,0.093,0.092,0.138C9.632,7.619,9.661,7.63,9.703,7.66
			c0.06,0.042,0.095,0.064,0.154,0.107c0.062,0.046,0.082,0.097,0.154,0.123c0.057,0.021,0.095,0.003,0.154,0.016
			c0.102,0.022,0.157,0.052,0.246,0.108c0.065,0.041,0.088,0.084,0.154,0.123c0.072,0.042,0.125,0.04,0.2,0.077
			c0.063,0.031,0.088,0.067,0.154,0.092c0.085,0.032,0.142,0.011,0.231,0.031c0.08,0.018,0.119,0.053,0.2,0.061
			c0.047,0.005,0.076,0.008,0.123,0c0.037-0.007,0.056-0.019,0.092-0.031c0.054-0.018,0.085-0.026,0.138-0.046
			c0.03-0.011,0.053-0.01,0.077-0.031c0.031-0.026,0.022-0.06,0.046-0.092c0.043-0.059,0.083-0.087,0.154-0.108
			c0.063-0.019,0.104-0.005,0.169,0c0.091,0.008,0.159-0.012,0.23,0.046c0.059,0.047,0.055,0.104,0.092,0.169
			c0.061,0.105,0.1,0.162,0.169,0.262c0.064,0.092,0.093,0.149,0.169,0.231l0.031,0.031c0.063,0.057,0.122,0.082,0.185,0.154
			c0.048,0.055,0.053,0.105,0.108,0.154c0.06,0.053,0.107,0.072,0.185,0.092c0.116,0.031,0.193-0.053,0.307-0.015
			c0.021,0.007,0.039,0.015,0.055,0.024c0.027,0.015,0.051,0.033,0.084,0.053c0.062,0.039,0.088,0.075,0.154,0.108
			c0.078,0.039,0.131,0.038,0.215,0.061l0.169,0.046c0.066,0.018,0.101,0.053,0.169,0.046c0.059-0.006,0.084-0.038,0.138-0.062
			c0.015-0.007,0.03-0.017,0.045-0.028c0.052-0.04,0.098-0.093,0.139-0.049c0.034,0.037-0.008,0.077-0.026,0.122
			c-0.006,0.015-0.009,0.031-0.005,0.047c0.011,0.047,0.033,0.068,0.062,0.107c0.035,0.048,0.067,0.064,0.108,0.108
			c0.064,0.069,0.092,0.114,0.154,0.185c0.053,0.061,0.089,0.09,0.138,0.154c0.058,0.075,0.112,0.119,0.141,0.196
			c0.005,0.015,0.01,0.032,0.013,0.05c0.01,0.053-0.011,0.086,0,0.138c0.01,0.045,0.037,0.063,0.046,0.108
			c0.017,0.084-0.09,0.142-0.046,0.215c0.029,0.048,0.078,0.042,0.123,0.077c0.061,0.047,0.062,0.132,0.138,0.138
			c0.051,0.005,0.095-0.003,0.123-0.046c0.034-0.051-0.062-0.101-0.031-0.154c0.044-0.073,0.097,0.095,0.138,0.169
			c0.032,0.056,0.011,0.113,0.061,0.154c0.048,0.038,0.104-0.005,0.154,0.031c0.068,0.048,0.061,0.118,0.077,0.2
			c0.017,0.089-0.049,0.156,0,0.231c0.053,0.08,0.138,0.051,0.231,0.029c0,0.001,0,0.001,0,0.001l0.013-0.004
			c0.031-0.007,0.063-0.012,0.095-0.011c0.12,0.002,0.195-0.041,0.308,0c0.066,0.023,0.109,0.038,0.153,0.092
			c0.048,0.058,0.003,0.136,0.062,0.184c0.056,0.047,0.129-0.017,0.185,0.031c0.044,0.039,0.017,0.099,0.061,0.138
			c0.076,0.068,0.181,0.047,0.261-0.015c0.041-0.032,0.075-0.056,0.077-0.108c0.003-0.06-0.058-0.074-0.092-0.123
			c-0.025-0.035-0.066-0.049-0.061-0.092c0.006-0.062,0.107-0.004,0.154-0.046c0.044-0.04,0.036-0.085,0.061-0.139
			c0.023-0.048,0.028-0.081,0.062-0.123c0.045-0.058,0.082-0.092,0.153-0.108c0.041-0.009,0.067-0.01,0.108,0
			c0.063,0.015,0.085,0.056,0.138,0.092c0.067,0.047,0.108,0.069,0.169,0.123c0.045,0.039,0.091,0.051,0.108,0.107
			c0.025,0.085-0.116,0.112-0.108,0.2c0.006,0.07,0.04,0.107,0.092,0.154c0.019,0.017,0.039,0.023,0.058,0.03l0.034-0.03
			c0.048-0.024,0.08-0.03,0.123-0.062c0.058-0.042,0.092-0.073,0.123-0.138c0.029-0.061,0.019-0.103,0.031-0.169v0
			c-0.012,0.066-0.002,0.108-0.031,0.169c-0.031,0.065-0.065,0.096-0.123,0.138c-0.043,0.032-0.075,0.037-0.123,0.062l-0.034,0.03
			c0.017,0.007,0.034,0.014,0.049,0.031c0.057,0.063-0.008,0.14,0.031,0.215c0.029,0.057,0.082,0.064,0.108,0.123
			c0.038,0.088-0.014,0.15-0.015,0.246c-0.002,0.126,0.013,0.197,0.015,0.323c0.002,0.084,0.038,0.14,0,0.215
			c-0.026,0.053-0.077,0.057-0.108,0.108c-0.05,0.081-0.025,0.15-0.028,0.239c0,0.012-0.001,0.025-0.003,0.038
			c-0.02,0.157-0.052,0.242-0.061,0.4c-0.007,0.108,0.072,0.197,0,0.277c-0.065,0.073-0.165-0.009-0.246,0.046
			c-0.1,0.068-0.124,0.157-0.139,0.277c-0.005,0.042,0.007,0.067,0,0.108l-0.015,0.076c0,0,0,0,0,0l0.015-0.077
			c-0.021,0.122-0.091,0.187-0.2,0.246c-0.091,0.05-0.194-0.033-0.261,0.046c-0.044,0.052-0.028,0.103-0.046,0.169
			c-0.029,0.102-0.005,0.183-0.077,0.261c-0.035,0.038-0.061,0.056-0.108,0.077c-0.05,0.023-0.089,0.006-0.138,0.031
			c-0.1,0.049-0.126,0.128-0.169,0.23c-0.04,0.096-0.038,0.158-0.046,0.261c-0.006,0.078-0.014,0.124,0,0.2
			c0.013,0.07,0.038,0.103,0.061,0.17c0.019,0.054,0.01,0.094,0.046,0.138c0.049,0.061,0.112,0.049,0.184,0.077
			c0.083,0.032,0.213-0.012,0.215,0.077c0.002,0.06-0.052,0.078-0.092,0.123c-0.022,0.025-0.042,0.044-0.062,0.061l-0.005,0.005
			c-0.027,0.022-0.054,0.043-0.087,0.074c-0.066,0.06-0.13,0.073-0.169,0.153c-0.021,0.045-0.013,0.077-0.031,0.123
			c-0.025,0.066-0.065,0.09-0.092,0.154c-0.025,0.058-0.063,0.093-0.046,0.154c0.016,0.057,0.087,0.052,0.108,0.107
			c0.021,0.057-0.019,0.094-0.015,0.154c0.004,0.074,0.042,0.11,0.046,0.185c0.004,0.079-0.057,0.126-0.031,0.2
			c0.029,0.08,0.094,0.098,0.169,0.138c0.067,0.036,0.111,0.044,0.185,0.062c0.077,0.018,0.135-0.014,0.2,0.031
			c0.084,0.058,0.052,0.152,0.092,0.246c0.076,0.18,0.116,0.287,0.231,0.446c0.069,0.097,0.145,0.125,0.2,0.231
			c0.035,0.068,0.028,0.116,0.062,0.185c0.021,0.043,0.047,0.073,0.074,0.1c0.043,0.043,0.09,0.079,0.126,0.146
			c0.072,0.132,0.053,0.229,0.108,0.369c0.046,0.118,0.086,0.178,0.138,0.292c0.055,0.119,0.072,0.194,0.138,0.308
			c0.071,0.122,0.139,0.173,0.215,0.292c0.052,0.082,0.081,0.129,0.123,0.215c0.042,0.087,0.049,0.144,0.092,0.231
			c0.027,0.055,0.053,0.082,0.077,0.139c0.048,0.112,0.005,0.199,0.061,0.307c0.043,0.083,0.095,0.112,0.154,0.184
			c0.073,0.089,0.106,0.147,0.185,0.231c0.079,0.084,0.127,0.127,0.215,0.2c0.075,0.063,0.121,0.095,0.2,0.154
			c0.083,0.061,0.119,0.118,0.215,0.154c0.074,0.028,0.127,0.002,0.2,0.031c0.1,0.037,0.124,0.112,0.215,0.167
			c0.106,0.064,0.184,0.063,0.292,0.123c0.075,0.042,0.107,0.085,0.185,0.123c0.063,0.031,0.118,0.013,0.169,0.062
			c0.075,0.072-0.01,0.175,0.046,0.262c0.051,0.079,0.118,0.101,0.198,0.127l0.064,0.012c0.03-0.054,0.049-0.083,0.077-0.138
			c0.026-0.053,0.024-0.093,0.061-0.138c0.041-0.05,0.087-0.053,0.138-0.092c0.085-0.064,0.129-0.105,0.2-0.185
			c0.001-0.001,0.002-0.002,0.002-0.003l0.003-0.003c-0.002,0.002-0.004,0.004-0.006,0.006c-0.071,0.079-0.115,0.121-0.2,0.185
			c-0.052,0.039-0.097,0.042-0.138,0.092c-0.038,0.045-0.035,0.085-0.061,0.138c-0.028,0.055-0.047,0.085-0.077,0.138l-0.064-0.012
			c0.025,0.008,0.052,0.016,0.079,0.027c0.059,0.022,0.109,0.002,0.154,0.046c0.056,0.056,0.01,0.124,0.031,0.2
			c0.024,0.088,0.062,0.129,0.092,0.215c0.044,0.128,0.058,0.204,0.077,0.338c0.024,0.172-0.023,0.277,0.015,0.446
			c0.014,0.061,0.038,0.092,0.046,0.154c0.017,0.127-0.035,0.197-0.061,0.323c-0.022,0.108-0.035,0.17-0.061,0.277
			c-0.022,0.091-0.073,0.138-0.061,0.231c0.009,0.072,0.055,0.1,0.077,0.169c0.018,0.059,0.022,0.094,0.031,0.154
			c0.013,0.089,0.012,0.14,0.015,0.23c0.004,0.108-0.039,0.176,0,0.277c0.023,0.06,0.083,0.074,0.092,0.138
			c0.009,0.062-0.037,0.092-0.046,0.154c-0.011,0.071-0.003,0.113,0,0.185c0.003,0.078,0.008,0.122,0.015,0.2
			c0.01,0.108,0.019,0.169,0.031,0.277c0.006,0.054,0.013,0.084,0.015,0.138c0.004,0.09-0.01,0.141-0.015,0.231
			c-0.007,0.108,0.035,0.181-0.015,0.277c-0.036,0.068-0.122,0.064-0.138,0.138c-0.011,0.047-0.003,0.078,0.015,0.123
			c0.021,0.051,0.07,0.057,0.092,0.107c0.032,0.071,0.004,0.122,0,0.2c-0.003,0.06,0.007,0.098-0.015,0.154
			c-0.022,0.056-0.072,0.066-0.092,0.123c-0.03,0.086,0.015,0.141,0.031,0.231c0.018,0.103,0.03,0.162,0.061,0.262
			c0.029,0.092,0.065,0.138,0.092,0.231c0.027,0.093,0.014,0.154,0.046,0.246c0.027,0.076,0.08,0.105,0.092,0.185
			c0.012,0.078-0.003,0.126-0.031,0.2c-0.024,0.066-0.067,0.088-0.092,0.154c-0.048,0.123-0.023,0.207-0.015,0.338
			c0.006,0.09,0.025,0.14,0.031,0.231c0,0.003,0,0.005,0,0.008c0.005,0.079,0.003,0.126,0,0.208
			c-0.005,0.12-0.033,0.187-0.031,0.307c0.001,0.072,0.02,0.112,0.015,0.185c-0.005,0.08-0.03,0.121-0.046,0.2
			c-0.022,0.107-0.075,0.171-0.046,0.277c0.02,0.075,0.072,0.1,0.108,0.169c0.047,0.091,0.073,0.146,0.092,0.246
			c0.021,0.112-0.022,0.18,0,0.292c0.015,0.074,0.071,0.109,0.062,0.184c-0.009,0.07-0.085,0.084-0.092,0.154
			c-0.008,0.078,0.059,0.109,0.077,0.185c0.015,0.064-0.001,0.105,0.016,0.169c0.018,0.07,0.046,0.104,0.077,0.169
			c0.035,0.073,0.039,0.124,0.092,0.185c0.031,0.035,0.047,0.066,0.092,0.077c0.065,0.015,0.087-0.077,0.154-0.077
			c0.051,0,0.085,0.012,0.123,0.046c0.049,0.043,0.02,0.104,0.062,0.154c0.033,0.039,0.075,0.037,0.108,0.077
			c0.025,0.031,0.039,0.053,0.046,0.092c0.011,0.062-0.05,0.091-0.046,0.154c0.003,0.051,0.045,0.072,0.046,0.123
			c0.002,0.065-0.052,0.09-0.061,0.154c-0.006,0.042-0.025,0.074,0,0.108c0.025,0.034,0.073,0.004,0.108,0.031
			c0.076,0.059-0.067,0.165-0.015,0.246c0.018,0.028,0.035,0.04,0.062,0.062c0.043,0.035,0.09,0.03,0.127,0.065l0.011,0.012
			c0.032,0.04,0.041,0.072,0.046,0.123c0.006,0.061-0.012,0.095-0.031,0.154c-0.014,0.043-0.029,0.065-0.046,0.108
			c-0.028,0.071-0.076,0.11-0.061,0.185c0.01,0.047,0.044,0.063,0.061,0.108c0.04,0.1,0.013,0.169,0.016,0.277
			c0.002,0.096,0.033,0.156,0,0.246c-0.022,0.061-0.096,0.074-0.092,0.138c0.003,0.06,0.061,0.072,0.092,0.123
			c0.028,0.046,0.018,0.092,0.061,0.123c0.054,0.038,0.106-0.02,0.169,0c0.054,0.017,0.118,0.021,0.123,0.077
			c0.005,0.06-0.088,0.043-0.123,0.092c-0.04,0.056-0.036,0.101-0.046,0.169c-0.011,0.072-0.037,0.127-0.015,0.187
			c0.003,0.009,0.008,0.019,0.015,0.029c0.025,0.04,0.056,0.047,0.092,0.077c0.049,0.041,0.091,0.052,0.123,0.107
			c0.042,0.073-0.013,0.136,0.016,0.216c0.013,0.038,0.018,0.064,0.046,0.092c0.029,0.028,0.062,0.02,0.092,0.046
			c0.064,0.054,0.038,0.126,0.077,0.2c0.031,0.057,0.04,0.1,0.092,0.138c0.041,0.03,0.081,0.017,0.123,0.046
			c0.06,0.042,0.057,0.101,0.108,0.154c0.047,0.05,0.104,0.049,0.138,0.108c0.028,0.048,0.014,0.086,0.031,0.138
			c0.018,0.056,0.027,0.09,0.061,0.138c0.029,0.042,0.042,0.084,0.092,0.092c0.056,0.009,0.071-0.054,0.123-0.077
			c0.078-0.035,0.129-0.049,0.215-0.046c0.042,0.001,0.066,0.007,0.108,0.015c0.067,0.013,0.107,0.017,0.169,0.046
			c0.074,0.034,0.164,0.042,0.169,0.123c0.004,0.065-0.033,0.112-0.092,0.138c-0.055,0.024-0.1,0.011-0.154-0.015
			c-0.073-0.036-0.048-0.136-0.123-0.169c-0.072-0.032-0.161-0.053-0.2,0.015c-0.016,0.026-0.017,0.046-0.016,0.077
			c0.003,0.065,0.042,0.098,0.092,0.138c0.05,0.041,0.152-0.003,0.154,0.062c0.002,0.068-0.164-0.022-0.169,0.046
			c-0.005,0.067,0.093,0.048,0.154,0.077c0.083,0.039,0.126,0.072,0.215,0.092c0.059,0.013,0.095,0.03,0.154,0.015
			c0.039-0.01,0.068-0.015,0.093-0.047v0c0.032-0.043-0.009-0.085,0-0.138c0.014-0.085,0.044-0.129,0.092-0.2
			c0.021-0.032,0.039-0.046,0.061-0.077c0.02-0.029,0.027-0.047,0.046-0.077c0.044-0.069,0.048-0.136,0.123-0.169
			c0.061-0.027,0.103,0,0.169,0c0.078,0,0.162,0.068,0.2,0l-0.185-0.092c-0.078-0.03-0.12-0.051-0.2-0.077
			c-0.123-0.04-0.203-0.127-0.323-0.077c-0.04,0.016-0.054,0.042-0.092,0.061c-0.156,0.079-0.291,0.064-0.446-0.015
			c-0.076-0.039-0.093-0.1-0.169-0.138c-0.051-0.026-0.101-0.004-0.138-0.046c-0.037-0.041-0.024-0.083-0.031-0.138
			c-0.011-0.083,0.047-0.146,0-0.215c-0.029-0.043-0.058-0.062-0.108-0.077c-0.046-0.014-0.075,0.002-0.123,0
			c-0.078-0.002-0.149,0.044-0.2-0.015c-0.047-0.055,0.047-0.13,0-0.185c-0.051-0.059-0.138,0.033-0.2-0.016
			c-0.065-0.05-0.033-0.124-0.062-0.199c-0.026-0.068-0.086-0.098-0.077-0.169c0-0.005,0.002-0.009,0.003-0.013
			c0.003-0.01,0.011-0.015,0.016-0.023c-0.008,0.01-0.017,0.02-0.019,0.036c-0.009,0.071,0.051,0.101,0.077,0.169
			c0.029,0.076-0.003,0.15,0.062,0.199c0.061,0.048,0.149-0.044,0.2,0.016c0.047,0.055-0.047,0.13,0,0.185
			c0.051,0.059,0.122,0.013,0.2,0.015c0.048,0.002,0.077-0.014,0.123,0c0.049,0.015,0.079,0.034,0.108,0.077
			c0.047,0.069-0.011,0.132,0,0.215c0.007,0.055-0.006,0.097,0.031,0.138c0.038,0.043,0.087,0.02,0.138,0.046
			c0.076,0.038,0.093,0.099,0.169,0.138c0.155,0.08,0.29,0.094,0.446,0.015c0.039-0.019,0.052-0.045,0.092-0.061
			c0.119-0.05,0.2,0.037,0.323,0.077c0.08,0.026,0.122,0.047,0.2,0.077l0.185,0.092c0.036-0.063-0.019-0.125-0.077-0.169
			c-0.058-0.045-0.155,0.036-0.185-0.031c-0.015-0.033,0.009-0.057,0-0.092c-0.016-0.062-0.072-0.071-0.108-0.123
			c-0.027-0.04-0.044-0.062-0.061-0.108c-0.044-0.112-0.045-0.196,0-0.307c0.021-0.053,0.035-0.085,0.077-0.123
			c0.036-0.033,0.077-0.024,0.108-0.062c0.043-0.052,0.027-0.102,0.031-0.169c0.005-0.078-0.017-0.122-0.016-0.2
			c0.001-0.066-0.012-0.109,0.016-0.169c0.023-0.05,0.053-0.069,0.092-0.108c0.054-0.054,0.092-0.077,0.154-0.123
			c0.059-0.044,0.113-0.047,0.154-0.108c0.057-0.085,0.042-0.163,0.015-0.261c-0.012-0.045-0.014-0.075-0.046-0.108
			c-0.04-0.041-0.082-0.037-0.138-0.046c-0.059-0.01-0.096,0.017-0.154,0c-0.046-0.014-0.068-0.034-0.108-0.061
			c-0.067-0.045-0.085-0.096-0.154-0.138c-0.034-0.021-0.058-0.025-0.092-0.046c-0.054-0.034-0.088-0.054-0.123-0.108
			c-0.043-0.067-0.045-0.12-0.046-0.2c0-0.067-0.001-0.11,0.031-0.169c0.043-0.079,0.105-0.096,0.185-0.138
			c0.084-0.045,0.185,0.005,0.231-0.077c0.026-0.048,0.003-0.086,0.015-0.138c0.003-0.014,0.008-0.027,0.014-0.038
			c0.018-0.039,0.044-0.066,0.048-0.115c0.007-0.081-0.065-0.119-0.061-0.2c0.002-0.05,0.026-0.074,0.031-0.123
			c0.007-0.066-0.055-0.116-0.016-0.169c0.034-0.045,0.119,0.008,0.138-0.046c0.02-0.057-0.062-0.072-0.092-0.123
			c-0.021-0.034-0.048-0.052-0.046-0.092c0.004-0.073,0.166-0.005,0.169-0.077c0.002-0.04-0.016-0.066-0.046-0.092
			c-0.046-0.039-0.095-0.005-0.154-0.015c-0.049-0.009-0.091,0.006-0.123-0.031c-0.032-0.037-0.013-0.075-0.016-0.123
			c-0.003-0.054,0.025-0.091,0-0.138c-0.024-0.046-0.066-0.046-0.108-0.077c-0.055-0.041-0.114-0.044-0.138-0.108
			c-0.024-0.063-0.014-0.119,0.031-0.169c0.06-0.067,0.142-0.033,0.231-0.015c0.1,0.019,0.132,0.098,0.23,0.123
			c0.064,0.016,0.103,0.012,0.169,0.015c0.072,0.003,0.113,0.011,0.184,0c0.075-0.012,0.141,0,0.185-0.061
			c0.022-0.031,0.025-0.055,0.031-0.092c0.008-0.054-0.009-0.084-0.015-0.138l-0.031,0.031c-0.018-0.114-0.04-0.177-0.046-0.292
			c-0.006-0.115-0.029-0.187,0.015-0.292c0.025-0.06,0.036-0.107,0.093-0.138c0.074-0.041,0.132,0.013,0.215,0.031
			c0.067,0.014,0.101,0.048,0.169,0.046c0.07-0.003,0.102-0.042,0.169-0.062c0.082-0.024,0.133-0.022,0.216-0.046
			c0.098-0.028,0.147-0.065,0.246-0.092c0.1-0.027,0.171,0.005,0.262-0.046c0.12-0.068,0.131-0.173,0.2-0.292
			c0.047-0.081,0.07-0.129,0.108-0.215c0.031-0.072,0.072-0.111,0.077-0.185c0-0.005,0-0.011,0-0.015
			c-0.001-0.063-0.02-0.097-0.046-0.154c-0.038-0.082-0.086-0.112-0.138-0.185c-0.043-0.059-0.088-0.083-0.108-0.154
			c-0.016-0.058,0.015-0.096,0-0.154c-0.013-0.052-0.043-0.072-0.061-0.123c-0.017-0.047,0-0.084-0.031-0.123
			c-0.059-0.075-0.156,0.031-0.246,0c-0.085-0.029-0.134-0.064-0.184-0.138c-0.043-0.063-0.076-0.11-0.062-0.185
			c0.01-0.047,0.017-0.089,0.061-0.107h0c0.057-0.024,0.09,0.038,0.138,0.077c0.033,0.027,0.039,0.058,0.077,0.077
			c0.043,0.022,0.075,0.007,0.123,0.015c0.054,0.009,0.084,0.019,0.138,0.031l0.2,0.092c0.054,0.042,0.072,0.092,0.138,0.108
			c0.072,0.017,0.115-0.019,0.185-0.046c0.05-0.02,0.069-0.062,0.123-0.062c0.046,0,0.067,0.026,0.108,0.046
			c0.043,0.021,0.06,0.054,0.108,0.062c0.094,0.015,0.119-0.09,0.2-0.138c0.053-0.032,0.089-0.039,0.138-0.077
			c0.064-0.049,0.112-0.077,0.138-0.154c0.021-0.062-0.019-0.106,0-0.169c0.028-0.094,0.113-0.105,0.169-0.185
			c0.035-0.049,0.059-0.09,0.08-0.132l-0.034,0.01c-0.12-0.055-0.222-0.039-0.308-0.139c-0.003-0.004-0.004-0.007-0.007-0.011
			c0.003,0.004,0.004,0.007,0.007,0.011c0.085,0.1,0.188,0.084,0.308,0.138l0.034-0.01c0.021-0.043,0.038-0.087,0.058-0.144
			c0.033-0.093,0.028-0.153,0.061-0.246c0.029-0.081,0.024-0.148,0.092-0.2c0.054-0.041,0.122,0.004,0.169-0.046
			c0.035-0.037,0.021-0.079,0.046-0.123c0.042-0.074,0.113-0.08,0.154-0.154c0.044-0.081,0.026-0.141,0.046-0.231
			c0.022-0.096,0.031-0.152,0.062-0.246c0.026-0.079,0.041-0.125,0.077-0.2c0.049-0.102,0.095-0.149,0.154-0.246
			c0.036-0.06,0.055-0.094,0.092-0.153c0.064-0.103,0.13-0.147,0.169-0.262c0.05-0.148,0-0.244,0-0.4c0-0.066,0.015-0.105,0-0.169
			c-0.019-0.081-0.081-0.105-0.107-0.184c-0.048-0.143-0.053-0.251,0.015-0.385c0.027-0.053,0.053-0.078,0.092-0.123
			c0.05-0.058,0.081-0.088,0.138-0.138c0.051-0.045,0.084-0.066,0.138-0.108c0.054-0.042,0.09-0.06,0.138-0.108
			c0.064-0.063,0.068-0.129,0.138-0.185c0.067-0.053,0.118-0.068,0.2-0.092c0.098-0.029,0.169,0.014,0.262-0.031
			c0.08-0.039,0.1-0.097,0.169-0.154l0.023-0.019c0.04-0.032,0.069-0.054,0.115-0.089c0.059-0.043,0.087-0.077,0.154-0.108
			c0.062-0.029,0.102-0.034,0.169-0.046c0.136-0.025,0.216,0.008,0.354,0c0.114-0.007,0.204,0.043,0.292-0.031
			c0.039-0.033,0.048-0.065,0.077-0.108c0.025-0.036,0.036-0.058,0.062-0.092c0.043-0.058,0.068-0.091,0.123-0.138
			c0.049-0.043,0.098-0.042,0.138-0.092c0.061-0.077,0.031-0.15,0.046-0.246c0.015-0.096-0.037-0.177,0.031-0.246
			c0.041-0.043,0.093-0.024,0.138-0.062c0.04-0.033,0.057-0.06,0.077-0.107c0.035-0.083-0.044-0.152,0-0.231
			c0.025-0.045,0.052-0.061,0.092-0.092c0.049-0.038,0.094-0.035,0.139-0.077c0.13-0.124-0.006-0.281,0-0.461
			c0.003-0.114-0.039-0.192,0.015-0.292c0.036-0.067,0.113-0.066,0.138-0.138c0.031-0.086-0.042-0.139-0.046-0.231
			c-0.004-0.078-0.019-0.129,0.016-0.2c0.024-0.05,0.067-0.059,0.092-0.108c0.064-0.123-0.033-0.215-0.046-0.354
			c-0.008-0.084-0.007-0.131-0.016-0.215c-0.009-0.09-0.011-0.142-0.031-0.231c-0.018-0.08-0.064-0.119-0.062-0.2
			c0.002-0.07,0.052-0.104,0.071-0.162c0.004-0.012,0.006-0.024,0.006-0.038c0.002-0.082-0.064-0.119-0.061-0.2
			c0.003-0.091,0.026-0.152,0.092-0.215c0.044-0.043,0.082-0.052,0.138-0.077c0.052-0.023,0.093-0.012,0.138-0.046
			c0.064-0.048,0.046-0.119,0.092-0.185c0.027-0.038,0.051-0.053,0.077-0.092c0.051-0.075,0.055-0.132,0.092-0.215
			c0.051-0.115,0.083-0.179,0.138-0.292c0.024-0.048,0.016-0.094,0.061-0.123c0.036-0.023,0.069,0.001,0.108-0.016
			c0.075-0.032,0.075-0.103,0.123-0.169c0.066-0.09,0.1-0.143,0.169-0.231c0.063-0.08,0.103-0.122,0.169-0.2
			c0.036-0.042,0.068-0.058,0.092-0.108c0.034-0.071,0.01-0.122,0.015-0.2c0.007-0.096-0.003-0.152,0.015-0.246
			c0.016-0.08,0.04-0.121,0.062-0.2c0.029-0.107,0.072-0.167,0.061-0.277C35.667,18.566,35.626,18.524,35.599,18.439z"/>
		<polygon fill="#231F20" points="4.691,0.141 4.691,0.141 4.691,0.141 		"/>
		<path fill="#231F20" d="M16.515,5.553c0.049-0.004,0.088,0.005,0.123-0.031c0.043-0.043-0.031-0.116,0.016-0.154
			c0.042-0.034,0.084,0.004,0.138,0c0.086-0.007,0.154,0.013,0.215-0.046c0.038-0.037,0.023-0.085,0.061-0.123
			c0.042-0.042,0.083-0.042,0.138-0.062c0.075-0.027,0.12-0.056,0.2-0.046c0.072,0.009,0.186,0.007,0.169,0.077
			c-0.013,0.057-0.128,0.003-0.139,0.061c-0.009,0.051,0.033,0.08,0.077,0.108c0.051,0.032,0.095,0,0.154,0.015
			c0.057,0.015,0.082,0.046,0.139,0.061c0.064,0.017,0.103,0.012,0.169,0.015c0.096,0.005,0.245-0.096,0.246,0
			c0.001,0.072-0.153,0.053-0.138,0.123c0.015,0.069,0.101,0.046,0.169,0.062c0.094,0.022,0.152-0.005,0.246,0.015
			c0.087,0.018,0.166,0.003,0.215,0.077c0.04,0.06-0.002,0.114,0.016,0.184c0.012,0.05,0.014,0.083,0.046,0.123
			c0.042,0.052,0.105,0.031,0.154,0.077c0.058,0.055,0.029,0.134,0.092,0.185c0.032,0.025,0.055,0.032,0.093,0.046
			c0.068,0.026,0.111,0.027,0.184,0.031c0.103,0.005,0.159-0.025,0.261-0.031c0.102-0.006,0.16,0.004,0.262,0
			c0.084-0.003,0.131-0.018,0.215-0.016c0.091,0.003,0.162,0.09,0.231,0.031c0.052-0.045,0.065-0.104,0.046-0.169
			c-0.015-0.053-0.048-0.075-0.092-0.108c-0.066-0.048-0.12-0.047-0.2-0.061c-0.065-0.012-0.128,0.036-0.169-0.015
			c-0.031-0.038,0.014-0.085-0.016-0.123c-0.031-0.041-0.079-0.02-0.123-0.046c-0.048-0.028-0.053-0.087-0.108-0.092
			c-0.046-0.004-0.062,0.05-0.108,0.046c-0.052-0.004-0.064-0.05-0.108-0.077c-0.062-0.037-0.106-0.041-0.169-0.077
			c-0.071-0.041-0.102-0.076-0.169-0.123c-0.071-0.049-0.113-0.074-0.185-0.123c-0.061-0.041-0.085-0.082-0.154-0.108
			c-0.073-0.027-0.124,0.006-0.2-0.015c-0.057-0.016-0.103-0.014-0.138-0.061C18.34,5.136,18.39,5.083,18.361,5.03
			c-0.045-0.08-0.127-0.071-0.215-0.092c-0.093-0.023-0.15-0.008-0.246-0.015c-0.12-0.009-0.187-0.021-0.307-0.031
			c-0.084-0.007-0.132-0.025-0.215-0.016c-0.068,0.008-0.102,0.034-0.169,0.046c-0.106,0.02-0.172-0.01-0.277,0.015
			c-0.138,0.034-0.214,0.078-0.323,0.169c-0.046,0.038-0.075,0.058-0.108,0.108c-0.036,0.053-0.036,0.094-0.062,0.154
			c-0.028,0.067-0.121,0.112-0.077,0.169C16.398,5.586,16.456,5.559,16.515,5.553z"/>
		<path fill="#231F20" d="M17.146,5.446c-0.061-0.027-0.107-0.007-0.169,0.015c-0.046,0.016-0.078,0.023-0.108,0.061
			C16.84,5.561,16.818,5.6,16.838,5.645c0.019,0.044,0.062,0.046,0.108,0.062c0.051,0.017,0.084,0.021,0.138,0.015
			c0.064-0.007,0.123-0.005,0.154-0.061c0.023-0.042,0.018-0.079,0-0.123C17.219,5.491,17.193,5.466,17.146,5.446z"/>
		<path fill="#231F20" d="M19.237,7.091c-0.065-0.011-0.104-0.006-0.169-0.015c-0.085-0.012-0.13-0.043-0.215-0.046
			c-0.066-0.002-0.135-0.042-0.169,0.015c-0.021,0.036-0.012,0.068,0,0.108c0.02,0.065,0.081,0.07,0.123,0.123
			c0.027,0.034,0.023,0.073,0.061,0.092c0.043,0.022,0.076-0.006,0.123-0.015C19.065,7.337,19.1,7.3,19.176,7.291
			c0.072-0.008,0.115,0.035,0.184,0.015c0.047-0.013,0.095-0.015,0.108-0.061c0.013-0.047-0.026-0.075-0.061-0.108
			C19.355,7.092,19.304,7.103,19.237,7.091z"/>
		<path fill="#231F20" d="M20.175,7.122c0.032,0.04,0.073,0.035,0.123,0.046c0.07,0.015,0.113-0.002,0.185,0
			c0.084,0.003,0.135-0.01,0.215,0.015c0.051,0.016,0.071,0.048,0.123,0.062c0.081,0.021,0.131-0.013,0.215-0.016
			c0.06-0.002,0.104-0.033,0.154,0c0.045,0.03,0.021,0.088,0.061,0.123c0.034,0.03,0.062,0.039,0.108,0.046
			c0.048,0.007,0.084,0.013,0.123-0.016c0.046-0.034,0.02-0.088,0.046-0.138c0.032-0.061,0.042-0.118,0.108-0.138
			c0.034-0.011,0.057-0.007,0.092,0c0.053,0.01,0.07,0.052,0.123,0.061c0.053,0.009,0.1,0.024,0.138-0.016
			c0.027-0.027,0.002-0.068,0.031-0.092c0.028-0.023,0.056-0.016,0.092-0.016c0.08,0.003,0.111,0.059,0.185,0.093
			c0.042,0.019,0.062,0.044,0.108,0.046c0.051,0.002,0.099-0.001,0.123-0.046c0.017-0.032-0.013-0.058,0-0.093
			c0.015-0.04,0.061-0.038,0.077-0.077c0.016-0.039,0.016-0.068,0-0.108c-0.024-0.06-0.076-0.072-0.138-0.093
			c-0.069-0.022-0.12,0.032-0.185,0c-0.045-0.023-0.054-0.058-0.092-0.092c-0.071-0.063-0.116-0.095-0.2-0.138
			c-0.074-0.038-0.13-0.032-0.2-0.077c-0.046-0.03-0.056-0.072-0.108-0.092c-0.067-0.026-0.112,0.012-0.184,0.015
			c-0.078,0.003-0.122,0.007-0.2,0c-0.073-0.006-0.111-0.029-0.184-0.031c-0.06-0.001-0.094,0.009-0.154,0.016
			c-0.12,0.012-0.204-0.03-0.307,0.031c-0.04,0.024-0.076,0.033-0.092,0.077c-0.033,0.088,0.13,0.068,0.215,0.108
			c0.053,0.025,0.124,0.004,0.138,0.061c0.011,0.044-0.028,0.066-0.046,0.108c0.018,0.036,0.006,0.063,0.031,0.092
			c0.022,0.027,0.061,0.015,0.077,0.046C21,6.939,20.96,6.987,20.913,7.014c-0.042,0.024-0.075,0.004-0.123,0
			c-0.086-0.006-0.131-0.029-0.215-0.046c-0.096-0.019-0.149-0.056-0.246-0.046c-0.062,0.007-0.117-0.005-0.154,0.046
			C20.14,7.017,20.138,7.074,20.175,7.122z"/>
		<polygon fill="#231F20" points="23.543,7.291 23.487,7.287 23.481,7.291 		"/>
		<path fill="#231F20" d="M23.066,7.229c0.037,0.033,0.074,0.022,0.123,0.031c0.053,0.01,0.084,0.01,0.138,0.016
			c0.063,0.006,0.106,0.008,0.159,0.011c0.044-0.028,0.069-0.049,0.117-0.073c0.046-0.022,0.111,0.004,0.123-0.046
			c0.01-0.039-0.02-0.062-0.046-0.092c-0.061-0.071-0.139-0.042-0.23-0.062c-0.071-0.015-0.112-0.024-0.185-0.031
			c-0.084-0.008-0.159-0.063-0.215,0c-0.037,0.041-0.037,0.083-0.031,0.138C23.026,7.167,23.032,7.199,23.066,7.229z"/>
	</g>
</g>
<g id="region-mid-east">
	<g id="_x5F_results-icon-box_20_">
	</g>
</g>
<g id="region-north-amer">
	<g id="_x5F_results-icon-box">
	</g>
</g>
<g id="region-oceania">
	<g id="_x5F_results-icon-box_18_">
	</g>
</g>
<g id="region-oceania_1_">
</g>
<g id="region-oceania_2_">
</g>
</svg>
