<?xml version="1.0" encoding="utf-8"?>
<!-- Generator: Adobe Illustrator 18.1.1, SVG Export Plug-In . SVG Version: 6.00 Build 0)  -->
<!DOCTYPE svg PUBLIC "-//W3C//DTD SVG 1.1//EN" "http://www.w3.org/Graphics/SVG/1.1/DTD/svg11.dtd">
<svg version="1.1" id="Layer_1" xmlns="http://www.w3.org/2000/svg" xmlns:xlink="http://www.w3.org/1999/xlink" x="0px" y="0px"
	 viewBox="0 0 5544 2880" enable-background="new 0 0 5544 2880" xml:space="preserve">
<g id="arrow-gray_x5F_down">
</g>
<g id="arrow-gray_x5F_left">
	<g id="arrow-gray_x5F_right_2_">
		<g id="arrow-gray_x5F_down_3_">
		</g>
	</g>
</g>
<g id="arrow-gray_x5F_right">
	<g id="arrow-gray_x5F_down_2_">
	</g>
</g>
<g id="arrow-gray_x5F_up">
	<g id="arrow-gray_x5F_left_1_">
		<g id="arrow-gray_x5F_right_1_">
			<g id="arrow-gray_x5F_down_1_">
			</g>
		</g>
	</g>
</g>
<g id="check-gray">
</g>
<g id="x-gray">
</g>
<g id="favicon">
	<g id="logo-color-large">
	</g>
</g>
<g id="login-account">
</g>
<g id="login-password">
</g>
<g id="tick">
</g>
<g id="social-fb_2">
</g>
<g id="social-linked_2">
</g>
<g id="social-twitter_2">
</g>
<g id="industry-aerospace">
</g>
<g id="industry-construction">
</g>
<g id="industry-employment">
</g>
<g id="industry-energy">
	<g id="_x5F_results-icon-box_48_">
	</g>
</g>
<g id="industry-entertainment">
	<g id="_x5F_results-icon-box_47_">
	</g>
</g>
<g id="industry-finance">
	<g id="_x5F_results-icon-box_46_">
	</g>
</g>
<g id="industry-franchise-agreements">
	<g id="_x5F_results-icon-box_45_">
	</g>
</g>
<g id="industry-healthcare">
	<g id="_x5F_results-icon-box_44_">
	</g>
</g>
<g id="industry-hospitality">
	<g id="_x5F_results-icon-box_43_">
	</g>
</g>
<g id="industry-insurance-reinsurance">
	<g id="_x5F_results-icon-box_42_">
	</g>
</g>
<g id="industry-intellectual-property">
	<g id="_x5F_results-icon-box_41_">
	</g>
</g>
<g id="industry-licensing-agreements">
	<g id="_x5F_results-icon-box_40_">
	</g>
</g>
<g id="industry-mass-claims-appeals">
	<g id="_x5F_results-icon-box_39_">
	</g>
</g>
<g id="industry-mergers-aquisitions">
	<g id="_x5F_results-icon-box_38_">
	</g>
</g>
<g id="industry-oil-gas">
	<g id="_x5F_results-icon-box_37_">
	</g>
</g>
<g id="industry-other">
	<g id="_x5F_results-icon-box_36_">
	</g>
</g>
<g id="industry-partnerships">
	<g id="_x5F_results-icon-box_35_">
	</g>
</g>
<g id="industry-pharmaceuticals">
	<g id="_x5F_results-icon-box_34_">
	</g>
</g>
<g id="industry-securities-investments">
	<g id="_x5F_results-icon-box_33_">
	</g>
</g>
<g id="industry-technology">
	<g id="_x5F_results-icon-box_32_">
	</g>
</g>
<g id="industry-telecommunications">
	<g id="_x5F_results-icon-box_31_">
	</g>
</g>
<g id="region-africa">
	<g id="_x5F_results-icon-box_30_">
	</g>
</g>
<g id="region-asia">
	<g id="_x5F_results-icon-box_29_">
	</g>
</g>
<g id="region-europe">
	<g id="_x5F_results-icon-box_28_">
	</g>
</g>
<g id="region-latin-amer">
	<g id="_x5F_results-icon-box_27_">
	</g>
</g>
<g id="region-mid-east">
	<g id="_x5F_results-icon-box_20_">
	</g>
</g>
<g id="region-north-amer">
	<g id="_x5F_results-icon-box">
	</g>
	<g>
		<path fill="#231F20" d="M3349.9,1535.1c-3.6,0.5-8.2,5.2-9.2,1.7c-0.6-2,0.7-3.2,1.7-5c1.4-2.7,3.8-3.1,5-5.9
			c1.2-2.7,2.3-5,0.9-7.5c-1.1-2.1-4.5-1.1-5-3.3c-0.5-2.1,1.6-3,2.6-5c1.5-3.2,3.3-4.9,3.3-8.4c0.1-2.7-0.6-4.3-1.7-6.7
			c-0.8-1.8-1.2-2.8-2.5-4.2c-1.6-1.8-2.7-3.5-5-3.4c-2.8,0.1-2.3,5.6-5,5c-1.8-0.4-1.5-3.2-3.3-3.3c-2.3-0.3-2.3,2.9-4.2,4.2
			c-3.1,2.1-5.9,4.1-9.2,2.6c-2.8-1.3-3.2-3.8-4.2-6.7c-1-2.9,1.6-5.9-0.9-7.6c-1.1-0.8-2.1-0.6-3.3-0.9c-3.3-0.5-7,3.8-8.4,0.9
			c-0.9-1.8,0.1-3.2,0.9-5c1.6-4.1,5.2-4.5,8.4-7.6c3.5-3.4,4.7-6,8.4-9.2c3.6-3,8.9-2.1,10.1-6.7c0.7-2.6,0.9-4.7-0.9-6.7
			c-2.6-3-6.2,0.1-10.1,0.9c-3.7,0.6-5.8,1.1-9.2,2.6c-4.6,1.9-6.9,3.7-10.9,6.7c-3.1,2.4-4.9,3.8-7.6,6.7c-2.2,2.4-3,4.2-5,6.7
			c-4.1,5-7.5,6.9-11.8,11.8c-3.5,4-5.1,6.7-8.4,10.9c-3.3,4.3-4.2,7.6-8.4,10.9c-3.5,2.7-6.2,3-10.1,5c-2,1-3.5,0.9-5,2.6
			c-2.1,2.3-1,4.6-1.7,7.6c-0.6,2.6-0.4,4.3-1.7,6.7c-3,5.4-12.1,0.9-14.2,6.7c-1.5,4-1.5,8,1.7,10.9c2.7,2.5,5.6,1.9,9.2,1.7
			c5-0.4,6.8-4.6,11.8-5c4.7-0.4,7.3,1.1,11.8,2.6c3.3,1.1,4.9,2.8,8.4,3.3c4.2,0.7,6.8,0.4,10.9-0.9c3.5-1.1,4.9-3.2,8.4-4.2
			c3.8-1.1,6.3-1.9,10.1-0.9c2.6,0.7,5.7,0.7,5.9,3.4c0.2,1.9-1.3,2.7-2.6,4.2c-1.4,1.8-2.3,3-4.2,4.2c-2.8,1.7-7.2-1.4-8.4,1.7
			c-1.1,2.9,1.8,4.7,4.2,6.7c3.8,3.1,8.1,3.7,12.6,1.7c3.6-1.6,4.4-4.4,6.7-7.6c2.3-3,2.1-6,5-8.4c2.7-2.3,5.2-1.7,8.4-3.3
			c1.7-0.9,2.3-2.8,4.2-2.6c3,0.4,1.8,4.8,0.9,7.6c-1,2.6-3.7,2.6-5,5c-1.1,2.1-2.3,3.5-1.7,5.9c0.7,2.5,2.9,2.8,5,4.2
			c2.1,1.4,3.3,2.6,5.9,3.3c4.7,1.5,10.3,2.8,12.5-1.7c0.8-1.5,0.2-2.6,0.9-4.2c1.3-3.7,4.4-4.4,6.7-7.5c2.3-3.1,3.7-4.8,5-8.4
			c1.3-3.4,4-6.4,1.7-9.2C3357.5,1531.2,3353.8,1534.6,3349.9,1535.1z"/>
		<path fill="#231F20" d="M4201.4,814.4c-2-1.8-4.1-1.1-6.7-1.7c-5.5-1.1-8.9-0.3-14.2-1.7l-1.1-0.3c-3-1-4.8-2.3-8.1-3
			c-6.1-1.4-9.7-1.3-15.9-0.9c-4.3,0.3-6.7,0.6-10.9,1.7c-2.3,0.6-4.2,1.3-5.9,2.2c-2.3,1.1-4.4,2.2-7.5,2.8
			c-5.5,1.1-8.7,0.1-14.2,0.9c-4,0.5-6.1,1.6-10.1,1.7c-3.3,0.1-5.5-2.6-8.4-0.9c-2.1,1.2-1.8,3.3-3.3,5c-5.3,5.7-12,2.3-19.3,5
			c-4.4,1.7-6.3,4.3-10.9,5c-3.9,0.6-9,3-10.1-0.9c-0.9-3.4,3.2-4.5,5.9-6.7c3.7-2.9,7.8-1.5,10.9-5c1.9-2.2,4.3-3.9,3.3-6.7
			l-0.1-0.3c-1.1-2.6-4.5-0.8-7.9,0l-2.1,0.3c-5.2,0.1-8.2,0.6-13.4,0.9c-5.2,0.1-8.3,0.9-13.5,0c-2.5-0.4-5.2,0.6-6.4-1.1
			c-0.1-0.1-0.2-0.4-0.3-0.5c-1-2.4,1.5-4,3.4-5.9c4.3-4,9.2-0.5,15.1-0.9c5.6-0.3,8.7-0.7,14.2-0.9c5.6-0.1,9.3,2.5,14.2,0
			c2.7-1.3,5.7-2.1,5.9-5c0.4-4.1-6-2.4-10.1-3.3c-6.1-1.5-9.7-0.8-15.9-1.7c-5.6-0.8-8.7-1.6-14.2-2.6c-5.6-1-8.9-1.1-14.2-2.6
			c-4.7-1.3-7-3-11.8-4.2c-3.5-0.9-5.6-1.6-9.3-1.7c-6-0.2-9.1,2.8-15.1,3.3c-7.9,0.7-12.3-1.5-20.1-1.7c-8.2-0.2-12.8,0.1-21,0.9
			c-6.9,0.6-10.9,0.9-17.6,2.6c-5,1.3-7.4,3.8-12.6,4.2c-6.4,0.4-9.6-3.4-15.9-4.2c-8.1-1.1-12.8,0.2-21,0.9
			c-6.5,0.5-10.2,1.6-16.8,1.7c-5.2,0.1-8.4-2.1-13.5-0.9c-4.4,1.1-5.5,6-10.1,5.9c-3.6-0.1-4.8-3.6-8.4-4.2
			c-3.3-0.6-5.2,0.2-8.4,0.9c-2.6,0.5-4,1.3-6.7,1.7c-5.2,0.6-8.1-2.3-13.4-1.7c-5.5,0.6-8.6,2.1-13.5,5c-3.6,2.1-4.3,6.3-8.4,6.7
			c-4.5,0.5-5.8-4.4-10.1-5.9c-4.7-1.6-7.9-3.5-12.5-1.7c-3.9,1.5-4.4,4.8-7.6,7.6c-3.7,3.3-5.2,7.6-10.1,7.6
			c-4.3-0.1-5.5-3.9-9.2-5.9c-3.8-2-6-3.2-10.1-4.2c-4.5-1.1-8.1-3.7-11.8-0.9c-2.3,1.8-1.7,4.3-3.3,6.7c-1.3,1.8-2.3,3.4-3.6,4.7
			c-1.3,1.3-2.7,2.3-4.7,2.8c-4.5,1.3-7.5-0.6-11.8-2.6l-0.6-0.3c-3.1-1.9-4-6.2-7.8-5.5c-3,0.5-2.9,4.6-5.9,5
			c-4.1,0.6-4.7-4.7-8.4-6.7c-3-1.8-4.9-2.9-8.4-3.3c-3.3-0.4-5.1,0.6-8.4,0.9c-5.5,0.5-8.7,0.5-14.2,0.9c-8.2,0.6-12.8,1.1-21,1.7
			c-6.2,0.4-9.8-0.3-15.9,0.9c-5.4,1-8.3,2.3-13.4,4.2c-2.1,0.8-3.7,1.5-5.2,2.2l-4.8,2c-6.4,2.3-10.6,2.1-16.8,5
			c-3.5,1.6-4.8,3.7-8.4,5c-7.7,2.9-12.8-0.7-21-0.9c-6.2-0.1-9.7-0.2-15.9,0c-5.2,0.2-8.2,0.3-13.4,0.9c-7.3,0.9-11.4,1.3-18.5,3.3
			c-6.1,1.8-13.7-0.3-15.1,5.9c-0.6,2.6,0.1,4.2,0.9,6.7c0.1,0.4,0.3,0.7,0.5,1.1c1.8,2.9,6.4,4.4,4.5,7.4c-1.3,2.1-3.5,1.6-5.9,2.6
			c-9.9,3.6-16.3,2.5-26.9,3.3c-5.5,0.5-8.7,0.3-14.2,0.9c-6.9,0.6-10.8,1.6-17.6,2.6c-9.1,1.3-14.3,2.1-23.5,3.3
			c-7.2,1-11.5,0.5-18.5,2.6c-4.4,1.3-9.2-0.1-10.9,4.2c-1.4,3.5,0,6.5,2.6,9.2c4,4.3,9.2-0.5,15.1,0c4.6,0.4,7.2,2.1,11.8,1.7
			c3.8-0.4,5.5-2,9.2-2.5c4.5-0.7,7.2-0.9,11.8,0c3,0.6,4.5,2,7.6,2.5c4.8,0.9,7.7-1.5,12.6-0.9c2.7,0.4,4.5,0.1,6.7,1.7
			c4.7,3.5-8.6,3.5-14.2,5c-4.8,1.3-7.8,1.1-12.6,2.6c-4.4,1.3-6.4,3.8-10.9,4.2c-4.7,0.4-7.2-1.4-11.8-2.6c-5-1.2-7.5-3.9-12.6-3.3
			c-5,0.5-11.5,0.8-11.8,5.9c-0.1,2.9,0.6,5.6,3.3,6.7c2.1,0.9,3.5-0.6,5.9-0.9c4.5-0.4,10.6-4.5,11.8,0c0.2,0.8,0.1,1.5-0.1,2.1
			c-0.4,1.2-1.3,2.3-1.6,3.8c-0.4,2.6-1.6,4.7,0,6.7c1.8,2.3,4.6,0.6,7.6,0.9c5.5,0.5,9,2.6,14.2,0.9c3.8-1.3,4.5-4.7,8.4-5.9
			c3.5-1.1,5.7-0.6,9.2,0c2.3,0.4,4.3-0.1,5.9,1.7c1.2,1.3,0.2,3.2,1.7,4.2c2.3,1.7,6.7-0.4,6.7-3.3c0,0,4.2-8.8,7.6-6.7
			c1.9,1.1,0.9,3.6,2.6,5c2.3,1.9,4.6,1.1,7.6,0.9c2.3-0.3,3.7-0.7,5.9-1.7c3.4-1.6,4.1-4.9,7.1-6.3c0.4-0.1,0.8-0.4,1.3-0.4
			c1.9-0.4,3.5-1.3,5,0c0.1,0.1,0.3,0.3,0.4,0.4c1,1.7-3,4-2.1,6.3c1.6,4,6.7,0,10.9,0c3.6,0,5.7-0.4,9.2,0c5,0.6,8.2,0.7,12.6,3.3
			c2.2,1.3,2.8,2.9,5,4.2c3.3,1.8,5.9,0.9,9.2,2.5c1.7,0.9,3,1,4.2,2.6c2,2.6-2.1,5.9,0,8.4c2,2.3,4.7,0.7,7.6,1.7
			c1.7,0.6,2.8,0.6,4.2,1.7c3.1,2.5,0.6,6.2,1.7,10.1c1,3.7,2.7,5.5,3.3,9.2c0.6,3.5,0.4,5.7,0,9.2c-0.6,5.7-2.9,8.6-4.2,14.2
			c-0.8,3.5-0.4,5.8-1.7,9.2c-1.8,4.5-5.7,5.5-7.6,10.1c-0.9,2.2-1.4,3.5-1.7,5.9c-0.3,2.9-1.5,5.7,0.9,7.6c2.7,2.1,5-1.8,8.4-2.6
			c3.2-0.6,5.2,0,8.4-0.9c4.3-1.1,6-6.7,10.1-5c2.1,0.9,2.4,2.7,4.2,4.2c3.3,2.8,5.8,3.3,9.2,5.9c3.1,2.4,6.5,2.9,7.6,6.7
			c0.2,0.6,0.3,1.1,0.4,1.7c0.1,1.1,0.1,2.1-0.4,3.3c-1.1,3.3-4,5.6-7.6,5c-1.9-0.3-2.6-1.6-4.2-2.6c-4.6-2.6-7.4-4-12.6-5
			c-3.2-0.7-5.1-0.6-8.4-0.9c-4.3-0.2-8.6-3.6-10.9,0c-1.1,1.7-1.4,3.1-0.9,5c1.1,3.9,6.2,1.3,10.1,2.5c4.3,1.3,6.7,2.4,10.9,4.2
			c5.7,2.4,9.3,3.2,14.2,6.7c2.8,2,5.1,2.8,6.7,5.9c2.3,4.4,1.1,8.1-0.9,12.5c-1.6,3.9-2.9,6.7-6.7,8.4c-4.8,2.2-8.1-2.1-13.4-2.6
			c-3.3-0.2-5.2-0.6-8.4,0c-2.8,0.5-4.3,1.1-6.7,2.6c-4.2,2.5-4.2,6.7-8.4,9.2c-2.4,1.4-4.2,1.3-6.7,2.6c-3.2,1.6-5,2.6-7.5,5
			c-3.8,3.5-6.9,5.7-7.6,10.9c-0.5,4.4,0,8,3.3,10.9c2.3,2,6.5-0.4,7.6,2.5c1.3,3.7-6.2,1.6-9.2,4.2c-4,3.5-7.4,7.4-5.9,12.6
			c0.8,2.7,2.5,3.7,4.2,5.9c2.5,3.2,6,4.2,7.7,7.2c0.4,0.6,0.6,1.3,0.8,2.1c0.6,2.9-0.4,4.6-0.9,7.6c-0.7,5-1.8,7.7-2.6,12.5
			c-0.6,4.3-1.5,6.7-0.9,10.9c0.7,5,1.9,7.9,5,11.8c2.1,2.8,3.8,4,6.7,5.9c1.8,1.2,4.2,0.5,5,2.6c1,2.4-2.8,3.3-3.3,5.9
			c-0.7,3.3,0.4,5.3,1.6,8.4c1.8,4.3,4.6,5.6,7.6,9.2l-0.9,0.9c1.3,3,2.3,4.5,3.3,7.6c0.9,2.6,0.2,4.5,1.7,6.7c2.2,3.5,5.2,4,9.2,5
			c4.4,1.2,7.2,0.1,11.8,0c4.9-0.1,8.6,2,12.6-0.9c2.1-1.5,1.7-4.5,4.2-5c3.2-0.8,4,3.3,6.7,5c4,2.6,8.4,1.7,10.9,5.9
			c1.6,2.6,0.6,4.7,1.7,7.6c1,2.8,0.5,6,3.3,6.7c3.2,0.8,2.9-4.5,5.9-5.9c2.4-1.1,4-0.9,6.7-0.9c3.7,0,5.6,2,9.2,1.6
			c3.1-0.3,5.2-0.4,7.6-2.6c2.2-1.9,1.6-4.4,3.3-6.7c2.5-3.3,5.6-3.6,8.4-6.7c1.9-2.1,2.7-3.5,4.3-5.9c1.8-2.8,1.9-5,4.2-7.6
			c2.4-2.6,5.7-2,7.5-5c2.2-3.6,0.8-6.7,0-10.9c-0.4-2.3-2.1-3.5-1.7-5.9c0.5-3.2,2.6-5.8,5.9-5.9c2.8-0.1,3,4.4,5.9,4.2
			c3.3-0.3,3.3-3.9,5-6.7c1.1-1.9,1.2-3.3,2.6-5c3.6-4.7,9.7-1.3,14.2-5c2.9-2.4,5.8-3.8,5.9-7.6c0.1-2.9-0.9-5.1-3.3-6.7
			c-2.2-1.5-6.1,1.7-6.7-0.9c-0.6-2.5,2.7-3.2,5-4.2c3.3-1.4,5.7,0,9.2,0l-1.7-7.6c-0.4-2.6-1.8-4.3-0.9-6.7c1.6-4.5,7-3.7,11.8-3.3
			c1.7,0.1,2.6,1.2,4.2,0.9c2.6-0.6,2.1-3.5,3.8-5.5l0.4-0.4c4.7-4.1,9.7-1.6,15.9-2.6c5.2-0.7,8.5,0.1,13.4-1.7
			c3.2-1.2,5.5-1.6,7.6-4.2c2.4-3.2-1.5-7.7,1.7-10.1c2.4-1.8,5.3-2.8,7.6-0.9c2.5,2.1-3.3,6.2-0.9,8.4c2.3,2,4.6-0.8,7.6-0.9
			c3.9-0.1,6.2,1.1,10.1,0.9c2.3-0.1,4.4,0.9,5.9-0.9s-1-3.8,0-5.9c2-4.1,7.2-0.1,11.8-0.9c4.3-0.6,6.9-0.8,10.9-2.5
			c4.7-2,7.1-4.1,10.9-7.6c4.2-3.8,5.3-6.9,9.2-10.9c3.1-3.1,4.9-4.9,8.4-7.5c3.4-2.6,5.3-4.2,9.2-5.9c4-1.7,8.8,1.3,10.9-2.6
			c1.6-2.9-1.6-5.2-0.9-8.4c0.4-1.7,0.4-3,1.7-4.2c2.9-2.7,5.1,3.6,8.4,5.9c2.9,2,4,4.5,7.5,5c3.8,0.6,5.6-2.3,9.2-3.4
			c5.8-1.8,9.1-3.3,15.1-3.3c3.3-0.1,5.1,1.1,8.4,0.9c4.1-0.4,6-2.4,10.1-3.3c7-1.7,11.5,0.3,18.4-1.7c6.7-1.8,9.8-4.4,15.9-7.6
			c3.6-1.8,5.5-3.3,9.2-5c6.5-3,10.8-3.3,17.6-5.9c5.7-2.1,8.6-3.9,14.2-5.9c5.5-1.9,8.8-2.3,14.2-4.2c3.3-1.2,5.5-1.5,8.4-3.3
			c1.8-1.1,4.2-1.3,4.2-3.3c0-2.1-2.4-2.3-4.2-3.3c-5.4-3.1-9.7-1.1-15.9-0.9c-5.6,0.2-8.7,1.2-14.2,1.7c-7.2,0.6-11.3,0.7-18.4,0.9
			c-3.3,0.1-5.2-0.6-8.4,0c-2.8,0.6-4.3,1.1-6.7,2.6c-1.8,1.1-2.1,2.9-4.2,3.3c-2.8,0.6-6.7-0.4-6.7-3.3c0-2.3,2.4-2.8,4.2-4.2
			c3.2-2.6,5.4-3.7,9.3-5c3.5-1.2,5.6-1,9.2-1.7c3.6-0.6,6.4,0.6,9.2-1.7c0.4-0.3,0.6-0.6,0.9-0.9c1.8-2.1,1.9-4.5,2.5-7.6
			c0.5-2.9-2.1-5.5,0-7.6c1.8-1.9,4-1,6.7-0.9c4.1,0.2,7.2,0.4,10.1,3.3c2.1,2.1,1.8,4.2,3.3,6.7c1.3,2.3,2,4.3,3.5,5.9
			c0.6,0.6,1.4,1.3,2.4,1.7c3.3,1.4,5.7,0,9.2-0.9c0.9-0.2,1.5-0.5,2.1-0.9c0.9-0.4,1.7-0.9,2.9-0.9c1,0,1.7,0.4,2.3,0.9
			c1.4,1.1,2.3,2.8,4.3,3.3c3.5,1.1,6.2,2,9.2,0c1.5-1,2.9-1.8,3.3-3.3c0.1-0.3,0.1-0.6,0.1-0.9c0-2.1-2.9-2.1-3.3-4.2
			c-0.6-2.3,1.5-3.5,1.7-5.9c0.2-2.6,1.3-5.1-0.9-6.7c-2.6-2-4.6,4.6-7.6,3.3c-3.3-1.4,0.2-6.1-1.7-9.2c-1.2-2-2.1-3.2-4.2-4.2
			c-3.3-1.6-5.7,1.5-9.2,0.9c-3.6-0.7-5.7-1.7-8.4-4.2c-1.6-1.4-2.1-2.5-3.3-4.2c-1.8-2.5-3.1-3.8-4.2-6.7c-1.5-4-4.5-8.6-0.9-10.9
			c3.2-2.1,5.5,2.2,9.2,3.3c3.5,1.1,5.7,1.3,9.2,2.6c4.7,1.6,6.9,4,11.8,5c5.7,1.3,15.4,5.9,15.1,0c-0.1-2.6-3-3.3-3.3-5.9
			c-0.5-4.4,3.3-6.4,6.7-9.2c5-4.1,9.6-3.7,15.9-5c5.8-1.2,9.8,1,15.1-1.6c2.6-1.2,3.5-2.8,5.9-4.2c3.7-2.1,10.1,0.1,10.1-4.2
			c0-1.8-1-2.6-1.7-4.2l-0.9,0.9c-0.4-2.3-2.5-4.3-0.9-5.9c1.4-1.3,3,0,5,0c2.3,0,3.6-0.3,5.9,0c2.7,0.3,4,1.5,6.7,1.7
			c3.6,0.2,6.4,0.7,9.2-1.7c2.2-1.9,3.8-3.8,3.3-6.7c-0.7-4.2-6-3.2-10.1-4.2c-1.9-0.5-3.5,0.4-5-0.9c-2.1-1.6-3.4-4.6-1.7-6.7
			c1.4-1.8,4.3,0.9,5.9-0.9c1.8-1.9,0-4.1,0-6.7c0-3.4-1.7-6-0.2-8.8l0.2-0.4c2.3-3.8,9.6,0.9,10.9-3.3c0.7-2.2,0.3-3.8-0.9-5.9
			c-2.5-4.7-8.2-1.5-13.4-2.5c-3.3-0.6-6.7,1.2-8.4-1.7c-2.3-3.8,5.7-3.9,9.2-6.7c2.7-2.2,4.2-3.5,6.7-5.9c2.7-2.6,3.8-4.4,6.7-6.7
			c3.5-2.8,10.5-1.3,10.1-5.9c-0.2-2.3-1.9-3.2-3.3-5c-2.3-2.9-6.8-3-6.7-6.7c0.1-2.8,1.5-5.1,4.2-5.9c1.3-0.4,2.1-0.1,3.4,0
			c2.5,0.4,3.4,2.9,5.9,2.5c2.1-0.3,2.4-2.2,3.1-4c0.4-1.1,0.9-2.1,1.9-2.7c4.1-2.7,8.2,1.4,12.6-0.9c3.3-1.7,3-6,6.7-6.7
			c3-0.6,4.5,2.3,7.6,2.6c3.8,0.2,6-0.7,9.2-2.6c3.6-2.1,3.6-6.2,7.6-7.6c3-1.1,5.1,0.3,8.4,0c4.7-0.4,7.3-1.1,11.8-2.5
			C4194.4,818,4205.1,817.9,4201.4,814.4z"/>
		<path fill="#231F20" d="M3511,1043.4c3.1,3.4,7.1,1.7,11.8,1.7c3-0.1,4.6-0.3,7.6-0.9c3.7-0.6,5.5-2.1,9.2-2.6
			c5.2-0.7,10.6,5.2,13.4,0.9c1.8-2.8,1.7-5.6,0-8.4c-2.1-3.5-6.2-1.9-10.1-3.3c-4-1.5-6.1-2.7-10.1-4.2c-3.5-1.4-5.5-4.3-9.2-3.3
			c-1.8,0.5-2.6,1.6-4.2,2.6c-4.1,2.3-9.3,0.6-10.9,5c-0.8,2.1-0.4,3.6,0,5.9C3508.9,1039.5,3509.1,1041.5,3511,1043.4z"/>
		<path fill="#231F20" d="M3032.7,1204.6L3032.7,1204.6c0-0.6,0-1.1,0-1.7V1204.6z"/>
		<path fill="#231F20" d="M2605.2,914.3c3.3-0.1,5.2-0.4,8.4,0c3.4,0.5,5,2.2,8.4,2.6c3.3,0.3,5.2,0.1,8.4-0.9
			c3.2-1,4.6-2.6,7.5-4.2c3-1.6,4.2-4,7.6-4.2c2.4-0.1,3.5,1.6,5.9,1.7c2,0.1,3.1-0.4,5-0.9c3.8-0.9,5.5-2.6,9.2-3.3
			c3.2-0.7,5.7-2.8,8.4-0.9c1.6,1.1,1,3,2.6,4.2c3.5,2.6,6.2-3,10.1-5c3-1.6,4.3-3.2,7.6-4.2c4.4-1.3,7.4,1.3,11.8,0
			c3.6-1.1,5.1-3,8.4-5c3.3-2,4.6-4.5,8.4-5c2.6-0.4,4.6,2.4,6.7,0.9c1.9-1.4,2.3-3.5,1.7-5.9c-0.7-2.5-2.7-3.2-5-4.2
			c-4.5-2-7.9,0.1-12.6,1.7c-2.3,0.8-3.5,1.9-5.9,2.6c-3.8,1-6.2-0.4-10.1,0c-4.3,0.4-6.6,1.8-10.9,2.6c-3.5,0.6-5.9,2.3-9.2,0.9
			c-2.6-1.1-2.6-3.8-5-5c-2.4-1.1-4.2-1.6-6.7-0.9c-3.5,1.1-2.8,5.5-5.9,7.6c-3.3,2.3-6.2,1.6-10.1,2.6s-6.3,1.1-10.1,2.6
			c-2.7,1.1-4,2.4-6.7,3.3c-3.5,1.2-5.7,0.6-9.2,1.7c-3.4,1-5,2.6-8.4,3.3c-3.8,0.9-6.3-0.4-10.1,0.9c-4,1.3-8.6,1.6-9.2,5.9
			c-0.4,2.3-0.2,4.4,1.6,5.9C2599.9,917,2602.2,914.4,2605.2,914.3z"/>
		<path fill="#231F20" d="M2454.2,996.5l0.9,5.9c0.6,2.3,0.2,4,1.7,5.9c3.2,4.2,8.2,0.9,13.4,0c3.7-0.6,5.7-1.2,9.2-2.6
			c3.4-1.3,4.8-3.3,8.4-4.2c3.8-0.9,6.2,0,10.1,0c3.3,0,5.2,0.7,8.4,0c6-1.3,7.6-5.7,12.5-9.2c3.3-2.3,4.6-4.6,8.4-5.9
			c4.3-1.5,7.3,1.1,11.8,0c4.7-1.1,6.8-3.3,10.9-5.9c3.4-2.1,4.7-4.2,8.4-5.9c4.8-2.2,8.1-1.6,13.4-2.6c5.9-1.1,9.4-1,15.1-2.5
			c4.7-1.3,7-3,11.8-4.2c3.8-1,6.1-1.2,10.1-1.7c4.3-0.5,6.7-0.2,10.9-0.9c4.3-0.6,6.7-1.6,10.9-2.6l-1.7-0.9c2-0.6,4.4,0.3,5-1.7
			c0.4-1.3-0.3-2.1-0.9-3.3c-1.4-3-4-3.1-6.7-5c-2.9-2.1-4.3-3.7-7.6-5c-2.8-1.1-4.5-1.6-7.5-1.7c-4.5-0.1-6.6,2.2-10.9,3.4
			c-4.3,1.1-6.6,2.6-10.9,2.5c-4-0.1-6.4-0.7-10.1-2.5c-2.9-1.5-3.7-3.8-6.7-5s-5.1-0.6-8.4-0.9c-6.2-0.5-9.7-0.7-15.9-0.9
			c-6.5-0.1-10.3-0.7-16.8,0c-4,0.4-6.7-0.4-10.1,1.7c-2,1.2-2.8,2.3-4.2,4.2c-2.8,3.9,0.3,8.6-3.3,11.8c-1.9,1.6-3.5,1.6-5.9,2.6
			c-3.2,1.2-5.2,1.3-8.4,2.6c-5.5,2.1-8.2,4-13.4,6.7c-3.6,1.9-5.7,3-9.2,5c-3.7,2.2-5.5,3.9-9.2,5.9c-3.8,2-6,2.9-10.1,4.2
			c-4,1.3-9.5-1.6-10.9,2.5c-0.7,2.2-0.3,3.8,0.9,5.9C2449,995,2451.5,994.8,2454.2,996.5z"/>
		<path fill="#231F20" d="M2753.7,1039.3c2-2,3.1-3.7,5.9-4.2c2.6-0.5,4,1.5,6.7,1.7c3,0.2,4.6-0.6,7.5-0.9c3-0.1,5.2,1.7,7.6,0
			c2.3-1.6,4.1-4.4,2.6-6.7c-1.1-1.7-3.1-0.9-5-1.7c-4.1-1.6-6.2-3-10.1-5c-3.6-1.9-5.1-5-9.2-5c-2.4,0-3.5,2.3-5.9,1.7
			c-2.1-0.6-3-2.2-3.3-4.2c-0.3-1.6-0.1-3.3,0-5c0.4-3.3,1.7-5.2,4.2-7.6c2.1-2,5.2-0.9,6.7-3.3c1.6-2.5-0.4-4.6,0-7.5
			c0.4-3.7,1.5-5.6,2.6-9.2c0.6-2.3,1.6-3.5,1.6-5.9c0.1-2,0-3.3-0.9-5c-1.1-2.6-2.6-3.7-5-5c-3.8-2.1-6.7-0.7-10.9-0.9
			c-3.6-0.1-5.9-1.3-9.2,0c-1.8,0.6-2.8,1.3-4.2,2.6c-2.3,2.1-2.1,4.4-4.2,6.7c-1.7,1.9-4,1.8-5,4.2c-0.9,2.1,0.3,3.6,0,5.9
			c-0.6,4.2-1.1,7.2-4.2,10.1c-2.3,2.2-4.3,3.3-7.5,3.3c-3.1,0.1-6,0.1-7.6-2.6c-2.1-3.5,3.4-5.5,5-9.2c1.1-2.6,3-4,2.5-6.7
			c-0.6-3.4-3.8-4-6.7-5.9c-2.7-1.7-4.3-3.7-7.6-3.3c-2.2,0.2-3.2,1.3-5,2.6c-2.3,1.6-2.6,3.8-5,5c-3.3,1.6-5.6,0-9.2,0
			s-6.4,2.3-9.2,0c-1.5-1.2-1.2-2.8-2.6-4.2c-1.8-1.9-3.3-2.7-5.9-3.3c-2.2-0.6-3.6-0.5-5.9,0c-3.4,0.8-4.4,3.4-7.6,5
			c-2.2,1.1-3.5,1.8-5.9,2.6c-3.5,1-6.4,3.2-9.2,0.9c-3.8-3.3,10.4-7.6,6.7-10.9c-1.3-1.2-2.5-1.3-4.2-1.7
			c-4.4-0.9-6.7,2.1-10.9,3.3c-4.5,1.3-7.1,2.3-11.8,3.3c-5.5,1.3-8.7,1.4-14.2,2.6c-6,1.2-9.2,2.1-15.1,3.3
			c-4.9,1-7.9,0.9-12.6,2.5c-3.8,1.3-5.7,2.5-9.2,4.2c-4,1.9-6,3.3-10.1,5c-3.5,1.5-6.9,0.3-9.2,3.3c-1.2,1.7-2.2,3-1.7,5
			c0.9,3.3,5.2,0.7,8.4,1.7c3.8,1.2,7,0.9,9.2,4.2c1.3,2,3,3.9,1.6,5.9c-1.4,2.2-4.1,0.1-6.7,0c-3-0.1-4.6-0.9-7.6-0.9
			c-3.3,0.1-5.2,0.9-8.4,1.7c-3.3,0.9-7-0.6-8.4,2.5c-0.1,0.3-0.2,0.6-0.3,0.9c-0.6,2.2,0.3,4.2,2,5.9c2.3,2.3,5.1,0.8,8.4,0.9
			c4,0.1,6.2-0.7,10.1-0.9c3-0.1,4.6,0.2,7.6,0c2.3-0.2,3.5-0.6,5.9-0.9c4.9-0.6,7.7-0.7,12.5-0.9c3.3-0.1,5.1,0.1,8.4,0
			c4.6-0.1,7.2-0.7,11.8-0.9c3.3-0.1,5.2-0.8,8.4,0c3.2,0.8,6.1,1.2,7.6,4.2c1.1,2.3,1.3,4.5,0,6.7c-1.8,3.3-5.5,2.2-9.2,2.6
			c-5,0.5-7.7-1.3-12.6-1.7c-5.5-0.4-8.7,0-14.2,0c-6.5,0-10.2-0.1-16.8,0c-6.2,0.1-9.7,0.7-15.9,0.9c-4.5,0.1-7.2-0.6-11.8,0
			c-3,0.4-5.2-0.2-7.6,1.7c-2.1,1.6-3.6,3.3-3.3,5.9c0.3,2.8,2.6,3.6,5,5c3.4,2,6.1,1.3,10.1,1.7c3.9,0.3,6.2,0.1,10.1,0
			c5-0.1,7.7-1.1,12.6-0.9c3,0.1,5.7-1.5,7.6,0.9c2.1,2.7-0.6,5.5-2.5,8.4c-1.7,2.5-5.8,2.1-5.9,5c-0.1,3.3,3.7,3.8,6.7,5
			c3.3,1.3,5.6,0.6,9.2,0.9c3.9,0.2,6.2,0.6,10.1,0c4.1-0.6,6.1-2.3,10.1-3.3c4.5-1.3,7.2-1.7,11.8-2.6c4.3-0.8,6.7-0.7,10.9-1.7
			c5-1.2,7.4-3.4,12.6-4.2c5.1-0.9,8.2,0.1,13.4,0c4.9-0.1,7.7-0.4,12.6-0.9c3.3-0.3,5.2-0.3,8.4-0.9c4.7-0.8,7.4-1.3,11.8-3.3
			c2.8-1.3,3.7-3.7,6.7-4.2c4.7-0.8,7.2,2.8,10.9,5.9c2.1,1.8,2.6,3.6,5,5c4.7,2.9,8.7,0.9,14.2,0.9c5.2,0,8.2-0.3,13.5-0.9
			c6.6-0.6,10.3-1.3,16.8-2.6c4.6-0.9,11.7,2.2,11.8-2.6c0-2.8-4.6-3.1-4.2-5.9C2750.6,1041.4,2752.2,1040.8,2753.7,1039.3z"/>
		<path fill="#231F20" d="M2768.1,881.5c2.5,1.6,4.6-0.4,7.5-0.9c1.6-0.3,2.6-0.4,4.2-0.9c3.1-0.9,5-1.5,7.6-3.3
			c2.3-1.6,4.4-2.3,5-5c1.2-5.1-8.2-1-13.4-0.9c-3.6,0.1-6.1-0.9-9.2,0.9c-2,1.1-3.7,1.9-4.2,4.2
			C2765.1,878.1,2766.1,880.1,2768.1,881.5z"/>
		<path fill="#231F20" d="M2784.1,882.8L2784.1,882.8c-0.2,1.8,0.4,3,1.7,4.2c2.1,1.6,4.1-0.4,6.7-0.9c3.6-0.6,5.5-1.6,9.2-1.7
			c3.3-0.1,5.1,1.1,8.4,0.9c3.7-0.3,5.9-0.9,9.2-2.6c2.6-1.3,3.3-3,5.9-4.2c4.2-1.8,11.1,3.7,11.8-0.9c0.4-2.5-0.6-4.3-2.6-5.9
			c-1.8-1.6-3.5-1.5-5.9-1.7c-4.5-0.4-6.5,2.6-10.9,3.3c-3.5,0.6-5.6,0.6-9.2,0.9c-4.6,0.2-7.4-1.3-11.8,0c-3.3,1-4.8,2.3-7.6,4.2
			C2787.1,880,2784.4,880.3,2784.1,882.8z"/>
		<path fill="#231F20" d="M2817.7,870.2c2.2,0.4,3-1.8,5-2.6c3.4-1.3,5.6-1.8,9.2-1.7c3,0.1,4.5,1.2,7.6,1.7
			c4.5,0.7,7.3,1.9,11.8,0.9c2.4-0.6,4.5-0.4,5.9-2.6c1.9-2.8,0.7-6-1.7-8.4c-2.3-2.3-5.1-1.3-8.4-1.7c-4.3-0.5-6.7,0.1-10.9,0
			c-4.3-0.1-7-2.6-10.9-0.9c-2.3,1.1-3,2.6-5,4.2c-2.2,1.7-5.2,1.5-5.9,4.2C2813.6,866.3,2814.8,869.7,2817.7,870.2z"/>
		<path fill="#231F20" d="M2723.5,905.8c-3.7-0.6-5.5-2.1-9.2-2.6c-4.3-0.4-6.7,0.1-10.9,0.9c-3.7,0.6-5.9,0.9-9.2,2.5
			c-2.6,1.3-3.3,3.1-5.9,4.2c-3.3,1.3-5.8-0.4-9.2,0.9c-4.4,1.6-4.7,6.5-9.2,7.5c-3.2,0.7-5.2-1.3-8.4-0.9c-3.9,0.6-5.7,2.5-9.2,4.2
			c-2,1-3.5,0.9-5,2.6c-2.1,2.2-3,4.8-1.7,7.6c2.1,4.3,7-3.5,11.8-3.3c3,0.1,5,3.3,7.6,1.7c1.6-1.1,1.1-2.9,2.6-4.2
			c3.1-2.9,6.7-1.1,10.9-0.9c2.3,0.1,3.5,0.9,5.9,0.9c3.7-0.1,5.5-2.4,9.2-2.6c4-0.1,9.8-1.5,10.1,2.6c0.2,3-2.4,4.3-5,5.9
			c-3.7,2.2-6.7,0.7-10.9,0.9c-2.6,0.1-4.6-1.5-6.7,0c-1.8,1.3-2.8,2.8-2.6,5c0.4,3,3.8,3.1,6.7,4.2c5.2,2,8.8,1.1,14.2,0
			c4.1-0.8,6-2.6,10.1-3.3c4.5-0.8,7.2,0.6,11.8,0c6.1-0.7,9.2-2.6,15.1-4.2c5.2-1.3,8.2-2,13.4-3.3c3.6-0.9,5.5-2,9.2-2.5
			c4.5-0.7,7.2-0.1,11.8,0c5,0.1,7.7,0.7,12.6,0.9c4,0.1,6.2,0.1,10.1,0c3.9-0.1,6.2,0,10.1-0.9c3-0.6,4.6-1.6,7.6-2.6
			c5.5-1.8,8.9-2.1,14.2-4.2c3.7-1.4,7.7-0.6,9.2-4.2c1.3-3,0.4-5.8-1.7-8.4c-1.8-2.3-3.8-3-6.7-3.3c-3.4-0.4-5.3,1-8.4,2.6
			c-3.3,1.7-3.8,5.8-7.5,5.9c-2.1,0-3.6-0.1-5-1.7c-2.6-2.8,2.3-5.5,3.3-9.2c0.8-2.6,3-4.3,1.7-6.7c-1.4-2.6-4.5-1.3-7.6-1.7
			c-7.5-0.9-12.6-1.1-19.3,2.6c-2.5,1.3-4.6,1.7-5.9,4.2c-1.8,3.8,3.8,6,3.3,10.1c-0.3,3.2-0.7,5.7-3.3,7.6
			c-2.4,1.7-4.6,0.9-7.6,0.9c-7.2,0-10.6-3.9-17.6-5c-3.3-0.5-5.4,0.5-8.4-0.9c-4.3-1.9-3.3-7.2-7.6-9.2
			C2731.6,903.7,2728.3,906.6,2723.5,905.8z"/>
		<path fill="#231F20" d="M2790.3,1056.1c3.1,1,5.1-0.8,8.4-0.9c4-0.1,6.2,0.3,10.1,0.9c3.3,0.5,5.1,1.1,8.4,1.7
			c3.6,0.7,5.6,1.4,9.2,1.7c4.3,0.3,6.9,0.6,10.9-0.9c2.9-1.1,5.1-1.6,6.7-4.2c1.6-2.6,1.3-4.6,0.9-7.6c-0.5-2.9-0.5-6-3.3-6.7
			c-2-0.5-3,1.9-5,1.7c-2.6-0.4-3.1-2.5-5-4.2c-2.1-1.8-2.3-4.6-5-5c-2.5-0.4-3.5,1.7-5.9,2.6c-2.3,0.8-4,0.2-5.9,1.7
			c-2.1,1.6-1.6,3.9-3.3,5.9c-3,3.3-5.8,4.1-10.1,5c-3.8,0.9-6.6-1.8-10.1,0c-2.6,1.4-6.2,3.1-5,5.9
			C2786.8,1055.3,2788.5,1055.5,2790.3,1056.1z"/>
		<path fill="#231F20" d="M2795,968c2.3-0.8,3.5-1.1,5.9-1.7c2.9-0.8,5.8,0.8,7.6-1.7c1.7-2.4,0.8-5-0.9-7.6
			c-1.1-1.8-2.3-2.6-4.2-3.3c-2.1-0.8-3.5-0.1-5.9,0c-3.3,0.1-5.1,0.8-8.4,0.9c-3.6,0.1-5.7-1.3-9.2-0.9c-2.3,0.3-4.6-0.4-5.9,1.6
			c-1.3,2.1,0.2,3.6,0.9,5.9c0.6,2.4,1,3.9,2.6,5.9c2.3,3,8.4,5,8.4,5C2789.2,970.2,2791.3,969.3,2795,968z"/>
		<path fill="#231F20" d="M2837.3,931.1c3-0.3,4.8-0.4,7.5-1.7c2.1-1,3.5-1.6,5-3.3c1.3-1.4,3.6-2.6,2.5-4.2
			c-0.8-1.1-2.1-0.6-3.3-0.9c-3.5-0.7-5.7-1.6-9.2-0.9c-2.8,0.6-4.9,1.1-6.7,3.3c-1.8,2.3-3.9,5.5-1.7,7.6
			C2833.1,932.6,2835,931.3,2837.3,931.1z"/>
		<path fill="#231F20" d="M2875,891.6c1.8,0.7,3-0.5,5-0.9c2-0.4,3.8,0.7,5-0.9s-0.2-3,0-5c0.4-3.4,4.3-5.5,2.5-8.4
			c-1.5-2.4-3.9-2.8-6.7-2.6c-4,0.4-5.7,3.3-7.6,6.7c-1.3,2.4-2.4,4.1-1.6,6.7C2872.2,889.4,2873.1,890.9,2875,891.6z"/>
		<path fill="#231F20" d="M2868.3,909.2c2.6,3.1-1,8,2.6,10.1c2.6,1.6,4.7,0.7,7.6,0c1.7-0.4,2.8-0.5,4.2-1.6
			c2.7-2.4,0.7-5.6,0.9-9.2c0.1-2.3,1.2-3.9,0-5.9c-1-1.6-2.4-1.8-4.2-2.5c-2.8-1.1-4.6-0.7-7.6-0.9c-3-0.1-5-1.6-7.6,0
			c-2.3,1.4-3.8,3.3-3.3,5.9C2861.2,908.4,2866.1,906.6,2868.3,909.2z"/>
		<path fill="#231F20" d="M2861.6,956.2c-5.9,0.1-9.5-0.9-15.1,0.9c-2.4,0.8-5.2,0.1-5.9,2.6c-0.9,3,4,2.8,6.7,4.2
			c2.8,1.5,6.3,0.4,7.6,3.4c1.7,4-4.3,6-8.4,7.5c-2.2,0.8-3.5,0.6-5.9,0.9c-2.9,0.4-4.7,1.7-7.6,0.9c-1.8-0.6-2.6-1.4-4.2-2.6
			c-2.9-2-3.3-5.7-6.7-5.9c-2.5-0.1-3.8,1.2-5.9,2.6c-2.2,1.3-4.5,1.7-5,4.2c-0.5,2.6,1.6,3.9,3.3,5.9c2.3,2.7,4.5,3.1,7.6,5
			c3.2,2.1,6.1,2,8.4,5c1.7,2.3,1.1,4.3,2.6,6.7c1.5,2.6,2.4,4.5,5,5.9c4,2.2,7.2,0.1,11.8-0.9c4.5-1,6.4-3.9,10.9-4.2
			c3.7-0.2,5.6,2,9.2,1.7c3.1-0.3,4.7-1.3,7.6-2.6c5.2-2.1,8.1-3.5,12.6-6.7c2.1-1.5,3.3-2.3,5-4.2c2.2-2.6,4.8-4.3,4.2-7.6
			c-0.3-1.4-0.7-2.3-1.7-3.3c-1.8-2.1-6.5,0.3-6.7-2.6c-0.1-2.3,2.3-3,4.2-4.2c3.6-2.3,6.8-0.5,10.9-1.6c4.1-1.1,8-0.5,10.1-4.2
			c1.6-2.8,2-5.8,0-8.4c-2.8-3.7-7.2,1.4-11.8,1.7c-5.6,0.3-8.7-0.9-14.2-0.9c-4.9,0.1-7.7,0.6-12.6,0.9
			C2871.3,956.4,2867.8,956,2861.6,956.2z"/>
		<path fill="#231F20" d="M2911.1,870.6c4.8,3.4,9.2,0.5,15.1,0c4.3-0.4,6.6-1.5,10.9-1.7c6-0.2,11-2.6,15.1,1.7
			c2.3,2.3,2.1,4.6,3.3,7.6c1,2.3,0.2,5,2.6,5.9c2.6,0.9,3.5-2.6,5.9-4.2c3.8-2.5,6-3.9,10.1-5.9c2.3-1.1,4.3-0.6,5.9-2.5
			c2.3-2.8,1.3-5.9,0-9.2c-1.4-3.4-3.3-5.4-6.7-6.7c-3-1.2-5.1,0.4-8.4,0c-3.3-0.4-5.2-0.7-8.4-1.7c-4.1-1.2-6-3-10.1-4.2
			c-5.7-1.6-9.2-2.3-15.1-1.7c-4,0.4-6.8,0.1-10.1,2.6c-2.7,1.9-2.8,4.3-5,6.7c-2.1,2.2-3.7,3-5.9,5c-1.3,1.3-3,1.6-3.3,3.3
			C2906.5,868.1,2909,869.1,2911.1,870.6z"/>
		<path fill="#231F20" d="M2900.2,923.5c0.6,2.4-3.4,3.5-2.6,5.9c1.1,3.1,5.1,0.6,8.4,0.9c4.9,0.4,7.7,1.1,12.6,0.9
			c5.3-0.3,9,0.4,13.4-2.6c2.3-1.5,2.6-3.7,5-5c2.4-1.3,4.2-0.7,6.7-1.7c4-1.6,5.8-3.3,9.2-5.9c3.1-2.4,5.2-3.5,7.6-6.7
			c1.7-2.4,3.8-3.8,3.3-6.7c-0.6-4.5-6.7-6-10.9-4.2c-2.1,0.9-2.1,3.2-4.2,4.2c-1.5,0.7-2.6,1.2-4.2,0.9c-2.5-0.6-2-3.8-4.2-5
			c-2.6-1.5-4.6-0.6-7.6-0.9c-5.2-0.4-8.3-0.9-13.4,0c-3.3,0.6-5.3,1.1-8.4,2.6c-4,1.8-5.6,4-9.2,6.7h3.3c-3.3,1.6-6.7,1-8.4,4.2
			c-1.8,3.2-0.9,6,0.9,9.2C2898.4,921.6,2899.8,921.9,2900.2,923.5z"/>
		<path fill="#231F20" d="M2978.2,937.7c3.7-0.6,6.6,0.2,9.2-2.6c1.5-1.6,0.9-3.5,2.6-5c2.2-2.1,7.2,1.3,7.5-1.7
			c0.2-1.9-1.1-2.9-2.6-4.2c-2.1-1.9-4-2.1-6.7-2.5c-3.5-0.6-5.7,0.6-9.2,0.9c-4.3,0.2-6.7-0.4-10.9,0c-3.6,0.4-6.1-0.1-9.2,1.6
			c-2.4,1.4-4.6,2.3-5,5c-0.4,2.5,0.9,4,2.6,5.9c2.7,3.1,6,2.8,10.1,3.4C2971,939.2,2973.7,938.6,2978.2,937.7z"/>
		<path fill="#231F20" d="M2941.3,957.1c-3.3,0.6-5.5-1.6-8.4,0c-2.9,1.7-1.4,5.6-4.2,7.6c-2.5,1.8-5-0.1-7.5,1.7
			c-3.5,2.4-2.8,6.1-4.2,10.1c-1.1,2.9-2.8,4.5-2.6,7.6c0.2,2.9,0.9,5.1,3.3,6.7c2.7,1.8,5.2,0.6,8.4,0c2.3-0.4,3.6-0.9,5.9-1.7
			c3.5-1.3,6-1.4,8.4-4.2c1.4-1.7,1.2-3.3,2.6-5c1.6-2,2.7-3.2,5-4.2c2.4-1.1,4.1-1,6.7-0.9c3.8,0.3,5.4,2.8,9.2,3.3
			c2.3,0.3,3.6,0.3,5.9,0c3.8-0.5,5.7-1.8,9.2-3.3c4.1-1.9,6.2-3.5,10.1-5.9c3.3-1.9,5-3.4,8.4-5c5.2-2.5,9.8-0.5,14.2-4.2
			c3.1-2.6,7.9-5,5.9-8.4c-0.9-1.4-1.9-1.8-3.3-2.6c-3-1.3-5.2-0.4-8.4,0c-3.7,0.5-5.6,3.3-9.2,2.6c-2.6-0.5-3.3-2.6-5.9-3.4
			c-4.4-1.3-7.2,0.3-11.8,0.9c-5.3,0.6-8.1,1.8-13.4,2.6c-4.9,0.6-7.8-0.3-12.6,0.9C2948.2,953.2,2946.2,956.3,2941.3,957.1z"/>
		<path fill="#231F20" d="M3008.4,874c1.9,0.6,3-0.1,5,0c3,0.1,4.6,0.6,7.6,0.9c4.6,0.3,7.2,0.2,11.8,0c3.6-0.2,6.7,1.8,9.2-0.9
			c1.8-2,2.5-4.1,1.7-6.7c-0.7-2.2-2.2-3-4.2-4.2c-3.1-1.8-5.7-0.5-9.2-0.9l-7.6-0.9c-2.6-0.3-4.1-0.6-6.7-0.9
			c-2.6-0.1-4.2-0.6-6.7,0c-2.1,0.6-3.7,0.8-5,2.6c-2.1,2.6-2,5.8,0,8.4C3005.4,873,3006.6,873.5,3008.4,874z"/>
		<path fill="#231F20" d="M3032.7,879.1c-4.9,0.1-7.7,0.3-12.6,0.9c-2.6,0.3-5.8-1.6-6.7,0.9c-0.8,2.1,1,3.5,2.6,5
			c2.4,2.4,5,2.2,8.4,2.5c1.6,0.1,2.6,0.1,4.2,0c3-0.2,4.6-1.2,7.6-1.6c4.8-0.8,10.8,3.8,12.6-0.9c0.7-1.8,1.1-3.4,0-5
			c-1.2-1.7-3-1.2-5-1.6C3039.5,878.1,3037,878.9,3032.7,879.1z"/>
		<path fill="#231F20" d="M2990,904.2c4,1.6,6.6,1.4,10.9,1.7c5.2,0.3,8.1-0.7,13.4-0.9c2.9-0.1,4.6-0.4,7.6,0
			c2.7,0.4,5-0.4,6.7,1.7c1.9,2.3,1.3,4.9,0,7.6c-1,2.1-2.3,2.8-4.2,4.2c-2.8,2.1-6,0.8-8.4,3.4c-3,3.1-5.6,7.8-2.6,10.9
			c1.9,1.9,4,1.5,6.7,1.7c2.6,0.1,4.1-1.2,6.7-0.9c4.9,0.7,5.2,6.9,10.1,7.6c3.7,0.4,5.7-1.1,9.2-2.6c3.8-1.5,5.1-5.2,9.2-5
			c2.1,0.1,3.8,0.1,5,1.7c1.9,2.3-3,4.8-1.7,7.6c2,4.2,7.2-0.1,11.8-0.9c7.4-1.2,11.2-3.9,18.5-5.9c2.6-0.7,4-1.4,6.7-1.7
			c5.3-0.6,8.1,2.1,13.4,2.6c3.3,0.2,5.1,0.1,8.4,0c5.2-0.2,8.1-1.7,13.4-1.7c3.6,0,6-0.9,9.2,0.9c2.5,1.3,2.8,3.5,5,5
			c4.7,3.3,8.6,3,14.2,3.3c4.3,0.2,6.7-0.4,10.9-0.9c4.3-0.5,6.7-0.5,10.9-1.7c2.7-0.8,4.2-1.4,6.7-2.6c3.8-1.6,5.2-4.5,9.2-5
			c1.6-0.2,2.6,0.6,4.2,0c4-1.4,3.2-6.9,1.7-10.9c-1.3-3.5-3.8-4.5-6.7-6.7c-1.8-1.4-2.9-2.4-5-3.3c-4.5-2-7.7-0.4-12.6-0.9
			c-3.3-0.3-5.1-0.8-8.4-0.9c-4.3-0.1-6.7,0.1-10.9,0.9c-1.6,0.3-2.6,0.5-4.2,0.9c-3.6,0.7-5.7,1-9.3,1.7c-4.9,0.9-7.6,2-12.5,2.6
			c-4.9,0.5-7.8-1-12.6,0c-4.8,1-6.8,4.3-11.8,5c-4.9,0.6-7.9-0.2-12.5-1.7c-4.2-1.3-5.7-4.5-10.1-5c-4-0.6-6.4,0-10.1,1.7
			c-2.6,1.2-3.3,5.4-5.9,4.2c-2.1-1.1-1.3-3.5-1.7-5.9c-0.3-2.3-0.8-3.8,0-5.9c1-2.6,5.9-2.4,5-5c-0.7-2.1-3-1.6-5-2.6
			c-3.3-1.6-4.9-3.3-8.4-4.2c-4.4-1.2-7.2,0.1-11.8,0c-4.9-0.1-7.9,0.8-12.6-0.9c-2.1-0.7-3-1.8-5-2.6c-3.4-1.3-5.6-1.2-9.2-1.7
			c-4.5-0.6-7.2-0.9-11.8-0.9c-3.6,0.1-5.6,0.6-9.2,0.9c-4.5,0.2-7.4-1.5-11.8,0c-3.3,1.1-7.2,1.5-7.6,5
			C2981.2,902.3,2986.3,902.7,2990,904.2z"/>
		<path fill="#231F20" d="M3097.3,885.7c1.7-1.4,3.1-3,2.6-5c-0.9-2.8-4.6-0.6-7.6-0.9c-2.6-0.1-4.1-0.4-6.7,0
			c-3.4,0.4-5.3,1-8.4,2.6c-2.1,1.1-4.4,1.1-5,3.3c-0.9,2.9,3,3.6,5,5.9l6.7-3.4c3.6-0.4,5.7,0.2,9.2-0.9
			C3094.9,886.9,3096,886.9,3097.3,885.7z"/>
		<path fill="#231F20" d="M3020.2,1165.1c0.8-3.2,2.2-6,0-8.4c-2.2-2.5-5.1-0.5-8.4-0.9c-3-0.3-5,0.7-7.6-0.9
			c-3.8-2.3-1.1-7.1-3.3-10.9c-2.2-3.5-4.1-5.2-7.6-7.5c-3.5-2.3-6.3-2.2-10.1-4.2c-3.8-2-7.8-1.8-9.2-5.9c-1-2.8,3.3-5.8,0.9-7.6
			c-1.6-1.1-3.1-0.3-5,0c-4,0.6-5.7,3-9.2,5c-4.7,2.8-6.9,5.2-11.8,7.6c-2.2,1.1-3.8,1.1-5.9,2.5c-3.9,2.6-3.5,7-7.6,9.2
			c-1.8,1-3.3,0.6-5,1.7c-4.1,2.3-2.6,7.7-6.7,10.1c-2.6,1.5-4.5,1.3-7.6,1.7c-2.6,0.3-4.2-0.6-6.7,0c-2.1,0.6-3.4,1.1-5,2.6
			c-2,1.8-3,3.3-3.3,5.9c-0.2,2-0.8,3.8,0.9,5c2,1.5,3.5-1.9,5.9-2.6c3.5-0.9,5.8-1.1,9.2,0c3.4,1.1,6.2,1.8,7.6,5
			c0.9,2.1-1.1,3.9,0,5.9c2.2,3.8,6.9-0.7,10.9-2.5c3.2-1.5,4.4-3.5,7.6-5c2.8-1.3,4.7-1.3,7.6-2.6c2.7-1.1,4-2.3,6.7-3.3
			c2.2-0.9,3.8-0.5,5.9-1.7c3-1.7,2.4-6.8,5.9-6.7c2.3,0.1,3.1,1.9,5,3.3c3.3,2.6,4,5.4,7.6,7.6c3.5,2.2,6,2.6,10.1,3.3
			c3.2,0.6,5.1,0.9,8.4,0.9c4-0.1,6.7-3.8,10.1-1.7c2,1.3,1.3,4,3.3,5C3017.7,1177.3,3019,1169.7,3020.2,1165.1z"/>
		<path fill="#231F20" d="M2969.8,1181.1c-3.9-0.6-6.2,0.3-10.1,0.9c-3.3,0.5-5.3,0.4-8.4,1.7c-3.4,1.5-4.4,3.9-7.5,5.9
			c-3.2,2-7.2,0.7-8.4,4.2c-0.7,2.2-0.5,4,0.9,5.9c2.1,3,5.6,1.4,9.2,1.7c4.3,0.3,6.8,0.4,10.9-0.9c4.3-1.3,6.1-3.7,10.1-5.9
			c3.8-2.1,8.1-1.1,10.1-5c1.1-2.1,1.8-3.8,0.9-5.9C2976.1,1180.8,2972.9,1181.5,2969.8,1181.1z"/>
		<path fill="#231F20" d="M3121.6,1046c-4.2,1.3-7.2,0.1-10.9,2.5c-2.3,1.5-5.2,2.3-5,5c0.3,3.4,5,2.3,8.4,2.6
			c4.7,0.3,8-0.4,11.8-3.3c2-1.6,3-2.8,4.2-5c1.1-2.1,2.4-3.6,1.7-5.9C3130.4,1037.7,3125.8,1044.7,3121.6,1046z"/>
		<path fill="#231F20" d="M3071.3,851.4c3.5,0.7,5.6,0.6,9.2,0.9c5.5,0.3,8.8,0.9,14.2,0c3.7-0.6,5.5-2,9.2-2.6
			c4.5-0.7,13-4.4,11.8,0c-0.6,2.2-2.3,2.8-4.2,4.2c-4.9,3.5-9.2,1.4-15.1,2.6c-3.3,0.6-5,1.6-8.4,1.7c-4,0.1-6.1-1.4-10.1-1.7
			c-2.3-0.1-4.1-1.5-5.9,0c-2.3,1.9-0.4,4.8,0.9,7.6c1.8,4.3,4.8,6,9.2,7.6c2.8,1,4.6,0.6,7.6,0.9c3.9,0.2,6.2-0.1,10.1,0
			c7.2,0.1,12.7,5.2,18.5,0.9c2.1-1.6,2.3-3.3,4.2-5c1.5-1.5,2.3-2.6,4.2-3.3c2.7-1.1,4.6,0.2,7.6,0c7-0.5,10.8-2.4,17.6-4.2
			c6-1.6,9.1-3.3,15.1-4.2c3.3-0.5,5.1-0.6,8.4-0.9c4.5-0.3,7.2,0.6,11.8,0c4-0.5,6.2-1.1,10.1-2.6c2.3-0.9,4.1-0.7,5.9-2.6
			c3.5-3.5,3.8-14.3-0.9-12.6c-2.4,0.9-2,3.8-4.2,5c-2.3,1.3-4.1,0.4-6.7,0.9c-3.3,0.6-6.4,5.3-8.4,2.6c-2-2.8,4.6-3.5,5.9-6.7
			c0.9-2.1,1.6-3.7,0.9-5.9s-1.9-3.7-4.2-4.2c-3-0.7-4.2,2.5-6.7,4.2c-2.7,1.8-3.5,5.5-6.7,5c-3.9-0.6-0.4-8-4.2-9.2
			c-2.2-0.7-3.6,0.6-5.9,0.9c-2.9,0.2-4.8,1.1-7.6,0c-4.2-1.8-3.9-6.4-5.9-10.1c-3.3-1.6-4.9-3.1-8.4-4.2c-4.7-1.4-7.7-1.6-12.5-0.9
			c-4.5,0.7-6.7,2.6-10.9,4.2c-3.6,1.3-5.5,2.2-9.2,3.3c-3.9,1.2-6.2,1.1-10.1,2.6c-5.2,1.9-7.2,5.2-12.6,6.7
			c-4.7,1.3-7.7-0.1-12.6,0.9c-3.7,0.7-6.2,0.4-9.2,2.6c-2.1,1.5-3.5,2.6-4.2,5c-0.9,2.9-0.1,5.1,1.7,7.6
			C3063,851.6,3066.9,850.5,3071.3,851.4z"/>
		<path fill="#231F20" d="M3171.2,822.8c2,2,2.6,3.8,5,5c3.8,2,6.7,0.3,10.9,0c4.3-0.3,6.6-1.8,10.9-1.7c4,0.1,6.1,1.2,10.1,1.7
			c5.9,0.7,9.2,0.7,15.1,0.9c5.5,0.1,8.7,0.2,14.2,0c5-0.1,7.7-1.1,12.6-0.9c4.6,0.2,7.2,1.1,11.8,1.7l-6.7,8.4
			c-10.1,0-15.9,0.5-26,0c-4.9-0.2-7.7,0-12.6-0.9c-4.7-0.9-9.4-7.5-11.8-3.3c-1.9,3.5,2.1,5.8,4.2,9.2c1.8,3,3.1,4.7,5.5,7.2
			l0.4,0.4c2.9,3,5.4,3.8,8.4,6.7c2.5,2.4,6.9,3.4,5.9,6.7c-1.2,3.8-6.2-0.7-10.1-0.9c-5.6-0.1-8.7,0.9-14.2,0.9
			c-5.9,0-9.2-0.4-15.1-0.9c-3.6-0.3-5.6-0.6-9.2-0.9c-4.3-0.2-6.7-0.6-10.9,0c-4.7,0.6-7.9,0.5-11.8,3.3c-3,2.2-2.6,5.9-5.9,7.6
			c-2.9,1.5-5.1,0.4-8.4,0.9c-2,0.3-3.1,0.4-5,0.9c-2.7,0.6-5.1,0.2-6.7,2.5c-1.3,1.8,0,3.7-0.9,5.9c-0.6,1.8-0.9,3.3-2.5,4.2
			c-2.1,1.1-3.5-0.8-5.9-0.9c-3-0.1-4.6,0.3-7.6,0.9c-4.4,0.9-6.7,1.9-10.9,3.3c-4.3,1.5-6.8,2.3-10.9,4.2c-3,1.5-6.9,0.9-7.6,4.2
			c-0.5,2.4,0.9,4,2.5,5.9c3.9,4.5,9.2,1.2,15.1,0.9c5.7-0.4,8.7-1.6,14.2-2.6c4.3-0.7,6.7-2.3,10.9-1.7c3.9,0.6,5.3,3.9,9.2,4.2
			c4.9,0.4,7-3,11.8-4.2c3.8-1,6.1-2.1,10.1-1.6c3.8,0.4,5.5,2.7,9.2,3.3c5.8,1,9.3-0.4,15.1-1.7c4.3-1,6.5-3.7,10.9-3.3
			c2.4,0.2,4.1,0.1,5.9,1.7c3.7,3.4-6.7,7-5,11.8c2.4,6.9,11.3-2,18.4-3.3c6.2-1.2,9.8-1.9,15.9-3.3c4-0.9,6.1-1.8,10.1-2.6
			c6.2-1.1,11.4,2.6,15.9-1.7c1.7-1.6,2.7-2.8,3.3-5c0.8-2.6-0.3-4.3-0.7-6.8c2.2-1.9,2.9-4,5.7-4.9c2.2-0.7,3.7,0.7,5.9,0
			c1.8-0.6,2.6-1.4,4.2-2.6c3.6-2.5,4-6.9,8.4-7.6c3-0.5,4.5,1.5,7.5,1.7c4,0.2,6.2-0.8,10.1-1.7c3.6-0.8,5.7-1.3,9.2-2.5
			c3.6-1.1,6.8-0.4,9.2-3.3c2.3-2.8-0.4-6.2,1.7-9.2c2.3-3.4,6.2-2.3,9.2-5c1.3-1.3,2.1-2.5,2.8-3.8c0.9-1.7,1.6-3.5,3-5.5
			c2.7-3.8,3.3-7.2,7.6-9.2c4.1-2,7.2-0.8,11.8,0c5.5,0.9,8.5,2.4,13.4,5c2.7,1.5,3.8,3,6.7,4.2c5.8,2.3,9.7,0,15.9,0
			c3.9,0,6.3,1.2,10.1,0c3.3-1.1,4.8-2.8,7.6-5c2.1-1.8,2.6-3.8,5-5c3.3-1.6,5.7,0.1,9.2,0c6.5-0.1,10.3,0.4,16.8-0.9
			c5.4-1,8.4-2,13.5-4.2c3.8-1.6,5.4-3.7,9.2-5c5-1.7,8.3-0.4,13.4-1.7c4-1,8.2,0.4,10.1-3.3c1.2-2.3-1.7-4.7,0-6.7
			c1.7-2,4.1-0.6,6.7-0.9c4.9-0.5,7.7-0.9,12.6-0.9c6,0.1,9.2,1.3,15.1,1.7c5.5,0.3,8.7,0,14.2,0c5.5,0,8.7,0.8,14.2,0
			c3-0.4,5.1,0.1,7.6-1.7c2.5-1.8,4.4-3.6,4.2-6.7c-0.3-4.7-6.4-3.6-10.9-5c-2.9-0.9-4.5-1.3-7.5-1.7c-5.2-0.7-8.2,0.4-13.4,0
			c-5-0.4-7.7-1.2-12.6-1.7c-4.9-0.5-7.9,0.7-12.6-0.9c-2.8-0.9-3.9-2.4-6.7-3.3c-4.7-1.6-7.7-0.7-12.6-0.9
			c-9.5-0.3-14.9,0.1-24.3,0.9c-3.3,0.3-5.1,0.6-8.4,0.9c-3.6,0.2-5.7,0.4-9.2,0c-4.7-0.4-7.1-2.6-11.8-2.6s-7.1,2.1-11.8,2.6
			c-4.5,0.5-7.5,1.7-11.8,0c-2.6-1.1-3.2-3.4-5.9-4.2c-4.7-1.3-7,3.2-11.8,4.2c-5.5,1.2-8.9,2.4-14.2,0.9c-2.8-0.9-3.8-2.8-6.7-3.3
			c-4.7-0.9-7,3.4-11.8,3.3c-4-0.1-6.1-1.8-10.1-2.6c-3.5-0.6-5.6-1.1-9.2-0.9c-3.7,0.4-5.5,1.8-9.2,2.6c-7.1,1.3-11.3,0.7-18.4,0.9
			c-3.6,0.1-5.9-1.3-9.2,0c-4.1,1.6-3.9,6-7.6,8.4c-3,1.9-4.9,3.3-8.4,3.4c-4.7,0.1-6.2-4.7-10.9-5c-4-0.3-6,2.1-10.1,2.6
			c-4.3,0.4-6.8-2.1-10.9-0.9c-3,0.9-4,2.9-6.7,4.2c-6,2.9-10.1,2.8-16.8,3.3c-7.5,0.6-11.8-0.9-19.3-0.9c-8.6,0.1-13.3,1-21.8,1.7
			l-10.9,0.9c-5.6,0.4-14.6-4.7-14.2,0.9c0.1,1.8,0.9,2.7,1.7,4.2C3166.3,819.3,3168.6,820.2,3171.2,822.8z"/>
		<path fill="#231F20" d="M3208.1,957.1c-6.4-1.7-10.2-1.3-16.8-1.7c-7.2-0.4-11.3,0-18.4,0c-2.6,0-4.1-0.4-6.7,0
			c-2.8,0.5-4.8,0.4-6.7,2.6c-2.1,2.3-2.4,4.6-1.7,7.6c1,4,4.4,5.4,8.4,6.7c4.3,1.4,7.2,0.1,11.8-0.9c3.3-0.7,5-1.8,8.4-2.6
			c3.2-0.6,5.1-0.9,8.4-0.9c4.6,0,7.2,1.3,11.8,1.7c5.5,0.4,12.1,5.2,14.2,0c1.3-3.1,0.2-5.7-1.7-8.4
			C3216.4,957.5,3212.5,958.2,3208.1,957.1z"/>
		<path fill="#231F20" d="M3120.9,1086.2c1.6,3,5,2.1,8.4,2.6c4.5,0.6,7.2-0.5,11.8-0.9c4.9-0.4,8.2,1.4,12.5-0.9
			c2.3-1.2,3.3-2.4,5-4.2c2.6-2.6,3.8-4.5,5.9-7.6c1.3-1.9,3.4-2.7,3.3-5c-0.1-3.7-4.8-3.5-8.4-4.2c-2.9-0.6-4.6-0.1-7.6,0
			c-3.3,0.1-5.2-0.1-8.4,0.9c-3.3,1-4.9,2.2-7.6,4.2c-3,2.2-4.1,4.1-6.7,6.7C3126,1081.1,3118.7,1082.2,3120.9,1086.2z"/>
		<path fill="#231F20" d="M3175.4,1082.9c3.3,1.5,6.2,1.1,9.2-0.9c2.1-1.3,4-2.5,4.2-5c0.1-2.2-0.9-3.5-2.6-5
			c-2.4-2.3-5-1.6-8.4-1.7c-3-0.1-5.8-1.6-7.6,0.9c-1.3,1.8-0.7,3.7,0,5.9C3171.2,1079.9,3172.7,1081.6,3175.4,1082.9z"/>
		<path fill="#231F20" d="M3365.8,1092.1c-2.5-0.8-4.1,0.4-6.7,0c-3.4-0.4-5.1-1.6-8.4-2.6c-2.6-0.7-4-1.4-6.7-1.7
			c-3.6-0.4-7,3.7-9.2,0.9c-1.8-2.3,1.3-4.6,0.9-7.6c-0.1-1-0.4-1.8-0.6-2.6c-0.4-1.1-1-2.1-1.8-3.3c-1.9-2.9-3.3-5.7-6.7-5.9
			c-2.5-0.1-3.5,2-5.9,2.6c-3.5,0.9-5.7,0.7-9.2,0c-5-1-6.9-4.2-11.8-5.9c-3.8-1.3-6.7-0.4-10.1-2.5c-3-1.9-7.1-3.5-5.9-6.7
			c0.8-2.2,2.8-2.5,5-3.4c3.7-1.4,6.1,0,10.1,0c3.9,0,6.2,0.6,10.1,0c2.7-0.4,5.1,0.5,6.7-1.7c1.8-2.3,1-5.2-0.9-7.6
			c-1.9-2.4-4.5-1.7-7.6-2.6c-2.9-0.8-5-0.1-7.6-1.7c-4.7-3,11.4,3.1,14.2-1.7c1.6-2.6,1.5-4.7,0.9-7.6c-0.6-2.6-2-3.6-3.3-5.9
			c-1.9-3.3-2-6.1-5-8.4c-1.1-0.9-2.2-1.4-3.3-1.7c-2.3-0.6-4.7-0.4-7.6-0.9c-4.3-0.6-6.9,0.5-10.9-0.9c-3.6-1.2-5.5-2.6-8.4-5
			c-2.6-2.3-3.2-4.5-5.9-6.7c-2.3-2-3.8-3.3-6.7-4.2c-3.1-0.9-5.2-0.5-8.4,0c-4.5,0.7-6.5,5.5-10.9,4.2c-4.5-1.3-3.9-6.3-6.7-10.1
			c-3.3-4.5-4.7-7.7-9.2-10.9c-3-2.1-4.9-3.2-8.4-4.2c-6-1.7-9.7,1.3-15.9,0.9c-5-0.4-7.6-2.5-12.6-2.6c-4.3-0.1-7.9-1.4-10.9,1.7
			c-1.9,2-0.6,4.7-2.6,6.7c-2.3,2.4-5,2.6-8.4,2.6c-4-0.1-5.3-4-9.2-4.2c-4.5-0.3-6.7,2.6-10.9,4.2c-3.3,1.3-5.1,4.6-8.4,3.3
			c-4.5-1.7,4.3-6.7,8.4-9.2c3.3-2.1,7.5,0.1,9.2-3.3c1.3-2.7,0-4.7-0.9-7.6c-1.6-5.4-3.8-8.5-8.4-11.8c0,0-7.2-0.8-11.8-0.9
			c-5.6-0.1-8.9-0.5-14.2,0.9c-4.8,1.2-7.1,3.2-11.8,5c-2.6,1.1-3.9,2.3-6.7,2.5c-3.8,0.2-5.5-4.4-9.2-3.3c-3.3,1-2.9,4.8-5.9,6.7
			c-3.1,2-5.7,1.5-9.2,2.6c-2.3,0.6-3.8,0.6-5.9,1.7c-4.3,2.3-4,6.7-7.6,10.1c-2.6,2.6-4.6,3.6-7.5,5.9l-2.6,6.7
			c2.3,2.3,10.6,2.1,10.1,6.7c-0.3,2.3-1.3,3.8-3.3,5c-3.1,1.9-6.2,0.4-9.2-1.7c-2.8-1.8-4-3.6-5-6.7c-1.2-3.8-0.5-6.4,0.9-10.1
			c1.2-3.3,3.2-4.5,5-7.6c2.1-3.5,2-6.4,5-9.2c3.3-3,6.6-2.8,10.9-4.2c4.5-1.5,7.2-1.9,11.8-3.3c4-1.2,7.4-0.2,10.1-3.3
			c1.8-2.1,3.6-4.1,2.5-6.7c-1.3-3-5.1-1.2-8.4-1.7c-3.9-0.6-6.2-1.1-10.1-0.9c-4,0.3-6.2,1.5-10.1,2.6c-6.6,1.8-10.2,3.3-16.7,5
			c-5.2,1.4-8.3,1.7-13.5,3.3c-6.4,2.1-9.4,5-15.9,6.7c-3.3,0.9-5.3,0.4-8.4,1.7c-5.3,2.2-6.7,6.1-10.9,10.1
			c-4.6,4.3-7.7,6.2-11.8,10.9c-2.5,2.8-7.5,4.2-5.9,7.5c1.4,3,5.1,0.9,8.4,1.7c3.6,0.9,5.7,1.6,9.2,2.5c3.6,1,5.9,0.9,9.2,2.6
			c2.1,1.1,4.8,1,5,3.3c0.3,3-4.5,1.3-7.6,1.7c-5.9,0.6-9.2-1.4-15.1-1.7c-3.9-0.1-6.3-1.2-10.1,0c-3.8,1.2-8.4,1.8-8.4,5.9
			c0.1,3.8,5.1,3,7.6,5.9c1.1,1.2,1.3,2.3,2.6,3.4c2.8,2.3,5.6,0.8,9.2,0.9c4,0,6.1-0.9,10.1-0.9c3.3,0,5.3-0.2,8.4,0.9
			c2.5,0.9,3.4,2.4,5.9,3.3c3.7,1.5,6.1,1.4,10.1,1.7c5.2,0.4,8.1-1,13.4-0.9c3.6,0.1,5.7,0.1,9.2,0.9c4,0.8,6,2.8,10.1,3.3
			c3.5,0.6,5.7-0.6,9.2,0c2.3,0.4,3.5,1.1,5.9,1.7c4.2,1,6.7,1.1,10.9,1.7c4.3,0.6,6.6,1.6,10.9,1.7c4.6,0.1,7.2-1.1,11.8-1.7
			c3-0.4,4.7-0.1,7.6-0.9c3.8-1,5.7-2.5,9.2-4.2c2.6-1.3,5.5-0.7,6.7-3.3c1.1-2.4-2.5-4.6-0.9-6.7c1.8-2.3,5-1.4,7.5,0
			c2.7,1.5,2.1,4.4,4.2,6.7c1.7,1.9,3.3,2.4,5,4.2c3.2,3.1,3.3,6.4,6.7,9.2c4.5,3.8,19.1,1.6,14.2,5c-3,2.1-5.7,0-9.2,0.9
			c-3.4,0.9-5.5,1.3-8.4,3.3c-2.3,1.6-4.4,2.3-5,5c-0.5,1.9-0.2,3.3,0.9,5c2.3,3.9,7.2,0.3,11.8,0c3.3-0.1,5.4,0.5,8.4-0.9
			c3.4-1.5,3.3-8,6.7-6.7c2,0.7,1.9,2.7,3.3,4.2c3.8,4,6.7,5.4,11.8,7.6c2.8,1.3,5.3,0.4,7.6,2.6c1.6,1.6,1.8,3,2.5,5
			c0.9,2.3,1.4,4,1.7,5.9c0.1,1.3,0.2,2.6,0,4.2c-0.4,4.3-0.1,8.9-4.2,10.1c-2.2,0.6-3.6-1.4-5.9-0.9c-3.3,0.9-3.3,4.5-5.9,6.7
			c-1.2,1.1-1.8,1.9-3.3,2.6c-3.1,1.2-5.3-3-8.4-1.7c-2.3,1.1-2.4,3.3-4.2,5c-1.8,1.8-2.8,2.8-5,4.2c-3,1.9-5.1,2.1-8.4,3.3
			c-1.6,0.6-3,0.4-4.2,1.7c-2.3,2.4,0.4,5.3,1.7,8.4c0.8,1.8,2.8,2.3,2.6,4.2c-0.4,3-4.7,0.1-7.6,0.9c-3.8,1-5.3,3.7-9.2,4.2
			s-6.2-2.5-10.1-1.7c-3.3,0.6-4.2,4-7.6,4.2c-3.5,0.3-5.1-2.2-8.4-3.3c-3.3-1.1-5.1-1.7-8.4-2.6c-3.3-0.9-5-2-8.4-1.7
			c-2.4,0.2-3.8,0.5-5.9,1.7c-3,1.7-2.8,5.1-5.9,6.7c-3.2,1.7-5.7,0.3-9.2,0.9c-1.6,0.3-2.7,0.1-4.2,0.9c-2.4,1.2-3,3.4-3.2,5.9
			c-0.1,1.6-0.1,3.3-0.2,5c-0.3,3.6-1.1,6.2,0.9,9.2c3.4,5.2,9.8,1.9,15.9,0.9c4.8-0.9,6.9-3.3,11.8-4.2c2.9-0.6,4.7,0.1,7.6-0.9
			c2.5-0.9,3.3-3.2,5.9-3.3c2.9-0.1,3.8,3,6.7,3.3c2.7,0.3,4-1.3,6.7-1.7c4.5-0.7,7.2,0,11.8,0c3.3,0,5.2,0.8,8.4,0
			c2.4-0.6,3.5-3.2,5.9-2.6c3.8,1.1-3.6,6.6-1.7,10.1c1.3,2.5,3.5,2.6,5.9,4.2c1.9,1.3,2.9,2.3,5,3.3c3.6,1.8,9.8-1.5,10.1,2.5
			c0.1,1.8-0.5,2.9-1.7,4.2c-2.3,2.4-5.8-1.2-8.4,0.9s-4.2,5.4-2.6,8.4c2.1,3.7,6.7-1.6,10.9-0.9c3.9,0.7,5.5,3,9.2,4.2
			c3.8,1.1,7.2-1.1,10.1,1.7c2,2,0.9,4.5,2.5,6.7c3.2,4.3,7.4,4.3,12.6,5c3.5,0.6,5.7-0.3,9.2,0c3.6,0.3,6.1-0.3,9.2,1.7
			c2.6,1.6,2.4,4.3,5,5.9c4,2.3,7.3,1,11.8,0c2.7-0.6,5.1-0.2,6.7-2.6c1.9-2.7,0.2-5.3-0.9-8.4c-1.1-3.3-2.3-5.3-5-7.6
			c-2.5-2.1-4.8-1.6-7.6-3.3c-2.6-1.6-3.5-3.3-5.9-5c-2.5-1.8-4-2.7-6.7-4.2c-1.9-1.1-3.9-0.6-5-2.6c-1.6-2.6-0.4-6.3,2.6-7.6
			c3-1.3,4.4,2.9,7.6,4.2c5,2,9.1-0.6,13.4,2.6c3.3,2.3,3.1,5.5,5.9,8.4c2.1,2.2,3,4.3,5.9,5c2.9,0.7,4.6-2.3,7.5-1.7
			c4.3,0.9,3.7,10.5,7.6,8.4c2.8-1.5,0.5-5.2,2.6-7.6c1.8-2,4.4-1.2,5.9-3.3c1.7-2.4-0.9-5.2,0.9-7.6c2.4-3.2,7.2,1.1,10.1-1.7
			c2.4-2.4,3.1-5,2.6-8.4c-0.6-3.2-4.5-3.5-5-6.7c-0.4-2.3,0.7-3.5,0.9-5.9c0.1-3.3,1.2-5.8-0.9-8.4c-2.1-2.6-5.2-1.3-8.4-2.6
			c-3-1.1-5-1.4-7.6-3.3c-3-2.3-3.9-4.4-5.9-7.6c-2-3.1-4.4-4.7-4.2-8.4c0.1-2.9,1.3-4.5,3.3-6.7c1.6-1.7,3.7-1.5,5-3.3
			c1.2-1.7,0.1-3.7,1.7-5c2-1.7,4.1-0.4,6.7,0c4.1,0.5,6.4,1.5,10.1,3.3c3.2,1.6,4.9,2.7,7.6,5c2.6,2.3,4.2,3.7,5.9,6.7
			c1.6,3,0.8,5.5,2.6,8.4c1.3,2.2,2.1,3.6,4.2,5c3.3,2.3,6.1,1.3,10.1,1.7c4.3,0.4,7.2,2.2,10.9,0c4-2.4,0.8-8.9,5-10.9
			c1.8-0.9,3-0.9,5-0.9c3.8,0.1,5.6,4.7,9.2,3.3c3.3-1.2,2.6-5,5-7.6c3.3-3.2,8.1-1.8,10.1-5.9c1-2.1-1.1-4.7,0.9-5.9
			c2.1-1.3,3.4,2.6,5.9,2.6c3-0.1,4.5-2,6.7-4.2c1.6-1.7,2.9-2.7,3.3-5C3374.3,1096.8,3370.3,1093.5,3365.8,1092.1z"/>
		<path fill="#231F20" d="M3175.4,1505.7c3.6,0,5.7,0.5,9.2,0c3.7-0.5,7.3,0.7,9.2-2.6c2.1-3.5,0.1-7.9-3.3-10.1
			c-2.3-1.3-4.2-0.1-6.7-0.9c-3.5-1-5.1-2.6-8.4-4.2c-2.6-1.3-3.9-2.6-6.7-3.3c-3.8-1.1-6.2,0.1-10.1,0c-4.3-0.1-9.3-4.7-10.9-0.9
			c-0.9,2.1-0.3,3.8,0.9,5.9c0.9,1.6,1.8,2.3,3.3,3.3c1.8,1.1,3.3,0.6,5,1.7c3.2,1.9,2.8,5.3,5.9,7.6c3.1,2.3,5.4,3,9.2,3.3
			C3173.3,1505.9,3174.1,1505.7,3175.4,1505.7z"/>
		<path fill="#231F20" d="M3132.6,1553.5c-2.4-1.3-4.5,0.1-6.7,1.7c-1.9,1.4-2.7,2.8-3.3,5c-0.9,2.8-0.4,4.9,0.9,7.6
			c1.5,3.1,3.6,4.3,6.7,5.9c3,1.5,5.3,0.3,8.4,1.7c2.6,1.1,3.4,2.8,5.9,4.2c2.2,1.2,3.4,2.5,5.9,2.6c2.9,0,4.5-1.5,6.7-3.3
			c2-1.6,2.2-3.5,4.2-5c2.6-2,6.8-0.2,7.6-3.3c0.9-3.6-3.8-5.4-7.6-5.9c-2.7-0.4-4,1.2-6.7,1.7c-3.5,0.6-5.7,1.8-9.2,0.9
			c-3-0.8-3.8-3.3-6.7-4.2c-1.9-0.6-3.4,0.4-5-0.9C3130.8,1560,3135.5,1555.2,3132.6,1553.5z"/>
		<path fill="#231F20" d="M3203.1,1566.2c2-3.8,3.3-8.1,0-10.9c-1.6-1.3-3-2-5-1.7c-2.8,0.4-2.8,3.3-5,5c-2.1,1.6-3.6,2-5.9,3.3
			c-2,1.3-3.6,1.5-5,3.3c-1.8,2.4,0.6,5.5-1.7,7.6c-1.6,1.4-3.5,0.4-5,1.7c-1.5,1.2-2.3,2.3-2.6,4.2c-0.4,3.5,3,4.7,5.9,6.7
			c2.8,2.1,4.9,2.8,8.4,3.3c3.9,0.6,6.4,0.5,10.1-0.9c3.3-1.2,6.6-1.6,7.6-5c0.7-2.6-0.4-4.4-1.7-6.7c-1.3-2.3-5-2.3-5-5
			C3198,1568.4,3201.8,1568.6,3203.1,1566.2z"/>
		<path fill="#231F20" d="M1940.4,1372.4c1.5-1.3,1.5-3.8,0-5c-1.3-1.1-2.9-1.1-4.2,0C1936.2,1367.3,1938.5,1374,1940.4,1372.4z"/>
		<path fill="#231F20" d="M1910.2,1416.8c0.8,2.9,0.4,4.8,1.7,7.6c1,2.1,2.1,3,3.3,5c1.4,2.2,1.3,7.6,3.3,5.9
			c1.3-1.1,0.6-2.6,0.9-4.2c0.6-3.3,0-5.2,0.9-8.4c0.9-3.2,2.6-4.5,3.3-7.6c0.5-1.9,1.5-3.2,0.9-5c-1.3-3.7-6.2-0.4-10.1,0
			c-2.3,0.2-4.6-1.1-5.9,0.9C1907.2,1412.9,1909.6,1414.5,1910.2,1416.8z"/>
		<path fill="#231F20" d="M1992.4,1494c-0.5-4.4-0.9-7.2-3.3-10.9c-1.8-2.7-3.3-4-5.9-5.9c-3.5-2.5-6.2-2.6-10.1-4.2
			c-3.3-1.3-5.5-1.3-8.4-3.3c-2.9-2.1-2.8-5.2-5.9-6.7c-3.8-1.9-6.7,0.1-10.9,0c-4.3-0.1-8.1-4.1-10.9-0.9c-2.6,3,0.5,6.3,1.7,10.1
			c1.1,3.8,1.3,6.5,4.2,9.2c2.4,2.2,5.3,1,7.6,3.3c2.8,3,0.1,6.8,2.6,10.1c2.8,3.9,8.1,2,10.9,5.9c1.5,2,1.5,3.6,2.6,5.9
			c1.5,3,1.8,5.2,4.2,7.6c3.5,3.4,7.3,2.2,11.8,4.2c2,0.9,3,1.7,5,2.6c3.2,1.3,5,3,8.4,2.5c3-0.5,5.5-1.3,6.7-4.2
			c1-2.4-0.4-4.1-0.9-6.7c-0.7-3.3-0.1-6-2.6-8.4c-2-1.9-5.1-0.2-6.7-2.5C1990.7,1499.1,1992.7,1496.9,1992.4,1494z"/>
		<path fill="#231F20" d="M1364,1363.5c-2.6,0.6-4,1-6.3,2.1c-3.2,1.6-4.3,3.6-7.4,5.2c-3.1,1.6-7.4-0.2-8.4,3.2
			c-0.8,2.5,0.4,4.3,2.1,6.3c1.5,1.8,2.8,3,5.2,3.1c3.2,0.1,3.6-3.5,6.3-5.2c2.3-1.5,3.8-2.1,6.3-3.1c2.8-1.1,4.5-1.4,7.3-2.1
			c4.8-1.2,12.6-2.1,12.6-2.1c0.4-3-0.2-5-2.1-7.4C1375.9,1358.7,1370,1362.2,1364,1363.5z"/>
		<path fill="#231F20" d="M1942.1,1355.6c-0.7,2.8,2.1,4.1,3.3,6.7c1.3,2.6,2.8,3.8,3.3,6.7c0.5,2.3-0.9,3.8,0,5.9
			c2.2,5.1,8.5-4.2,10.9-9.2c1.1-2.1,1.1-3.5,1.7-5.9c0.7-2.6,0.4-4.3,1.7-6.7c1.2-2.3,3.5-2.6,4.2-5c0.4-1.6,0.4-2.6,0-4.2
			c-0.9-3.3-3.3-5.2-6.7-5.9c-2.3-0.5-3.7,0-5.8,0.8c-3,1.1-5.2,2.1-6.7,5c-1.4,2.6,0.6,5-0.9,7.6
			C1945.8,1353.6,1942.7,1353.1,1942.1,1355.6z"/>
		<path fill="#231F20" d="M1953,1335.4c2.3-1.3,3.3-2.6,5.9-3.3c4-1.3,6.7,0.3,10.9,0c2.6-0.2,4.7,0.8,6.7-0.9
			c2.8-2.3,2.6-6.1,0.9-9.2c-1.3-2.5-3.1-3.6-5.9-4.2c-2.3-0.5-3.6,0.4-5.9,0.9c-3.8,0.9-6,1.2-9.2,3.3c-2.7,1.8-4.1,3.1-5.9,5.9
			c-1.3,2.1-3.8,3.7-2.6,5.9C1949,1335.5,1950.7,1335.1,1953,1335.4z"/>
		<path fill="#231F20" d="M1640,1296c-4-0.4-6.4,0.1-10.1,1.7c-3.3,1.3-5.5,1.9-7.5,5c-2.1,3.2-1.5,10.1,1.7,11.8s5-0.7,7.6-2.6
			c1.5-1.1,1.8-2.3,3.3-3.3c2.8-1.8,5.2-0.8,8.4-1.6c2-0.6,3.7-0.1,5-1.7c1.7-2,1.3-4.5,0-6.7
			C1646.7,1295.6,1643.4,1296.3,1640,1296z"/>
		<path fill="#231F20" d="M1663.5,1281.7c-2.6-0.6-4.5,0.2-6.7,1.7c-1.6,1-1.8,2.4-3.3,3.3c-2.6,1.5-6-1.7-7.5,0.9
			c-1.1,1.6-0.9,3.3,0,5c1.3,2.5,3.9,2.3,6.7,2.6c3.7,0.4,5.5-2.1,9.2-2.6c2.6-0.3,4.7,1.7,6.7,0c2.5-2.1,1.3-5.9-0.9-8.4
			C1666.5,1282.8,1665.4,1282.2,1663.5,1281.7z"/>
		<path fill="#231F20" d="M3241.7,1478c3.3-2.1,3.8-4.8,6.7-7.5c5.5-5.2,9.7-6.7,15.9-10.9c5.9-4,8.4-7.9,15.1-10.1
			c3.8-1.3,6.2-1,10.1-1.7c6.6-1.2,10.7-0.6,16.8-3.3c3.9-1.8,5.6-3.7,9.2-5.9c5.5-3.2,9.6-3.4,14.2-7.6c1.6-1.4,2.8-2.5,4-3.8
			c0.7-0.8,1.3-1.7,1.9-2.8c2.6-4.7,0.9-8.4,2.6-13.4c0.9-2.7,2.8-3.9,2.6-6.7c-0.3-2.6-2.1-3.5-3.3-5.9c-1.5-2.8-0.9-5.5-3.3-7.6
			c-2.8-2.3-5.6-1.6-9.2-1.7c-3-0.1-5.7,3.1-7.6,0.9c-1.5-1.8,0.3-3.6,0-5.9c-0.4-3-3.3-4.5-2.6-7.6c0.6-2.5,3.7-2.5,4.2-5
			c0.6-3.3-1.4-5.6-4.2-7.6c-2.5-1.7-4.5-1.3-7.6-1.7c-2.9-0.3-5,1.4-7.6,0c-3.3-1.7-1.1-6.4-4.2-8.4c-2.8-1.8-5.1-0.5-8.4-0.9
			c-3.3-0.4-5.9,1.3-8.4-0.9c-3-2.6,1.1-6.6-0.9-10.1c-0.4-0.7-0.7-1.2-1.1-1.8c-1-1.3-2.2-2.2-3.9-3.3c-3.2-2-5.7-1.3-9.2-2.6
			c-3-1.1-5.5-0.9-7.6-3.3c-1.8-2.3-1.7-4.5-1.6-7.6c0-2-0.2-3.3,0.9-5c2.3-3.6,7.9,2.1,10.9-0.9c1.8-1.8,2.4-3.4,2.6-5.9
			c0.1-3.2-2.8-4.3-3.3-7.6c-0.6-3.9,3.1-6.4,1.7-10.1c-1.1-3-4.5-2.9-5.9-5.9c-1.3-2.7-0.4-4.6-0.9-7.6c-1-5.4-1.9-8.4-4.2-13.4
			c-1.8-4.1-4.7-5.7-5.9-10.1c-1.1-4.1,0.9-6.7,0-10.9c-1-4.6-0.6-9.5-5-10.9c-3.7-1.1-6.1,1.2-9.2,3.3c-3.3,2.2-4,4.7-6.7,7.6
			c-2.6,2.7-4.6,3.7-6.7,6.7c-2.6,3.8-0.6,8-4.2,10.9c-1.9,1.6-3.8,1.1-5.9,2.6c-2.1,1.5-2.1,3.7-4.2,5c-2.3,1.4-4.1,1.1-6.7,1.7
			c-3.6,0.8-5.7,0.5-9.2,1.7c-5,1.6-6.6,5.6-11.8,6.7c-3.5,0.8-5.9,1.3-9.2,0c-2.8-1.1-3.8-2.9-5.9-5c-2.1-2.1-2.3-4.5-5-5.9
			c-3.2-1.6-6.9,2.8-9.2,0c-1.8-2.3,0-4.6,0-7.5c0-5.2-2-8.6,0-13.5c1.4-3.5,3.8-4.5,5.9-7.6s2.3-5.7,5-8.4c2-2.1,4.5-1.7,5.9-4.2
			c1.7-3.2,1.7-6.7-0.9-9.2s-5.6-0.6-9.2-0.9c-4.9-0.4-7.7-0.3-12.6-0.9c-2.3-0.3-4.5,1-5.9-0.9c-1.4-1.8,1.6-3.7,0.9-5.9
			c-0.9-2.6-3.5-2.8-5.9-4.2c-1.9-1.1-3.2-1.3-5-2.5c-3.1-2.1-3.8-4.4-6.7-6.7c-2.8-2.3-4.2-3.8-7.6-5c-6.2-2.2-10.2,1.7-16.8,2.6
			c-6.2,0.8-9.7,1.6-15.9,1.7c-5.6,0.1-8.7-0.4-14.2-0.9c-7.6-0.7-11.7-2.9-19.3-2.5c-4.3,0.2-7.4-0.9-10.9,1.7
			c-3.1,2.2-3,5.1-5,8.4c0.1,2.3,0.1,4.1,0,6.7c-0.1,3-0.1,4.7-0.9,7.6c-1.2,4.7-3.5,6.7-5.9,10.9c-1.9,3.3-3.8,4.7-5,8.4
			c-1.6,4.7,2.3,8.8-0.9,12.6c-1.5,1.8-3,2.1-5,3.3c-2,1.3-3.1,2-5,3.3c-3.5,2.6-5,4.8-8.4,7.6c-3.1,2.5-5,3.8-8.4,5.9
			c-3.5,2.2-7.7,1.2-9.2,5c-1.1,2.8-1,5.2,0.9,7.6c2.3,2.8,6-0.1,9.2,1.7c4.5,2.5,5.7,6.1,7.6,10.9c1.6,4.3,2.3,7.2,1.6,11.8
			c-0.6,4.6-2.6,6.9-5,10.9c-1.7,2.8-3.8,3.7-5,6.7c-1.7,4.3,4.5,11,0,11.8c-1.6,0.3-2.6-0.8-4.2-0.9c-3.1-0.1-4.7,1.3-7.6,2.5
			c-1.1,0.5-2.2,1.1-3.1,1.6c-3.9,2.3-6.2,5.1-10.3,8.4c-2.7,2.2-3.8,4-6.7,5.9c-4.4,2.8-7.8,2.3-12.6,4.2c-4.3,1.8-6.4,3.5-10.9,5
			c-4.1,1.4-6.7,1.3-10.9,2.6c-5,1.4-8.2,1.4-12.6,4.2c-1.8,1.1-3.3,1.5-4.2,3.3c-1.1,2.3,0.6,4,0.9,6.7c0.2,3.3,0.2,5.1,0,8.4
			c-0.3,4.3-0.7,6.7-1.7,10.9c-1.8,7.9-6.1,11.3-7.5,19.3c-0.6,3,0.4,5.5,0.4,7.9c0,1.3-0.3,2.6-1.2,3.8c-1.4,2.1-3.3,2.4-5,4.2
			c-3.2,3.2-4,5.7-6.7,9.2c-1.3,1.6-1.4,3.4-3.3,4.2c-2.5,1.1-4-2-6.7-1.7c-4.2,0.5-4.3,5.6-8.4,6.7c-4.2,1.1-7.4,0.9-10.9-1.7
			c-4-2.9-2.8-7.3-5-11.8c-1.2-2.3-2.5-3.4-3.3-5.9c-1-2.7-0.3-4.7-0.5-7.2c0-0.6-0.1-1.3-0.4-2c-1-3.5-3.8-4.7-4.2-8.4
			c-0.6-4.4,2.1-6.7,3.3-10.9c0.6-2.3,0.9-3.6,1.7-5.9c1.5-4.1,3.3-6,5-10.1c1.1-2.6,1.5-4.1,2.6-6.7c1.6-4.3,2.4-6.7,4.2-10.9
			c1.8-4.3,7.1-6.7,5-10.9c-1.3-2.6-3.2-3.3-5.9-4.2c-3.8-1.2-6.1,1.5-10.1,1.7c-5.2,0.2-8.1-1.1-13.4-1.7
			c-4.3-0.4-6.7-0.7-10.9-0.9c-4.3-0.1-8.5,3.5-10.9,0c-1.3-1.9-0.9-3.5-0.9-5.9s1.3-3.6,0.9-5.9c-1.3-7.1-11.3,0.3-18.4-0.9
			c-5.3-0.9-10.3,1.1-13.4-3.3l-0.1-0.1c-1.8-2.7-0.5-5.2-1.6-8.3c-1.3-3.6-1.9-6.2-5-8.4c-3.5-2.5-6.7-0.9-10.9-1.7
			c-5-1-8.7-0.1-12.6-3.3c-2.1-1.8-2-4.2-4.2-5.9c-2.7-2.1-5-2.1-8.4-2.5c-5.3-0.6-8.4,0.6-13.5,2.5c-3.8,1.4-5.2,4.2-9.2,5
			c-3.8,0.8-10.7,3-10.1-0.9c0.4-2.3,2.8-2.3,4.2-4.2c2.3-2.9,3.5-4.8,4.2-8.4c0.9-4.5-2.2-7.2-1.7-11.8c0.5-4.5,4.8-6.4,4.2-10.9
			c-0.4-2.9-1.2-4.7-3.4-6.7c-2.6-2.3-5-1.8-8.4-2.6c-3.3-0.6-6.1,1.5-8.4-0.9c-3-3.1-0.2-7.4,2.5-10.9c2.6-3.3,7.4-1.3,9.2-5
			c1.1-2.1,0.2-3.6,0.9-5.9c1.1-4,2.3-6.2,5-9.2c2.7-3,5-3.9,8.4-5.9c2.6-1.5,4.5-1.5,6.7-3.3c2-1.6,2.1-3.5,4.2-5
			c2.5-1.8,4.8-1,7.6-2.6c2.6-1.5,3.6-3,5.9-5c2.6-2.3,3.7-4.2,6.7-5.9c2.4-1.3,4.5-0.8,6.7-2.6c2.8-2.3,4.2-8.4,4.2-8.4
			c2.3-0.1,3.6-0.3,5.9-0.9c2.7-0.7,4.2-1.4,6.7-2.6c4.5-1.9,6.3-4.3,10.9-5.9c2.8-1,5.4,0.4,7.6-1.7c2.1-2.1,1.1-4.5,1.7-7.6
			c0.4-2.3-0.8-4.3,0.9-5.9c1.6-1.6,3.6-1.1,5.9-0.9c2.1,0.2,3.1,0.9,5,1.7c3,1.1,4.3,3.3,7.6,3.3c3.1,0.1,5-0.8,7.5-2.6
			c1.9-1.3,3.8-1.9,4.2-4.2c0.5-2.6-1.3-4.1-3.3-5.9c-1.9-1.6-5.6-0.1-5.9-2.5v-0.1c-0.3-2.8,4-2.5,6.7-2.5c2.7,0,3.8,2.2,6.4,2.5
			l0.4,0.1l1.3-0.1c1.9-0.2,3.3-1,5.4-1.6c2-0.6,3-1.8,5-1.7c2.2,0.1,2.8,2.6,5,2.6c3.3-0.1,3.5-3.7,5.9-5.9c1.9-1.7,2.5-4,5-4.2
			c1.8-0.1,2.5,1.1,4.2,1.7c3.8,1.2,6.2,2.5,10.1,1.7c3.3-0.6,4.4-3,7.5-4.2c4-1.5,6.9-0.1,10.9-1.7c3.7-1.5,5.1-3.6,8.4-5.9
			l10.9-7.5c3.3-2.3,5.7-3,8.4-5.9c3.1-3.3,1.5-8.9,5.9-10.1c1.6-0.4,2.6,0.3,4.2,0c3.8-0.6,4.7-3.9,8.4-5c2.2-0.6,3.6-0.4,5.9-0.9
			c2.3-0.5,4.1-0.1,5.9-1.7c1.9-1.6,3.1-3.5,2.6-5.9c-0.4-1.6-2.4-1.7-2.6-3.3c-0.2-2.3,2.1-3.3,4.2-4.2c3-1.3,5.1,0.7,8.4,0.9
			c2.3,0.1,3.6-0.4,5.9,0c2.1,0.4,3.8,0.1,5,1.7c1,1.3-0.1,2.8,0.9,4.2c2.1,3,5.7,0,9.2,0c2,0,3.3,0.9,5,0c1.9-0.9,2.7-2.2,3.3-4.2
			c0.6-1.8-1.2-3.5,0-5c1.4-1.8,3.6-1.3,5.9-0.9c1.8,0.4,2.6,1.4,4.2,2.6c1.7,1.2,2.3,2.6,4.2,3.3c2.4,1,4.1,0.4,6.7,0
			c3.8-0.6,5.7-2,9.2-3.3c5-1.8,7.9-2.5,12.6-5c3.1-1.7,4.7-2.9,7.6-5c2.8-2.1,4.4-3.3,6.7-5.9c1.8-2.1,4.9-3.1,4.2-5.9
			c-0.1-0.1-0.1-0.3-0.1-0.4c-1-2-4.4-0.9-5.7-2.9c-1.6-2.5,0-4.6,0-7.6c0-2.6-1.5-4.5,0-6.7c1.1-1.6,2.4-1.8,4.2-2.6
			c2.2-0.8,3.8-1.9,5.9-0.9c1.4,0.8,1.1,2.6,2.6,3.3c1.7,1,3.2,0.6,5,0c2.5-0.8,3.8-2,5-4.2c1.1-2.1,0.1-3.7,0.9-5.9
			c0.9-2.5,5-3.8,3.3-5.9c-1.2-1.6-3-0.7-5-0.9c-2-0.1-3.3,0.7-5,0c-2.6-1.1-2.1-4-4.2-5.9c-2-1.8-3.5-2.3-5.9-3.4
			c-5.5-2.3-9.1-1.4-15.1-1.7c-3.9-0.1-6.2-0.9-10.1,0c-4.3,0.9-7.2,1.7-10.1,5c-1.9,2.2-2.3,4-3.3,6.7c-1.3,3.5,0.2,6.7-2.5,9.2
			c-2.3,2.1-4.5,2.1-7.6,2.6c-3.3,0.6-5.7-2-8.4,0c-2.5,1.8-0.8,5-2.6,7.6c-2.6,3.8-6,4-10.1,5.9c-3.2,1.6-5.1,2.2-8.4,3.3
			c-3.3,1.1-5.4,0.9-8.4,2.6c-1.1,0.6-1.9,1.3-2.6,2.1c-1.2,1.3-2.2,2.7-4.1,3.8c-2.7,1.5-4.5,2.3-7.6,2.6
			c-4.3,0.4-8.2,0.9-10.9-2.6c-1-1.3-1.3-2.5-1.3-3.8c-0.1-1.1-0.1-2.3-0.3-3.8c-0.4-2.6-1.8-4.3-0.9-6.7c1.3-3.4,5-2.7,8.4-4.2
			c3.2-1.4,6.2-0.6,8.4-3.3c2.3-2.8,2.8-5.7,1.7-9.2c-0.7-2.3-1.4-3.7-3.3-5c-3.2-2.3-6.2-0.6-10.1,0c-2.6,0.4-4.4,0.2-6.7,1.7
			c-3,1.9-2.3,5.4-5,7.6c-1.7,1.3-3.1,1.5-5,2.6c-3,1.6-4.5,5.6-7.5,4.2c-3.6-1.7,0.6-6.2,1.7-10.1c0.8-2.7,0.6-4.7,2.5-6.7
			c2.2-2.2,6.2,0.3,7.5-2.6c1.4-2.8-0.1-5.7-2.6-7.6c-2.6-2-5.2-0.4-8.4,0c-3.7,0.4-7.7,5.9-9.2,2.6c-0.7-1.5-0.4-2.6,0-4.2
			c0.9-3.8,3.8-5.7,7.6-6.7c2.2-0.6,4.2,1.6,5.9,0c1.4-1.3,1.1-3,0.9-5c-0.4-2.6-3.3-3.3-3.3-5.9c-0.1-2.1,1.1-3,1.7-5
			c0.9-3.2,2.6-5.2,1.7-8.4c-1.1-3.8-4.2-4.7-7.6-6.7c-2.1-1.3-3.5-1.7-5.9-2.6c-2.8-0.9-4.5-1.8-7.6-1.7c-3.4,0.1-5.1,1.6-8.4,2.5
			c-3.6,1-6.9-0.4-9.2,2.6c-1.1,1.3-0.4,3-1.7,4.2c-2,1.8-4.3-0.9-6.7,0c-4.2,1.5-3.5,6.2-6.7,9.2c-2.1,1.9-4,2.1-5.9,4.2
			c-1.6,1.7-1.8,3.3-3.3,5c-1.4,1.6-2.4,2.3-4.2,3.4c-2.4,1.4-4.9,0.4-6.7,2.6c-1.6,1.8-2.4,3.6-1.7,5.9c1.1,3.3,5.2,1.2,8.4,2.6
			c2,0.9,3,1.6,5,2.6c3.9,2,9.5,0.7,10.1,5c0.4,2.9-1.3,4.7-3.3,6.7c-3.8,3.7-8.9-0.9-13.4,1.7c-1.8,1.1-4,1.3-4.2,3.3
			c-0.2,2.1,1.6,3,3.3,4.2c3,2,6.2-1.9,9.2,0c1.8,1.1,4.4,2.4,3.3,4.2c-1,1.7-3-0.1-5,0c-3.3,0.1-5.6-0.9-8.4,0.9
			c-1.6,0.9-2,2.1-3.3,3.3c-2.1,1.8-3.2,3.3-5.9,4.2c-2.5,0.8-4.1,0-6.7,0h-6.7l-0.9-0.9c-2.6,1.6-3.8,3.3-6.7,4.2
			c-1.9,0.6-3.6-0.6-5,0.9c-1.4,1.4-0.2,2.8,0.4,4.6c0.3,0.7,0.4,1.3,0.4,2.1c-0.2,3.8,0,7.3-3.3,9.2c-2.6,1.5-5,1.6-7.6,0
			c-2.8-1.7-3.5-4.3-3.3-7.6c0.1-1.6,0.6-2.8,1.5-3.8c1.2-1.5,3-2.7,4.4-4.6c2.2-3,7.2-4,5.9-7.6c-1.2-3.2-5-1.7-8.4-2.6
			c-3.3-0.8-5.1-1.3-8.4-1.7c-5.2-0.6-8.8-2.4-13.5,0c-2.3,1.1-3.1,2.6-5,4.2c-3.3,2.8-5.5,4.2-8.4,7.6c-1.3,1.6-1.6,3.3-2.7,4.6
			c-0.4,0.5-0.9,0.9-1.6,1.3c-2.6,1.3-4.6,0.2-7.6,0c-2.3-0.2-4.2-0.7-5.9-1.3c-2.3-0.8-4.5-1.6-7.5-2.1c-3.5-0.6-5.6-1-9.2-0.9
			c-4.5,0.2-7.2,2-11.1,2.9c-0.7,0.2-1.5,0.4-2.4,0.4c-5.2,0.6-8.5,1.8-13.5,0l-1.1-0.4c-2.2-1-3.4-2.3-5.7-3.8c-3-1.9-4.2-4-7.5-5
			c-4.5-1.3-7.5,3.5-11.8,1.7c-2.3-1-3-2.6-5-4.2c-2.3-1.9-5.2-2.1-5.9-5c-0.5-1.9,1.3-3.1,0.9-5c-0.9-3.5-4.8-3.6-8.4-4.2
			c-4-0.6-6.2,0.6-10.1,1.7c-3.4,1-5,2.4-8.4,3.4c-3.8,1.1-6.1,1.1-10.1,1.6l-5.9,0.9c-3.6,0.6-5.7,0.6-9.2,1.7
			c-2.3,0.8-5.3,0.1-5.9,2.5c-0.3,1.3,0.1,2.3,0.9,3.3c1.6,2.1,4.1,0.6,6.7,0.9c13.3,1.4,34.4-8.3,34.4,0c0,5.9-19.1,2.6-30.2,7.6
			c-1.8,0.8-3.3,1.4-4.7,2.1c-2.1,0.9-4,2-6.2,3.8c-1.8,1.5-2.9,2.3-4.2,4.2c-1.4,2.1-0.6,4.3-2.6,5.9c-4.3,3.8-6.6-6.2-10.9-10.1
			c-1.5-1.3-2.5-2.6-3.6-3.8c-1.1-1.1-2.2-2.1-4-2.9c-2.4-1.1-4-1.6-6.7-1.7c-4.4-0.2-6.5,2.5-10.9,3.3c-6.1,1.2-9.7,0.7-15.9,0.9
			c-3.9,0.1-6.2-0.1-10.1,0l-6.4,0.4c-2.4,0.2-4.7,0.4-7.8,0.4c-2.2,0-4-0.2-5.7-0.4c-3-0.4-5.7-0.9-9.4-0.4l-1.6,0.4
			c-3.2,1.2-5.7,4.2-8.4,2.1c-0.9-0.6-1.4-1.3-1.8-2.1c-0.6-1.3-0.8-2.8-0.7-4.6c0.1-2.5,0.8-4.1,2.6-5.9c3.2-3.3,7.2-0.7,11.8-0.9
			c3.3-0.1,5.2,0.7,8.4,0c3.1-0.6,5.9-0.6,7.6-3.3c1.6-2.8,0.9-5.6-0.9-8.4c-2.3-3.6-5.9-3.4-10.1-4.2c-4.8-0.9-7.7,0.7-12.6,0.9
			c-4.5,0.1-7.2,0.2-11.8,0c-3.9-0.1-6.2-0.1-10.1-0.9c-5.9-1.2-8.4-4.3-14.2-5.9c-3.9-1-6.2-1.1-10.1-1.7
			c-4.3-0.7-6.9-0.3-10.9-1.7c-4.7-1.6-6.3-4.8-10.9-6.7c-3.8-1.5-6.1-2-10.1-2.5c-5.2-0.7-8.4-1.3-13.4,0
			c-4.7,1.2-6.6,3.7-10.9,5.9c-4.2,2.1-7.3,8-10.9,5c-2.6-2.1-0.5-5.3-1.7-8.4c-1-2.4-1.1-4.5-3.3-5.9c-2.5-1.6-4.9-1.3-7.5,0
			c-2.3,1.1-2.5,3.1-4.2,5c-1.9,2.1-2.7,3.5-5,5c-2.3,1.5-3.9,2.4-6.7,2.6c-3.1,0.1-5.5-0.2-7.6-2.6c-2.3-2.5-1.5-5.1-1.7-8.4
			c-0.2-3.6,3.3-6.6,0.9-9.2c-1.8-2-4-1.8-6.7-1.7c-4.9,0.3-6,4.8-10.1,7.6c-3.2,2.1-4.9,3.5-8.4,5c-3.5,1.5-5.6,1.6-9.2,2.5
			c-4.9,1.2-7.7,1.6-12.6,2.6c-5.5,1.1-9.2,0.1-14.2,2.6c-4.6,2.2-5.4,6.4-10.1,8.4c-3.7,1.6-6.1,1.3-10.1,1.7
			c-6.8,0.7-10.9-1.6-17.6,0c-4.8,1.1-7.9,1.8-11.8,5c-2.8,2.4-2.3,6.4-5.9,7.5c-4,1.3-7.9-0.6-10.1-4.2c-1.5-2.6-2.3-5-0.9-7.6
			c1.9-3.1,5.7-0.8,9.2-1.7c3-0.8,4.7-1.2,7.6-2.5c3.9-1.8,5.2-4.4,9.2-5.9c3.5-1.3,5.6-1.2,9.2-1.7c3.3-0.4,5.1-0.6,8.4-0.9
			c5.5-0.5,8.9,0.9,14.2-0.9c4.3-1.4,6.2-3.5,10.1-5.9l8.4-5c-2.9-0.6-4.5-1.8-7.5-1.6c-3.1,0.1-4.5,1.9-7.6,2.5
			c-4.8,1-7.8-1.1-12.6,0c-3.4,0.8-5.1,2.1-8.4,3.3c-4.8,1.8-7.5,3.3-12.6,4.2c-3.9,0.7-6.2,0.1-10.1,0.9c-3.3,0.6-5.1,1.6-8.4,2.6
			h-0.9c-3-0.6-4.5-1.6-7.6-1.7c-4.7-0.1-7.1,2.4-11.8,3.3c-5.2,1.1-8.4,0.3-13.4,1.7c-4.1,1.1-7.2,1.1-10.1,4.2
			c-1.8,1.9-1.5,4-3.3,5.9c-1.8,1.8-3.3,2.6-5.9,3.4c-5.1,1.6-8.3-1.1-13.4-2.6c-4.7-1.3-7.4-2.1-11.8-4.2c-3.4-1.7-5-3.2-8.4-5
			c-3.2-1.8-4.9-3.2-8.4-4.2c-3.5-1-5.6-0.6-9.2-0.9c-4.6-0.2-7.4,1.3-11.8,0c-2.1-0.6-3.5-1.5-4.8-2.5c-1.3-1-2.6-2.2-4.4-3.4
			c-3-2.2-3.9-5.3-7.6-5.9c-2.3-0.4-3.7,0-5.9,0.9c-2.6,1-3.3,3-5.9,4.2c-4.2,2-7.2,2.1-11.8,1.7c-3-0.2-4.7-0.6-7.5-1.7
			c-3.6-1.3-4.7-4.2-8.4-5c-2.8-0.7-4.6,0.1-7.5,0c-4.6-0.1-7.2-0.4-11.8-0.9c-2.9-0.3-4.6-0.4-7.6-0.9c-4.6-0.7-7.2-1.5-11.8-2.5
			c-4.3-1-6.5-2.2-10.9-2.6c-4.3-0.3-6.7,0.6-10.9,0.9c-4.6,0.1-7.2-0.5-11.8,0c-3.6,0.4-5.7,2.4-9.2,1.7c-4.7-1-4.7-6.7-9.2-8.4
			c-4.6-1.8-7.7-0.3-12.6,0c-3.3,0.2-5.2,1.6-8.4,0.9c-3.9-0.9-4.9-3.9-8.4-5.9c-4.3-2.5-6.9-4.2-11.8-5c-3.9-0.7-6.4-1.4-10.1,0
			c-2.6,1-3.5,2.7-5.9,4.2c-3.5,2.2-5.3,3.8-9.2,5c-5.6,1.8-9.2,0.7-15.1,0.9c-4.3,0.1-6.7,0-10.9,0c-5.2,0-8.2-0.6-13.4,0
			c-6.7,0.7-10.4,1.9-16.8,4.2c-5.8,2.1-8.3,8.1-14.2,6.7c-3.5-0.8-4.1-4.2-7.6-5c-3.9-0.9-6.2,0.8-10.1,1.7c-5.7,1.3-8.7,3-14.2,5
			c-6.2,2.3-9.5,4.2-15.9,5.9c-5.2,1.3-8.1,2.2-13.5,2.5c-2.3,0.1-3.7-0.6-5.9,0c-4,1.1-4.3,5-7.6,7.6c-3,2.3-4.7,3.9-8.4,5
			c-3.1,1-5.1,0.5-8.4,0.9c-5,0.6-7.9-0.1-12.6,1.7c-4.4,1.7-5.5,5.3-10.1,6.7c-1.6,0.5-2.6,0.6-4.3,0.9c-5.5,0.8-8.7-1.4-14.2-0.9
			c-3.3,0.4-5.3,0.4-8.4,1.7c-3.3,1.3-4.5,3.3-7.5,5c-3.5,1.9-10.6,0.5-9.2,4.2c0.8,2.3,2.9,2.3,5,3.4c1.8,0.9,3.3,0.5,5,1.7
			c2.6,1.8,2.4,4.3,4.2,6.7c1.2,1.7,3,2.1,3.3,4.2c0.4,2.8-3.5,3.1-4.2,5.9c-0.5,1.9-1.3,3.6,0,5c1.1,1.2,2.6,0.6,4.2,0.9h1.3
			c3.4-0.4,7.4-3.1,7.9,0c0.4,2.1-1.6,3-2.6,5c-1.3,2.9-1.8,4.7-3.3,7.6c-1.2,2.3-1.2,4.3-3.3,5.9c-2.9,2.1-5.7,0-9.2,0
			c-3.9,0-6.2-0.8-10.1,0c-3.5,0.7-5.5,5.2-8.4,3.3c-1.6-1.1-2.8-2.3-2.6-4.2c0.3-2.3,3.1-1.9,5-3.4c2.4-1.8,6.6-2.1,5.9-5
			c-0.7-2.9-4.5-1.4-7.5-1.7c-3.6-0.3-5.7,0.6-9.2,0.9c-3.9,0.2-6.2-0.5-10.1,0c-4.7,0.6-7.4,1.3-11.8,3.3c-3.2,1.6-4.4,3.5-7.6,5
			c-2.8,1.3-4.5,2-7.6,2.6c-4.8,0.9-8-2.7-12.5-0.9c-2.2,0.9-3,2.2-5,3.3c-4.5,2.6-7.7,2.6-12.6,4.2c-3.9,1.3-6.5,1.2-10.1,3.3
			c-3,1.8-8.1,2.7-6.7,5.9c1,2.3,3.5,1.8,5.9,2.6c4.7,1.5,15.9-2,12.6,1.7c-2.5,2.7-6.1-0.2-9.2,1.7c-2,1.2-2.4,2.8-4.2,4.2
			c-2.1,1.6-5.7,0.7-5.9,3.3c-0.1,2.6,2.7,3.2,5,4.2c2.4,1.1,4,0.7,6.7,0.9c4,0.1,6.2-0.4,10.1-0.9c4.3-0.5,6.6-2,10.9-1.7
			c2,0.1,3,0.7,5,0.9c3.3,0.2,5.1-1.1,8.4-0.9c2.7,0.2,4,1.3,6.7,1.7c6.6,0.8,20.5-8.9,16.8-3.3c-1,1.6-2.4,1.8-3.3,3.3
			c-1.9,3,1.6,6.6-0.9,9.2c-1.5,1.6-2.9,2-5,2.6c-4.6,1.1-7.3-5.1-11.8-3.3c-2.4,0.9-3.5,2.2-5,4.2c-2.3,3-0.8,6.4-3.3,9.2
			c-3.5,3.9-7.7,2.3-12.6,4.2c-4.7,1.8-7,3.4-11.8,5c-4.8,1.7-7.9,5.4-12.6,3.3c-1.9-0.9-2.4-2.3-4.2-3.3c-2.1-1.3-3.4-2.3-5.9-2.6
			c-3.4-0.4-5.2,1.2-8.4,2.6c-4.6,1.9-7.2,3.5-10.9,6.7c-0.4,0.3-0.6,0.6-0.9,0.9c-1.1,1.2-1.8,2.3-3.3,3.3c-2.8,2.1-5,2.3-8.4,3.3
			c-5.1,1.6-8.6,0.2-13.4,2.6c-4.6,2.2-6.2,5.1-10.1,8.4c-2.3,2-3.2,3.7-5.9,5c-4.1,2.1-7.7-1.3-11.8,0.9c-2.3,1.2-4.1,1.8-5,4.2
			c-1.1,2.8,0.6,4.7,1.7,7.5c1,2.5,3.6,3.3,3.3,5.9c-0.4,4.1-6.5,1.2-10.1,3.3l-2.1,1.3c-1.6,0.9-2.8,1.9-3.8,3.8
			c-1.8,3.5,0,6.2,0.9,10.1c0.5,2.5,0,4.5,1.8,6.3c2.1,2,4.5,1.1,7.4,1.1c4.3-0.1,6.4-1.8,10.5-3.1c3.7-1.2,5.6-2.6,9.4-3.1
			c4-0.7,9.2-3.9,10.5,0c1.1,3.3-2.8,4.7-5.2,7.4c-2.2,2.3-3.5,3.8-6.3,5.2c-2.3,1.2-4.3,0.4-6.3,2.1c-2.7,2.3-1,5.7-3.2,8.4
			c-1.6,2.1-3.2,2.6-5.2,4.2c-2.1,1.6-5.8,2.4-7.7,3.5c-1.1,0.7-1.6,1.5-0.6,2.7c2,2.6,5.1,0.3,8.4,0c4.2-0.4,6.3-1.8,10.5-2.1
			c2.8-0.2,4.5,0.6,7.3,0c0.6-0.1,1.2-0.4,1.7-0.6c1.6-0.9,2.6-2,4.6-2.6c3.5-1,5.9-1,9.4,0c2.4,0.6,4.4,0.8,5.8,2.6
			c0.1,0.2,0.3,0.4,0.4,0.6c1.8,2.8-4,6.8-1.1,8.4c2.3,1.2,4.2-0.6,6.3-2.1c2.1-1.5,2.4-3.3,4.2-5.2c0.5-0.6,0.9-1.1,1.3-1.7
			c1.1-1.6,1.9-3.1,4-3.5c2.6-0.5,3.9,1.2,6.3,2.1c1.3,0.5,2.3,1,3.3,1.5c0.6,0.2,1.1,0.4,1.9,0.6c1.6,0.4,3.5,0,5.4-0.6
			c5.5-1.8,11.1-6,10.3-1.5c-0.1,0.6-0.2,1-0.4,1.5c-0.4,1-0.9,1.8-1.7,2.7c-3.5,4-9.2-1.9-13.6,1.1c-4,2.6-1.9,8.6-6.3,10.5
			c-3,1.3-5.5-1.4-8.4,0c-2.9,1.3-3.2,3.8-5.2,6.3c-2.1,2.5-2.2,5.4-5.2,6.3c-1.6,0.4-2.6,0-4.2,0c-5.3,0-8.4-1.2-13.7,0
			c-5.3,1.2-8.1,3-12.6,6.3c-3.7,2.8-4.2,6.4-8.4,8.4c-4.1,1.9-7.1,0.1-11.5,1.1c-5.1,1-8.1,1.7-12.6,4.2c-3,1.7-4.2,3.7-7.3,5.2
			c-5.6,2.8-9.8,1.1-15.7,3.1c-5.2,1.8-7.2,5.2-12.6,6.3c-5.6,1.1-9.3-3-14.7-1.1c-1.7,0.6-2.6,1.3-4.2,2.1c-4.1,2.1-6.1,4-10.5,5.2
			c-5.5,1.6-9.4-1.2-14.7,1.1c-3.8,1.6-5,4-8.4,6.3c-2,1.3-3.2,1.9-5.2,3.2l-8.4,6.3c3.7,1.6,5.5,4,9.4,4.2c3.9,0.1,5.7-2.1,9.4-3.2
			c4.4-1.1,7.2-0.7,11.5-2.1c5.2-1.6,7.9-3.5,12.6-6.3c2.6-1.6,3.4-3.5,6.3-4.2c3.7-0.9,5.7,1.7,9.4,2.1c3.3,0.4,5.2,0.6,8.4,0
			c4-0.8,5.6-3,9.4-4.2c5.1-1.6,9,0.6,13.7-2.1c3-1.8,3-5.4,6.3-6.3c3.8-1.1,5.6,3.3,9.4,3.1c4-0.1,6.1-1.9,9.4-4.2
			c4-2.8,4.2-6.9,8.4-9.4c4.7-2.8,8.3-2.1,13.6-3.1c5.3-1,8.3-1.4,13.6-2.1c4.1-0.5,6.6,0.3,10.5-1.1c4.7-1.6,7.9-3.1,10.5-7.4
			c1.1-1.8,0.7-3.5,2.1-5.2c2.5-3,5.9-1.6,9.4-3.1c3.3-1.6,4.7-3.4,8.1-4.8c4-1.6,6.5-2.4,10.9-2.5c3-0.1,4.6,1.3,7.6,0.9
			c4.4-0.8,5.2-4.9,9.2-6.7c4.5-2.1,7.7-1.6,12.6-2.6c3.9-0.7,6.7,0.4,10.1-1.7c2.4-1.4,3-3.1,5-5c2.6-2.4,3.7-4.3,6.7-5.9
			c2-1.1,3.8-1.4,5.5-1.7c1.4-0.2,2.8-0.4,4.5-0.9c3.3-0.9,7.1,0.6,8.4-2.5c1.1-2.5-2-4-1.7-6.7c0.4-3,1.8-4.7,4.2-6.7
			c3.6-3,7.2-1.4,11.8-2.6c3.6-0.9,5.6-1.7,9.2-2.6c3.3-0.8,5.2-0.8,8.4-1.7c4.8-1.4,7.7-2.1,11.8-5c3-2.2,3.8-4.4,6.7-6.7
			c3-2.3,5-3.2,8.4-5c3.2-1.8,4.9-3.1,8.4-4.2c4.7-1.4,8,0.9,12.6-0.9l1-0.4c3.4-1.6,4.9-4,8.2-6.3c2.6-1.7,3.8-3.4,6.7-4.2
			c2.8-0.8,4.6,0.3,7.6,0c3.3-0.3,6.5-4.5,8.4-1.7c1.1,1.6,0.6,3.2,0,5c-1.6,4.5-7,2.6-11.8,3.3c-3.3,0.6-5.2-0.1-8.4,0.9
			c-2.7,0.8-4.3,1.7-6.3,3c-0.6,0.4-1.3,0.8-2.1,1.3c-5.2,3-7,6.7-12.5,9.2c-2.8,1.3-4.5,1.8-7.6,2.6c-3.2,0.7-5.4-0.5-8.4,0.9
			c-2.8,1.2-3.8,2.9-5.9,5c-2.1,2.1-2.6,4.2-5,5.9c-2.3,1.6-4.6,0.6-6.7,2.6c-2.2,1.9-4.3,3.9-3.3,6.7c1.1,3.3,5,2.1,8.4,2.6
			c4.9,0.7,8.1,1.1,12.6-0.9c3-1.3,3.9-3.4,6.7-5c3.9-2.3,6.5-3,10.9-4.2c3.8-1.1,6.1-1.3,10.1-1.7c4.3-0.4,7.1,1.9,10.9,0
			c3.1-1.6,2.8-5.2,5.9-6.7c2.9-1.5,5.2-0.4,8.4-0.9c3.3-0.5,5.1-1.3,8.4-1.7c4.3-0.4,6.7,0.7,10.9,0c4.1-0.6,8.1,0.3,10.1-3.3
			c1.6-2.9-0.7-5.1-0.9-8.4c-0.1-1.4-0.4-2.6-0.5-3.8c-0.1-0.9,0-1.9,0.5-3c1.8-3.8,5.8-3.9,10.1-4.2c4-0.3,6.4,0.9,10.1,2.6
			c2.8,1.3,4.3,2.3,6.7,4.2l0.5,0.4c3.4,2.9,4.1,6.2,7.9,8.8c5.1,3.5,9.4,2.7,15.1,5c4.3,1.8,6.2,5.4,10.9,5
			c3.7-0.3,4.8-3.3,8.4-4.2c4.1-1.1,6.7-0.5,10.9,0c4.3,0.5,6.8,1,10.9,2.6c3.4,1.3,5,2.8,8.4,4.2c4.7,1.8,8.1,1,12.6,3.3
			c3.3,1.8,5.1,3,7.5,5.9c1.6,1.8,1.3,3.8,3.4,5c2,1.3,3.9-0.4,5.9,0.9c2.5,1.6,2.3,4,3.3,6.7c0.4,0.9,0.5,1.7,0.6,2.6
			c0.3,1.8,0.4,3.5,1.8,5c2.2,2.2,5,0.7,7.6,2.6c1.5,1.1,1.8,2.3,3.3,3.3c2.6,1.8,7.6-0.6,7.6,2.6s-4.5,1.8-7.6,2.6
			c-3.8,0.9-7.5-2.1-10.1,0.9c-3.2,3.7,4.3,6.9,4.2,11.8c-0.1,5-3.9,6.9-5,11.8c-1.6,6.7-6.9,17.1,0,17.6c3.2,0.2,4.9-1.6,7.6-3.3
			c3.5-2.3,4.7-4.5,7.6-7.6c2.7-2.8,4.3-4.5,6.7-7.6c2.1-2.6,2.1-5.4,5-6.7c2.4-1.1,4.3,0.9,6.7,0c4-1.4,5-4.5,6.7-8.4
			c1.4-3.3,2.9-5.7,1.6-9.2c-1.1-3-7.1-2.8-5.9-5.9c1.2-3,6.3-2.5,8.4,0c1.5,1.8,0.8,3.5,0.9,5.9c0.1,5.1-4.7,7.7-3.3,12.6
			c1,3.6,4.2,4.3,5.9,7.6c1.4,2.8,2,4.5,2.6,7.6c0.7,4.5,0.2,7.3-0.9,11.8c-1.3,5.2-2.6,8.2-5.9,12.6c-2.3,3-6.9,3-6.7,6.7
			c0.1,3,3.7,3.2,5,5.9c1.3,2.7,1.2,4.5,1.7,7.5l0.5,3c0.3,2.1,0.5,3.8,0.4,6.2c-0.3,5.1,0.2,9-3.3,12.6c-1.8,1.8-3.5,2.1-5.9,3.3
			c-1.9,1-3.4,1.1-5,2.6c-2.6,2.3-3.8,4.9-3.3,8.4c0.4,3,1.1,6.2,4.2,6.7c2.6,0.4,4.1-1.4,5.9-3.3c1.5-1.6,0.4-4.3,2.6-5
			c2.1-0.7,3.9,0.6,5,2.6c1.6,2.7-0.9,5-2.6,7.6c-1.5,2.3-4.5,2.3-5,5c-0.7,3.7,3.3,4.9,5.9,7.6c1.4,1.4,3,2.1,4.5,2.8
			c1.2,0.7,2.3,1.5,3,3c1.3,2.6,2.6,5.2,0.9,7.6c-2.1,2.9-6.2-2-9.2,0c-3.5,2.3-1.5,6.4-3.3,10.1c-1.8,3.5-6,4.4-5.9,8.4
			c0.1,2.9,1,5,3.3,6.7c2.9,2.1,5.7-0.6,9.2,0c2.3,0.4,3.9,0.4,5.9,1.6c2.8,1.9,1.8,5.2,4.2,7.6c2.6,2.6,5,2.8,8.4,4.2
			c2.6,1.1,4.7,0.6,6.7,2.5c3.4,3.1,0.2,7.4,1.7,11.8c1.1,3.5,0.9,6.7,4.2,8.4c1.2,0.6,2.1,0.3,3.4,0.9c2.8,1.3,4,3,5,5.9
			c0.9,2.1,0.3,3.8,0.1,5.6c-0.1,0.9-0.2,1.8-0.1,2.8c0.2,1.6,0.6,2.6,0.9,4.2c0.3,2.3,0.9,3.8,0,5.9c-1.2,3-4.5,2.6-6.7,5
			c-1.6,1.8-1.1,4.3-3.3,5c-2.8,1-4-2.3-6.7-3.3c-4.4-1.7-7.2-3.5-11.8-2.6c-3.8,0.8-4.7,3.8-8.4,5c-1.3,0.4-2,0.8-3.3,0.9
			c-5.2,0.1-2.4-10.3-7.6-10.9c-2-0.2-3.3-0.1-5,0.9c-4,2.3,0.3,7.3-0.9,11.8c-1,4-3,6-2.5,10.1c0.4,3.2,2.8,4.4,3.3,7.6
			c0.8,5,0.5,9.3-3.3,12.6c-1.7,1.4-3.3,1.2-5,2.6c-3.4,2.6-4.8,5.1-5.9,9.2c-0.9,3.5,1.1,5.8,0,9.2c-1.3,4.5-4.4,5.8-7.6,9.2
			c-3.1,3.5-5.5,4.8-8.4,8.4c-4.7,5.8-4.1,11.3-9.2,16.8c-2.8,3-5.5,3.6-8.4,6.7c-3.9,4.2-3.1,9-7.5,12.6c-2.8,2.3-6.1,1.3-8.4,4.2
			c-1.5,1.8-0.9,3.9-1.8,5.7c-0.1,0.4-0.4,0.7-0.8,1.1c-1.6,1.6-3.3,1.1-5,2.6c-3.3,2.8-2.6,6.1-4.2,10.1c-1,2.6-1.6,4-2.5,6.7
			c-2.1,6.1-2.1,9.8-4.2,15.9c-1.7,5-2.3,8-5,12.6c-2.8,4.8-5.7,6.7-9.2,10.9c-1.6,2-3,2.8-4.2,5c-1.9,3.8-0.6,6.7-0.9,10.9
			c-0.2,4.6-0.5,7.2,0,11.8c0.4,3.3,2.2,5.1,1.7,8.4c-0.4,2.5-2,3.5-2.6,5.9c-1,4.2-1.5,7.4,0.9,10.9c1.4,2.1,3.8,2,5,4.2
			c1.5,2.6,0.4,4.6,0.9,7.5c0.6,4.3,2.6,6.7,1.7,10.9c-0.7,3.3-3.5,4.3-4.2,7.6c-0.5,2.3-0.9,4.4-0.6,6.3c0.2,1.7,0.9,3.3,2.3,4.6
			c2.2,2.1,6.1-0.2,7.6,2.6c1.3,2.3-0.1,4.2-0.9,6.7c-0.6,2.4-0.3,4.7-2.5,5.9c-2.6,1.2-4.5-4.2-6.7-2.6c-1.4,1.1-1.3,2.5-1.7,4.2
			c-0.8,4.5,2.6,6.7,4.2,10.9c1.6,4.3,1.9,7,4.2,10.9c2.9,5,9.6,5.1,10.1,10.9c0.3,3.8-4,5.5-3.3,9.2c0.5,3,1.5,5.2,4.2,6.7
			c3.8,2.1,6.5-2.8,10.9-2.5c2.7,0.2,4.8-0.2,6.7,1.7c1.9,1.9-0.2,4.8,1.7,6.7c1.9,1.9,4.3,0.6,6.7,1.7c2.1,1,3.3,1.8,5,3.3
			c2,1.7,3,3.3,4.3,5.1l0,0c3.9-0.6,8.2-1.2,12.7-1.8c9-1.3,18.6-2.9,27.1-4.1c4.8-0.7,9.2-1.3,13-1.7c-0.1,1.8-0.1,3-0.2,4.4
			c0,0.4,0,0.8-0.1,1.2c15.6,6.3,31.5,12,46.8,19.1c15.8,7.2,31.8,10.6,49.2,8.9c6-0.6,12.1-0.6,18.3-0.6c4.8,0,9.6,0.1,14.7,0l0,0
			c0.1-0.3,0.2-0.6,0.3-0.9c0.9-3.3,1.8-6.4,2.8-10.1c11.8-0.1,23.8-0.4,35.8-0.4c0.4,0,0.9,0.1,1.3,0.2c0.2,0.1,0.4,0.1,0.6,0.2
			c1.3,0.4,2.6,1.1,3.4,2.1c0,0.1,0.1,0.1,0.1,0.1l0,0c0.2,0.3,0.4,0.6,0.6,0.8c4.1,5.2,7.8,10.8,11.8,16.2c0.3,0.4,0.6,0.7,0.9,1.1
			c0.7,1,1.6,1.9,2.4,2.7c0.6,0.6,1.2,1,1.9,1.3c0.1,0.1,0.2,0.1,0.4,0.2c5.3,2.6,6.5,6.9,5.7,11.9c-0.6,3.4-0.6,6.4-0.1,9.1
			c1.1,6.6,4.9,11.5,10.3,15.5c1.9,1.4,4,2.8,6.3,4c0.6,0.4,1.2,0.7,1.8,1.1c0.7,0.5,1.4,0.9,2.1,1.3c5,2.8,7.4,2.6,11.3-1.7
			c0.5-0.5,0.9-1.1,1.3-1.7c1.1-1.4,2.1-2.9,3.1-4.5c0.4-0.7,0.9-1.4,1.3-2.2c1.2-2.2,2.8-3.8,4.5-5.2c3.1-2.6,6.8-4,11.4-4
			c0.9,0,1.9-0.2,2.8,0c5,1.1,11.2,0.8,14.7,3.7c4,3.5,7.8,7.7,9.8,12.9c0.8,2,1.3,4.2,1.6,6.4c0.2,2.9,0.7,5.7,1.4,8.5
			c0.9,3.4,2,6.7,3.4,9.8c2.1,4.7,4.7,9.4,7.7,13.7c1.2,1.8,2,4.6,1.4,6.5c-0.9,3-0.8,5.7-0.1,8.4c0.1,0.7,0.4,1.3,0.6,2.1
			c0.1,0.2,0.1,0.4,0.1,0.6c0.1,0.4,0.3,0.7,0.4,1.1c1.1,3,2.3,6.1,3,9.3c0.1,0.8,0.9,1.8,1.6,2.1c0.8,0.3,1.6,0.6,2.3,0.9
			c6.4,2.9,11.4,8.4,19.3,8.6c0.2,0,0.5,0,0.7,0c3.9,0.1,8.9,0,13.1,0.9c-0.1-0.4-0.2-0.6-0.4-1.1l5-2.6c2-1.9,3-3.1,5-5
			c2.4-2.3,4-4,6.1-5.7c0.7-0.6,1.4-1.1,2.3-1.8c3.1-2.3,6.7-2.3,9.3-4.1c0.9-0.6,1.8-1.4,2.5-2.6c1.5-2.6-0.7-5.7,1.7-7.6
			c1.8-1.4,3.6-0.6,5.9-0.9c4.6-0.6,7.8,1.4,11.8-0.9c2.4-1.4,3-3.1,5-5c4.2-4,5.9-7.2,10.9-10.1c3-1.8,7.7,0.1,8.4-3.3
			c0.4-2.1-1.1-3-1.7-5l9.2-0.9c0,0,4.1-0.9,6.7-1.7c4-1.3,5.9-3.5,10.1-4.2c3.3-0.6,5.4-1.3,8.4,0c3,1.3,3.2,4.1,5.9,5.9
			c3.5,2.3,6.1,4.5,10.1,3.3c2.9-0.9,3.2-3.7,5.9-5c2.4-1.2,4-2.3,6.7-1.7c3.2,0.7,4.3,3,5.9,5.9c1.8,3.2-0.9,6.7,1.6,9.2
			c3,3,6.7,1.8,10.9,0.9c3.5-0.8,4.7-4.4,8.4-4.2c2.5,0.1,3.4,2.5,5.9,2.6c2.9,0,3.8-3.6,6.7-3.3c4.2,0.3,2.9,6.6,6.7,8.4
			c4.2,1.9,9.6,3.3,11.8-0.9c1.3-2.6-0.1-4.7-0.9-7.6c-0.9-3.4-2.8-4.9-3.3-8.4c-0.4-2.6,1.7-4.7,0-6.7c-1.3-1.6-3.5-0.4-5-1.7
			c-1.5-1.2-2.6-2.3-2.5-4.2c0.1-2.3,2.2-3,4.2-4.2c2.8-1.8,5.1-1.2,8.4-1.7c4.5-0.6,7.2-0.6,11.8-0.9c5.2-0.2,9.4-3.3,13.5,0
			c1.8,1.5,1.1,4.4,3.3,5c2,0.6,3-1.1,5-1.7c3.5-1,5.6-1.2,9.2-1.7c5.5-0.7,8.8-1.9,14.2-0.9c3,0.6,4.5,1.8,7.6,2.6
			c2.9,0.6,7.6,0.9,7.6,0.9c-1.9,4.3-1,8.6,2.6,11.8c3.7,3.3,7.7,1.3,12.5,0.9c3.3-0.3,5.5-0.1,8.4-1.7c2.8-1.6,2.8-4.9,5.9-5.9
			c2.2-0.7,3.6-0.4,5.9,0c3.6,0.6,6.2,1.3,8.4,4.2c0.9,1.2,1.1,2.1,1.7,3.3c1.3,3.1,0.3,5.8,2.6,8.4c1.5,1.8,3.3,1.7,5,3.3
			c2.4,2.4,3.3,4.3,4.2,7.6c1.3,4.7-0.9,7.7-0.9,12.6c0,3,0.2,5.2,0.4,7.7c0.1,1.3,0.3,2.6,0.4,4.1c0.3,3.6,1.3,5.7,0.9,9.2
			c-0.6,4.2-4.6,5.8-4.2,10.1c0.4,3.8,3.1,5.1,5,8.4c1.7,2.9,3,4.4,4.2,7.5c1.1,3.2,0.4,5.3,1.7,8.4c1.5,3.7,3.6,5.1,5.9,8.4
			c2,3,4.3,4.1,5,7.6c0.6,2.9-1.9,4.8-0.9,7.5c1.8,4.7,7.5,3.5,12.5,3.3c3-0.1,5.2,0.2,7.6-1.7c3.6-2.9,0.1-7.4,1.7-11.8
			c1-2.8,2.3-4,3.3-6.7c1.5-3.8,1.6-6.1,2.5-10.1c0.8-3.6,1.7-5.6,1.7-9.2c0-3.7-2.1-5.6-1.7-9.2c0.3-2.6,1.4-3.8,1.9-6.3
			c0.7-3.4,0.6-5.4,0.6-8.8c0.1-4.3,0.2-7.2-0.2-10.8c-0.1-1.1-0.4-2.2-0.6-3.5c-0.5-2.3-1.1-3.5-1.7-5.9c-1.5-5.8-1.3-9.3-2.5-15.1
			c-1.6-7.9-4.2-12.1-5-20.1c-0.7-6.5-1.1-10.3,0-16.8c0.8-4.7,1.3-7.4,3.3-11.8l0.7-1.5c2.4-4.5,5.2-6.7,8.5-11.1
			c3.3-4.5,3.9-8.3,8.4-11.8c2.1-1.6,4.3-1.2,5.9-3.3c1.4-1.9,0.4-3.9,1.7-5.9c2.2-3.3,5.7-2.5,9.2-4.2c4.6-2.2,7.8-2.6,11.8-5.9
			c2.7-2.3,2.7-5.2,5.9-6.7c3.3-1.5,6.4,2.2,9.2,0c3.1-2.4-0.7-6.9,1.7-10.1c1.8-2.5,4.8-1.8,6.7-4.2c1.7-2.2,0.7-4.5,2.5-6.7
			c3.5-4,8.4-0.8,13.5-2.5c2.2-0.8,3.5-1.1,5.5-2.3c3.2-1.8,4.4-3.7,7.2-6.1c3.6-3.2,4.9-6.2,9.2-8.4c2.8-1.4,5.1-0.6,7.6-2.6
			c1.6-1.2,2.1-2.3,3.4-4c1.8-2.6,2.7-4.1,4.2-6.9c1.5-2.8,0.8-5.6,3.3-7.6c3.2-2.3,6.2,1,10.1,0c2.4-0.6,3.9-1,5.9-2.6
			c2.4-1.9,4.6-3.7,4.2-6.7c-0.4-2.6-2.6-3-4.2-5l3.3-5c0.6-3.3,1.4-5,1.7-8.4c0.3-2.9,1.3-4.9,0-7.5c-0.9-2-3.3-2-4-3.8l-0.1-0.4
			c-0.5-2.4,1.8-3.5,2.6-5.9c0.7-2.6,0.6-4.1,0.9-6.7c0.4-3.9,0.6-6.1,0.9-10.1c0.2-4.6-0.9-7.3,0-11.8c0.9-4.2,2.4-6.2,4.2-10.1
			c1.6-3.3,1.5-6,4.2-8.4c2.6-2.4,5.1-4.7,8.4-3.3c4.7,1.8-1.7,7.8-3.3,12.6c-1.6,4.7-5.3,6.7-5,11.8c0.1,2.3,1.5,3.5,1.7,5.9
			c0.4,4.8-2.3,7.2-4.2,11.8c-1.2,3-3,4.3-3.3,7.6c-0.3,2.6-0.6,4.5,0.9,6.7l0.3,0.4c1.1,1.3,2.2,1,3.5,0c2.4-2.1,5.2-7.2,8-9.6
			c5.6-4.9,8.6-7.8,13.4-13.4c2.4-2.8,4.6-4,5.9-7.6c1.5-4,0.3-6.7,0-10.9c-0.3-5-6.2-10.5-1.7-12.5c3.1-1.4,5,2.6,8.4,2.5
			c4.3-0.1,6.5-1.9,10.1-4.2c2.9-1.9,4.2-3.5,6.7-5.9c2-1.9,3.4-2.8,5-5c1.7-2.4,2.1-4.1,3.4-6.7l-0.9,0.9c1.3-2.3,2.4-3.4,3.3-5.9
			c1.2-3.1-1.3-6.9,1.7-8.4c2.1-1,3.5,0.8,5.9,0.9c3.3,0.1,5.1-0.6,8.4-0.9c4.3-0.2,7.2,1.9,10.9,0c3.1-1.6,3.6-4,5.9-6.7
			c2.7-3.2,3.7-5.5,6.7-8.4c4.5-4.3,7.7-6.1,13.4-8.4c3.2-1.3,5-2.8,8.4-2.6c3.7,0.3,4.7,3.7,8.4,4.2c2.9,0.4,4.6-0.9,7.6-0.9
			c4.4,0.1,6.9,4.1,10.9,2.6c3.3-1.3,4.5-3.5,5.9-6.7c1.5-3.7,2.3-6.9,0-10.1c-1.6-2.1-3.3-3.9-5.9-3.3c-2.5,0.5-1.7,4.7-4.2,5
			c-2.2,0.3-3.5-0.9-5-2.6c-2.3-2.4-3.3-5.5-1.7-8.4c1.3-2.3,4.5-1.1,5.9-3.4c1-1.7,0.4-3.1,0.9-5c0.8-3.2,1.4-5.4,3-7.8
			c0.3-0.5,0.7-1,1.1-1.5c2.1-2.5,4.3-2.9,6.7-5c2.5-2.1,3.5-3.6,5.9-5.9c2-2,2.6-3.8,5-5c3.2-1.7,5.7-0.4,9.2-0.9
			c4.3-0.5,6.7-0.7,10.9-1.7c2.3-0.6,4-0.1,5.9-1.7c2.4-2,0.1-5.6,2.6-7.6c2.8-2.3,5.7,0.5,9.2,0c3.7-0.5,5.9-0.9,9.2-2.6
			c2.5-1.3,3.4-2.8,5.9-4.2c3.3-1.8,5.7-2,9.2-3.3c1.6-0.6,3.2-0.9,4.5-1.2c1.3-0.4,2.7-0.9,3.8-2.2c1.9-2.1,0-5.7,2-7.2l0.5-0.3
			c1.3-0.6,2.4-0.1,3.6,0.3c0.7,0.3,1.4,0.5,2.3,0.5c2.1,0.1,3.5-0.1,5.4-0.5c0.4-0.1,0.9-0.2,1.3-0.3c3.4-0.9,5.1-2.1,8.4-3.3
			c3.9-1.4,6.1-2.3,10.1-3.3c3.2-0.9,6.9-4.7,8.4-1.7c1.1,2.1-0.1,4-1.7,5.9c-1.4,1.7-3.1,1.4-5,2.6l-0.5,0.3
			c-2.4,1.6-3.5,3.2-6.2,4.7c-2.2,1.2-3.5,1.7-5.9,2.6c-2.6,0.9-4.8-0.3-6.7,1.7c-1.6,1.7-0.4,3.9-1.7,5.9c-1.8,2.6-4.6,1.9-6.7,4.2
			c-1.8,1.9-2.9,3.3-3.3,5.9c-0.6,3.4,1.2,5.2,2.6,8.4c0.9,2.1,1,3.5,2.6,5c2.2,2.2,4.5,2.5,7.6,2.5c3.1,0,4.7-1.3,7.6-2.5
			c2.1-0.9,3.1-1.5,5-2.6c3.3-1.8,5.5-2.6,8.4-5c3-2.4,3.5-5.2,6.7-7.6c3.5-2.5,6-3,10.1-4.2c4.5-1.3,7.4,0.1,11.8-1.7
			c4.1-1.7,5.2-4.9,9.2-6.7c4.8-2.2,8.2-1.5,13.4-2.6c4.6-0.9,7.3-1,11.8-2.6c4.1-1.5,6.2-3,10.1-5c0.4-0.2,0.8-0.4,1.2-0.5
			c2.6-1,5.2-1,6.4-3.7c1.3-3.1-0.4-5.7-2.6-8.4c-3.5-4.5-8.6-2.3-14.2-3.3c-3.9-0.8-6.1-1.5-10.1-1.7c-4.3-0.2-6.7,1.7-10.9,0.9
			c-3.2-0.6-4.8-1.6-7.5-3.3c-2.6-1.6-3.3-3.4-5.9-5c-2.5-1.6-4.5-1.3-6.7-3.3c-2.5-2.3-3.3-4.3-4.2-7.6c-1.2-4.1,0.3-6.7,0-10.9
			c-0.2-2.6-1.8-4.3-0.9-6.7c1.3-3.1,6.2-1.1,7.6-4.2c1.4-3,0.6-6-1.7-8.4c-1.5-1.6-2.8-2.4-5-2.5c-3.1-0.1-3.8,3.4-6.7,4.2
			c-2.6,0.6-4.3,1.1-6.7,0c-2.1-0.9-4-1.9-4.2-4.2c-0.2-2.6,2-3.8,4.2-5c3.8-2.1,6.6,1.5,10.9,1.6s6.8,0.4,10.9-0.9
			c5.1-1.4,7.8-3.3,11.8-6.7c2.6-2.3,4.9-3.3,5.9-6.7l0.2-0.9c0.6-3.4-0.8-6-2.8-9.1c-2.6-4.2-5.3-6.4-10.1-7.6
			c-4.5-1.1-7.2,0.9-11.8,1.7c-6.9,1.1-10.8,1.9-17.6,3.3c-3,0.6-4.6,0.9-7.6,1.7c-2.3,0.6-3.6,0.9-5.9,1.7
			c-1.6,0.6-2.5,1.2-4.2,1.7c-3.2,0.9-5.3-0.4-8.4,0.9c-3.2,1.3-4.2,3.6-6.4,5.8c-0.4,0.3-0.7,0.6-1.1,0.9c-4,3-6.4,4.5-10.9,6.7
			c-3.8,1.9-6.2,2.6-10.1,4.2c-4,1.6-5.8,4-10.1,4.2c-3,0.1-5.6,0.6-7.5-1.7c-3.3-3.8,6.5-4.3,10.9-6.7c4.7-2.6,8.1-2.8,12.6-5.9
			c0.9-0.6,1.6-1.2,2.2-1.8c2.1-1.9,3.4-3.9,6.2-5.8s4.3-3.2,7.5-4.2c3.8-1.2,6.2-0.1,10.1-0.9c3.3-0.6,5.5-0.6,8.4-2.6
			c1.6-1.1,2.4-2.2,3.6-3.5c3.5-2.8,5.7-4.3,9-7.4c4.3-4,4.6-9,10.1-10.9c2.5-0.9,4.1-0.6,6.7-0.9c6.9-0.7,10.8-0.6,17.6-0.9
			c5.9-0.1,9.2-0.2,15.1,0c5.2,0.1,8.1,0.6,13.4,0.9c7.5,0.3,11.8,0,19.3,0c5.5,0,8.7-0.7,14.2,0c4.3,0.6,6.5,2.7,10.9,2.6
			c4.5-0.1,6.4-3.5,10.9-3.3c4.1,0.1,6,2.8,10.1,3.3C3232.5,1481.3,3236.6,1481.3,3241.7,1478z"/>
	</g>
</g>
<g id="region-oceania">
	<g id="_x5F_results-icon-box_18_">
	</g>
</g>
<g id="region-oceania_1_">
</g>
<g id="region-oceania_2_">
</g>
</svg>
