<?xml version="1.0" encoding="utf-8"?>
<!-- Generator: Adobe Illustrator 18.1.1, SVG Export Plug-In . SVG Version: 6.00 Build 0)  -->
<!DOCTYPE svg PUBLIC "-//W3C//DTD SVG 1.1 Tiny//EN" "http://www.w3.org/Graphics/SVG/1.1/DTD/svg11-tiny.dtd">
<svg version="1.1" baseProfile="tiny" id="Layer_1" xmlns="http://www.w3.org/2000/svg" xmlns:xlink="http://www.w3.org/1999/xlink"
	 x="0px" y="0px" viewBox="0 0 40.369 40.645" xml:space="preserve">
<g id="arrow-gray_x5F_down">
</g>
<g id="arrow-gray_x5F_left">
	<g id="arrow-gray_x5F_right_2_">
		<g id="arrow-gray_x5F_down_3_">
		</g>
	</g>
</g>
<g id="arrow-gray_x5F_right">
	<g id="arrow-gray_x5F_down_2_">
	</g>
</g>
<g id="arrow-gray_x5F_up">
	<g id="arrow-gray_x5F_left_1_">
		<g id="arrow-gray_x5F_right_1_">
			<g id="arrow-gray_x5F_down_1_">
			</g>
		</g>
	</g>
</g>
<g id="check-gray">
</g>
<g id="x-gray">
</g>
<g id="favicon">
	<g id="logo-color-large">
	</g>
</g>
<g id="login-account">
</g>
<g id="login-password">
</g>
<g id="tick">
</g>
<g id="social-fb_2">
</g>
<g id="social-linked_2">
</g>
<g id="social-twitter_2">
</g>
<g id="industry-aerospace">
</g>
<g id="industry-construction">
</g>
<g id="industry-employment">
</g>
<g id="industry-energy">
	<g id="_x5F_results-icon-box_48_">
	</g>
</g>
<g id="industry-entertainment">
	<g id="_x5F_results-icon-box_47_">
	</g>
</g>
<g id="industry-finance">
	<g id="_x5F_results-icon-box_46_">
	</g>
</g>
<g id="industry-franchise-agreements">
	<g id="_x5F_results-icon-box_45_">
	</g>
</g>
<g id="industry-healthcare">
	<g id="_x5F_results-icon-box_44_">
	</g>
</g>
<g id="industry-hospitality">
	<g id="_x5F_results-icon-box_43_">
	</g>
</g>
<g id="industry-insurance-reinsurance">
	<g id="_x5F_results-icon-box_42_">
	</g>
</g>
<g id="industry-intellectual-property">
	<g id="_x5F_results-icon-box_41_">
	</g>
</g>
<g id="industry-licensing-agreements">
	<g id="_x5F_results-icon-box_40_">
	</g>
</g>
<g id="industry-mass-claims-appeals">
	<g id="_x5F_results-icon-box_39_">
	</g>
</g>
<g id="industry-mergers-aquisitions">
	<g id="_x5F_results-icon-box_38_">
	</g>
</g>
<g id="industry-oil-gas">
	<g id="_x5F_results-icon-box_37_">
	</g>
</g>
<g id="industry-other">
	<g id="_x5F_results-icon-box_36_">
	</g>
</g>
<g id="industry-partnerships">
	<g id="_x5F_results-icon-box_35_">
	</g>
</g>
<g id="industry-pharmaceuticals">
	<g id="_x5F_results-icon-box_34_">
	</g>
</g>
<g id="industry-securities-investments">
	<g id="_x5F_results-icon-box_33_">
	</g>
</g>
<g id="industry-technology">
	<g id="_x5F_results-icon-box_32_">
	</g>
</g>
<g id="industry-telecommunications">
	<g id="_x5F_results-icon-box_31_">
	</g>
</g>
<g id="region-africa">
	<g id="_x5F_results-icon-box_30_">
	</g>
</g>
<g id="region-asia">
	<g id="_x5F_results-icon-box_29_">
	</g>
</g>
<g id="region-europe">
	<g id="_x5F_results-icon-box_28_">
	</g>
	<g>
		<path fill="#231F20" d="M4.991,21.185c0.105,0.072,0.194,0.053,0.323,0.053c0.16,0,0.247-0.043,0.404-0.081
			c0.148-0.036,0.239-0.04,0.376-0.108c0.128-0.063,0.168-0.152,0.296-0.215c0.146-0.072,0.242-0.087,0.403-0.107
			c0.157-0.02,0.266,0.076,0.404,0c0.148-0.082,0.156-0.218,0.215-0.377c0.053-0.141,0.06-0.228,0.081-0.376
			c0.017-0.115,0.025-0.18,0.027-0.296c0.001-0.108-0.041-0.181-0.039-0.272l0.012,0.003c-0.004-0.003-0.007-0.005-0.011-0.008
			c0.001-0.023,0.004-0.047,0.011-0.073c0.029-0.095,0.067-0.143,0.135-0.215c0.078-0.082,0.22-0.05,0.242-0.161
			c0.022-0.111-0.099-0.147-0.161-0.242c-0.063-0.095-0.087-0.156-0.161-0.242c-0.048-0.056-0.065-0.108-0.135-0.135
			c-0.102-0.038-0.159,0.088-0.268,0.081c-0.028-0.002-0.051-0.01-0.073-0.019c-0.045-0.021-0.082-0.052-0.142-0.062
			c-0.072-0.012-0.114-0.006-0.188,0c-0.139,0.011-0.215,0.043-0.35,0.081c-0.182,0.051-0.325,0.025-0.457,0.161
			c-0.052,0.055-0.103,0.086-0.108,0.161c-0.008,0.128,0.235,0.065,0.268,0.188c0.014,0.051,0.018,0.085,0,0.135
			c-0.03,0.085-0.098,0.126-0.188,0.134c-0.093,0.008-0.137-0.056-0.215-0.108c-0.056-0.037-0.075-0.076-0.134-0.107
			c-0.121-0.063-0.231-0.096-0.35-0.027c-0.071,0.041-0.129,0.079-0.134,0.161c-0.004,0.07,0.035,0.108,0.081,0.161
			c0.076,0.09,0.274,0.018,0.269,0.134c-0.003,0.061-0.037,0.092-0.081,0.135c-0.079,0.076-0.229-0.021-0.269,0.081
			c-0.019,0.049-0.019,0.086,0,0.134c0.04,0.102,0.167,0.041,0.269,0.081c0.11,0.043,0.286,0.019,0.269,0.135
			c-0.013,0.081-0.103,0.077-0.162,0.134c-0.069,0.067-0.084,0.13-0.161,0.188c-0.091,0.068-0.179,0.04-0.269,0.107
			c-0.078,0.058-0.104,0.11-0.162,0.189c-0.072,0.098-0.191,0.15-0.161,0.269c0.021,0.086,0.101,0.095,0.161,0.161
			C4.911,21.084,4.923,21.138,4.991,21.185z"/>
		<path fill="#231F20" d="M22.789,7.392c-0.112-0.033-0.18,0.036-0.295,0.054c-0.074,0.011-0.161-0.042-0.188,0.027
			c-0.031,0.076,0.09,0.095,0.161,0.135c0.05,0.027,0.079,0.045,0.135,0.054c0.096,0.015,0.177,0.018,0.242-0.054
			c0.043-0.05,0.087-0.105,0.054-0.161C22.873,7.406,22.835,7.405,22.789,7.392z"/>
		<path fill="#231F20" d="M7.142,16.614c0.049,0.007,0.089-0.002,0.126-0.02c-0.039,0.05-0.064,0.106-0.072,0.182
			c-0.011,0.096-0.015,0.174,0.054,0.242c0.09,0.088,0.233-0.089,0.323,0c0.068,0.068-0.001,0.162,0.054,0.242
			c0.05,0.074,0.146,0.054,0.188,0.134c0.044,0.084,0,0.148,0,0.242c0,0.105-0.082,0.203,0,0.269c0.066,0.053,0.131-0.006,0.215,0
			c0.074,0.006,0.131-0.02,0.188,0.027c0.067,0.054,0.023,0.134,0.054,0.215c0.025,0.066,0.076,0.091,0.081,0.161
			c0.008,0.133-0.174,0.127-0.242,0.242c-0.045,0.077-0.103,0.128-0.081,0.215c0.034,0.135,0.21,0.088,0.349,0.08
			c0.133-0.007,0.21-0.038,0.324-0.108c0.082-0.05,0.105-0.211,0.188-0.161c0.057,0.034,0.035,0.098,0.054,0.161
			c0.042,0.144-0.008,0.256,0.08,0.377l0.011,0.013c0.062,0.071,0.147,0.068,0.204,0.148c0.076,0.105,0.126,0.202,0.081,0.323
			c-0.042,0.112-0.132,0.141-0.242,0.188c-0.145,0.062-0.252,0.069-0.404,0.027c-0.09-0.025-0.127-0.14-0.214-0.107
			c-0.094,0.035-0.064,0.144-0.082,0.242c-0.022,0.124,0.006,0.197,0,0.323c-0.006,0.126,0.046,0.22-0.026,0.323
			c-0.068,0.095-0.186,0.051-0.269,0.134c-0.117,0.117-0.258,0.293-0.134,0.403c0.079,0.07,0.163,0.022,0.269,0.027
			c0.084,0.004,0.131-0.004,0.215,0c0.095,0.005,0.148,0.015,0.242,0.027c0.074,0.009,0.115,0.015,0.188,0.027
			c0,0,0.172-0.021,0.215,0.054c0.037,0.064,0.027,0.138-0.027,0.188c-0.047,0.043-0.098,0.02-0.161,0.027
			c-0.104,0.01-0.167-0.026-0.269,0c-0.091,0.023-0.137,0.056-0.215,0.107c-0.078,0.052-0.109,0.106-0.188,0.161
			c-0.088,0.062-0.158,0.067-0.242,0.134c-0.087,0.07-0.124,0.124-0.188,0.215c-0.062,0.088-0.168,0.139-0.134,0.242
			c0.042,0.13,0.216,0.059,0.35,0.027c0.146-0.036,0.173-0.19,0.323-0.215c0.137-0.023,0.21,0.092,0.349,0.081
			c0.053-0.004,0.085-0.007,0.135-0.027c0.11-0.043,0.122-0.142,0.215-0.215c0.097-0.075,0.147-0.165,0.269-0.161
			c0.093,0.003,0.123,0.089,0.215,0.107c0.103,0.021,0.167,0,0.269-0.027c0.163-0.043,0.213-0.169,0.376-0.215
			c0.182-0.051,0.296,0,0.484,0c0.189,0,0.296,0.02,0.484,0c0.159-0.017,0.259-0.01,0.404-0.081
			c0.134-0.065,0.166-0.168,0.296-0.242c0.04-0.024,0.074-0.021,0.108-0.054c0.074-0.074-0.181,0.057-0.269,0
			c-0.063-0.041-0.101-0.086-0.108-0.161c-0.009-0.111,0.099-0.149,0.189-0.215c0.075-0.056,0.135-0.059,0.215-0.108
			c0.077-0.047,0.15-0.052,0.188-0.134c0.04-0.086-0.011-0.148-0.028-0.242c-0.016-0.096,0.006-0.166-0.054-0.242
			c-0.097-0.126-0.271,0.033-0.403-0.054c-0.062-0.041-0.109-0.065-0.134-0.134c-0.03-0.079,0.064-0.14,0.026-0.215
			c-0.033-0.068-0.109-0.052-0.161-0.107c-0.09-0.098-0.008-0.235-0.108-0.323c-0.082-0.072-0.203,0.007-0.269-0.081
			c-0.042-0.055-0.015-0.113-0.013-0.175c0-0.022-0.003-0.044-0.014-0.067c-0.065-0.137-0.199-0.127-0.323-0.215
			c-0.085-0.061-0.127-0.104-0.215-0.161c-0.051-0.033-0.096-0.032-0.134-0.081c-0.065-0.082,0.028-0.167,0-0.269
			c-0.037-0.137-0.114-0.194-0.215-0.296c-0.084-0.085-0.127-0.153-0.242-0.188c-0.12-0.038-0.196,0.029-0.322,0.027
			c-0.106-0.002-0.177,0.024-0.269-0.027c-0.065-0.036-0.121-0.062-0.134-0.135c-0.022-0.12,0.188-0.07,0.269-0.161
			c0.056-0.063,0.044-0.132,0.108-0.188c0.09-0.08,0.201-0.007,0.296-0.081c0.139-0.108,0.113-0.256,0.134-0.43
			c0.022-0.177,0.106-0.338-0.027-0.457c-0.141-0.127-0.297,0.022-0.484,0.054c-0.148,0.025-0.227,0.089-0.376,0.081
			c-0.064-0.004-0.122,0.023-0.161-0.027c-0.047-0.06,0.011-0.126,0.054-0.188c0.055-0.082,0.153-0.057,0.215-0.134
			c0.05-0.062,0.104-0.112,0.081-0.188c-0.017-0.057-0.052-0.086-0.107-0.108c-0.08-0.032-0.129,0.047-0.215,0.054
			c-0.095,0.007-0.147-0.022-0.242-0.027c-0.084-0.004-0.131,0-0.214,0c-0.137,0-0.254-0.096-0.35,0
			c-0.076,0.076,0.002,0.178-0.054,0.269c-0.039,0.063-0.072,0.095-0.134,0.134c-0.048,0.029-0.082,0.035-0.135,0.053
			c-0.072,0.025-0.115,0.031-0.188,0.054c-0.081,0.025-0.142,0.025-0.207,0.061c0.031-0.037,0.064-0.077,0.1-0.115
			c0.073-0.075,0.143-0.112,0.162-0.215c0.013-0.073,0.013-0.126-0.027-0.188c-0.08-0.123-0.241-0.056-0.377,0
			c-0.083,0.034-0.126,0.069-0.188,0.135c-0.073,0.079-0.131,0.134-0.135,0.242c-0.003,0.09,0.012,0.158,0.081,0.216
			C7.05,16.596,7.086,16.605,7.142,16.614z"/>
		<path fill="#231F20" d="M18.139,18.55c0.075-0.023,0.052-0.113,0.08-0.188c0.023-0.062,0.025-0.101,0.054-0.161
			c0.026-0.055,0.061-0.076,0.081-0.134c0.03-0.089,0.064-0.173,0-0.242c-0.046-0.048-0.098-0.073-0.162-0.054
			c-0.064,0.019-0.052,0.096-0.107,0.134c-0.072,0.05-0.13,0.042-0.216,0.054c-0.104,0.014-0.191-0.071-0.269,0
			c-0.085,0.078-0.06,0.198,0,0.296c0.057,0.092,0.15,0.079,0.242,0.134c0.053,0.031,0.082,0.051,0.135,0.081
			C18.038,18.503,18.071,18.569,18.139,18.55z"/>
		<path fill="#231F20" d="M17.896,18.603c-0.058-0.045-0.114-0.028-0.187-0.027c-0.065,0.002-0.117-0.018-0.162,0.027
			c-0.045,0.045-0.063,0.109-0.027,0.162c0.037,0.052,0.099,0.012,0.161,0.026c0.064,0.017,0.095,0.046,0.161,0.054
			c0.042,0.006,0.07,0.018,0.108,0C18.038,18.804,17.973,18.662,17.896,18.603z"/>
		<path fill="#231F20" d="M18.595,9.059c-0.063,0.016-0.099,0.032-0.16,0.054c-0.085,0.03-0.132,0.049-0.216,0.08
			c0.094,0.031,0.176,0.069,0.296,0.081c0.073,0.007,0.117,0.017,0.189,0c0.068-0.016,0.132-0.017,0.16-0.081
			c0.027-0.058,0.016-0.114-0.026-0.161C18.773,8.962,18.687,9.037,18.595,9.059z"/>
		<path fill="#231F20" d="M19.159,9.086l0.242-0.054c0.066-0.012,0.041-0.068,0.067-0.129c0.029-0.069,0.085-0.108,0.04-0.166
			c-0.058-0.077-0.15-0.084-0.241-0.054c-0.064,0.021-0.092,0.056-0.135,0.108c-0.045,0.055-0.09,0.091-0.081,0.161
			C19.06,9.018,19.097,9.063,19.159,9.086z"/>
		<path fill="#231F20" d="M19.079,8.736c0.107-0.096,0.423-0.149,0.296-0.215c-0.066-0.034-0.116-0.012-0.188,0
			c-0.089,0.014-0.133,0.045-0.215,0.08c-0.108,0.046-0.176,0.063-0.269,0.135c-0.059,0.045-0.141,0.061-0.135,0.134
			c0.008,0.094,0.148,0.035,0.242,0.027c0.053-0.004,0.086-0.004,0.134-0.027C19.012,8.839,19.024,8.786,19.079,8.736z"/>
		<path fill="#231F20" d="M26.201,8.501c-0.006,0.006-0.014,0.013-0.021,0.02C26.187,8.515,26.195,8.508,26.201,8.501z"/>
		<path fill="#231F20" d="M13.81,14.463c0.075,0.057,0.166-0.031,0.241,0.027c0.087,0.066,0.099,0.161,0.08,0.269
			c-0.014,0.084-0.059,0.119-0.107,0.188c-0.055,0.08-0.151,0.092-0.161,0.189c-0.015,0.132,0.192,0.118,0.242,0.242
			c0.046,0.117,0,0.197,0,0.323c0,0.126-0.097,0.242,0,0.323c0.089,0.074,0.185-0.061,0.295-0.027
			c0.121,0.037,0.134,0.148,0.242,0.215c0.087,0.055,0.141,0.083,0.241,0.108c0.173,0.043,0.282,0.005,0.457-0.027
			c0.196-0.036,0.298-0.092,0.484-0.161c0.159-0.059,0.267-0.059,0.403-0.161c0.072-0.054,0.099-0.098,0.162-0.161
			c0.052-0.053,0.067-0.101,0.134-0.135c0.066-0.033,0.122,0.007,0.188-0.027c0.094-0.047,0.113-0.122,0.161-0.215
			c0.046-0.088-0.005-0.193,0.081-0.242c0.123-0.07,0.179,0.134,0.269,0.242c0.034,0.041,0.049,0.066,0.081,0.108h0.056
			c0.042,0.038,0.08,0.073,0.107,0.134c0.037,0.088-0.008,0.153,0.026,0.242c0.038,0.098,0.072,0.16,0.161,0.215
			c0.073,0.046,0.149-0.001,0.215,0.054c0.084,0.07,0.046,0.165,0.08,0.269c0.047,0.139,0.087,0.212,0.135,0.35
			c0.032,0.093,0.03,0.156,0.08,0.242c0.06,0.102,0.131,0.131,0.215,0.215c0.053,0.052,0.108,0.065,0.134,0.134
			c0.039,0.103-0.097,0.161-0.08,0.269c0.015,0.098,0.089,0.127,0.134,0.215c0.037,0.071,0.056,0.112,0.081,0.188
			c0.033,0.102-0.017,0.189,0.054,0.269c0.12,0.136,0.279-0.046,0.456-0.08c0.106-0.02,0.21,0.035,0.269-0.054
			c0.046-0.07-0.012-0.132,0-0.215c0.011-0.076,0.011-0.125,0.054-0.188c0.05-0.075,0.1-0.115,0.188-0.135
			c0.094-0.02,0.147,0.038,0.242,0.054c0.093,0.016,0.15,0.052,0.241,0.027c0.136-0.037,0.176-0.144,0.242-0.269
			c0.046-0.088,0.058-0.145,0.08-0.242c0.025-0.113,0.004-0.182,0.027-0.296c0.016-0.074,0.035-0.114,0.054-0.188
			c0.026-0.104,0.043-0.162,0.054-0.269c0.013-0.125-0.015-0.198,0-0.323c0.015-0.129-0.008-0.228,0.081-0.322
			c0.083-0.09,0.202-0.028,0.296-0.107c0.051-0.044,0.046-0.107,0.108-0.135c0.091-0.041,0.151,0.121,0.242,0.08
			c0.085-0.038,0.081-0.125,0.108-0.215c0.027-0.09-0.028-0.164,0.026-0.242c0.048-0.069,0.141-0.037,0.188-0.107
			c0.058-0.087,0.061-0.184,0-0.269c-0.064-0.089-0.183-0.013-0.269-0.081c-0.077-0.061-0.066-0.144-0.135-0.215
			c-0.062-0.065-0.101-0.112-0.188-0.134c-0.103-0.026-0.173,0.103-0.269,0.054c-0.101-0.052-0.105-0.157-0.108-0.269
			c-0.003-0.086,0.061-0.129,0.054-0.215c-0.01-0.107-0.082-0.147-0.135-0.242l0.135-0.108c0.011-0.063,0.021-0.111,0.029-0.161
			l0.025-0.134l0.107-0.215c0.094-0.032,0.173-0.01,0.242-0.081c0.056-0.057,0.03-0.126,0.081-0.188
			c0.08-0.098,0.187-0.069,0.294-0.134c0.091-0.055,0.143-0.086,0.216-0.162c0.047-0.048,0.055-0.093,0.108-0.134
			c0.069-0.055,0.133-0.045,0.215-0.081c0.082-0.036,0.14-0.051,0.215-0.107c0.089-0.067,0.101-0.147,0.188-0.215
			c0.067-0.052,0.166-0.026,0.189-0.107c0.017-0.064-0.025-0.102-0.054-0.162c-0.025-0.056-0.065-0.075-0.081-0.134
			c-0.022-0.082-0.013-0.141,0.028-0.215c0.057-0.108,0.161-0.103,0.268-0.161c0.083-0.045,0.192-0.017,0.216-0.107
			c0.016-0.065-0.065-0.096-0.054-0.161c0.018-0.116,0.154-0.112,0.269-0.135c0.082-0.016,0.131,0,0.214,0l0.054-0.001
			c0.003-0.034,0.005-0.064,0.005-0.092c0,0,0.001,0,0.001,0c-0.001,0.028-0.002,0.058-0.005,0.092h0v0.001h0l0.01-0.001
			c0.079-0.003,0.14-0.01,0.231,0.001c0.096,0.012,0.147,0.035,0.242,0.054c0.125,0.025,0.197,0.033,0.323,0.054
			c0.062,0.011,0.114-0.016,0.161,0.027c0.062,0.057-0.023,0.135,0,0.215c0.03,0.1,0.174,0.111,0.162,0.215
			c-0.016,0.147-0.26-0.038-0.376,0.054c-0.028,0.023-0.047,0.044-0.063,0.067c-0.014,0.02-0.026,0.042-0.044,0.067
			c-0.063,0.089-0.055,0.17-0.134,0.242c-0.077,0.069-0.169,0.035-0.242,0.108c-0.066,0.066-0.041,0.149-0.107,0.215
			c-0.094,0.094-0.212,0.034-0.324,0.107c-0.086,0.058-0.096,0.139-0.188,0.188c-0.094,0.051-0.185-0.013-0.268,0.054
			c-0.066,0.053-0.058,0.12-0.108,0.188c-0.062,0.083-0.155,0.09-0.188,0.188c-0.038,0.111,0.01,0.187,0.054,0.296
			c0.037,0.091,0.076,0.135,0.134,0.215c0.066,0.089,0.164,0.106,0.188,0.215c0.026,0.12-0.099,0.173-0.108,0.296
			c-0.01,0.152,0.048,0.236,0.108,0.376c0.028,0.065,0.028,0.115,0.081,0.161c0.065,0.057,0.145,0.002,0.215,0.054
			c0.061,0.045,0.047,0.116,0.108,0.161c0.109,0.082,0.216-0.029,0.349,0c0.065,0.014,0.104,0.021,0.162,0.054
			c0.096,0.056,0.094,0.155,0.188,0.215c0.075,0.049,0.127,0.067,0.215,0.081c0.148,0.022,0.234-0.032,0.376-0.081
			c0.155-0.054,0.216-0.154,0.376-0.189c0.134-0.028,0.215,0.022,0.35,0c0.108-0.017,0.163-0.054,0.269-0.08
			c0.104-0.026,0.163-0.038,0.269-0.054c0.136-0.02,0.213-0.023,0.349-0.027c0.074-0.002,0.115-0.005,0.189,0
			c0.073,0.005,0.114,0.026,0.187,0.027l-0.027-0.027c0.01-0.105-0.011-0.171,0.027-0.269c0.038-0.097,0.071-0.163,0.162-0.215
			c0.004-0.002,0.007-0.002,0.011-0.003c-0.002,0.001-0.004,0.001-0.006,0.002c-0.001,0.001-0.002,0-0.003,0.001
			c-0.091,0.052-0.124,0.117-0.162,0.215c-0.038,0.098-0.016,0.164-0.027,0.269l0.006,0.005l0.021,0.022h0l-0.021-0.022
			l-0.006-0.005c0.011-0.105-0.011-0.171,0.027-0.269c0.038-0.097,0.071-0.163,0.162-0.215c0.001-0.001,0.002-0.001,0.004-0.001
			c0.019-0.01,0.038-0.016,0.057-0.019h0c0.045-0.007,0.089,0.003,0.136,0.003c0.023,0,0.046-0.002,0.071-0.01
			c0.103-0.032,0.157-0.067,0.241-0.134c0.022-0.017,0.04-0.034,0.057-0.051c0.049-0.05,0.08-0.099,0.133-0.164
			c0.065-0.081,0.09-0.137,0.16-0.215c0.135-0.15,0.32-0.139,0.404-0.323c0.017-0.037,0.033-0.074,0.047-0.111
			c0.001-0.001,0.001-0.003,0.002-0.004c0,0,0,0,0-0.001c-0.013,0.034-0.027,0.068-0.042,0.102c0.006-0.015,0.012-0.03,0.019-0.045
			c-0.008,0.019-0.015,0.039-0.024,0.058c-0.084,0.183-0.269,0.173-0.404,0.323c-0.07,0.078-0.095,0.133-0.16,0.215
			c-0.071,0.087-0.102,0.146-0.19,0.215c-0.084,0.068-0.139,0.102-0.241,0.134c-0.025,0.008-0.049,0.01-0.073,0.01
			c0.023,0,0.047-0.002,0.073-0.01c0.102-0.032,0.157-0.067,0.241-0.134c0.088-0.07,0.119-0.129,0.19-0.215
			c0.066-0.081,0.09-0.137,0.16-0.215c0.135-0.15,0.32-0.139,0.404-0.323c0.03-0.066,0.059-0.133,0.074-0.197c0,0,0,0.001,0,0.001
			c0.002-0.007,0.005-0.015,0.007-0.022c0.01-0.067,0.001-0.13-0.054-0.185c0.029,0.03,0.044,0.062,0.051,0.096
			c-0.007-0.031-0.022-0.06-0.046-0.088c-0.001-0.003-0.002-0.006-0.005-0.008c-0.063-0.064-0.14-0.03-0.216-0.081
			c-0.079-0.055-0.079-0.137-0.161-0.188c-0.021-0.013-0.042-0.02-0.062-0.025c0,0,0,0,0,0c0,0-0.001,0-0.001,0
			c-0.001,0-0.001,0-0.001-0.001c-0.001,0-0.002,0-0.003,0c-0.006-0.001-0.012-0.003-0.018-0.003c0,0,0,0,0,0
			c-0.002,0-0.004-0.001-0.005-0.001c-0.001,0-0.002,0-0.002,0c0,0,0,0,0,0c-0.004-0.001-0.007-0.002-0.011-0.002
			c0.003,0,0.007,0.001,0.01,0.002c0,0,0,0,0,0s0,0,0,0c0,0,0.001,0,0.001,0c0,0,0,0,0,0c0,0,0,0,0.001,0c0,0,0,0,0,0
			c0,0,0,0-0.001,0c0,0,0,0,0,0c-0.011-0.001-0.023-0.002-0.034-0.002c0.01,0,0.021,0.001,0.031,0.002
			c-0.01-0.001-0.021-0.002-0.031-0.002c-0.002,0-0.005,0-0.007,0c0.001,0,0.002,0,0.002,0c0.015,0.001,0.03,0.002,0.045,0.004
			c0,0,0,0,0,0c-0.016-0.002-0.032-0.003-0.047-0.004c0,0-0.001,0-0.001,0c-0.003,0-0.006-0.001-0.009-0.001c-0.02,0-0.04,0-0.061,0
			c-0.019,0-0.038,0-0.058-0.003c-0.014-0.002-0.029-0.007-0.043-0.011c0.001,0,0.002,0,0.003,0
			c-0.006-0.002-0.012-0.002-0.018-0.005c-0.001,0-0.001,0-0.001,0c-0.001,0-0.001,0-0.002,0c-0.091-0.037-0.215-0.035-0.215-0.134
			c0-0.025,0.011-0.04,0.028-0.05c0.017-0.01,0.04-0.016,0.064-0.021c0.049-0.01,0.102-0.019,0.123-0.064
			c0.045-0.097,0.033-0.206-0.054-0.269c-0.011-0.008-0.022-0.012-0.033-0.014c-0.011-0.002-0.022-0.001-0.033,0.001
			c-0.047,0.01-0.095,0.046-0.141,0.053c-0.02,0.003-0.039,0.001-0.058-0.012c-0.001-0.001-0.003,0-0.004-0.001
			c-0.012-0.009-0.02-0.018-0.025-0.029c-0.005-0.011-0.008-0.022-0.008-0.034c-0.002-0.048,0.026-0.106,0.028-0.159
			c0.001-0.026-0.004-0.052-0.023-0.074c-0.071-0.084-0.187-0.008-0.268-0.081c-0.015-0.013-0.025-0.026-0.035-0.04
			c-0.003-0.006-0.005-0.011-0.006-0.017c0.007,0.015,0.017,0.029,0.03,0.043c-0.014-0.015-0.024-0.032-0.031-0.049
			c-0.024-0.057-0.019-0.121-0.035-0.186c0-0.002,0-0.004-0.001-0.006c-0.005-0.018-0.013-0.036-0.022-0.054
			c-0.002-0.005-0.003-0.01-0.006-0.014c-0.069-0.113-0.178-0.124-0.242-0.242c-0.004-0.008-0.007-0.016-0.01-0.024
			c-0.006-0.014-0.012-0.028-0.016-0.042c-0.009-0.032-0.014-0.063-0.015-0.094c0-0.003,0-0.007,0-0.01
			c-0.001-0.028-0.001-0.056-0.001-0.084c0-0.008,0-0.017,0-0.025c0-0.002,0-0.003,0-0.005c0,0.014,0,0.027,0,0.041
			c0,0.015,0,0.029,0,0.043c0-0.035,0-0.071-0.001-0.11c0,0.004,0.001,0.008,0.001,0.012c0-0.007,0-0.014-0.001-0.021
			c0,0.007,0,0.014,0.001,0.021c0,0,0,0,0,0c0,0.004,0,0.008,0,0.012c0,0,0,0.001,0,0.001v0c0,0,0,0,0-0.001c0,0,0,0,0,0.001
			c0-0.003,0-0.006,0-0.009c0-0.001,0-0.003,0-0.004c0-0.007,0-0.014-0.001-0.022c-0.001-0.027-0.004-0.054-0.01-0.084
			c-0.025-0.128-0.049-0.196-0.08-0.322L26.285,10c0.028-0.028,0.06-0.05,0.093-0.069C26.346,9.95,26.313,9.972,26.285,10
			l0.027,0.269c0.031,0.126,0.055,0.195,0.08,0.322c0.005,0.024,0.005,0.045,0.007,0.067c-0.002-0.022-0.003-0.043-0.008-0.067
			c-0.025-0.128-0.049-0.196-0.08-0.322L26.284,10c0.061-0.061,0.142-0.095,0.204-0.137c0.016-0.011,0.028-0.024,0.041-0.036
			c0,0,0.001-0.001,0.001-0.001c0.011-0.011,0.019-0.023,0.027-0.036c0.014-0.024,0.025-0.05,0.023-0.086
			c-0.005-0.113-0.083-0.16-0.161-0.242c-0.089-0.093-0.147-0.149-0.269-0.188c-0.016-0.005-0.032-0.008-0.047-0.009
			c-0.015-0.001-0.031,0-0.045,0.002c-0.062,0.009-0.121,0.035-0.179,0.032c-0.004,0-0.008-0.002-0.011-0.002
			c-0.02-0.003-0.039-0.008-0.059-0.021c-0.002-0.001-0.005,0-0.007-0.002c-0.003-0.002-0.004-0.005-0.007-0.007
			c0.003,0.002,0.005,0.005,0.008,0.007c0,0,0.001,0,0.001,0c0,0,0,0-0.001,0c0,0,0,0,0.001,0c0,0,0,0-0.001,0
			c-0.004-0.003-0.006-0.006-0.01-0.008C25.768,9.246,25.747,9.224,25.73,9.2c-0.008-0.012-0.015-0.024-0.022-0.037
			c-0.005-0.01-0.01-0.02-0.014-0.03c-0.005-0.012-0.008-0.025-0.011-0.038c-0.002-0.01-0.003-0.019-0.004-0.029
			c-0.003-0.022-0.003-0.044-0.001-0.066c0.001-0.01,0.002-0.02,0.004-0.03c0.003-0.013,0.006-0.026,0.011-0.038
			c0.004-0.011,0.01-0.022,0.015-0.033c0.005-0.009,0.009-0.019,0.014-0.028c0.053-0.083,0.135-0.076,0.214-0.134
			c0.09-0.066,0.129-0.117,0.215-0.188c0.011-0.009,0.02-0.018,0.029-0.027c-0.01,0.009-0.018,0.018-0.029,0.027
			c-0.086,0.071-0.125,0.122-0.215,0.188c-0.079,0.059-0.161,0.051-0.214,0.134c-0.005,0.007-0.008,0.015-0.012,0.023
			c0.004-0.008,0.006-0.016,0.01-0.023c0.013-0.021,0.028-0.036,0.044-0.048c0,0,0,0,0,0c0.001-0.001,0.003-0.001,0.004-0.002
			c0.015-0.011,0.032-0.019,0.049-0.027l-0.001,0c0,0,0,0,0,0l-0.071,0.023c0,0,0,0,0,0l0.07-0.022
			c0.038-0.016,0.077-0.029,0.117-0.058c0.09-0.066,0.129-0.117,0.215-0.188c0.031-0.026,0.055-0.05,0.079-0.074
			c0.007-0.007,0.014-0.014,0.021-0.021c-0.001,0.002-0.003,0.003-0.005,0.005c-0.004,0.004-0.009,0.009-0.013,0.013
			c0.004-0.004,0.008-0.008,0.012-0.012c-0.013,0.014-0.026,0.028-0.041,0.043c0.017-0.018,0.034-0.035,0.05-0.052
			c0.003-0.003,0.007-0.007,0.011-0.01c0.003-0.003,0.006-0.006,0.009-0.008c0.006-0.005,0.012-0.009,0.018-0.014
			c-0.006,0.005-0.012,0.009-0.017,0.014c0,0,0,0,0,0c0.011-0.011,0.024-0.02,0.037-0.029c-0.012,0.009-0.025,0.018-0.036,0.028
			c0.005-0.005,0.011-0.011,0.016-0.016c0.009-0.008,0.018-0.016,0.028-0.023c0.021-0.013,0.045-0.023,0.074-0.03
			c0.001,0,0.002,0,0.003,0c-0.019,0.005-0.034,0.013-0.049,0.02c-0.006,0.003-0.014,0.005-0.02,0.008c0,0,0,0,0,0c0,0,0,0,0,0
			c-0.002,0.001-0.004,0.003-0.006,0.005c-0.003,0.002-0.006,0.005-0.01,0.008C26.309,8.4,26.31,8.4,26.311,8.399
			c-0.008,0.006-0.015,0.012-0.023,0.018c0.011-0.009,0.022-0.019,0.034-0.027c0.001,0,0.001-0.001,0.002-0.001
			c0.02-0.012,0.042-0.022,0.069-0.028c0.014-0.003,0.028-0.005,0.041-0.004c0,0,0.001,0,0.001,0c0.09,0.003,0.155,0.082,0.25,0.058
			c0.089-0.024,0.12-0.082,0.192-0.134l-0.034-0.059c-0.023,0.003-0.049,0.004-0.077,0.005c-0.162,0.003-0.243-0.075-0.404-0.108
			c-0.135-0.028-0.264,0.055-0.35-0.053c-0.047-0.06-0.093-0.123-0.054-0.189c0.048-0.081,0.147,0.027,0.242,0.027
			c0.094,0,0.149-0.005,0.241-0.027c0.111-0.026,0.228-0.002,0.269-0.107c0.058-0.145-0.232-0.076-0.376-0.135
			c-0.096-0.039-0.143-0.079-0.242-0.107c-0.151-0.044-0.252-0.074-0.403-0.027c-0.067,0.021-0.094,0.061-0.161,0.081
			c-0.101,0.028-0.189,0.068-0.269,0c-0.073-0.063,0.023-0.183-0.054-0.242c-0.06-0.045-0.114-0.027-0.188-0.027
			c-0.074,0-0.124-0.009-0.188,0.027c-0.087,0.048-0.06,0.149-0.135,0.215c-0.07,0.063-0.14,0.164-0.215,0.108
			c-0.067-0.05,0.042-0.142,0-0.215c-0.042-0.073-0.103-0.11-0.188-0.108c-0.09,0.002-0.128,0.067-0.188,0.134
			c-0.091,0.102-0.024,0.243-0.135,0.323c-0.087,0.063-0.208,0.142-0.27,0.054c-0.048-0.072,0.007-0.143,0.054-0.215
			c0.051-0.075,0.199-0.045,0.189-0.134c-0.006-0.052-0.04-0.075-0.081-0.108c-0.091-0.072-0.18-0.025-0.297-0.027
			c-0.137-0.002-0.263-0.079-0.349,0.027c-0.042,0.052-0.02,0.104-0.054,0.161c-0.043,0.078-0.086,0.112-0.161,0.161
			c-0.066,0.044-0.11,0.06-0.188,0.081c-0.131,0.034-0.216,0.025-0.35,0c-0.097-0.018-0.144-0.063-0.242-0.081
			c-0.113-0.02-0.202-0.067-0.295,0c-0.069,0.049-0.042,0.135-0.108,0.188c-0.084,0.067-0.211-0.037-0.269,0.054
			c-0.029,0.045,0.012,0.097-0.027,0.135c-0.037,0.038-0.081,0.036-0.134,0.027c-0.066-0.012-0.073-0.081-0.135-0.107
			c-0.126-0.055-0.212,0.035-0.349,0.054c-0.084,0.011-0.141-0.016-0.214,0.027c-0.079,0.045-0.057,0.143-0.135,0.188
			c-0.073,0.042-0.133,0.007-0.215,0.027c-0.109,0.026-0.162,0.069-0.269,0.108c-0.093,0.034-0.157,0.028-0.242,0.081
			c-0.107,0.066-0.15,0.133-0.214,0.242c-0.066,0.111-0.064,0.176-0.108,0.296c-0.031,0.084-0.012,0.157-0.08,0.215
			c-0.079,0.068-0.163,0.022-0.269,0.027c-0.093,0.005-0.151-0.026-0.241,0c-0.081,0.023-0.135,0.042-0.188,0.108
			c-0.046,0.057-0.029,0.119-0.03,0.181c0,0.029-0.006,0.059-0.024,0.087c-0.067,0.11-0.169,0.109-0.269,0.188
			c-0.076,0.06-0.114,0.1-0.189,0.161c-0.092,0.076-0.183,0.084-0.242,0.189c-0.061,0.11,0.084,0.261-0.027,0.323
			c-0.064,0.035-0.119-0.024-0.188,0c-0.16,0.055-0.133,0.236-0.162,0.403c-0.023,0.134,0.113,0.272,0,0.349
			c-0.061,0.042-0.115,0.011-0.188,0.027c-0.12,0.027-0.216,0.015-0.296,0.108c-0.058,0.067-0.017,0.152-0.08,0.215
			c-0.063,0.063-0.141,0.032-0.215,0.081c-0.055,0.035-0.075,0.082-0.111,0.121c-0.013,0.015-0.03,0.029-0.051,0.04
			c-0.093,0.053-0.189-0.018-0.268,0.054c-0.046,0.041-0.03,0.101-0.081,0.134c-0.044,0.029-0.089-0.001-0.134,0.027
			c-0.076,0.048-0.009,0.16-0.08,0.215c-0.092,0.071-0.182-0.045-0.296-0.027c-0.089,0.014-0.156,0.014-0.216,0.081
			c-0.083,0.095,0.094,0.239,0,0.323c-0.049,0.044-0.097,0.038-0.161,0.054c-0.143,0.035-0.237-0.018-0.377,0.027
			c-0.089,0.029-0.149,0.041-0.215,0.108c-0.066,0.066-0.038,0.152-0.107,0.215c-0.052,0.047-0.1,0.047-0.162,0.081
			c-0.119,0.065-0.162,0.162-0.296,0.188c-0.103,0.02-0.166-0.052-0.269-0.026c-0.082,0.02-0.137,0.04-0.188,0.107
			c-0.07,0.092-0.017,0.202-0.028,0.296c0,0-0.016,0.197-0.026,0.323c-0.01,0.126-0.08,0.208-0.027,0.323
			C13.751,14.403,13.767,14.432,13.81,14.463z M27.733,12.498c0.001,0,0.002,0.001,0.003,0.001c0,0,0,0-0.001,0
			c0.001,0,0.001,0,0.002,0.001c0,0-0.001,0-0.001,0c0.001,0,0.001,0,0.002,0.001c0.082,0.052,0.082,0.134,0.161,0.188
			c0.075,0.051,0.153,0.017,0.216,0.081c0.002,0.002,0.003,0.005,0.004,0.007c-0.002-0.002-0.003-0.005-0.005-0.007
			c-0.063-0.064-0.141-0.03-0.216-0.081c-0.079-0.054-0.079-0.137-0.161-0.188c-0.002-0.001-0.004-0.002-0.006-0.003
			C27.731,12.498,27.732,12.498,27.733,12.498z M27.729,12.497c0.001,0,0.001,0,0.002,0.001c-0.001,0-0.002-0.001-0.004-0.001
			C27.727,12.496,27.728,12.496,27.729,12.497z M26.688,11.237c0.009,0.014,0.011,0.028,0.016,0.042
			c-0.005-0.014-0.009-0.029-0.017-0.043c-0.07-0.113-0.179-0.124-0.242-0.242c-0.003-0.006-0.005-0.012-0.007-0.018
			c0.003,0.006,0.004,0.012,0.008,0.018C26.51,11.113,26.619,11.123,26.688,11.237z M26.446,10.995
			c-0.004-0.007-0.006-0.015-0.009-0.022c0,0,0,0,0-0.001C26.44,10.98,26.442,10.987,26.446,10.995z M26.415,10.915
			c-0.001-0.003-0.001-0.006-0.001-0.01c0.001,0.007,0.003,0.013,0.005,0.02C26.418,10.922,26.416,10.918,26.415,10.915z
			 M26.42,10.928C26.42,10.928,26.42,10.928,26.42,10.928c-0.002-0.008-0.005-0.017-0.007-0.025
			c-0.004-0.019-0.007-0.038-0.008-0.057c0-0.003,0-0.007,0-0.011C26.407,10.866,26.411,10.896,26.42,10.928z M25.728,9.199
			c-0.002-0.003-0.006-0.005-0.008-0.008c-0.005-0.007-0.007-0.016-0.011-0.023C25.715,9.178,25.721,9.189,25.728,9.199z
			 M25.676,9.006c-0.002,0.019-0.001,0.037,0.001,0.056c-0.001-0.009-0.004-0.019-0.004-0.028
			C25.673,9.024,25.676,9.015,25.676,9.006z"/>
		<polygon fill="#231F20" points="26.404,10.713 26.404,10.71 26.404,10.71 		"/>
		<polygon fill="#231F20" points="27.644,12.469 27.643,12.469 27.644,12.469 		"/>
		<path fill="#231F20" d="M26.23,8.471c-0.001,0.001-0.002,0.002-0.003,0.003c-0.008,0.008-0.016,0.016-0.025,0.025
			C26.212,8.489,26.221,8.48,26.23,8.471z"/>
		<path fill="#231F20" d="M26.313,17.743c-0.013-0.048-0.033-0.084-0.054-0.118c-0.033-0.053-0.067-0.101-0.08-0.177
			c0-0.002,0-0.004,0-0.007c0,0.002,0,0.004,0,0.007c0.013,0.076,0.047,0.124,0.08,0.177C26.28,17.659,26.301,17.695,26.313,17.743
			c0.007,0.028,0.009,0.052,0.011,0.076c0.003,0.053-0.002,0.101,0,0.153c-0.002-0.049,0.003-0.094,0.001-0.144
			C26.325,17.802,26.321,17.774,26.313,17.743z"/>
		<polygon fill="#231F20" points="26.325,17.985 26.324,17.972 26.324,17.982 		"/>
		<path fill="#231F20" d="M26.528,16.641c-0.004,0.01-0.009,0.017-0.013,0.025C26.52,16.657,26.525,16.651,26.528,16.641
			c0.007-0.018,0.01-0.036,0.011-0.054c0.001-0.021-0.001-0.04-0.005-0.06c0.004,0.02,0.006,0.039,0.005,0.06
			C26.539,16.604,26.535,16.622,26.528,16.641z"/>
		<path fill="#231F20" d="M26.485,16.351c-0.001-0.006-0.002-0.012-0.003-0.018c0,0.002,0,0.004,0,0.006
			C26.483,16.343,26.484,16.347,26.485,16.351z"/>
		<path fill="#231F20" d="M26.636,15.35c0.006,0.019,0.012,0.034,0.018,0.05c0.002,0.006,0.004,0.012,0.007,0.018
			c0.013,0.034,0.025,0.067,0.037,0.102c-0.003-0.01-0.006-0.019-0.01-0.029c-0.022-0.066-0.045-0.123-0.05-0.136
			C26.637,15.355,26.636,15.35,26.636,15.35z"/>
		<path fill="#231F20" d="M28.464,19.921c0.09,0.077,0.133,0.129,0.214,0.215c0.087,0.092,0.262,0.125,0.216,0.242
			c-0.035,0.087-0.122,0.099-0.216,0.107h0c0.094-0.009,0.18-0.02,0.216-0.107c0.047-0.117-0.128-0.15-0.216-0.242
			C28.597,20.05,28.554,19.998,28.464,19.921c-0.079-0.068-0.158-0.073-0.216-0.161c0-0.001,0-0.001-0.001-0.002
			c0,0,0,0.001,0,0.001c0,0,0-0.001,0-0.001c0,0.001,0,0.001,0.001,0.002C28.305,19.848,28.385,19.853,28.464,19.921z"/>
		<path fill="#231F20" d="M35.265,23.174c-0.111-0.043-0.178-0.06-0.296-0.081c-0.093-0.017-0.147-0.025-0.242-0.027
			c-0.201-0.005-0.312,0.041-0.51,0.081c-0.053,0.011-0.097,0.032-0.139,0.051c-0.068,0.031-0.131,0.059-0.212,0.029
			c-0.141-0.052-0.11-0.214-0.214-0.323c-0.083-0.086-0.128-0.152-0.241-0.188c-0.042-0.013-0.078-0.019-0.114-0.019
			c-0.036,0-0.071,0.005-0.109,0.012c-0.016,0.003-0.029,0.003-0.046,0.007c-0.127,0.028-0.185,0.089-0.295,0.161
			c-0.089,0.058-0.117,0.124-0.215,0.162c-0.029,0.011-0.054,0.013-0.081,0.016c-0.127,0.016-0.231-0.042-0.377-0.07
			c-0.16-0.031-0.248-0.058-0.403-0.108c-0.117-0.037-0.197-0.035-0.296-0.108c-0.036-0.026-0.061-0.055-0.08-0.087
			c-0.046-0.073-0.063-0.156-0.135-0.235c-0.1-0.111-0.161-0.178-0.295-0.242c-0.126-0.061-0.217-0.037-0.349-0.081
			c-0.108-0.034-0.18-0.037-0.27-0.107c-0.121-0.096-0.139-0.202-0.188-0.349c-0.049-0.152,0.02-0.263-0.053-0.404
			c-0.051-0.099-0.091-0.161-0.189-0.215c-0.04-0.022-0.077-0.031-0.114-0.033h0c-0.033-0.002-0.066,0.004-0.098,0.011
			c-0.025,0.006-0.049,0.011-0.074,0.019c-0.017,0.005-0.033,0.009-0.051,0.013c-0.001,0-0.002,0-0.002,0
			c-0.003,0.001-0.007,0.001-0.01,0.001c-0.034,0.008-0.068,0.015-0.107,0.016c0,0,0,0,0,0c-0.129,0.003-0.213-0.036-0.332-0.003
			c-0.006,0.002-0.011,0.001-0.017,0.003c-0.043,0.014-0.072,0.038-0.1,0.064c-0.028,0.025-0.056,0.051-0.09,0.072
			c-0.016,0.01-0.031,0.02-0.052,0.026c-0.041,0.013-0.075,0.013-0.109,0.014c-0.058,0.002-0.115-0.003-0.187-0.014
			c-0.108-0.016-0.164-0.049-0.269-0.081l0.054-0.027c0-0.042-0.004-0.066,0-0.107c0.013-0.126,0.115-0.17,0.135-0.296
			c0.013-0.086-0.066-0.178-0.063-0.242c0.001-0.021,0.011-0.04,0.036-0.054c0.011-0.006,0.021-0.004,0.031-0.005
			c0.005,0,0.01-0.003,0.015-0.002c0.054,0.007,0.101,0.067,0.168,0.061c0.093-0.009,0.18-0.02,0.215-0.107
			c0.047-0.117-0.128-0.15-0.216-0.242c-0.081-0.086-0.125-0.138-0.214-0.215c-0.079-0.068-0.159-0.073-0.216-0.161
			c-0.001-0.002-0.001-0.004-0.002-0.006c0.001,0.001,0.001,0.003,0.002,0.004c-0.003-0.006-0.003-0.011-0.006-0.017
			c0.002,0.004,0.003,0.007,0.003,0.011c-0.01-0.018-0.016-0.036-0.02-0.054c-0.001-0.003-0.001-0.006-0.002-0.009
			c-0.006-0.036-0.003-0.071,0.005-0.107c0.001-0.004,0.002-0.008,0.003-0.012c0.003-0.013,0.006-0.025,0.009-0.038
			c0.007-0.029,0.013-0.059,0.016-0.091c0.001-0.007-0.002-0.014-0.001-0.022c0-0.009-0.001-0.018-0.002-0.028
			c-0.001-0.012,0.001-0.023-0.002-0.035c-0.028-0.133-0.037-0.227-0.134-0.323c-0.012-0.011-0.023-0.02-0.036-0.028
			c0.003,0.002,0.005,0.004,0.008,0.006c0,0,0,0,0,0c0.009,0.006,0.019,0.013,0.028,0.022c0.097,0.096,0.106,0.19,0.134,0.323
			c0.002,0.01,0.001,0.019,0.002,0.029c-0.001-0.009-0.001-0.019-0.003-0.029c-0.028-0.133-0.038-0.226-0.134-0.323
			c-0.009-0.009-0.019-0.016-0.029-0.023c0.001,0,0.001,0.001,0.002,0.001c-0.015-0.01-0.03-0.018-0.045-0.025
			c0.001,0,0.002,0.001,0.003,0.001c-0.001,0-0.002-0.001-0.003-0.001c-0.048-0.02-0.098-0.025-0.149-0.038
			c-0.001,0-0.002-0.001-0.003-0.001c-0.007-0.002-0.015-0.004-0.022-0.006c-0.026-0.009-0.053-0.021-0.077-0.042
			c-0.081-0.067-0.069-0.165-0.162-0.215c-0.021-0.011-0.04-0.016-0.06-0.018c-0.02-0.002-0.039-0.001-0.058,0.001
			c-0.025,0.002-0.052,0.002-0.079-0.001c0,0,0,0,0,0c-0.007-0.001-0.014-0.003-0.021-0.004c0,0,0,0,0.001,0c0,0,0,0,0.001,0
			c0,0,0,0,0.001,0c0,0,0,0,0,0c-0.001,0-0.002,0-0.003,0c0,0,0,0,0,0c0,0,0,0,0,0c-0.008-0.001-0.015-0.001-0.023-0.004
			c-0.113-0.042-0.134-0.135-0.242-0.189c-0.116-0.058-0.193-0.076-0.323-0.081h0c0.13,0.005,0.206,0.023,0.323,0.081
			c0.108,0.053,0.129,0.147,0.242,0.189c0.005,0.002,0.009,0.002,0.014,0.003c-0.005-0.001-0.01-0.001-0.015-0.003
			c-0.113-0.042-0.135-0.135-0.242-0.189c-0.116-0.058-0.192-0.075-0.322-0.081c-0.019-0.001-0.036,0.001-0.052,0.004
			c-0.055,0.009-0.1,0.03-0.154,0.026c-0.011,0-0.022,0-0.035-0.003c-0.001,0-0.001-0.001-0.002-0.001c0,0,0.001,0,0.001,0.001
			c0,0-0.001,0-0.001-0.001c0.001,0,0.001,0.001,0.002,0.001c0,0,0.001,0,0.001,0c0,0,0,0,0.001,0c0,0,0.001,0,0.001,0
			c-0.001,0-0.002,0-0.004,0c-0.004-0.001-0.005-0.004-0.009-0.006c-0.039-0.013-0.071-0.032-0.097-0.057
			c-0.006-0.005-0.009-0.012-0.014-0.018c0.002,0.002,0.003,0.005,0.005,0.008c-0.008-0.009-0.015-0.02-0.023-0.029
			c-0.008-0.01-0.018-0.019-0.024-0.03l0,0c0,0,0,0,0,0l-0.026,0.051c0,0,0,0-0.001,0l0.026-0.051
			c-0.006-0.01-0.008-0.025-0.013-0.037c0,0,0,0,0,0.001c-0.025-0.055-0.044-0.116-0.065-0.181c0.004,0.012,0.008,0.024,0.012,0.037
			c-0.004-0.013-0.009-0.024-0.013-0.037c-0.038-0.12,0.005-0.2-0.027-0.323c-0.032-0.122-0.114-0.171-0.134-0.296
			c-0.031-0.185,0.062-0.297,0.138-0.449c-0.005,0.01-0.009,0.022-0.014,0.032c-0.021,0.04-0.042,0.078-0.062,0.115
			c-0.003,0.005-0.006,0.011-0.009,0.016c-0.002,0.003-0.003,0.007-0.004,0.01c0.004-0.008,0.008-0.017,0.013-0.026
			c-0.011,0.021-0.019,0.043-0.028,0.065c0.01-0.023,0.018-0.045,0.03-0.068c0.012-0.022,0.024-0.045,0.037-0.068
			c0.002-0.003,0.003-0.006,0.005-0.009c0.007-0.012,0.013-0.023,0.019-0.036c0.001-0.002,0.002-0.004,0.003-0.006
			c0.004-0.008,0.008-0.019,0.012-0.027c-0.004,0.009-0.008,0.018-0.012,0.027c0,0,0,0,0,0c-0.001,0.001-0.001,0.003-0.002,0.005
			c0.024-0.045,0.047-0.093,0.065-0.147h0c-0.004,0.013-0.011,0.023-0.016,0.036c0.005-0.012,0.01-0.023,0.014-0.036H26.34
			c0.006-0.007,0.011-0.012,0.017-0.019c-0.002,0.002-0.004,0.004-0.006,0.006l-0.001-0.001c0.024-0.029,0.047-0.052,0.07-0.075
			c0.015-0.016,0.031-0.033,0.044-0.049c0.024-0.029,0.046-0.061,0.062-0.105c0.007-0.018,0.01-0.036,0.011-0.054
			c0.001-0.021-0.001-0.041-0.005-0.061c-0.004-0.018-0.009-0.037-0.015-0.055c-0.015-0.044-0.032-0.088-0.037-0.132
			c-0.003-0.033,0.001-0.066,0.019-0.101c0.004-0.008,0.011-0.013,0.016-0.02c-0.005,0.006-0.01,0.012-0.014,0.02
			C26.5,16.239,26.5,16.241,26.5,16.242c-0.007,0.015-0.012,0.029-0.015,0.043c-0.001,0.006-0.001,0.012-0.001,0.018
			c0,0.005,0,0.01,0,0.015c0-0.004,0-0.008,0-0.012c0-0.007,0-0.014,0.002-0.021c0.003-0.014,0.007-0.027,0.014-0.041
			c0.001-0.002,0.001-0.005,0.003-0.007c0.009-0.016,0.019-0.028,0.028-0.04c0.04-0.045,0.093-0.063,0.133-0.121
			c0.04-0.058,0.062-0.094,0.081-0.162c0.008-0.03,0.013-0.058,0.014-0.084c0-0.002-0.001-0.004-0.001-0.006
			c-0.001,0.028-0.004,0.058-0.014,0.09c-0.018,0.068-0.041,0.104-0.081,0.162c-0.006,0.009-0.013,0.012-0.02,0.019
			c0.006-0.006,0.012-0.011,0.018-0.019c0.04-0.058,0.062-0.094,0.081-0.162c0.015-0.053,0.015-0.097,0.011-0.141
			c0.002,0.017,0.006,0.033,0.005,0.051c0-0.017-0.003-0.034-0.005-0.051c-0.001-0.009-0.001-0.018-0.003-0.027
			c-0.008-0.048-0.022-0.096-0.035-0.154c-0.021-0.097-0.049-0.147-0.081-0.242c0,0-0.135-0.011-0.215-0.027
			c-0.139-0.028-0.188-0.118-0.323-0.161c-0.101-0.033-0.162-0.043-0.268-0.054c-0.105-0.011-0.165-0.015-0.269,0
			c-0.109,0.016-0.162,0.059-0.269,0.081c-0.114,0.022-0.185-0.005-0.296,0.027c-0.077,0.022-0.111,0.059-0.188,0.081
			c-0.072,0.02-0.116,0.008-0.188,0.027c-0.077,0.021-0.141,0.017-0.188,0.081c-0.055,0.076-0.031,0.153,0,0.242
			c0.036,0.106,0.111,0.135,0.189,0.215c0.098,0.101,0.173,0.139,0.268,0.242c0.057,0.06,0.104,0.085,0.135,0.161
			c0.018,0.044,0.018,0.081,0.012,0.12c-0.005,0.046-0.018,0.092-0.012,0.149c0.01,0.107,0.098,0.172,0.054,0.269
			c-0.037,0.082-0.11,0.09-0.189,0.134c-0.098,0.056-0.156,0.114-0.268,0.107c-0.141-0.009-0.191-0.117-0.296-0.215
			c-0.081-0.076-0.098-0.149-0.189-0.215c-0.083-0.061-0.138-0.111-0.241-0.107c-0.108,0.004-0.149,0.079-0.242,0.134
			c-0.085,0.05-0.158,0.069-0.215,0.135c-0.188,0.215-0.108,0.242-0.269,0.457c-0.056,0.076,0,0.151,0.027,0.242
			c0.028,0.091,0.076,0.127,0.107,0.215c0.011,0.031,0.02,0.058,0.027,0.085c0.018,0.068,0.025,0.127,0.026,0.211
			c0.005,0.138,0.013,0.229-0.053,0.349v0.001c-0.071,0.13-0.158,0.183-0.295,0.241c-0.088,0.038-0.167-0.007-0.242,0.054
			c-0.101,0.082,0.007,0.227-0.08,0.323l-0.027,0.027c0.005,0.001,0.009,0.001,0.013,0.002c0,0,0,0,0,0
			c-0.005-0.001-0.009-0.001-0.014-0.002l0.027-0.027c-0.09,0.098-0.196,0.068-0.323,0.108c-0.105,0.033-0.163,0.106-0.269,0.081
			c-0.073-0.018-0.133-0.038-0.161-0.108c-0.02-0.048,0.017-0.084,0-0.134c-0.033-0.094-0.119-0.109-0.215-0.134
			c-0.133-0.036-0.213,0.037-0.35,0.054c-0.125,0.015-0.196,0.023-0.323,0.027c-0.073,0.002-0.119-0.024-0.188,0
			c-0.12,0.043-0.079,0.202-0.188,0.269c-0.127,0.077-0.23,0.011-0.377,0.027c-0.147,0.016-0.246-0.017-0.375,0.054
			c-0.073,0.039-0.091,0.094-0.161,0.134c-0.104,0.06-0.176,0.086-0.296,0.081c-0.136-0.006-0.204-0.067-0.322-0.134
			c-0.066-0.037-0.097-0.067-0.161-0.107c-0.092-0.057-0.139-0.102-0.242-0.135c-0.18-0.056-0.303-0.027-0.485,0.027
			c-0.098,0.029-0.169,0.033-0.241,0.107c-0.043,0.044-0.034,0.095-0.081,0.135c-0.066,0.056-0.131,0.073-0.215,0.054
			c-0.117-0.027-0.089-0.176-0.189-0.242c-0.082-0.055-0.151-0.04-0.241-0.081c-0.042-0.019-0.065-0.034-0.107-0.053
			c-0.052-0.023-0.096-0.014-0.134-0.054c-0.06-0.06,0.022-0.146-0.028-0.215c-0.063-0.089-0.202,0.006-0.268-0.081
			c-0.058-0.075-0.002-0.151-0.027-0.242c-0.021-0.077-0.105-0.112-0.081-0.188c0.021-0.064,0.091-0.058,0.135-0.108
			c0.057-0.063,0.06-0.118,0.108-0.188c0.03-0.044,0.041-0.073,0.081-0.107c0.089-0.079,0.22,0.012,0.296-0.081
			c0.054-0.067,0.088-0.136,0.054-0.215c-0.034-0.078-0.135-0.042-0.189-0.108c-0.028-0.037-0.04-0.063-0.054-0.107
			c-0.037-0.122,0.061-0.195,0.054-0.323c-0.005-0.096-0.004-0.159-0.054-0.242c-0.038-0.063-0.061-0.118-0.135-0.135
			c-0.107-0.024-0.142,0.103-0.214,0.189c-0.048,0.058-0.047,0.116-0.108,0.161c-0.108,0.082-0.214-0.022-0.349,0
			c-0.131,0.022-0.218,0.026-0.324,0.108c-0.114,0.09-0.139,0.185-0.187,0.323c-0.053,0.15-0.078,0.247-0.053,0.403
			c0.014,0.098,0.034,0.154,0.08,0.242c0.048,0.093,0.114,0.121,0.16,0.215c0.059,0.116,0.034,0.202,0.081,0.323
			c0.035,0.087,0.066,0.131,0.109,0.215v0c0.073,0.146,0.169,0.213,0.187,0.376c0.013,0.105,0.03,0.179-0.027,0.269
			c-0.047,0.077-0.124,0.072-0.187,0.135c-0.048,0.047-0.041,0.127-0.108,0.134c-0.067,0.007-0.08-0.068-0.134-0.108
			c-0.061-0.045-0.091-0.083-0.161-0.107c-0.09-0.03-0.149-0.007-0.242,0c-0.074,0.006-0.132-0.022-0.189,0.027
			c-0.057,0.048,0.005,0.139-0.054,0.188v0c-0.081,0.068-0.162-0.059-0.268-0.054c-0.107,0.005-0.168,0.04-0.27,0.081
			c-0.087,0.035-0.134,0.059-0.214,0.107c-0.103,0.062-0.14,0.127-0.242,0.188c-0.117,0.07-0.188,0.116-0.323,0.135
			c-0.073,0.01-0.133-0.048-0.188,0c-0.056,0.048-0.006,0.117-0.027,0.188c-0.031,0.103-0.082,0.147-0.134,0.242
			c-0.063,0.115-0.146,0.165-0.161,0.296c-0.01,0.084,0.005,0.133,0.027,0.215c0.025,0.1,0.129,0.141,0.107,0.242
			c-0.036,0.164-0.263,0.024-0.43,0.027c-0.084,0.002-0.133-0.02-0.215,0c-0.139,0.032-0.159,0.172-0.295,0.215
			c-0.13,0.041-0.223-0.05-0.349,0c-0.07,0.028-0.119,0.045-0.162,0.108c-0.054,0.078-0.009,0.148-0.027,0.242
			c-0.021,0.108-0.034,0.169-0.081,0.269c-0.048,0.103-0.066,0.182-0.161,0.242c-0.056,0.036-0.098,0.034-0.162,0.053
			c-0.114,0.036-0.252-0.03-0.296,0.081c-0.031,0.08,0.053,0.128,0.054,0.214c0,0.064,0.02,0.119-0.027,0.162
			c-0.067,0.059-0.127-0.069-0.215-0.081c-0.094-0.012-0.147,0.022-0.242,0.027c-0.095,0.005-0.148,0.008-0.242,0
			c-0.074-0.006-0.121,0.004-0.188-0.027c-0.081-0.037-0.102-0.094-0.161-0.161c-0.044-0.051-0.049-0.102-0.108-0.135
			c-0.073-0.041-0.138-0.033-0.215,0c-0.096,0.042-0.159,0.11-0.161,0.214c-0.002,0.099,0.096,0.124,0.134,0.216
			c0.03,0.07,0.042,0.113,0.054,0.188c0.012,0.083,0.058,0.155,0,0.215c-0.052,0.053-0.115,0.015-0.188,0.027
			c-0.063,0.01-0.097,0.024-0.161,0.027c-0.085,0.004-0.139,0.01-0.215-0.027c-0.048-0.023-0.062-0.056-0.108-0.081
			c-0.111-0.062-0.199-0.087-0.323-0.053c-0.115,0.031-0.131,0.142-0.242,0.188c-0.164,0.069-0.282-0.037-0.456,0
			c-0.097,0.021-0.241-0.019-0.242,0.081c-0.001,0.068,0.063,0.085,0.107,0.135c0.04,0.044,0.103,0.048,0.108,0.108
			c0.003,0.047-0.047,0.06-0.053,0.107c-0.016,0.092,0.026,0.169,0.107,0.215c0.073,0.042,0.132-0.007,0.215,0
			c0.106,0.01,0.163,0.037,0.269,0.054c0.073,0.012,0.116,0.01,0.188,0.027c0.11,0.027,0.178,0.04,0.269,0.108
			c0.096,0.071,0.08,0.19,0.188,0.242c0.076,0.037,0.153-0.031,0.215,0.027c0.077,0.072-0.036,0.17,0,0.268
			c0.028,0.078,0.073,0.116,0.127,0.162c0.019,0.016,0.04,0.033,0.061,0.053c0.059,0.057,0.091,0.092,0.161,0.134
			c0.068,0.042,0.13,0.025,0.188,0.081c0.099,0.096,0.033,0.213,0.054,0.35c0.021,0.136,0.051,0.212,0.054,0.35
			c0.002,0.115-0.012,0.18-0.027,0.296c-0.022,0.169-0.033,0.266-0.081,0.43c-0.048,0.164-0.109,0.242-0.161,0.403
			c-0.037,0.114-0.012,0.198-0.081,0.296l0.004,0.012c0,0,0,0,0,0l-0.004-0.012c-0.012,0.017-0.025,0.029-0.038,0.043
			C9.934,27.454,9.917,27.47,9.9,27.487c-0.064,0.048-0.137,0.073-0.231,0.096c-0.122,0.03-0.197-0.006-0.323,0
			c-0.116,0.005-0.191,0.077-0.296,0.027c-0.067-0.032-0.066-0.105-0.135-0.134c-0.121-0.052-0.193,0.08-0.322,0.108
			c-0.175,0.037-0.281,0.054-0.458,0.027c-0.153-0.024-0.232-0.075-0.376-0.134c-0.117-0.048-0.17-0.12-0.296-0.134
			c-0.116-0.013-0.179,0.044-0.296,0.053c-0.188,0.017-0.295-0.023-0.483-0.027c-0.115-0.002-0.184,0.026-0.296,0
			c-0.112-0.026-0.151-0.135-0.269-0.135c-0.089,0.001-0.145,0.024-0.215,0.081c-0.091,0.074-0.033,0.211-0.134,0.269
			c-0.091,0.052-0.165-0.013-0.269,0c-0.118,0.014-0.21-0.003-0.296,0.08c-0.093,0.091-0.107,0.196-0.08,0.323
			c0.022,0.111,0.102,0.145,0.161,0.242c0.056,0.093,0.116,0.136,0.134,0.242c0.02,0.118-0.042,0.187-0.072,0.296l-0.008,0v0.026
			c-0.025,0.115-0.094,0.186-0.053,0.296c0.038,0.105,0.18,0.082,0.214,0.188c0.033,0.102-0.026,0.166-0.054,0.269
			c-0.033,0.128-0.054,0.201-0.107,0.322c-0.08,0.181-0.237,0.235-0.269,0.431c-0.014,0.083,0.04,0.141,0,0.215
			c-0.032,0.059-0.093,0.055-0.135,0.108c-0.05,0.062-0.061,0.111-0.081,0.188c-0.031,0.122-0.009,0.197,0,0.323
			c0.006,0.084-0.046,0.172,0.027,0.215c0.065,0.038,0.113-0.07,0.188-0.053c0.094,0.02,0.098,0.115,0.161,0.188l0.027,0.35
			c-0.01,0.126-0.022,0.196-0.027,0.322c-0.005,0.116-0.076,0.209,0,0.296c0.07,0.081,0.164,0.033,0.268,0.054
			c0.105,0.021,0.163,0.07,0.269,0.053c0.106-0.017,0.144-0.09,0.242-0.134c0.078-0.035,0.123-0.072,0.206-0.079
			c0.003,0.017,0.008,0.034,0.009,0.052v-0.054c0.086-0.005,0.137,0.017,0.215,0.054c0.078,0.036,0.149,0.053,0.188,0.134
			c0.037,0.075-0.012,0.132,0,0.215c0.011,0.075,0.017,0.121,0.054,0.188c0.065,0.118,0.179,0.115,0.269,0.215
			c0.061,0.067,0.046,0.173,0.135,0.188c0.089,0.015,0.121-0.074,0.188-0.135c0.072-0.065,0.079-0.138,0.161-0.188
			c0.092-0.055,0.165-0.03,0.269-0.054c0.127-0.028,0.194-0.06,0.323-0.081c0.228-0.036,0.361,0.006,0.592,0
			c0.199-0.006,0.312-0.011,0.511-0.027c0.189-0.016,0.378,0.104,0.483-0.054c0.038-0.055,0.032-0.099,0.055-0.161
			c0.037-0.107,0.033-0.184,0.107-0.269c0.065-0.075,0.122-0.101,0.215-0.135c0.109-0.039,0.181-0.013,0.296-0.027
			c0.073-0.009,0.127,0.016,0.188-0.027c0.073-0.052,0.053-0.13,0.081-0.215c0.024-0.073,0.044-0.112,0.053-0.188
			c0.008-0.063-0.03-0.107,0-0.161c0.047-0.085,0.148-0.032,0.242-0.054c0.084-0.02,0.146-0.002,0.215-0.054
			c0.06-0.045,0.052-0.11,0.108-0.161c0.076-0.07,0.186-0.02,0.242-0.108c0.062-0.097,0.058-0.217-0.026-0.296
			c-0.057-0.051-0.129-0.005-0.189-0.054c-0.099-0.081-0.065-0.196-0.053-0.323c0.005-0.053,0.013-0.083,0.027-0.135
			c0.016-0.06,0.034-0.101,0.054-0.148l0.026-0.067h0.028c0.021-0.126,0.011-0.203,0.054-0.323c0.053-0.151,0.094-0.244,0.215-0.349
			c0.113-0.099,0.215-0.096,0.35-0.162c0.203-0.099,0.331-0.134,0.511-0.269c0.09-0.067,0.119-0.132,0.216-0.188
			c0.131-0.078,0.264-0.003,0.375-0.108c0.107-0.1,0.13-0.204,0.135-0.349c0.002-0.071-0.023-0.123-0.05-0.175
			c-0.026-0.052-0.054-0.103-0.058-0.175c-0.007-0.15-0.018-0.264,0.08-0.377c0.084-0.095,0.175-0.097,0.296-0.134
			c0.16-0.049,0.261-0.061,0.429-0.054c0.127,0.005,0.21-0.005,0.323,0.054c0.086,0.044,0.106,0.111,0.188,0.161
			c0.105,0.064,0.176,0.081,0.296,0.107c0.103,0.022,0.165,0.042,0.269,0.027c0.125-0.017,0.186-0.071,0.296-0.134
			c0.124-0.071,0.172-0.145,0.296-0.215c0.119-0.066,0.194-0.087,0.323-0.134h0c0.124-0.046,0.227-0.015,0.322-0.108
			c0.06-0.059,0.085-0.106,0.108-0.188c0.021-0.082-0.05-0.148,0-0.215c0.062-0.085,0.164-0.036,0.269-0.027
			c0.109,0.01,0.166,0.045,0.269,0.081c0.084,0.029,0.131,0.049,0.214,0.081c0.116,0.042,0.2,0.031,0.296,0.107
			c0.065,0.051,0.087,0.095,0.135,0.161c0.09,0.126,0.112,0.215,0.188,0.35c0.071,0.127,0.099,0.208,0.189,0.323
			c0.081,0.105,0.168,0.131,0.241,0.242c0.023,0.035,0.034,0.072,0.042,0.108c0.018,0.09,0.009,0.179,0.092,0.242
			c0.102,0.077,0.227-0.03,0.323,0.054c0.078,0.068,0.038,0.166,0.108,0.242c0.079,0.087,0.165,0.08,0.269,0.135
			c0.096,0.05,0.147,0.082,0.242,0.134c0.115,0.064,0.171,0.121,0.295,0.161c0.17,0.055,0.32-0.087,0.457,0.027
			c0.112,0.093,0.029,0.248,0.135,0.349c0.06,0.059,0.108,0.079,0.188,0.108c0.119,0.043,0.198,0.01,0.323,0.027
			c0.064,0.009,0.111-0.012,0.162,0.027c0.082,0.065-0.038,0.171,0,0.269c0.059,0.155,0.224,0.133,0.349,0.242
			c0.078,0.068,0.118,0.112,0.189,0.188c0.066,0.072,0.117,0.102,0.16,0.189c0.048,0.096,0.044,0.163,0.055,0.269
			c0.008,0.094,0.071,0.181,0,0.242c-0.049,0.042-0.111-0.011-0.161,0.027c-0.069,0.052-0.034,0.131-0.054,0.215
			c-0.024,0.104-0.083,0.166-0.054,0.269c0.038,0.129,0.135,0.207,0.269,0.215c0,0,0.113-0.181,0.188-0.296
			c0.061-0.095,0.102-0.145,0.161-0.242c0.056-0.093,0.039-0.191,0.135-0.242c0.056-0.03,0.104,0.002,0.161-0.027
			c0.16-0.081,0.157-0.31,0.055-0.457c-0.052-0.074-0.109-0.093-0.188-0.135c-0.089-0.045-0.19,0.004-0.242-0.081
			c-0.028-0.045-0.027-0.081-0.027-0.135c0-0.053,0.006-0.082,0.027-0.134c0.066-0.034,0.1-0.069,0.135-0.135
			c0.038-0.075-0.041-0.163,0.026-0.215c0.042-0.033,0.081-0.031,0.135-0.027c0.07,0.006,0.099,0.048,0.161,0.081
			c0.108,0.058,0.22,0.049,0.269,0.161c0.034,0.077-0.047,0.146,0,0.215c0.035,0.05,0.075,0.069,0.134,0.081
			c0.121,0.024,0.175-0.12,0.27-0.161c-0.011-0.095,0.016-0.157-0.028-0.242c-0.063-0.122-0.179-0.117-0.296-0.188
			c-0.124-0.076-0.197-0.113-0.323-0.189c-0.084-0.051-0.13-0.083-0.214-0.135c-0.165-0.099-0.253-0.167-0.431-0.242
			c-0.121-0.051-0.28,0.018-0.322-0.107c-0.032-0.094,0.094-0.144,0.08-0.242c-0.01-0.069-0.032-0.11-0.08-0.161
			c-0.09-0.094-0.195-0.059-0.324-0.081c-0.175-0.03-0.284,0.018-0.456-0.027c-0.11-0.029-0.179-0.04-0.27-0.108
			c-0.064-0.049-0.1-0.102-0.127-0.161c-0.03-0.065-0.05-0.136-0.088-0.215c-0.06-0.123-0.071-0.202-0.135-0.323
			c-0.071-0.134-0.13-0.197-0.214-0.323c-0.114-0.169-0.115-0.338-0.295-0.43c-0.114-0.058-0.211,0.006-0.323-0.053
			c-0.073-0.039-0.112-0.07-0.161-0.135c-0.133-0.175,0-0.345,0-0.565c0-0.126-0.08-0.226,0-0.322
			c0.069-0.084,0.175-0.026,0.268-0.081c0.103-0.059,0.097-0.206,0.216-0.215c0.093-0.007,0.149,0.039,0.214,0.107h0.001
			c0.123,0.129-0.038,0.291,0.027,0.457c0.03,0.078,0.041,0.135,0.108,0.188c0.099,0.079,0.223-0.052,0.322,0.027
			c0.066,0.053,0.03,0.155,0.108,0.188c0.116,0.049,0.139-0.289,0.241-0.215c0.086,0.062-0.04,0.172,0,0.269
			c0.031,0.075,0.097,0.089,0.135,0.161c0.044,0.086,0.013,0.154,0.054,0.242c0.1,0.22,0.304,0.226,0.511,0.35
			c0.093,0.055,0.147,0.082,0.242,0.135c0.115,0.063,0.168,0.129,0.296,0.161c0.121,0.031,0.207-0.051,0.323,0
			c0.115,0.051,0.136,0.143,0.215,0.242c0.103,0.13,0.101,0.262,0.242,0.35l0.013-0.024c0.001,0.001,0.002,0.003,0.003,0.004
			l-0.015,0.02c0.024,0.015,0.048,0.025,0.071,0.032c0.061,0.05,0.128,0.081,0.201,0.081c0.024,0,0.047-0.006,0.07-0.012
			c0.112,0.052,0.179,0.113,0.303,0.167c0.059,0.025,0.104,0.034,0.154,0.053c0.006,0.002,0.011,0.005,0.017,0.007
			c0.014,0.006,0.029,0.012,0.045,0.021c0.053,0.028,0.101,0.048,0.142,0.074l-0.025-0.053c0,0,0,0,0,0l0.025,0.053
			c0.041,0.027,0.075,0.06,0.1,0.114c0.053,0.115-0.022,0.197-0.027,0.323c-0.004,0.105,0,0.164,0,0.269
			c0,0.158,0.011,0.247,0,0.403c-0.006,0.095-0.058,0.153-0.026,0.242c0.04,0.113,0.191,0.08,0.242,0.188
			c0.036,0.076,0.006,0.132,0.027,0.215c0.017,0.068,0.013,0.128,0.044,0.177l-0.001,0.001c0.009,0.013,0.021,0.026,0.036,0.037
			c0.068,0.051,0.137-0.006,0.216,0.027c0.089,0.037,0.128,0.085,0.189,0.161c0.037,0.048,0.049,0.082,0.08,0.135
			c0.074,0.125,0.069,0.239,0.188,0.323c0.082,0.057,0.152,0.037,0.242,0.081c0.055,0.027,0.076,0.059,0.135,0.08
			c0.127,0.048,0.212-0.022,0.35-0.027c0.115-0.004,0.181-0.014,0.295,0c0.096,0.011,0.151,0.023,0.242,0.054
			c0.111,0.038,0.209,0.033,0.269,0.134c0.043,0.073-0.039,0.163,0.027,0.215c0.042,0.033,0.081,0.027,0.134,0.027
			c0.054,0,0.081-0.031,0.135-0.027c0.112,0.01,0.11,0.155,0.216,0.189c0.08,0.025,0.143,0.045,0.214,0
			c0.084-0.053,0.101-0.145,0.081-0.242c-0.015-0.074-0.058-0.105-0.108-0.162c-0.053-0.061-0.093-0.088-0.161-0.134
			c-0.095-0.066-0.163-0.082-0.268-0.134l0.403,0.08c0.053-0.031,0.107-0.026,0.135-0.08c0.042-0.084-0.044-0.146-0.108-0.215
			c-0.072-0.08-0.149-0.08-0.241-0.135c-0.086-0.05-0.116-0.133-0.214-0.135c-0.08-0.001-0.11,0.087-0.189,0.081
			c-0.09-0.007-0.167-0.047-0.188-0.135c-0.024-0.096,0.143-0.116,0.135-0.215c-0.008-0.096-0.095-0.119-0.161-0.188
			c-0.078-0.081-0.137-0.124-0.215-0.192c0-0.06-0.003-0.096,0-0.158c0.006-0.158-0.105-0.395,0.054-0.403
			c0.126-0.007,0.11,0.171,0.215,0.242c0.058,0.04,0.111,0.031,0.161,0.081c0.05,0.05,0.011,0.148,0.08,0.162
			c0.069,0.013,0.08-0.069,0.135-0.108c0.089-0.062,0.214-0.03,0.242-0.135c0.02-0.074-0.066-0.113-0.054-0.188
			c0.011-0.075,0.048-0.114,0.107-0.161c0.092-0.073,0.182-0.032,0.296-0.054c0.105-0.02,0.162-0.065,0.269-0.054
			c0.089,0.01,0.128,0.06,0.215,0.081c0.03,0.007,0.057,0.007,0.083,0.005c-0.004-0.124-0.007-0.248,0-0.371
			c0.003-0.049,0.051-0.094,0.078-0.141c0.037-0.065,0.09-0.124,0.109-0.194c0.032-0.113,0.073-0.18,0.2-0.206
			c0.152-0.031,0.296-0.106,0.442-0.168c0.091-0.038,0.169-0.053,0.266,0.004c0.076,0.045,0.175,0.056,0.265,0.062
			c0.03,0.002,0.062-0.025,0.094-0.049c-0.007-0.024-0.013-0.048-0.031-0.071c-0.049-0.066-0.12-0.064-0.161-0.134
			c-0.069-0.118-0.002-0.217,0.026-0.35c0.036-0.166,0.017-0.315,0.162-0.403c0.065-0.04,0.129-0.005,0.187-0.054
			c0.047-0.039,0.059-0.077,0.081-0.134c0.034-0.088,0.028-0.147,0.027-0.242l0.001,0c-0.002-0.127-0.052-0.195-0.054-0.323
			c-0.004-0.148-0.06-0.281,0.054-0.376c0.081-0.069,0.164-0.033,0.268-0.054l0.268-0.054c0.004-0.086,0.008-0.15,0.013-0.217
			c0.004,0.001,0.009,0.001,0.013,0.002l-0.012-0.019c0.003-0.043,0.007-0.088,0.012-0.142c0.009-0.095-0.023-0.161,0.027-0.242
			c0.057-0.092,0.164-0.059,0.242-0.135c0.07-0.069,0.066-0.144,0.134-0.215c0.062-0.066,0.138-0.06,0.188-0.135
			c0.043-0.064-0.002-0.137,0.054-0.188c0.062-0.057,0.15-0.081,0.215-0.027c0.036,0.03,0.022,0.074,0.054,0.108
			c0.053,0.054,0.122,0.016,0.188,0.053c0.077,0.044,0.084,0.118,0.161,0.161c0.066,0.038,0.114,0.032,0.188,0.054
			c0.105,0.031,0.159,0.076,0.268,0.08c0.108,0.005,0.163-0.042,0.269-0.053c0.146-0.017,0.351-0.145,0.377,0
			c0.021,0.125-0.136,0.148-0.242,0.215c-0.06,0.037-0.099,0.048-0.161,0.081c-0.075,0.04-0.128,0.048-0.188,0.108
			c-0.061,0.06-0.133,0.107-0.108,0.188c0.028,0.085,0.127,0.06,0.215,0.081c0.102,0.025,0.167-0.001,0.269,0.027
			c0.077,0.022,0.137,0.019,0.188,0.081c0.06,0.073,0.005,0.15,0.028,0.242c0.025,0.11,0.018,0.199,0.107,0.269
			c0.099,0.078,0.211,0.085,0.323,0.027c0.116-0.061,0.04-0.244,0.161-0.296c0.121-0.052,0.21,0.146,0.323,0.081
			c0.058-0.034,0.065-0.082,0.108-0.134c0.062-0.075,0.067-0.168,0.162-0.188c0.074-0.016,0.117,0.025,0.188,0.054
			c0.078,0.032,0.104,0.094,0.188,0.108c0.074,0.012,0.123,0.009,0.188-0.027c0.079-0.043,0.141-0.098,0.134-0.188
			c-0.007-0.113-0.131-0.138-0.242-0.161c-0.06-0.013-0.099-0.004-0.161,0c-0.127,0.007-0.196,0.072-0.324,0.054
			c-0.089-0.013-0.141-0.03-0.214-0.08c-0.08-0.055-0.104-0.111-0.161-0.189c-0.059-0.079-0.058-0.154-0.134-0.215
			c-0.071-0.055-0.198,0.007-0.215-0.081c-0.022-0.101,0.151-0.059,0.241-0.107c0.087-0.047,0.144-0.066,0.215-0.135
			c0.065-0.063,0.06-0.137,0.134-0.188c0.112-0.078,0.213-0.016,0.35-0.027c0.126-0.01,0.197-0.011,0.323-0.027
			c0.126-0.016,0.212,0.011,0.323-0.054c0.076-0.045,0.088-0.111,0.161-0.161c0.058-0.04,0.094-0.06,0.161-0.081
			c0.11-0.033,0.269-0.053,0.269-0.053c0.157-0.115,0.257-0.166,0.403-0.296c0.022-0.02,0.044-0.037,0.064-0.052
			c0.061-0.047,0.114-0.083,0.152-0.163c0.004-0.009,0.004-0.019,0.007-0.028c0.003-0.011,0.007-0.023,0.008-0.034
			c0-0.004-0.001-0.008-0.001-0.012c0-0.054-0.017-0.106-0.012-0.156c0-0.001,0-0.002,0-0.003c0.002-0.018,0.009-0.035,0.019-0.053
			c-0.009,0.014-0.016,0.028-0.018,0.042c0,0.001-0.001,0.003-0.001,0.004c0-0.001,0-0.001,0-0.002c0-0.001,0.001-0.001,0.001-0.002
			c0.004-0.017,0.01-0.035,0.022-0.052c0.073-0.099,0.218-0.012,0.296-0.108c0.091-0.115,0.073-0.249,0-0.376
			C35.537,23.228,35.41,23.229,35.265,23.174z M26.596,18.417c-0.003-0.001-0.005,0-0.008-0.001c0.001,0,0.002,0,0.003,0
			c-0.002,0-0.003,0-0.005-0.001h0c0,0,0,0,0.001,0c0,0,0.001,0,0.001,0c0.004,0.001,0.008,0.001,0.011,0.001
			C26.598,18.417,26.597,18.417,26.596,18.417z M26.616,18.419c-0.002,0-0.004,0-0.006-0.001c-0.002,0-0.003,0-0.005,0
			C26.608,18.418,26.612,18.418,26.616,18.419C26.616,18.419,26.616,18.419,26.616,18.419z M27.417,18.663
			C27.417,18.663,27.418,18.663,27.417,18.663C27.418,18.663,27.418,18.663,27.417,18.663
			C27.418,18.663,27.417,18.663,27.417,18.663z"/>
		<rect x="26.586" y="18.416" fill="#231F20" width="0.001" height="0"/>
		<polygon fill="#231F20" points="27.412,18.662 27.412,18.662 27.411,18.662 		"/>
		<path fill="#231F20" d="M26.716,15.592c0.006,0.028,0.013,0.053,0.019,0.078C26.729,15.645,26.723,15.621,26.716,15.592
			c-0.004-0.018-0.009-0.037-0.015-0.057C26.707,15.553,26.712,15.571,26.716,15.592z"/>
		<rect x="26.784" y="11.546" fill="#231F20" width="0" height="0"/>
		<polygon fill="#231F20" points="26.784,11.545 26.784,11.545 26.784,11.545 		"/>
		<polygon fill="#231F20" points="26.785,11.546 26.784,11.546 26.785,11.546 		"/>
		<path fill="#231F20" d="M26.796,11.56c0.082,0.072,0.197-0.003,0.268,0.081c0.019,0.022,0.024,0.047,0.023,0.074
			c-0.002,0.053-0.031,0.111-0.028,0.159c0.001,0.012,0.003,0.023,0.008,0.034c0.005,0.011,0.013,0.02,0.025,0.029c0,0,0,0,0,0
			c0,0,0,0,0,0c-0.012-0.009-0.02-0.018-0.025-0.029c-0.005-0.011-0.008-0.022-0.008-0.034c-0.002-0.048,0.026-0.106,0.028-0.159
			c0.001-0.026-0.004-0.052-0.023-0.074C26.994,11.557,26.878,11.632,26.796,11.56c-0.004-0.003-0.006-0.007-0.009-0.011
			c0-0.001-0.001-0.001-0.001-0.002c0,0-0.001-0.001-0.001-0.001C26.789,11.551,26.791,11.555,26.796,11.56z"/>
		<polygon fill="#231F20" points="26.784,11.545 26.784,11.545 26.782,11.543 		"/>
		<rect x="26.784" y="11.547" fill="#231F20" width="0.003" height="0"/>
		<path fill="#231F20" d="M26.557,9.79c0.014-0.022,0.025-0.046,0.024-0.078v0V9.704c-0.005-0.113-0.083-0.16-0.161-0.242
			c-0.09-0.093-0.147-0.149-0.27-0.188c-0.012-0.004-0.023-0.005-0.034-0.006c-0.004-0.001-0.009-0.002-0.014-0.003
			c0.003,0,0.005,0.001,0.008,0.001c-0.003-0.001-0.005-0.001-0.008-0.001c0.016,0.001,0.031,0.004,0.048,0.009
			c0.123,0.04,0.18,0.096,0.27,0.188c0.078,0.082,0.156,0.129,0.161,0.242v0.007C26.581,9.743,26.57,9.767,26.557,9.79z"/>
		<polygon fill="#231F20" points="26.483,16.332 26.483,16.319 26.483,16.332 		"/>
		<path fill="#231F20" d="M26.492,16.382c-0.004-0.017-0.009-0.033-0.01-0.05c0,0,0,0,0,0.001
			C26.484,16.35,26.488,16.366,26.492,16.382z"/>
		<path fill="#231F20" d="M26.194,17.25c-0.011,0.033-0.017,0.067-0.019,0.104c0-0.002,0-0.004,0-0.006
			c0,0.006-0.002,0.012-0.002,0.018c-0.001,0.023,0.002,0.048,0.006,0.074c-0.005-0.031-0.005-0.059-0.003-0.086
			C26.178,17.318,26.183,17.283,26.194,17.25z"/>
	</g>
</g>
<g id="region-latin-amer">
	<g id="_x5F_results-icon-box_27_">
	</g>
</g>
<g id="region-mid-east">
	<g id="_x5F_results-icon-box_20_">
	</g>
</g>
<g id="region-north-amer">
	<g id="_x5F_results-icon-box">
	</g>
</g>
<g id="region-oceania">
	<g id="_x5F_results-icon-box_18_">
	</g>
</g>
<g id="region-oceania_1_">
</g>
<g id="region-oceania_2_">
</g>
</svg>
