<?xml version="1.0" encoding="utf-8"?>
<!-- Generator: Adobe Illustrator 18.1.1, SVG Export Plug-In . SVG Version: 6.00 Build 0)  -->
<!DOCTYPE svg PUBLIC "-//W3C//DTD SVG 1.1 Tiny//EN" "http://www.w3.org/Graphics/SVG/1.1/DTD/svg11-tiny.dtd">
<svg version="1.1" baseProfile="tiny" id="Layer_1" xmlns="http://www.w3.org/2000/svg" xmlns:xlink="http://www.w3.org/1999/xlink"
	 x="0px" y="0px" viewBox="0 0 40.369 40.645" xml:space="preserve">
<g id="arrow-gray_x5F_down">
</g>
<g id="arrow-gray_x5F_left">
	<g id="arrow-gray_x5F_right_2_">
		<g id="arrow-gray_x5F_down_3_">
		</g>
	</g>
</g>
<g id="arrow-gray_x5F_right">
	<g id="arrow-gray_x5F_down_2_">
	</g>
</g>
<g id="arrow-gray_x5F_up">
	<g id="arrow-gray_x5F_left_1_">
		<g id="arrow-gray_x5F_right_1_">
			<g id="arrow-gray_x5F_down_1_">
			</g>
		</g>
	</g>
</g>
<g id="check-gray">
</g>
<g id="x-gray">
</g>
<g id="favicon">
	<g id="logo-color-large">
	</g>
</g>
<g id="login-account">
</g>
<g id="login-password">
</g>
<g id="tick">
</g>
<g id="social-fb_2">
</g>
<g id="social-linked_2">
</g>
<g id="social-twitter_2">
</g>
<g id="industry-aerospace">
</g>
<g id="industry-construction">
</g>
<g id="industry-employment">
</g>
<g id="industry-energy">
	<g id="_x5F_results-icon-box_48_">
	</g>
</g>
<g id="industry-entertainment">
	<g id="_x5F_results-icon-box_47_">
	</g>
</g>
<g id="industry-finance">
	<g id="_x5F_results-icon-box_46_">
	</g>
</g>
<g id="industry-franchise-agreements">
	<g id="_x5F_results-icon-box_45_">
	</g>
</g>
<g id="industry-healthcare">
	<g id="_x5F_results-icon-box_44_">
	</g>
</g>
<g id="industry-hospitality">
	<g id="_x5F_results-icon-box_43_">
	</g>
</g>
<g id="industry-insurance-reinsurance">
	<g id="_x5F_results-icon-box_42_">
	</g>
</g>
<g id="industry-intellectual-property">
	<g id="_x5F_results-icon-box_41_">
	</g>
</g>
<g id="industry-licensing-agreements">
	<g id="_x5F_results-icon-box_40_">
	</g>
</g>
<g id="industry-mass-claims-appeals">
	<g id="_x5F_results-icon-box_39_">
	</g>
</g>
<g id="industry-mergers-aquisitions">
	<g id="_x5F_results-icon-box_38_">
	</g>
</g>
<g id="industry-oil-gas">
	<g id="_x5F_results-icon-box_37_">
	</g>
</g>
<g id="industry-other">
	<g id="_x5F_results-icon-box_36_">
	</g>
</g>
<g id="industry-partnerships">
	<g id="_x5F_results-icon-box_35_">
	</g>
</g>
<g id="industry-pharmaceuticals">
	<g id="_x5F_results-icon-box_34_">
	</g>
</g>
<g id="industry-securities-investments">
	<g id="_x5F_results-icon-box_33_">
	</g>
</g>
<g id="industry-technology">
	<g id="_x5F_results-icon-box_32_">
	</g>
</g>
<g id="industry-telecommunications">
	<g id="_x5F_results-icon-box_31_">
	</g>
</g>
<g id="region-africa">
	<g id="_x5F_results-icon-box_30_">
	</g>
</g>
<g id="region-asia">
	<g id="_x5F_results-icon-box_29_">
	</g>
</g>
<g id="region-europe">
	<g id="_x5F_results-icon-box_28_">
	</g>
</g>
<g id="region-latin-amer">
	<g id="_x5F_results-icon-box_27_">
	</g>
</g>
<g id="region-mid-east">
	<g id="_x5F_results-icon-box_20_">
	</g>
	<g>
		<path fill="#231F20" d="M5.387,7.538C5.559,7.531,5.655,7.497,5.817,7.44c0.162-0.058,0.261-0.09,0.396-0.198
			c0.071-0.057,0.082-0.128,0.166-0.166c0.094-0.042,0.161,0,0.264,0c0.142,0,0.223,0.01,0.364,0
			C7.11,7.068,7.167,7.038,7.272,7.042c0.078,0.004,0.12,0.021,0.197,0.033l0.033-0.132c-0.055-0.033,0.031-0.108,0-0.166
			C7.454,6.684,7.34,6.742,7.238,6.712C7.121,6.678,7.052,6.664,6.941,6.613C6.847,6.57,6.789,6.548,6.709,6.481
			C6.632,6.416,6.595,6.37,6.544,6.282C6.498,6.203,6.5,6.124,6.501,6.047l0.001,0c0-0.047-0.005-0.094-0.018-0.14
			c-0.039,0.03-0.078,0.063-0.115,0.06C6.258,5.959,6.136,5.945,6.043,5.89C5.924,5.82,5.827,5.839,5.716,5.886
			C5.537,5.962,5.359,6.055,5.172,6.092C5.017,6.124,4.966,6.206,4.927,6.345C4.902,6.431,4.838,6.505,4.792,6.584
			C4.759,6.642,4.7,6.698,4.697,6.758C4.687,6.91,4.691,7.062,4.696,7.214C4.777,7.208,4.85,7.186,4.924,7.241
			c0.092,0.068,0.039,0.196,0.132,0.264C5.16,7.582,5.257,7.543,5.387,7.538z"/>
		<path fill="#231F20" d="M35.553,20.638c-0.216-0.051-0.269-0.186-0.262-0.384c0.004-0.11-0.022-0.221-0.018-0.332
			c0.005-0.135-0.055-0.223-0.162-0.284c-0.194-0.11-0.397-0.206-0.585-0.326c-0.109-0.07-0.225-0.159-0.289-0.268
			c-0.141-0.238-0.229-0.504-0.421-0.716c-0.052-0.058-0.06-0.211-0.022-0.287c0.083-0.17,0.199-0.326,0.316-0.477
			c0.278-0.359,0.296-0.662,0.057-1.041c-0.065-0.103-0.141-0.154-0.264-0.162c-0.265-0.017-0.314-0.083-0.32-0.349
			c-0.004-0.203-0.002-0.411-0.042-0.608c-0.041-0.199-0.174-0.384-0.036-0.595c0.029-0.044,0.033-0.104,0.053-0.154
			c0.074-0.182,0.031-0.31-0.133-0.423c-0.035-0.023-0.062-0.077-0.068-0.12c-0.03-0.23-0.007-0.25,0.204-0.356
			c0.066-0.033,0.116-0.117,0.152-0.188c0.045-0.089,0.069-0.19,0.101-0.287c0.032-0.098,0.078-0.195,0.092-0.296
			c0.027-0.195-0.009-0.411,0.062-0.585c0.15-0.368-0.007-0.705-0.04-1.054c-0.01-0.105-0.078-0.153-0.185-0.138
			c-0.166,0.023-0.307-0.026-0.442-0.127c-0.126-0.094-0.273-0.16-0.404-0.247c-0.203-0.135-0.427-0.251-0.498-0.519
			c-0.035-0.13-0.143-0.149-0.253-0.171c-0.255-0.052-0.517-0.086-0.761-0.171c-0.294-0.103-0.603-0.193-0.801-0.479
			c-0.086-0.125-0.541-0.165-0.672-0.084c-0.018,0.011-0.038,0.026-0.048,0.044c-0.08,0.15-0.217,0.157-0.355,0.139
			c-0.318-0.042-0.59,0.033-0.811,0.282c-0.083,0.094-0.184,0.173-0.279,0.255c-0.202,0.175-0.431,0.194-0.663,0.04
			c0.012,0.082,0.019,0.16,0.028,0.236c0.033,0.105,0.064,0.204,0.073,0.324l0,0c0.001,0.014,0.001,0.029,0.001,0.044
			c0.012,0.047,0.017,0.084,0.008,0.106c0.012,0.092,0.037,0.177-0.039,0.23c-0.084,0.06-0.161-0.025-0.264-0.033
			c-0.167-0.013-0.263-0.007-0.429,0c-0.156,0.007-0.242,0.027-0.398,0.033c-0.044,0.002-0.078,0-0.113-0.001
			c-0.068-0.001-0.133-0.004-0.218,0.001c-0.116,0.007-0.181,0.021-0.297,0.034c-0.098,0.01-0.172,0.024-0.252,0.03
			c-0.035,0.002-0.068,0.008-0.112,0.003c-0.134-0.015-0.211-0.036-0.33-0.099c-0.095-0.05-0.149-0.11-0.207-0.175
			c-0.036-0.04-0.073-0.081-0.124-0.123c-0.058-0.049-0.102-0.09-0.147-0.127c-0.043-0.036-0.088-0.069-0.15-0.104
			c-0.132-0.073-0.213-0.115-0.363-0.132c-0.077-0.009-0.121,0.006-0.198,0c-0.132-0.009-0.217,0.002-0.331-0.066
			c-0.192-0.116-0.159-0.315-0.231-0.528c-0.069-0.201-0.134-0.317-0.132-0.529c0-0.039,0.005-0.067,0.008-0.099
			c-0.02-0.006-0.041-0.013-0.067-0.016c-0.2-0.028-0.341-0.164-0.493-0.289c0.217-0.182,0.217-0.182,0.167-0.464
			c-0.008-0.043-0.002-0.09-0.014-0.132c-0.017-0.056-0.034-0.118-0.069-0.162c-0.139-0.171-0.257-0.201-0.473-0.121
			c-0.186,0.069-0.399,0.09-0.525,0.273c-0.069,0.1-0.123,0.209-0.195,0.306c-0.043,0.059-0.099,0.127-0.163,0.148
			c-0.291,0.095-0.581-0.006-0.872-0.029c-0.041-0.003-0.086-0.047-0.116-0.083c-0.065-0.081-0.128-0.165-0.182-0.254
			c-0.214-0.355-0.454-0.684-0.832-0.876c-0.292-0.149-0.376-0.417-0.393-0.708c-0.014-0.245-0.212-0.468-0.405-0.496
			c-0.209-0.03-0.351-0.147-0.454-0.319c-0.049-0.082-0.095-0.078-0.185-0.068c-0.202,0.024-0.431,0.069-0.607-0.001
			c-0.246-0.098-0.387-0.115-0.538,0.143c-0.026,0.045-0.071,0.079-0.111,0.117c0.015,0.047,0.023,0.096,0.008,0.155
			C16.99,6.44,16.922,6.497,16.824,6.58l-0.125,0.058c0.007,0.002,0.012,0.004,0.019,0.006c-0.091,0.039-0.182,0.046-0.29,0.101
			c-0.092,0.047-0.135,0.091-0.231,0.132C16.05,6.941,15.959,6.974,15.8,6.977c-0.172,0.002-0.258-0.086-0.429-0.099
			c-0.091-0.007-0.142-0.011-0.232,0c-0.133,0.015-0.197,0.084-0.33,0.099c-0.282,0.03-0.421-0.142-0.696-0.199
			c-0.153-0.031-0.396-0.066-0.396-0.066c-0.158,0.087-0.294,0.097-0.463,0.033c-0.104-0.039-0.163-0.078-0.231-0.165
			c-0.06-0.078-0.036-0.156-0.099-0.231c-0.15-0.179-0.381,0.027-0.595-0.066c-0.112-0.048-0.15-0.123-0.265-0.165
			c-0.145-0.054-0.241-0.026-0.395-0.033c-0.168-0.007-0.263,0-0.43,0c-0.156,0-0.243-0.01-0.398,0
			c-0.195,0.012-0.302,0.038-0.496,0.066c-0.167,0.024-0.269,0.011-0.43,0.065C9.761,6.268,9.69,6.333,9.55,6.415
			C9.407,6.5,9.302,6.522,9.187,6.646C9.105,6.735,9.133,6.859,9.022,6.911c-0.104,0.05-0.18-0.025-0.297-0.033
			c-0.194-0.014-0.303,0.018-0.496,0C8.074,6.863,7.988,6.835,7.832,6.811c-0.09-0.013-0.151-0.077-0.231-0.033
			C7.535,6.815,7.566,6.982,7.502,6.943l0.033,0.231C7.641,7.143,7.762,7.229,7.767,7.34c0.004,0.122-0.162,0.1-0.265,0.165
			l-0.23,0.099H6.708c-0.206,0-0.323-0.009-0.529,0C6.012,7.612,5.913,7.595,5.75,7.637c-0.15,0.04-0.287,0.03-0.363,0.166
			c-0.063,0.112,0.022,0.204,0,0.33C5.371,8.235,5.276,8.297,5.277,8.381c0,0.016,0.003,0.032,0.012,0.05
			c0.033,0.076,0.094,0.09,0.164,0.133c0.096,0.056,0.16,0.065,0.265,0.099c0.088,0.029,0.158,0.007,0.231,0.066
			c0.105,0.085,0.114,0.197,0.099,0.33C6.034,9.192,5.981,9.267,5.882,9.356C5.788,9.441,5.712,9.488,5.585,9.489
			c-0.111,0-0.158-0.073-0.265-0.099C5.184,9.355,5.04,9.24,4.958,9.356C4.876,9.469,5.001,9.581,5.089,9.687
			c0.033,0.039,0.063,0.065,0.096,0.089c0.039,0.028,0.081,0.051,0.135,0.076c0.056,0.026,0.104,0.032,0.153,0.039
			c0.075,0.011,0.15,0.014,0.245,0.027C5.833,9.934,5.91,9.901,6.015,9.951c0.075,0.035,0.116,0.066,0.165,0.132
			c0.077,0.106-0.016,0.229,0.067,0.331c0.08,0.098,0.252,0.014,0.297,0.132c0.045,0.119-0.145,0.171-0.132,0.297
			C6.422,10.947,6.472,11,6.544,11.075c0.012,0.013,0.025,0.016,0.038,0.027c0.063,0.056,0.132,0.091,0.208,0.111
			c0.038,0.01,0.072,0.023,0.118,0.027c0.103,0.01,0.16-0.032,0.264-0.033c0.117-0.002,0.184,0.004,0.297,0.033
			c0.123,0.033,0.209,0.042,0.298,0.132c0.089,0.09,0.04,0.21,0.132,0.297c0.039,0.037,0.079,0.055,0.121,0.066
			c0.111,0.028,0.234-0.011,0.376,0c0.231,0.017,0.363,0,0.595,0l0.132-0.363c0.042-0.03,0.073-0.058,0.104-0.084
			c0.036-0.03,0.073-0.058,0.128-0.082c0.166-0.073,0.289-0.08,0.462-0.033c0.146,0.039,0.199,0.127,0.331,0.198
			c0.162,0.087,0.276,0.094,0.43,0.198c0.101,0.068,0.134,0.157,0.229,0.211c0.012,0.007,0.021,0.015,0.035,0.02
			c0.158,0.06,0.262-0.019,0.43-0.033c0.155-0.013,0.251,0.02,0.398-0.033c0.113-0.041,0.166-0.093,0.264-0.165
			c0.096-0.07,0.132-0.135,0.232-0.198c0.025-0.016,0.044-0.027,0.064-0.04c0.04-0.024,0.078-0.045,0.134-0.059
			c0.099-0.026,0.161-0.009,0.264,0c0,0,0,0,0.001,0c0.096,0.008,0.166,0.044,0.238,0.072c0.058,0.022,0.116,0.039,0.191,0.027
			c0.143-0.021,0.192-0.128,0.331-0.165c0.1-0.027,0.161-0.021,0.265-0.033l-0.233,0.397c0,0.155,0.009,0.242,0,0.397
			c-0.006,0.129-0.041,0.201-0.032,0.33c0.006,0.078,0.026,0.12,0.032,0.198c0.007,0.061,0.004,0.109,0.002,0.158
			c-0.002,0-0.004,0.002-0.007,0.002l0.005,0.223c0,0.005-0.001,0.008,0,0.013c0.012,0.182,0.081,0.282,0.066,0.463
			c0,0.002-0.001,0.002-0.001,0.004l-0.086,0.259c-0.034,0.068-0.068,0.138-0.078,0.232c-0.017,0.167,0.028,0.262,0.033,0.43
			c0.004,0.103,0.015,0.163,0,0.264l0,0.001c-0.009,0.06-0.03,0.105-0.047,0.155c-0.06,0.127-0.157,0.215-0.217,0.374
			c-0.066,0.175-0.084,0.282-0.132,0.463c-0.057,0.218-0.055,0.35-0.133,0.562c-0.052,0.146-0.08,0.233-0.166,0.364
			c-0.085,0.13,0.004,0.016-0.098,0.132l0.06-0.06l-0.16,0.192c-0.084,0-0.149,0.001-0.215,0.001c-0.066,0-0.131,0-0.215-0.001
			c-0.123-0.003-0.405-0.03-0.677-0.06c-0.03-0.004-0.061-0.007-0.091-0.01c-0.14-0.036-0.253-0.082-0.422-0.129
			c-0.233-0.065-0.358-0.119-0.596-0.165c-0.215-0.042-0.367-0.171-0.561-0.066c-0.097,0.051-0.109,0.136-0.199,0.198
			c-0.124,0.086-0.244,0.04-0.364,0.132c-0.132,0.103-0.092,0.268-0.23,0.363c-0.161,0.111-0.301,0.07-0.496,0.066
			c-0.279-0.004-0.422-0.106-0.694-0.164c-0.194-0.042-0.315-0.023-0.495-0.1c-0.155-0.065-0.208-0.172-0.364-0.231
			c-0.112-0.042-0.181-0.042-0.298-0.066c-0.218-0.045-0.344-0.057-0.562-0.099c-0.129-0.025-0.211-0.12-0.33-0.066
			c-0.092,0.041-0.067,0.181-0.166,0.198c-0.025,0.004-0.043-0.002-0.061-0.01c-0.013,0.081-0.018,0.163-0.017,0.247
			c0,0.003-0.001,0.006-0.001,0.009c0,0.01,0.003,0.021,0.003,0.031c0.003,0.077,0.009,0.155,0.022,0.234
			c0.002,0.014,0.005,0.029,0.008,0.044c0.033,0.179,0.077,0.362-0.091,0.497c-0.012,0.01-0.022,0.02-0.036,0.029
			c-0.015,0.009-0.022,0.036-0.027,0.062c-0.002,0.01-0.004,0.021-0.006,0.03c-0.009,0.037-0.012,0.073-0.012,0.107
			c0,0.044,0.008,0.087,0.018,0.129c0.045,0.191,0.167,0.365,0.153,0.57c-0.001,0.023,0.04,0.05,0.064,0.073
			c0.026,0.026,0.047,0.053,0.066,0.081c0.042,0.064,0.068,0.135,0.079,0.215c0.005,0.036,0.008,0.074,0.008,0.114
			c-0.003,1.082-0.002,2.164-0.002,3.246c0,0.54-0.001,1.08-0.001,1.621c0,0.437,0,0.874,0.001,1.311
			c0,0.035,0.003,0.063,0.015,0.091c0.012,0.027,0.031,0.053,0.064,0.083c0.099,0.091,0.202,0.085,0.302,0.077
			c0.017-0.001,0.033-0.003,0.05-0.004c0.016-0.001,0.033-0.002,0.049-0.002c0.729,0.004,1.457,0.007,2.186,0.007
			c0.729,0,1.457-0.003,2.186-0.011c0.099-0.001,0.197-0.005,0.296-0.006c0.099-0.001,0.198-0.001,0.298,0.006
			c0.13,0.009,0.26,0.008,0.391,0.005c0.131-0.003,0.261-0.009,0.392-0.014c0.087-0.004,0.174-0.007,0.262-0.009
			c0.017,0,0.036,0.002,0.054,0.004c0.038,0.004,0.076,0.011,0.1,0.033c0.037,0.034,0.075,0.059,0.115,0.078
			c0.119,0.058,0.251,0.06,0.383,0.068c0.128,0.008,0.216-0.024,0.247-0.172c0.018-0.089,0.053-0.157,0.106-0.208
			c0.053-0.05,0.123-0.082,0.212-0.097c0.015-0.002,0.03-0.009,0.044-0.016c0.032-0.014,0.063-0.037,0.092-0.063
			c0.026-0.023,0.05-0.048,0.071-0.072c0.043-0.048,0.07-0.114,0.103-0.174c0.017-0.032,0.036-0.062,0.06-0.087
			c0.003-0.003,0.008-0.005,0.011-0.008c0.026-0.023,0.056-0.041,0.096-0.047c0.023-0.004,0.048-0.004,0.077,0
			c0.021,0.003,0.048-0.019,0.071-0.04c0.007-0.007,0.015-0.014,0.021-0.02c0.09-0.087,0.178-0.176,0.253-0.251
			c-0.012-0.077-0.021-0.148-0.032-0.222l0.026,0.008l0.061,0.019c0.019-0.211,0.203-0.384,0.065-0.557
			c-0.083-0.103-0.212-0.064-0.296-0.165c-0.112-0.131-0.04-0.269-0.099-0.43c-0.074-0.194-0.174-0.276-0.265-0.463
			c-0.057-0.114-0.069-0.187-0.132-0.297c-0.101-0.174-0.248-0.214-0.331-0.397c-0.033-0.074-0.027-0.127-0.066-0.198
			c-0.061-0.112-0.146-0.137-0.232-0.231c-0.112-0.122-0.212-0.174-0.264-0.33c-0.05-0.147,0.009-0.243,0-0.397
			c-0.008-0.116,0.019-0.193-0.034-0.298c-0.065-0.131-0.194-0.125-0.297-0.231c-0.11-0.114-0.133-0.207-0.232-0.331
			c-0.107-0.136-0.195-0.189-0.297-0.33c-0.129-0.178-0.169-0.299-0.265-0.496c-0.068-0.14-0.115-0.216-0.165-0.364
			c-0.06-0.175-0.159-0.288-0.099-0.463c0.024-0.071,0.037-0.124,0.099-0.165c0.018-0.012,0.035-0.018,0.05-0.019
			c0.107-0.005,0.151,0.243,0.214,0.382c0.035,0.078,0.044,0.146,0.051,0.214c0.004,0.034,0.008,0.068,0.014,0.104
			c0.007,0.035,0.016,0.072,0.032,0.112c0.088,0.216,0.192,0.31,0.332,0.496c0.121,0.161,0.221,0.227,0.33,0.397
			c0.093,0.146,0.026,0.382,0.198,0.397c0.061,0.005,0.105-0.016,0.145-0.048c0.04-0.032,0.076-0.076,0.12-0.117
			c0.124-0.114,0.177-0.205,0.232-0.364c0.058-0.171,0.013-0.282,0.033-0.463c0.011-0.103,0.02-0.161,0.033-0.264
			c0.014-0.116-0.082-0.284,0.032-0.297v-0.066v-0.363c0-0.129,0.032-0.206,0-0.33c-0.006-0.025-0.02-0.038-0.03-0.058
			c0,0,0,0,0.001,0c0.009,0.019,0.023,0.033,0.03,0.058c0.032,0.125,0,0.201,0,0.33v0.363l0.067-0.199v0.034c0,0,0,0,0,0
			l-0.067,0.231c0.1-0.012,0.134,0.102,0.166,0.198c0.051,0.155-0.098,0.237-0.132,0.397c-0.046,0.215-0.073,0.346-0.033,0.562
			c0.029,0.148,0.026,0.257,0.132,0.364c0.14,0.139,0.321,0.009,0.496,0.099c0.22,0.112,0.283,0.265,0.431,0.463
			c0.117,0.158,0.14,0.277,0.264,0.43c0.092,0.112,0.169,0.154,0.265,0.264c0.169,0.199,0.218,0.345,0.363,0.562
			c0.113,0.169,0.212,0.244,0.297,0.429c0.099,0.217,0.005,0.395,0.133,0.595c0.079,0.123,0.198,0.135,0.264,0.265
			c0.053,0.106-0.001,0.199,0.066,0.298c0.102,0.148,0.277,0.071,0.43,0.165c0.148,0.091,0.212,0.171,0.33,0.297
			c0.146,0.154,0.213,0.254,0.331,0.43c0.07,0.1,0.116,0.153,0.166,0.264c0.071,0.157,0.089,0.258,0.099,0.429
			c0.01,0.155-0.042,0.242-0.032,0.397c0.009,0.184,0.072,0.28,0.098,0.463c0.028,0.192-0.045,0.318,0.033,0.496
			c0.053,0.118,0.126,0.158,0.198,0.264c0.116,0.172,0.132,0.303,0.265,0.463c0.111,0.133,0.166,0.244,0.33,0.297
			c0.123,0.039,0.211-0.047,0.33,0c0.144,0.057,0.154,0.189,0.264,0.297c0.098,0.096,0.196,0.113,0.265,0.231
			c0.072,0.125,0.04,0.222,0.066,0.364v0.066c0.038,0.09,0.073,0.137,0.1,0.231c0.031,0.113-0.025,0.195,0.032,0.298
			c0.067,0.122,0.202,0.096,0.297,0.198c0.118,0.127,0.1,0.255,0.198,0.397c0.067,0.098,0.121,0.142,0.197,0.231
			c0.077,0.09,0.124,0.14,0.199,0.231c0.093,0.114,0.165,0.166,0.231,0.297c0.027,0.051,0.032,0.1,0.036,0.147l0.031,0.019
			c0.069-0.014,0.129-0.029,0.187-0.044v0c-0.058,0.015-0.118,0.03-0.187,0.045l-0.031-0.019c0.007,0.076,0.007,0.147,0.063,0.217
			c0.084,0.103,0.197,0.078,0.297,0.165c0.126,0.112,0.183,0.203,0.231,0.364c0.034,0.112,0.072,0.187,0.033,0.297
			c-0.052,0.148-0.256,0.094-0.331,0.231c-0.068,0.125-0.059,0.223-0.034,0.364c0.031,0.158,0.127,0.219,0.2,0.363
			c0.069,0.14,0.112,0.217,0.165,0.364c0.048,0.138,0.072,0.219,0.099,0.363c0.006,0.034,0.004,0.059,0.005,0.088
			c0.005,0.103-0.004,0.192,0.028,0.309c0.051,0.184,0.205,0.241,0.232,0.43c0.026,0.183-0.163,0.29-0.099,0.463
			c0.049,0.137,0.142,0.185,0.264,0.264c0.116,0.076,0.193,0.112,0.331,0.132c0.194,0.029,0.308-0.04,0.496-0.099
			c0.187-0.058,0.284-0.118,0.463-0.198c0.195-0.087,0.297-0.151,0.496-0.231c0.139-0.057,0.221-0.083,0.364-0.132
			c0.153-0.053,0.236-0.1,0.397-0.132c0.114-0.023,0.182-0.01,0.297-0.034c0.215-0.043,0.333-0.096,0.528-0.198
			c0.166-0.086,0.229-0.344,0.398-0.265c0.065,0.032,0.063,0.109,0.131,0.132c0.09,0.03,0.144-0.034,0.233-0.066
			c0.163-0.058,0.268-0.084,0.397-0.198c0.096-0.086,0.099-0.182,0.198-0.265c0.139-0.115,0.269-0.086,0.431-0.165
			c0.133-0.067,0.196-0.13,0.33-0.198c0.185-0.095,0.296-0.14,0.495-0.198c0.19-0.056,0.308-0.038,0.496-0.099
			c0.176-0.058,0.263-0.118,0.43-0.198c0.131-0.063,0.247-0.048,0.331-0.165c0.068-0.097,0.055-0.179,0.066-0.298
			c0.017-0.194-0.166-0.328-0.066-0.496c0.082-0.139,0.247-0.087,0.363-0.198c0.059-0.057,0.068-0.114,0.133-0.165
			c0.045-0.037,0.092-0.055,0.137-0.066l0.059,0.032l0.001,0c-0.01-0.014-0.017-0.025-0.026-0.038
			c0.058-0.01,0.119-0.013,0.191-0.028c0.178-0.038,0.289-0.013,0.462-0.066c0.149-0.045,0.22-0.104,0.364-0.165
			c0.127-0.054,0.191-0.132,0.33-0.132c0.122-0.001,0.18,0.067,0.298,0.099c0.113,0.032,0.187,0.111,0.296,0.066
			c0.104-0.042,0.175-0.121,0.166-0.231c-0.006-0.075-0.067-0.098-0.099-0.165c-0.064-0.132-0.158-0.228-0.099-0.363
			c0.063-0.142,0.216-0.115,0.363-0.165c0.175-0.06,0.303-0.006,0.463-0.099c0.086-0.05,0.148-0.078,0.198-0.165
			c0.07-0.123-0.054-0.232,0-0.364c0.045-0.11,0.116-0.145,0.197-0.231c0.12-0.125,0.212-0.171,0.331-0.297
			c0.112-0.12,0.191-0.183,0.264-0.331c0.06-0.12,0.058-0.202,0.099-0.33c0.05-0.155,0.111-0.235,0.133-0.397
			c0.015-0.115-0.066-0.203,0-0.297c0.083-0.118,0.237,0.002,0.365-0.066c0.072-0.039,0.116-0.066,0.165-0.132
			c0.077-0.106-0.003-0.218,0.066-0.33c0.062-0.101,0.144-0.118,0.231-0.198c0.107-0.099,0.17-0.154,0.264-0.265
			c0.084-0.098,0.145-0.147,0.198-0.264c0.071-0.154,0.043-0.262,0.066-0.43c0.014-0.103,0.079-0.171,0.033-0.264
			c-0.068-0.142-0.278,0.037-0.398-0.066c-0.087-0.076-0.051-0.182-0.132-0.265c-0.072-0.073-0.17-0.048-0.232-0.132
			c-0.092-0.124,0.094-0.273,0-0.397c-0.074-0.101-0.174-0.1-0.296-0.132c-0.101-0.027-0.162-0.019-0.265-0.033l-0.429-0.066
			c-0.078-0.013-0.125-0.007-0.198-0.033c-0.122-0.044-0.163-0.119-0.265-0.198c-0.158-0.124-0.249-0.193-0.396-0.33
			c-0.081-0.075-0.114-0.13-0.199-0.198c-0.072-0.058-0.149-0.053-0.197-0.132c-0.048-0.079-0.016-0.142-0.032-0.231
			c-0.028-0.144-0.083-0.218-0.1-0.363c-0.014-0.115,0.036-0.188,0-0.297l0.001-0.001c-0.025-0.073-0.063-0.114-0.107-0.167
			c-0.009-0.01-0.016-0.019-0.025-0.031c-0.061-0.081-0.185-0.1-0.166-0.199c0.016-0.091,0.149-0.053,0.197-0.132
			c0.048-0.078,0.058-0.144,0.034-0.232c-0.031-0.106-0.094-0.23-0.199-0.199c-0.105,0.032-0.018,0.17-0.065,0.265
			c-0.067,0.13-0.171,0.153-0.265,0.264c-0.061,0.072-0.104,0.13-0.146,0.192c-0.028,0.042-0.055,0.083-0.086,0.139
			c-0.061,0.111-0.062,0.192-0.133,0.298c-0.082,0.121-0.208,0.13-0.264,0.264c-0.041,0.096,0.009,0.169-0.033,0.264
			c-0.052,0.116-0.133,0.149-0.229,0.23c-0.001,0.001-0.002,0.001-0.003,0.002c-0.118,0.102-0.189,0.164-0.331,0.231
			c-0.121,0.057-0.201,0.062-0.33,0.099c-0.141,0.041-0.219,0.128-0.363,0.099c-0.084-0.017-0.12-0.062-0.197-0.099
			c-0.115-0.054-0.172-0.136-0.298-0.132c-0.132,0.005-0.17,0.127-0.297,0.165c-0.088,0.026-0.143,0.053-0.232,0.033
			c-0.115-0.026-0.13-0.136-0.231-0.198c-0.023-0.014-0.048-0.019-0.072-0.025c-0.112-0.029-0.23,0.001-0.292-0.107
			c-0.057-0.101-0.007-0.182,0-0.297c0.003-0.04,0.006-0.073,0.01-0.105H27.54c0.005-0.05,0.011-0.097,0.024-0.159
			c0.019-0.105,0.062-0.158,0.066-0.264c0.002-0.091-0.026-0.141-0.034-0.232c-0.012-0.141,0.075-0.242,0.001-0.364
			c-0.063-0.104-0.157-0.108-0.264-0.165c-0.051-0.027-0.074-0.063-0.132-0.066c-0.133-0.009-0.143,0.166-0.166,0.297
			c-0.02,0.115,0.018,0.182,0.034,0.297c0.01,0.091,0.031,0.141,0.032,0.232c0.003,0.144,0.064,0.3-0.066,0.363h0
			c-0.071,0.033-0.126,0.028-0.197,0l-0.001-0.001c-0.104-0.042-0.14-0.124-0.166-0.231c-0.024-0.101,0.053-0.162,0.034-0.264
			c-0.017-0.085-0.051-0.128-0.1-0.198c-0.079-0.112-0.17-0.132-0.264-0.231c-0.07-0.073-0.138-0.101-0.166-0.198
			c-0.032-0.114,0.104-0.185,0.066-0.297c-0.025-0.078-0.104-0.088-0.132-0.165c-0.04-0.11,0.084-0.192,0.032-0.297
			c-0.031-0.066-0.074-0.088-0.131-0.132c-0.092-0.071-0.171-0.066-0.265-0.132c-0.103-0.073-0.172-0.119-0.231-0.231
			c-0.045-0.083-0.017-0.152-0.068-0.232c-0.072-0.118-0.208-0.09-0.297-0.198c-0.08-0.098-0.084-0.18-0.132-0.297
			c-0.042-0.102-0.047-0.168-0.099-0.265c-0.051-0.098-0.087-0.153-0.165-0.231c-0.057-0.059-0.101-0.081-0.166-0.133l-0.08-0.24
			l0-0.001l-0.051-0.155c-0.052-0.078-0.058-0.142-0.133-0.199c-0.094-0.072-0.225,0.028-0.297-0.066
			c-0.057-0.073-0.021-0.142-0.034-0.232l0.269-0.171l-0.001-0.001l0.094-0.059c0.057-0.038,0.098-0.068,0.146-0.1
			c0.017-0.011,0.031-0.022,0.052-0.033c0.087-0.047,0.174-0.019,0.231-0.099c0.054-0.073-0.035-0.171,0.034-0.231
			c0.078-0.068,0.166,0.001,0.264,0.033c0.084,0.026,0.143,0.033,0.198,0.099c0.045,0.052,0.007,0.132,0.067,0.165
			c0.089,0.048,0.1-0.141,0.197-0.165c0.104-0.025,0.18,0.002,0.264,0.066c0.076,0.055,0.08,0.122,0.133,0.198
			c0.089,0.13,0.138,0.204,0.231,0.33c0.088,0.118,0.146,0.178,0.231,0.297c0.098,0.137,0.17,0.207,0.231,0.364
			c0.035,0.087,0.034,0.143,0.068,0.231c0.049,0.135,0.098,0.203,0.165,0.33c0.132,0.25,0.109,0.502,0.363,0.628
			c0.129,0.064,0.219,0.076,0.363,0.066c0.107-0.007,0.16-0.084,0.265-0.066c0.135,0.023,0.153,0.152,0.264,0.231
			c0.132,0.094,0.226,0.114,0.364,0.198c0.12,0.073,0.178,0.126,0.297,0.198c0.089,0.055,0.131,0.108,0.231,0.133
			c0.087,0.021,0.142-0.012,0.232,0c0.03,0.004,0.05,0.013,0.075,0.019c0.101,0.024,0.181,0.058,0.289,0.112
			c0.123,0.064,0.158,0.19,0.297,0.199c0.093,0.006,0.146-0.027,0.232-0.066c0.076-0.035,0.126-0.076,0.174-0.121
			c0.037-0.034,0.073-0.071,0.123-0.11c0.064-0.051,0.104-0.078,0.164-0.132c0.069-0.06,0.088-0.119,0.166-0.165
			c0.078-0.047,0.138-0.05,0.232-0.066c0.164-0.029,0.263-0.019,0.429,0c0.13,0.015,0.218-0.002,0.331,0.066
			c0.077,0.047,0.103,0.098,0.164,0.165c0.1,0.109,0.171,0.163,0.231,0.297c0.09,0.201-0.047,0.357,0.034,0.562
			c0.037,0.097,0.063,0.153,0.132,0.231c0.074,0.083,0.153,0.087,0.232,0.166c0.059,0.058,0.059,0.127,0.132,0.165
			c0.103,0.055,0.181-0.026,0.298-0.033c0.154-0.01,0.245-0.035,0.396,0c0.124,0.029,0.177,0.092,0.298,0.132
			c0.25,0.083,0.424,0.054,0.666,0.063c0.04-0.124,0.064-0.255,0.089-0.384c0.07-0.363,0.268-0.599,0.628-0.698
			c0.203-0.055,0.408-0.112,0.548-0.299C35.715,20.917,35.7,20.672,35.553,20.638z"/>
	</g>
</g>
<g id="region-north-amer">
	<g id="_x5F_results-icon-box">
	</g>
</g>
<g id="region-oceania">
	<g id="_x5F_results-icon-box_18_">
	</g>
</g>
<g id="region-oceania_1_">
</g>
<g id="region-oceania_2_">
</g>
</svg>
