<?xml version="1.0" encoding="utf-8"?>
<!-- Generator: Adobe Illustrator 18.1.1, SVG Export Plug-In . SVG Version: 6.00 Build 0)  -->
<!DOCTYPE svg PUBLIC "-//W3C//DTD SVG 1.1 Tiny//EN" "http://www.w3.org/Graphics/SVG/1.1/DTD/svg11-tiny.dtd">
<svg version="1.1" baseProfile="tiny" id="Layer_1" xmlns="http://www.w3.org/2000/svg" xmlns:xlink="http://www.w3.org/1999/xlink"
	 x="0px" y="0px" viewBox="0 0 40.369 40.645" xml:space="preserve">
<g id="arrow-gray_x5F_down">
</g>
<g id="arrow-gray_x5F_left">
	<g id="arrow-gray_x5F_right_2_">
		<g id="arrow-gray_x5F_down_3_">
		</g>
	</g>
</g>
<g id="arrow-gray_x5F_right">
	<g id="arrow-gray_x5F_down_2_">
	</g>
</g>
<g id="arrow-gray_x5F_up">
	<g id="arrow-gray_x5F_left_1_">
		<g id="arrow-gray_x5F_right_1_">
			<g id="arrow-gray_x5F_down_1_">
			</g>
		</g>
	</g>
</g>
<g id="check-gray">
</g>
<g id="x-gray">
</g>
<g id="favicon">
	<g id="logo-color-large">
	</g>
</g>
<g id="login-account">
</g>
<g id="login-password">
</g>
<g id="tick">
</g>
<g id="social-fb_2">
</g>
<g id="social-linked_2">
</g>
<g id="social-twitter_2">
</g>
<g id="industry-aerospace">
</g>
<g id="industry-construction">
</g>
<g id="industry-employment">
</g>
<g id="industry-energy">
	<g id="_x5F_results-icon-box_48_">
	</g>
</g>
<g id="industry-entertainment">
	<g id="_x5F_results-icon-box_47_">
	</g>
</g>
<g id="industry-finance">
	<g id="_x5F_results-icon-box_46_">
	</g>
</g>
<g id="industry-franchise-agreements">
	<g id="_x5F_results-icon-box_45_">
	</g>
</g>
<g id="industry-healthcare">
	<g id="_x5F_results-icon-box_44_">
	</g>
</g>
<g id="industry-hospitality">
	<g id="_x5F_results-icon-box_43_">
	</g>
</g>
<g id="industry-insurance-reinsurance">
	<g id="_x5F_results-icon-box_42_">
	</g>
</g>
<g id="industry-intellectual-property">
	<g id="_x5F_results-icon-box_41_">
	</g>
</g>
<g id="industry-licensing-agreements">
	<g id="_x5F_results-icon-box_40_">
	</g>
</g>
<g id="industry-mass-claims-appeals">
	<g id="_x5F_results-icon-box_39_">
	</g>
</g>
<g id="industry-mergers-aquisitions">
	<g id="_x5F_results-icon-box_38_">
	</g>
</g>
<g id="industry-oil-gas">
	<g id="_x5F_results-icon-box_37_">
	</g>
</g>
<g id="industry-other">
	<g id="_x5F_results-icon-box_36_">
	</g>
</g>
<g id="industry-partnerships">
	<g id="_x5F_results-icon-box_35_">
	</g>
</g>
<g id="industry-pharmaceuticals">
	<g id="_x5F_results-icon-box_34_">
	</g>
</g>
<g id="industry-securities-investments">
	<g id="_x5F_results-icon-box_33_">
	</g>
</g>
<g id="industry-technology">
	<g id="_x5F_results-icon-box_32_">
	</g>
</g>
<g id="industry-telecommunications">
	<g id="_x5F_results-icon-box_31_">
	</g>
</g>
<g id="region-africa">
	<g id="_x5F_results-icon-box_30_">
	</g>
	<g>
		<path fill="#231F20" d="M33.526,16.234c0.027-0.072,0.042-0.12,0.03-0.196c-0.012-0.07-0.056-0.098-0.077-0.166v0
			c-0.021-0.069,0.015-0.126-0.03-0.181c-0.027-0.033-0.049-0.052-0.09-0.061c-0.065-0.012-0.093,0.045-0.151,0.076
			c-0.053,0.028-0.081,0.05-0.135,0.075c-0.063,0.029-0.101,0.038-0.166,0.06c-0.071,0.025-0.108,0.051-0.182,0.06
			c-0.076,0.01-0.12-0.027-0.196-0.015c-0.076,0.012-0.107,0.058-0.181,0.075c-0.052,0.012-0.083,0.01-0.136,0.015
			c-0.07,0.007-0.116-0.014-0.181,0.015c-0.068,0.031-0.07,0.101-0.136,0.136c-0.079,0.042-0.137,0.031-0.227,0.03
			c-0.083-0.001-0.129-0.041-0.211-0.03c-0.056,0.008-0.083,0.028-0.136,0.045c-0.094,0.031-0.146,0.051-0.242,0.075
			c-0.081,0.021-0.127,0.046-0.211,0.045c-0.066-0.001-0.11,0.005-0.166-0.03c-0.083-0.052-0.061-0.14-0.106-0.226
			c-0.034-0.066-0.029-0.126-0.091-0.166l0,0c-0.036-0.023-0.063-0.026-0.105-0.03c-0.048-0.004-0.079,0.038-0.121,0.015
			c-0.049-0.026-0.063-0.083-0.045-0.136c0.023-0.071,0.126-0.01,0.181-0.06c0.031-0.029,0.053-0.049,0.061-0.091
			c0.01-0.057-0.045-0.08-0.061-0.136c-0.017-0.063,0.024-0.115-0.015-0.166c-0.035-0.046-0.095-0.019-0.136-0.06
			c-0.037-0.037-0.035-0.075-0.06-0.121c-0.042-0.074-0.077-0.108-0.121-0.181c-0.031-0.052-0.028-0.098-0.076-0.136
			c-0.039-0.031-0.073-0.028-0.12-0.045c-0.088-0.031-0.161-0.009-0.227-0.075c-0.05-0.051-0.034-0.108-0.076-0.166
			c-0.046-0.064-0.091-0.084-0.151-0.136c-0.041-0.036-0.063-0.058-0.105-0.091c-0.061-0.046-0.105-0.059-0.166-0.105
			c-0.063-0.048-0.092-0.083-0.151-0.136l0.015,0.015c-0.077-0.047-0.15-0.044-0.196-0.121c-0.045-0.077-0.003-0.139-0.015-0.226
			c-0.017-0.115-0.05-0.174-0.076-0.287c-0.027-0.117-0.021-0.189-0.061-0.302c-0.027-0.08-0.054-0.12-0.09-0.196l-0.031-0.015
			c-0.029,0.041-0.05,0.062-0.076,0.106c-0.02,0.034-0.02,0.06-0.045,0.09c-0.039,0.046-0.079,0.053-0.136,0.076
			c-0.01,0.004-0.018,0.007-0.027,0.01c0,0,0,0,0,0c0.009-0.003,0.017-0.006,0.027-0.011c0.056-0.023,0.097-0.029,0.136-0.076
			c0.025-0.03,0.025-0.056,0.045-0.09c0.026-0.044,0.046-0.065,0.076-0.106l0.03,0.015c-0.035-0.07-0.025-0.137-0.091-0.18
			c-0.05-0.033-0.11,0.014-0.151-0.03c-0.033-0.036,0-0.083-0.03-0.121c-0.042-0.052-0.112-0.006-0.166-0.045
			c-0.037-0.027-0.075-0.091-0.075-0.091c-0.035-0.082-0.07-0.124-0.091-0.211c-0.024-0.097-0.012-0.156-0.015-0.256
			c-0.003-0.1,0.011-0.157,0-0.257c-0.011-0.108-0.026-0.169-0.06-0.272c-0.028-0.085-0.053-0.13-0.091-0.211
			c-0.039-0.084-0.064-0.129-0.106-0.211L27.577,10.8c-0.07-0.024-0.119-0.02-0.181-0.06c-0.042-0.028-0.068-0.05-0.094-0.088
			l0.003-0.002l-0.015-0.015c-0.038-0.062-0.038-0.109-0.046-0.181c-0.001-0.011,0-0.022,0.001-0.032l-0.028-0.009l-0.012-0.004
			c0.005,0.034,0.01,0.066,0.015,0.101c-0.034,0.034-0.074,0.075-0.115,0.115c-0.003,0.003-0.006,0.006-0.01,0.009
			c-0.011,0.01-0.023,0.02-0.032,0.018c-0.013-0.002-0.025-0.002-0.035,0c-0.018,0.003-0.032,0.011-0.044,0.021
			c-0.002,0.001-0.004,0.002-0.005,0.004c-0.011,0.011-0.019,0.025-0.027,0.04c-0.015,0.027-0.027,0.057-0.047,0.079
			c-0.01,0.011-0.021,0.022-0.033,0.033c-0.013,0.012-0.027,0.022-0.042,0.029c-0.007,0.003-0.014,0.006-0.02,0.007
			c-0.041,0.007-0.073,0.021-0.097,0.044c-0.024,0.023-0.04,0.054-0.048,0.095c-0.014,0.068-0.054,0.082-0.113,0.079
			c-0.061-0.004-0.121-0.005-0.175-0.031c-0.018-0.009-0.036-0.02-0.052-0.036c-0.011-0.01-0.028-0.013-0.045-0.015
			c-0.008-0.001-0.017-0.002-0.025-0.002c-0.04,0.001-0.08,0.002-0.119,0.004c-0.06,0.003-0.119,0.005-0.179,0.007
			c-0.06,0.001-0.119,0.002-0.179-0.002c-0.046-0.003-0.091-0.003-0.136-0.003c-0.045,0.001-0.09,0.002-0.135,0.003
			c-0.333,0.004-0.666,0.005-0.998,0.005c-0.333,0-0.666-0.001-0.998-0.003c-0.007,0-0.015,0-0.022,0.001
			c-0.008,0-0.015,0.001-0.023,0.002c-0.046,0.004-0.093,0.006-0.138-0.035c-0.015-0.014-0.024-0.026-0.029-0.038
			c-0.005-0.012-0.007-0.025-0.007-0.041c-0.001-0.2-0.001-0.399-0.001-0.599c0-0.247,0-0.493,0-0.74
			c0-0.494-0.001-0.988,0.001-1.483c0-0.018-0.001-0.036-0.004-0.052c-0.005-0.036-0.017-0.069-0.036-0.098
			c-0.009-0.013-0.018-0.025-0.03-0.037c-0.011-0.011-0.03-0.023-0.029-0.034c0.006-0.093-0.049-0.173-0.07-0.26
			c-0.005-0.019-0.008-0.039-0.008-0.059c0-0.016,0.002-0.032,0.006-0.049c0.001-0.004,0.002-0.009,0.003-0.014
			c0.002-0.012,0.005-0.024,0.012-0.028c0.007-0.004,0.011-0.009,0.017-0.013c0.077-0.061,0.057-0.145,0.042-0.227
			c-0.001-0.007-0.002-0.013-0.004-0.02c-0.006-0.036-0.009-0.072-0.01-0.107c0-0.005-0.001-0.01-0.001-0.014
			c0-0.001,0-0.003,0-0.004c-0.001-0.038,0.002-0.076,0.008-0.113c-0.034-0.014-0.048-0.065-0.078-0.101h0.002
			c-0.041-0.049-0.041-0.097-0.091-0.136c-0.084-0.066-0.166-0.014-0.272-0.03c-0.095-0.014-0.147-0.028-0.242-0.045
			c-0.094-0.018-0.203,0.042-0.242-0.045h0c-0.019-0.043,0.016-0.077,0-0.121c-0.015-0.043-0.04-0.062-0.075-0.091
			c-0.063-0.05-0.137-0.007-0.197-0.061c-0.045-0.041-0.024-0.103-0.075-0.136c-0.065-0.041-0.127-0.019-0.196,0.015
			c-0.06,0.029-0.066,0.083-0.121,0.121c-0.073,0.049-0.13,0.043-0.211,0.076c-0.09,0.037-0.168,0.028-0.226,0.106
			c-0.054,0.072-0.054,0.137-0.045,0.226c0.008,0.082,0.063,0.115,0.075,0.196c0.015,0.099,0.018,0.168-0.03,0.257
			c-0.036,0.066-0.072,0.097-0.136,0.136c-0.073,0.045-0.126,0.065-0.211,0.061c-0.105-0.006-0.154-0.063-0.241-0.121
			c-0.063-0.042-0.084-0.085-0.151-0.121c-0.141-0.076-0.255,0.002-0.407-0.045c-0.086-0.026-0.128-0.057-0.211-0.091
			c-0.094-0.038-0.162-0.029-0.242-0.091c-0.033-0.026-0.049-0.044-0.075-0.076c-0.055-0.067-0.072-0.116-0.106-0.196
			c-0.029-0.069-0.007-0.128-0.06-0.181c-0.053-0.053-0.109-0.042-0.182-0.06c-0.058-0.015-0.091-0.02-0.151-0.03
			c-0.093-0.016-0.164,0.025-0.242-0.03c-0.048-0.035-0.044-0.085-0.09-0.121c-0.063-0.049-0.118-0.042-0.196-0.06
			c-0.155-0.037-0.25-0.02-0.408-0.045c-0.039-0.006-0.07-0.005-0.101-0.009c-0.021-0.003-0.042-0.009-0.065-0.021
			C17.845,6.054,17.82,6.038,17.796,6c-0.021-0.032-0.004-0.064-0.031-0.091c-0.042-0.042-0.092,0-0.151,0v0.03
			c-0.029-0.029-0.044-0.049-0.076-0.076c-0.043-0.035-0.086-0.032-0.121-0.075c-0.035-0.044-0.05-0.08-0.045-0.136
			c0.006-0.072,0.044-0.115,0.106-0.151c0.037-0.021,0.07-0.006,0.106-0.03c0.05-0.034,0.038-0.088,0.075-0.136
			c0.03-0.04,0.067-0.047,0.09-0.091c0.031-0.057,0.032-0.103,0.015-0.166c-0.012-0.046-0.029-0.07-0.06-0.106
			c-0.034-0.038-0.077-0.033-0.106-0.076c-0.021-0.031-0.023-0.054-0.03-0.091c-0.017-0.087-0.011-0.147,0.03-0.226
			c0.029-0.055,0.078-0.065,0.106-0.121c0.017-0.033,0.05-0.059,0.03-0.091c-0.019-0.03-0.063-0.037-0.091-0.015l-0.121,0.121
			l-0.06-0.06l-0.076-0.076c-0.034-0.057-0.063-0.087-0.12-0.121c-0.057-0.034-0.101-0.057-0.166-0.045
			c-0.063,0.011-0.085,0.052-0.136,0.091c-0.056,0.043-0.078,0.08-0.136,0.121c-0.033,0.023-0.056,0.042-0.085,0.056
			c0.021,0.043,0.042,0.07,0.053,0.118c0,0-0.001,0-0.001-0.001C16.785,4.507,16.76,4.48,16.738,4.43l-0.045,0.03
			c-0.101,0.023-0.156-0.047-0.257-0.076l-0.211-0.06l-0.136,0.045c-0.059-0.018-0.099-0.079-0.151-0.045
			c-0.037,0.024-0.014,0.074-0.045,0.106c-0.051,0.051-0.126-0.015-0.182,0.03c-0.033,0.027-0.019,0.081-0.06,0.091
			c-0.038,0.009-0.055-0.028-0.09-0.045c-0.059-0.029-0.088-0.056-0.151-0.076c-0.09-0.028-0.147-0.012-0.241-0.015
			c-0.094-0.003-0.147-0.003-0.241,0c-0.106,0.003-0.189-0.051-0.272,0.015c-0.04,0.032-0.035,0.076-0.075,0.106
			c-0.058,0.042-0.11,0.021-0.181,0.03c-0.1,0.012-0.157,0.004-0.257,0.015c-0.077,0.009-0.121,0.011-0.196,0.03
			c-0.054,0.014-0.09,0.013-0.136,0.045c-0.075,0.053-0.025,0.167-0.106,0.211c-0.077,0.043-0.138-0.021-0.226-0.015
			c-0.072,0.004-0.112,0.01-0.181,0.03c-0.061,0.018-0.097,0.027-0.151,0.06c-0.046,0.029-0.065,0.055-0.106,0.091
			c-0.06,0.052-0.078,0.106-0.151,0.136v0c-0.081,0.033-0.138,0-0.226,0l-0.136-0.061c-0.053-0.012-0.148,0.008-0.242,0.015
			c-0.065,0.005-0.102,0.003-0.166,0.015c-0.073,0.015-0.107,0.064-0.181,0.061c-0.095-0.004-0.139-0.06-0.211-0.121
			c-0.071-0.059-0.073-0.132-0.151-0.181c-0.038-0.024-0.061-0.052-0.106-0.045c-0.049,0.008-0.062,0.05-0.091,0.091
			c-0.059,0.084-0.02,0.162-0.06,0.257c-0.035,0.083-0.076,0.118-0.121,0.196c-0.05,0.087-0.062,0.145-0.121,0.226
			c-0.032,0.044-0.053,0.066-0.09,0.106c-0.055,0.057-0.085,0.092-0.151,0.136c-0.07,0.047-0.118,0.058-0.196,0.091
			c-0.093,0.039-0.146,0.06-0.242,0.09c-0.116,0.037-0.194,0.021-0.302,0.076c-0.094,0.047-0.183,0.065-0.211,0.166
			C9.858,6.381,9.965,6.429,9.961,6.528C9.959,6.582,9.94,6.61,9.931,6.664C9.923,6.711,9.932,6.74,9.916,6.785
			C9.895,6.84,9.847,6.85,9.825,6.905C9.804,6.96,9.799,6.998,9.81,7.056C9.819,7.1,9.838,7.121,9.856,7.162
			C9.884,7.227,9.92,7.258,9.931,7.328c0.012,0.077,0.001,0.126-0.03,0.196C9.869,7.595,9.825,7.615,9.78,7.675
			C9.717,7.76,9.703,7.825,9.629,7.902C9.577,7.956,9.532,7.97,9.478,8.022C9.434,8.066,9.42,8.102,9.372,8.143
			c-0.048,0.042-0.08,0.059-0.136,0.091c-0.078,0.044-0.124,0.071-0.211,0.09C8.962,8.339,8.923,8.327,8.859,8.339
			C8.786,8.354,8.737,8.353,8.678,8.4C8.606,8.457,8.614,8.529,8.573,8.611C8.525,8.705,8.507,8.763,8.452,8.853
			C8.41,8.921,8.391,8.966,8.331,9.019C8.289,9.055,8.255,9.061,8.21,9.094C8.146,9.141,8.106,9.166,8.059,9.23
			c-0.053,0.072-0.07,0.124-0.09,0.211C7.948,9.528,7.965,9.58,7.954,9.668C7.942,9.757,7.982,9.842,7.908,9.894
			c-0.035,0.025-0.067,0.011-0.105,0.03c-0.082,0.041-0.089,0.114-0.151,0.181c-0.045,0.049-0.084,0.065-0.121,0.121
			c-0.037,0.058-0.036,0.102-0.06,0.166c-0.029,0.077-0.044,0.121-0.076,0.196c-0.038,0.09-0.057,0.142-0.106,0.226
			c-0.032,0.055-0.044,0.092-0.091,0.136c-0.04,0.038-0.083,0.035-0.121,0.076c-0.056,0.06-0.058,0.116-0.075,0.196
			c-0.011,0.052-0.009,0.083-0.015,0.136l0.06,0.151c0.024,0.053,0.025,0.09,0.06,0.136c0.041,0.054,0.096,0.052,0.136,0.106
			c0.051,0.069,0.052,0.126,0.06,0.212c0.007,0.076,0.025,0.13-0.015,0.196c-0.028,0.047-0.083,0.041-0.106,0.091
			c-0.029,0.065,0.018,0.11,0.03,0.181l0.015-0.015c0.035,0.035,0.054,0.057,0.091,0.091c0.04,0.037,0.104,0.036,0.106,0.091
			c0.001,0.042-0.049,0.05-0.06,0.09c-0.009,0.034-0.001,0.055,0,0.091c0.003,0.089,0.041,0.138,0.03,0.226
			c-0.015,0.118-0.11,0.156-0.136,0.272c-0.012,0.052-0.007,0.083-0.015,0.136c-0.013,0.092-0.045,0.147-0.056,0.229l-0.004,0.028
			c0.001-0.001,0.001-0.002,0.001-0.003c0,0.006-0.001,0.011-0.001,0.018c-0.003,0.076,0.039,0.123,0.015,0.196
			c-0.034,0.108-0.143,0.105-0.226,0.181c-0.062,0.056-0.124,0.072-0.151,0.151c-0.032,0.091-0.004,0.16,0.046,0.242
			c0.041,0.068,0.112,0.067,0.151,0.136c0.035,0.064,0.032,0.116,0.03,0.181h0v0.046c0.001,0.077-0.004,0.12-0.015,0.196
			c-0.009,0.059-0.027,0.091-0.03,0.151C6.999,15.24,7,15.288,7.033,15.358c0.034,0.072,0.065,0.115,0.136,0.151
			c0.059,0.03,0.104,0.009,0.166,0.03c0.077,0.027,0.111,0.064,0.181,0.106l0.03,0.287c0.032,0.014,0.06,0.022,0.087,0.031
			l0.004,0.014l0.004-0.011c0.024,0.009,0.047,0.02,0.072,0.041c0.069,0.061,0.063,0.13,0.106,0.211
			c0.029,0.054,0.054,0.079,0.075,0.136c0.017,0.045-0.002,0.084,0.03,0.121c0.044,0.049,0.115-0.011,0.166,0.03
			c0.033,0.027,0.034,0.058,0.06,0.091c0.027,0.032,0.043,0.049,0.076,0.075c0.033,0.027,0.067,0.025,0.091,0.06
			c0.022,0.032,0.014,0.062,0.001,0.093l-0.032,0.013c0.01-0.002,0.018-0.002,0.027-0.002c-0.013,0.029-0.027,0.058-0.027,0.093
			c0,0.077-0.008,0.129,0.03,0.196c0.029,0.051,0.065,0.065,0.106,0.106l0.121,0.121c0.035,0.035,0.059,0.052,0.091,0.091
			c0.043,0.053,0.037,0.107,0.091,0.151c0.049,0.041,0.109,0.013,0.151,0.061c0.037,0.042,0.019,0.086,0.045,0.136
			c0.007,0.014,0.015,0.025,0.023,0.036c-0.003,0.004-0.005,0.006-0.008,0.009h0c0,0,0,0,0,0h0.014
			c0.035,0.046,0.075,0.072,0.122,0.121c0.04,0.042,0.059,0.071,0.106,0.106c0.053,0.039,0.093,0.044,0.151,0.075
			c0.054,0.028,0.084,0.044,0.136,0.075c0.061,0.038,0.096,0.059,0.151,0.106c0.073,0.062,0.119,0.098,0.166,0.181
			c0.034,0.06,0.008,0.121,0.06,0.166c0.054,0.046,0.127-0.016,0.181,0.03c0.036,0.031,0.025,0.074,0.06,0.106
			c0.057,0.053,0.122,0.019,0.196,0.045c0.074,0.027,0.102,0.086,0.181,0.091c0.026,0.001,0.048-0.003,0.068-0.01l-0.008-0.005
			c0-0.062-0.005-0.104-0.004-0.155c-0.001,0.051,0.004,0.093,0.004,0.155l0.008,0.005c0.048-0.018,0.085-0.055,0.143-0.08
			c0.053-0.023,0.085-0.032,0.136-0.061c0.063-0.035,0.084-0.078,0.151-0.106c0.066-0.027,0.111-0.019,0.181-0.03
			c0.071-0.012,0.116,0,0.181-0.03c0.054-0.024,0.067-0.066,0.121-0.091c0.06-0.027,0.1-0.024,0.166-0.03
			c0.123-0.011,0.193,0.021,0.317,0.03c0.094,0.007,0.149-0.003,0.242,0.015c0.093,0.018,0.141,0.038,0.226,0.075v0
			c0.048,0.021,0.078,0.029,0.121,0.061c0.04,0.029,0.043,0.076,0.091,0.091c0.071,0.021,0.097-0.064,0.166-0.091
			c0.084-0.032,0.144-0.008,0.226-0.046c0.065-0.03,0.089-0.07,0.151-0.106c0.046-0.026,0.071-0.042,0.121-0.061
			c0.045-0.017,0.077-0.009,0.121-0.03c0.049-0.024,0.058-0.064,0.106-0.091c0.068-0.038,0.119-0.033,0.196-0.045
			c0.053-0.008,0.084-0.005,0.136-0.015c0.06-0.012,0.118,0.007,0.151-0.045c0.019-0.03-0.005-0.061,0.015-0.091
			c0.033-0.05,0.092-0.018,0.151-0.03c0.069-0.014,0.111-0.029,0.171-0.039l0.04-0.006c0.105-0.013,0.166,0,0.272,0l-0.06-0.015
			c0-0.02,0-0.037,0-0.055c0,0,0,0,0.001,0c0,0.018,0,0.035,0,0.054l0.06,0.015h0.226c0.083,0,0.129-0.005,0.211,0
			c0.053,0.004,0.084,0.003,0.136,0.015c0.061,0.015,0.119,0.006,0.151,0.061c0.018,0.031-0.008,0.063,0.015,0.091
			c0.024,0.029,0.057,0.013,0.091,0.03c0.048,0.025,0.067,0.052,0.106,0.091c0.053,0.053,0.096,0.08,0.121,0.151
			c0.026,0.072-0.012,0.121,0,0.196c0.01,0.061,0.001,0.108,0.045,0.151c0.029,0.028,0.055,0.029,0.091,0.046
			c0.029,0.013,0.048,0.014,0.075,0.03c0.04,0.023,0.047,0.06,0.091,0.075c0.075,0.027,0.122-0.032,0.196-0.061
			c0.098-0.038,0.137-0.102,0.241-0.121c0.088-0.016,0.139,0.022,0.227,0.015c0.042-0.003,0.064-0.014,0.106-0.015l0.007-0.032
			l-0.006,0.032c0.047-0.001,0.077-0.003,0.121,0.015c0.058,0.023,0.076,0.062,0.12,0.106c0.071,0.07,0.109,0.114,0.166,0.196
			c0.062,0.089,0.1,0.14,0.136,0.241c0.034,0.096,0.036,0.156,0.045,0.257c0.009,0.105,0.012,0.166,0,0.272l0.011-0.008
			l-0.012,0.008c-0.003,0.021-0.006,0.039-0.009,0.057c-0.002,0.009-0.004,0.018-0.006,0.027c-0.013,0.056-0.029,0.104-0.046,0.173
			c-0.023,0.089-0.043,0.137-0.061,0.226l0.03,0.029c-0.006,0-0.01,0-0.019,0l-0.011-0.03c-0.02,0.105-0.011,0.167-0.03,0.272
			c-0.029,0.163-0.085,0.245-0.12,0.407c-0.022,0.099-0.051,0.155-0.046,0.257c0.006,0.104,0.035,0.16,0.076,0.257
			c0.034,0.08,0.057,0.124,0.106,0.196c0.037,0.056,0.068,0.081,0.106,0.136c0.054,0.078,0.071,0.131,0.121,0.211
			c0.045,0.072,0.066,0.116,0.12,0.181c0.043,0.051,0.08,0.068,0.121,0.12c0.042,0.054,0.064,0.088,0.09,0.151v0.002
			c0.028,0.067-0.008,0.131,0.046,0.181c0.04,0.039,0.098,0.005,0.136,0.046c0.041,0.044,0,0.099,0.03,0.151
			c0.025,0.043,0.059,0.051,0.09,0.09c0.028,0.034,0.042,0.06,0.06,0.093l0.001-0.001l0.016,0.028
			c0.032,0.057,0.054,0.089,0.076,0.151c0.01,0.031,0.006,0.061,0.005,0.089l0.04-0.013c0.035-0.018,0.062-0.018,0.09-0.045l0,0
			c-0.028,0.028-0.056,0.028-0.09,0.045l-0.04,0.013c-0.001,0.028,0.001,0.054,0.025,0.077c0.032,0.031,0.085,0.005,0.106,0.044
			c0.01,0.021,0.001,0.035-0.017,0.046l0,0c-0.032,0.02-0.091,0.034-0.104,0.075c-0.026,0.084,0.028,0.138,0.076,0.212
			c0.025,0.039,0.051,0.051,0.076,0.091c0.051,0.083,0.025,0.151,0.061,0.241c0.028,0.074,0.055,0.111,0.091,0.181
			c0.023,0.047,0.041,0.072,0.06,0.121c0.037,0.09,0.092,0.15,0.061,0.241c-0.017,0.048-0.053,0.061-0.076,0.106
			c-0.038,0.075-0.049,0.127-0.045,0.212c0.005,0.1,0.051,0.148,0.09,0.241c0.033,0.078,0.06,0.118,0.091,0.196
			c0.027,0.07,0.037,0.11,0.06,0.181c0.031,0.094,0.077,0.143,0.076,0.241c-0.001,0.114-0.025,0.192-0.106,0.272
			c-0.005,0.006-0.011,0.011-0.017,0.015c-0.042,0.033-0.087,0.037-0.134,0.075c-0.039,0.031-0.059,0.051-0.09,0.091
			c-0.073,0.09-0.096,0.158-0.121,0.271c-0.016,0.075,0.02,0.128-0.015,0.197c-0.021,0.041-0.054,0.05-0.075,0.09
			c-0.043,0.078-0.021,0.138-0.03,0.226c-0.008,0.077-0.001,0.121-0.015,0.197c-0.008,0.048-0.012,0.076-0.03,0.121
			c-0.027,0.066-0.074,0.087-0.106,0.151c-0.035,0.072-0.045,0.118-0.06,0.196c-0.022,0.11-0.006,0.175-0.015,0.287
			c-0.009,0.106-0.02,0.166-0.03,0.272c-0.005,0.054-0.012,0.101-0.02,0.146l0,0c-0.015,0.1-0.029,0.186-0.011,0.307
			c0.018,0.121,0.014,0.205,0.09,0.302c0.047,0.059,0.103,0.063,0.152,0.121c0.062,0.075,0.067,0.137,0.106,0.226
			c0.025,0.059,0.022,0.1,0.06,0.151c0.033,0.043,0.064,0.055,0.106,0.091l-0.03,0.015c0.035,0.065,0.066,0.097,0.09,0.166
			c0.016,0.046,0.02,0.073,0.03,0.121c0.015,0.07,0.015,0.111,0.03,0.181c0.014,0.066,0.021,0.104,0.046,0.166
			c0.038,0.096,0.078,0.141,0.135,0.226c0.049,0.073,0.086,0.108,0.136,0.181c0.043,0.063,0.084,0.093,0.105,0.166
			c0.012,0.04,0.013,0.064,0.015,0.106c0.007,0.113-0.044,0.173-0.046,0.287c-0.001,0.137,0.023,0.215,0.06,0.347
			c0.016,0.054,0.032,0.082,0.046,0.136c0.022,0.086,0.03,0.137,0.03,0.226c-0.001,0.083-0.032,0.128-0.03,0.211
			c0.004,0.123,0.071,0.18,0.09,0.302c0.013,0.081,0.004,0.129,0.015,0.211c0.012,0.089,0.027,0.138,0.046,0.226
			c0.023,0.106,0.015,0.173,0.061,0.272c0.034,0.077,0.077,0.108,0.121,0.181c0.045,0.075,0.046,0.134,0.106,0.196
			c0.053,0.055,0.121,0.043,0.165,0.105c0,0,0,0.001,0,0.001c0.029,0.041,0.027,0.074,0.045,0.121
			c0.034,0.089,0.061,0.135,0.09,0.226c0.013,0.041,0.024,0.063,0.031,0.106c0.01,0.07-0.023,0.11-0.015,0.181
			c0.009,0.087,0.029,0.137,0.075,0.211c0.049,0.078,0.116,0.089,0.166,0.166c0.041,0.064,0.036,0.115,0.075,0.181
			c0.034,0.058,0.075,0.076,0.106,0.136c0.028,0.055,0.04,0.09,0.046,0.151c0.005,0.059,0.001,0.094-0.016,0.151
			c-0.012,0.043-0.009,0.079-0.045,0.106c-0.042,0.032-0.09-0.028-0.135,0c-0.066,0.041-0.042,0.12-0.03,0.196
			c0.014,0.094,0.064,0.135,0.121,0.211c0.027,0.037,0.069,0.045,0.075,0.09c0.007,0.055-0.083,0.066-0.075,0.121
			c0.009,0.068,0.088,0.063,0.151,0.09c0.063,0.027,0.109,0.011,0.166,0.045c0.061,0.037,0.067,0.09,0.121,0.136
			c0.049,0.042,0.072,0.087,0.136,0.091c0.058,0.003,0.085-0.033,0.136-0.061c0.056-0.03,0.083-0.055,0.135-0.091l0.196-0.03
			c0.047-0.012,0.073-0.021,0.121-0.03c0.076-0.014,0.126,0.015,0.196-0.015c0.054-0.023,0.067-0.066,0.121-0.09
			c0.049-0.022,0.081-0.033,0.136-0.03c0.056,0.003,0.08,0.038,0.136,0.045c0.041,0.005,0.065,0.007,0.106,0
			c0.05-0.008,0.072-0.033,0.121-0.045c0.046-0.011,0.073-0.014,0.121-0.015c0.083-0.003,0.13,0.016,0.212,0.03
			c0.059,0.011,0.091,0.033,0.151,0.03c0.048-0.002,0.075-0.014,0.121-0.03c0.062-0.022,0.09-0.05,0.151-0.076
			c0.069-0.029,0.108-0.048,0.181-0.06c0.081-0.014,0.136,0.031,0.211,0c0.066-0.027,0.071-0.092,0.136-0.121
			c0.075-0.034,0.135,0.019,0.211-0.015c0.064-0.029,0.08-0.077,0.136-0.121c0.056-0.044,0.094-0.061,0.151-0.106
			c0.082-0.064,0.122-0.108,0.196-0.181c0.104-0.102,0.17-0.154,0.257-0.272c0.045-0.062,0.045-0.119,0.106-0.166
			c0.063-0.049,0.129-0.017,0.196-0.061c0.068-0.043,0.088-0.088,0.135-0.151c0.055-0.071,0.07-0.122,0.121-0.196
			c0.06-0.086,0.107-0.125,0.166-0.211c0.051-0.074,0.075-0.119,0.121-0.196c0.048-0.082,0.07-0.131,0.121-0.212
			c0.06-0.097,0.063-0.191,0.166-0.241c0.049-0.024,0.095,0.005,0.136-0.03c0.008-0.007,0.014-0.015,0.018-0.023
			c0.024-0.044-0.006-0.1,0.012-0.158c0.035-0.116,0.111-0.157,0.151-0.272c0.026-0.074,0.03-0.119,0.045-0.196
			c0.02-0.093,0.038-0.158,0.05-0.234l0.001,0c0.005-0.034,0.009-0.07,0.011-0.113c0.002-0.053-0.006-0.083,0-0.136
			c0.011-0.093,0.018-0.153,0.076-0.227c0.033-0.042,0.064-0.055,0.106-0.09c0.058-0.049,0.087-0.081,0.151-0.121
			c0.072-0.045,0.117-0.062,0.196-0.091c0.097-0.034,0.165-0.015,0.257-0.061c0.064-0.032,0.097-0.057,0.151-0.106
			c0.046-0.042,0.08-0.064,0.105-0.121c0.029-0.065,0.012-0.11,0.016-0.181c0.004-0.094-0.016-0.149,0-0.242
			c0.013-0.079,0.042-0.118,0.06-0.196c0.015-0.064,0.036-0.101,0.03-0.166c-0.007-0.084-0.072-0.114-0.091-0.196
			c-0.019-0.086,0.02-0.141,0-0.226c-0.017-0.069-0.055-0.098-0.076-0.166c-0.024-0.079,0.015-0.142-0.03-0.211
			c-0.03-0.045-0.081-0.042-0.106-0.09c-0.038-0.074-0.015-0.142,0.03-0.212c0.023-0.035,0.042-0.052,0.076-0.076
			c0.06-0.04,0.112-0.024,0.181-0.045c0.066-0.02,0.113-0.016,0.166-0.061c0.068-0.058,0.04-0.137,0.09-0.211
			c0.063-0.093,0.131-0.118,0.211-0.196c0.038-0.037,0.06-0.06,0.095-0.095l0.011-0.011c0.059-0.059,0.096-0.089,0.151-0.151
			c0.064-0.072,0.08-0.13,0.151-0.196c0.081-0.076,0.141-0.104,0.242-0.151c0.112-0.051,0.193-0.034,0.302-0.091
			c0.122-0.064,0.173-0.13,0.272-0.226c0.068-0.067,0.131-0.092,0.166-0.181c0.028-0.071-0.011-0.124,0.014-0.196
			c0.039-0.106,0.121-0.128,0.196-0.211c0.048-0.053,0.081-0.078,0.121-0.135c0.044-0.065,0.075-0.104,0.09-0.181
			c0.018-0.093-0.024-0.147-0.03-0.241c-0.008-0.118-0.002-0.184,0-0.302c0.003-0.129,0.008-0.202,0.015-0.332
			c0.005-0.106,0.012-0.165,0.015-0.271c0.003-0.118-0.035-0.19,0-0.302c0.019-0.063,0.071-0.085,0.076-0.151
			c0.004-0.061-0.007-0.103-0.046-0.151c-0.039-0.048-0.088-0.038-0.135-0.075c-0.032-0.025-0.045-0.046-0.075-0.074l-0.001-0.001
			c-0.045-0.043-0.082-0.056-0.12-0.106c-0.059-0.075-0.071-0.134-0.091-0.226c-0.019-0.087,0.013-0.143-0.015-0.227
			c-0.019-0.057-0.054-0.079-0.075-0.136c-0.029-0.078-0.017-0.129-0.03-0.211c-0.011-0.065-0.028-0.101-0.03-0.166
			c-0.002-0.078,0.003-0.124,0.03-0.197c0.024-0.064,0.076-0.084,0.091-0.151c0.016-0.076,0.002-0.126-0.031-0.196
			c-0.024-0.054-0.053-0.075-0.09-0.121c-0.045-0.055-0.108-0.066-0.121-0.135c-0.011-0.061,0.02-0.095,0.046-0.151
			c0.012-0.027,0.02-0.048,0.032-0.068c0.008-0.013,0.016-0.024,0.028-0.038c0.061-0.066,0.123-0.077,0.211-0.09
			c0.052-0.008,0.098,0.037,0.136,0c0.034-0.033,0.02-0.073,0.015-0.121c-0.006-0.063-0.01-0.113-0.061-0.151
			c-0.025-0.019-0.046-0.019-0.076-0.03c-0.03-0.012-0.06-0.002-0.075-0.03h0c-0.019-0.038,0.04-0.053,0.061-0.091
			c0.031-0.055,0.045-0.089,0.06-0.151c0.019-0.074-0.003-0.122,0.015-0.196c0.018-0.074,0.026-0.123,0.075-0.182
			c0.029-0.035,0.059-0.042,0.091-0.075c0.034-0.037,0.05-0.062,0.075-0.106c0.029-0.051,0.022-0.093,0.061-0.136
			c0.037-0.042,0.084-0.034,0.121-0.076c0.023-0.026,0.025-0.048,0.046-0.075c0.03-0.04,0.066-0.047,0.091-0.091
			c0.021-0.037,0.012-0.067,0.03-0.106c0.028-0.061,0.063-0.085,0.106-0.136l-0.06,0.015l-0.009-0.012c0,0,0,0,0-0.001l0.009,0.013
			l0.06-0.015c0.072-0.087,0.117-0.132,0.196-0.211c0.085-0.086,0.147-0.12,0.226-0.211c0.09-0.102,0.11-0.182,0.197-0.287
			c0.09-0.109,0.161-0.152,0.257-0.257c0.067-0.074,0.093-0.127,0.166-0.196c0.054-0.052,0.092-0.073,0.151-0.121
			c0.101-0.082,0.149-0.139,0.256-0.212c0.079-0.053,0.133-0.067,0.212-0.121c0.089-0.062,0.149-0.092,0.211-0.181
			c0.052-0.073,0.043-0.136,0.09-0.211c0.067-0.106,0.134-0.143,0.227-0.226c0.068-0.061,0.118-0.084,0.181-0.151
			c0.078-0.084,0.118-0.138,0.166-0.242c0.046-0.1,0.031-0.171,0.075-0.272c0.014-0.032,0.028-0.058,0.041-0.083
			c0.018-0.032,0.038-0.061,0.065-0.098c0.051-0.071,0.102-0.093,0.151-0.166c0.044-0.066,0.066-0.106,0.091-0.181
			c0.029-0.09,0-0.152,0.03-0.241c0.021-0.063,0.05-0.09,0.075-0.151c0.029-0.069,0.032-0.113,0.061-0.181
			c0.038-0.092,0.073-0.138,0.121-0.227c0.041-0.076,0.063-0.12,0.106-0.196c0.023-0.041,0.035-0.066,0.06-0.106
			c0.037-0.056,0.069-0.08,0.106-0.136c0.041-0.061,0.064-0.097,0.09-0.166c0.028-0.073,0.035-0.118,0.045-0.196
			c0.013-0.099-0.033-0.162,0-0.257C33.494,16.287,33.512,16.271,33.526,16.234z"/>
	</g>
</g>
<g id="region-asia">
	<g id="_x5F_results-icon-box_29_">
	</g>
</g>
<g id="region-europe">
	<g id="_x5F_results-icon-box_28_">
	</g>
</g>
<g id="region-latin-amer">
	<g id="_x5F_results-icon-box_27_">
	</g>
</g>
<g id="region-mid-east">
	<g id="_x5F_results-icon-box_20_">
	</g>
</g>
<g id="region-north-amer">
	<g id="_x5F_results-icon-box">
	</g>
</g>
<g id="region-oceania">
	<g id="_x5F_results-icon-box_18_">
	</g>
</g>
<g id="region-oceania_1_">
</g>
<g id="region-oceania_2_">
</g>
</svg>
