<?xml version="1.0" encoding="utf-8"?>
<!-- Generator: Adobe Illustrator 18.1.1, SVG Export Plug-In . SVG Version: 6.00 Build 0)  -->
<!DOCTYPE svg PUBLIC "-//W3C//DTD SVG 1.1 Tiny//EN" "http://www.w3.org/Graphics/SVG/1.1/DTD/svg11-tiny.dtd">
<svg version="1.1" baseProfile="tiny" id="Layer_1" xmlns="http://www.w3.org/2000/svg" xmlns:xlink="http://www.w3.org/1999/xlink"
	 x="0px" y="0px" viewBox="0 0 40.369 40.645" xml:space="preserve">
<g id="arrow-gray_x5F_down">
</g>
<g id="arrow-gray_x5F_left">
	<g id="arrow-gray_x5F_right_2_">
		<g id="arrow-gray_x5F_down_3_">
		</g>
	</g>
</g>
<g id="arrow-gray_x5F_right">
	<g id="arrow-gray_x5F_down_2_">
	</g>
</g>
<g id="arrow-gray_x5F_up">
	<g id="arrow-gray_x5F_left_1_">
		<g id="arrow-gray_x5F_right_1_">
			<g id="arrow-gray_x5F_down_1_">
			</g>
		</g>
	</g>
</g>
<g id="check-gray">
</g>
<g id="x-gray">
</g>
<g id="drd-favicon">
	<g id="logo-color-large">
	</g>
</g>
<g id="login-account">
</g>
<g id="login-password">
</g>
<g id="tick">
</g>
<g id="social-fb_2">
</g>
<g id="social-linked_2">
</g>
<g id="social-twitter_2">
</g>
<g id="industry-aerospace">
</g>
<g id="industry-construction">
</g>
<g id="industry-employment">
</g>
<g id="industry-energy">
	<g id="_x5F_results-icon-box_48_">
	</g>
</g>
<g id="industry-entertainment">
	<g id="_x5F_results-icon-box_47_">
	</g>
</g>
<g id="industry-finance">
	<g id="_x5F_results-icon-box_46_">
	</g>
</g>
<g id="industry-franchise-agreements">
	<g id="_x5F_results-icon-box_45_">
	</g>
</g>
<g id="industry-healthcare">
	<g id="_x5F_results-icon-box_44_">
	</g>
</g>
<g id="industry-hospitality">
	<g id="_x5F_results-icon-box_43_">
	</g>
</g>
<g id="industry-insurance-reinsurance">
	<g id="_x5F_results-icon-box_42_">
	</g>
</g>
<g id="industry-intellectual-property">
	<g id="_x5F_results-icon-box_41_">
	</g>
</g>
<g id="industry-licensing-agreements">
	<g id="_x5F_results-icon-box_40_">
	</g>
</g>
<g id="industry-mass-claims-appeals">
	<g id="_x5F_results-icon-box_39_">
	</g>
</g>
<g id="industry-mergers-aquisitions">
	<g id="_x5F_results-icon-box_38_">
	</g>
</g>
<g id="industry-oil-gas">
	<g id="_x5F_results-icon-box_37_">
	</g>
</g>
<g id="industry-other">
	<g id="_x5F_results-icon-box_36_">
	</g>
</g>
<g id="industry-partnerships">
	<g id="_x5F_results-icon-box_35_">
	</g>
</g>
<g id="industry-pharmaceuticals">
	<g id="_x5F_results-icon-box_34_">
	</g>
</g>
<g id="industry-securities-investments">
	<g id="_x5F_results-icon-box_33_">
	</g>
</g>
<g id="industry-technology">
	<g id="_x5F_results-icon-box_32_">
	</g>
</g>
<g id="industry-telecommunications">
	<g id="_x5F_results-icon-box_31_">
	</g>
</g>
<g id="region-africa">
	<g id="_x5F_results-icon-box_30_">
	</g>
</g>
<g id="region-asia">
	<g id="_x5F_results-icon-box_29_">
	</g>
</g>
<g id="region-europe">
	<g id="_x5F_results-icon-box_28_">
	</g>
</g>
<g id="region-latin-amer">
	<g id="_x5F_results-icon-box_27_">
	</g>
</g>
<g id="region-mid-east">
	<g id="_x5F_results-icon-box_20_">
	</g>
</g>
<g id="region-north-amer">
	<g id="_x5F_results-icon-box">
	</g>
</g>
<g id="region-oceania">
	<g id="_x5F_results-icon-box_18_">
	</g>
</g>
<g id="region-oceania_1_">
</g>
<g id="region-oceania_2_">
	<path fill="#231F20" d="M23.821,30.406l0.014-0.013c0.094-0.092,0.132-0.157,0.215-0.258c0.118-0.142,0.185-0.222,0.301-0.367
		c0.127-0.158,0.19-0.255,0.323-0.408c0.113-0.131,0.166-0.217,0.302-0.323c0.1-0.079,0.177-0.095,0.28-0.172
		c0.099-0.075,0.142-0.133,0.237-0.215c0.099-0.086,0.158-0.13,0.258-0.215c0.068-0.058,0.108-0.088,0.172-0.151
		c0.045-0.044,0.08-0.084,0.111-0.124c0.054-0.069,0.099-0.136,0.169-0.221c0.125-0.152,0.196-0.237,0.323-0.388
		c0.092-0.109,0.159-0.16,0.237-0.279c0.086-0.132,0.111-0.221,0.172-0.367c0.055-0.132,0.044-0.228,0.129-0.344
		c0.066-0.091,0.147-0.103,0.215-0.193c0.093-0.123,0.108-0.218,0.151-0.366c0.04-0.14,0.059-0.221,0.065-0.366
		c0.005-0.152-0.064-0.237-0.043-0.387c0.017-0.124,0.074-0.181,0.108-0.301c0.034-0.124,0.052-0.194,0.065-0.323
		c0.018-0.184-0.01-0.289-0.021-0.473c-0.013-0.189,0.027-0.31-0.039-0.484l-0.004-0.011c-0.032-0.08-0.061-0.12-0.108-0.193
		c-0.074-0.116-0.127-0.174-0.216-0.28c-0.111-0.132-0.255-0.156-0.301-0.323c-0.039-0.138,0.038-0.222,0.043-0.367
		c0.005-0.151,0.092-0.287-0.022-0.387c-0.065-0.058-0.131-0.041-0.215-0.064c-0.092-0.027-0.161-0.007-0.236-0.065
		c-0.084-0.064-0.095-0.138-0.129-0.237c-0.045-0.127-0.018-0.212-0.043-0.345c-0.02-0.101-0.035-0.159-0.064-0.258
		c-0.036-0.12-0.091-0.178-0.108-0.301c-0.011-0.083,0.045-0.145,0-0.215c-0.045-0.07-0.123-0.044-0.194-0.086
		c-0.082-0.048-0.132-0.077-0.193-0.151c-0.056-0.066-0.04-0.139-0.108-0.193c-0.068-0.054-0.139-0.021-0.215-0.064
		c-0.094-0.053-0.122-0.115-0.193-0.193c-0.061-0.066-0.106-0.095-0.151-0.172c-0.104-0.182-0.039-0.329-0.021-0.538
		c0.002-0.017,0.003-0.033,0.007-0.049c0.029-0.15,0.124-0.246,0.079-0.403c-0.02-0.072-0.062-0.1-0.086-0.172
		c-0.046-0.136-0.014-0.223-0.022-0.366c-0.011-0.218-0.006-0.341-0.021-0.56c-0.012-0.185,0.067-0.324-0.043-0.473
		c-0.057-0.077-0.14-0.071-0.193-0.151c-0.025-0.038-0.022-0.082-0.024-0.121c-0.001-0.036-0.006-0.07-0.041-0.094
		c-0.086-0.059-0.16,0.03-0.258,0.064c-0.021,0.007-0.039,0.018-0.057,0.03c-0.06,0.043-0.104,0.1-0.18,0.078
		c-0.046-0.013-0.066-0.041-0.073-0.078c-0.015-0.076,0.027-0.191,0.031-0.288c0.005-0.163,0.079-0.246,0.085-0.409
		c0.008-0.178-0.047-0.274-0.064-0.452c-0.014-0.142,0.023-0.231-0.021-0.366c-0.037-0.111-0.112-0.149-0.152-0.258
		c-0.055-0.151,0.077-0.303-0.043-0.409c-0.084-0.074-0.174-0.103-0.28-0.064c-0.107,0.039-0.129,0.131-0.173,0.237
		c-0.038,0.095-0.016,0.159-0.043,0.258c-0.043,0.16-0.125,0.229-0.172,0.388c-0.041,0.139-0.048,0.221-0.065,0.366
		c-0.018,0.159,0.023,0.256-0.021,0.409c-0.036,0.126-0.167,0.171-0.151,0.301c0.009,0.063,0.055,0.088,0.065,0.151
		c0.009,0.054-0.004,0.097-0.024,0.137c-0.029,0.059-0.077,0.111-0.105,0.185c-0.044,0.117-0.068,0.183-0.108,0.301
		c-0.068,0.207-0.1,0.326-0.151,0.538c-0.027,0.117-0.034,0.185-0.065,0.301c-0.046,0.18-0.041,0.302-0.15,0.452
		c-0.085,0.116-0.157,0.165-0.28,0.237c-0.13,0.076-0.215,0.124-0.366,0.129c-0.138,0.005-0.229-0.01-0.344-0.086
		c-0.115-0.076-0.111-0.19-0.215-0.28c-0.102-0.088-0.191-0.093-0.301-0.172c-0.15-0.107-0.213-0.194-0.345-0.323
		c-0.068-0.066-0.094-0.119-0.172-0.172c-0.062-0.042-0.106-0.052-0.172-0.086c-0.11-0.057-0.196-0.059-0.28-0.15
		c-0.087-0.094-0.027-0.225-0.13-0.301c-0.063-0.048-0.132-0.015-0.193-0.065c-0.079-0.063-0.127-0.137-0.108-0.236
		c0.015-0.071,0.063-0.094,0.108-0.151c0.04-0.052,0.075-0.083,0.111-0.121c0.02-0.021,0.04-0.044,0.061-0.073
		c0.047-0.064,0.1-0.093,0.107-0.172c0.007-0.083-0.079-0.112-0.087-0.194c-0.007-0.077-0.001-0.131,0.044-0.194
		c0.049-0.07,0.113-0.078,0.193-0.107c0.112-0.041,0.239,0.057,0.302-0.043c0.048-0.079-0.041-0.146-0.022-0.236
		c0.024-0.107,0.169-0.129,0.151-0.237c-0.011-0.072-0.053-0.104-0.108-0.151c-0.062-0.054-0.111-0.077-0.193-0.086
		c-0.096-0.01-0.157,0.117-0.237,0.064c-0.067-0.043,0.005-0.156-0.065-0.193c-0.059-0.032-0.11-0.006-0.173,0.022
		c-0.092,0.04-0.078,0.157-0.172,0.193c-0.103,0.04-0.173-0.015-0.28-0.043c-0.113-0.029-0.172-0.062-0.28-0.107
		c-0.093-0.04-0.14-0.075-0.236-0.108c-0.114-0.038-0.193-0.011-0.301-0.064c-0.097-0.048-0.122-0.118-0.215-0.172
		c-0.072-0.042-0.114-0.066-0.194-0.086c-0.106-0.026-0.207-0.081-0.28,0c-0.046,0.051-0.065,0.106-0.043,0.172
		c0.022,0.062,0.071,0.077,0.13,0.108c0.047,0.025,0.091,0.006,0.129,0.043c0.074,0.073,0.007,0.183-0.065,0.258
		c-0.05,0.055-0.107,0.047-0.171,0.086c-0.062,0.037-0.079,0.102-0.151,0.108c-0.096,0.008-0.098-0.147-0.193-0.151
		c-0.107-0.004-0.12,0.121-0.215,0.172c-0.093,0.051-0.157,0.052-0.258,0.086l-0.15,0.065c-0.06,0.083-0.123,0.117-0.151,0.215
		c-0.03,0.105,0.085,0.19,0.021,0.28c-0.057,0.081-0.162,0.023-0.237,0.086c-0.086,0.073-0.049,0.179-0.129,0.259
		c-0.056,0.056-0.138,0.035-0.172,0.108c-0.016,0.034-0.015,0.063-0.008,0.094c0.007,0.031,0.021,0.062,0.029,0.1
		c0.028,0.125,0.198,0.193,0.13,0.301c-0.049,0.076-0.126,0.076-0.216,0.086c-0.15,0.018-0.215-0.147-0.366-0.129
		c-0.101,0.012-0.153,0.164-0.236,0.108c-0.053-0.036-0.035-0.094-0.064-0.15c-0.043-0.081-0.083-0.116-0.13-0.194
		c-0.025-0.042-0.039-0.082-0.051-0.121c-0.021-0.065-0.038-0.126-0.1-0.18c-0.07-0.062-0.129-0.071-0.215-0.108
		c-0.09-0.039-0.141-0.109-0.236-0.086c-0.098,0.024-0.109,0.115-0.173,0.194c-0.053,0.065-0.064,0.12-0.129,0.172l-0.01,0.008
		c-0.112,0.078-0.241-0.006-0.356,0.078c-0.092,0.068-0.111,0.141-0.172,0.237c-0.066,0.105-0.051,0.207-0.151,0.279
		c-0.09,0.066-0.185,0.004-0.28,0.065c-0.124,0.079-0.157,0.181-0.194,0.323c-0.019,0.074,0.013,0.126-0.021,0.193
		c-0.047,0.092-0.12,0.115-0.216,0.151c-0.111,0.042-0.258-0.088-0.301,0.022c-0.034,0.084,0.052,0.131,0.086,0.215
		c0,0-0.128,0.392-0.28,0.323c-0.096-0.043-0.099-0.136-0.129-0.236c-0.031-0.105,0.083-0.248-0.022-0.28
		c-0.087-0.026-0.134,0.062-0.193,0.129c-0.068,0.076-0.057,0.149-0.108,0.236c-0.063,0.109-0.155,0.138-0.193,0.259
		c-0.013,0.04-0.013,0.065-0.022,0.107c-0.01,0.053-0.01,0.1-0.011,0.145c0,0.084,0.001,0.159-0.053,0.243s-0.117,0.105-0.193,0.172
		c-0.1,0.086-0.173,0.116-0.259,0.215c-0.071,0.083-0.1,0.14-0.151,0.237c-0.039,0.073-0.044,0.122-0.086,0.193
		c-0.054,0.093-0.086,0.151-0.172,0.215c-0.06,0.045-0.103,0.056-0.172,0.086c-0.09,0.04-0.141,0.062-0.237,0.087
		c-0.172,0.042-0.276,0.018-0.452,0.021c-0.109,0.002-0.187-0.056-0.28,0c-0.078,0.047-0.048,0.154-0.129,0.193
		c-0.083,0.04-0.145-0.027-0.237-0.021c-0.103,0.007-0.171,0.007-0.259,0.064c-0.079,0.053-0.065,0.15-0.15,0.194
		C9,21.112,8.944,21.093,8.86,21.095c-0.118,0.004-0.186-0.045-0.301-0.021c-0.099,0.02-0.141,0.074-0.236,0.107
		c-0.098,0.034-0.169,0.011-0.258,0.065c-0.071,0.043-0.09,0.094-0.151,0.15c-0.057,0.053-0.087,0.085-0.151,0.129
		c-0.07,0.05-0.116,0.069-0.193,0.107c-0.074,0.038-0.123,0.045-0.194,0.086c-0.062,0.037-0.098,0.058-0.15,0.108
		c-0.061,0.059-0.075,0.109-0.13,0.172c-0.055,0.063-0.071,0.174-0.15,0.151c-0.051-0.016-0.034-0.097-0.087-0.107
		c-0.064-0.013-0.094,0.052-0.129,0.107c-0.057,0.093,0,0.171,0,0.28c0,0.05,0.006,0.079,0,0.129
		c-0.014,0.108-0.06,0.16-0.107,0.258c-0.046,0.095-0.077,0.146-0.129,0.237c-0.049,0.085-0.101,0.122-0.13,0.215
		c-0.033,0.112-0.025,0.186,0,0.301c0.009,0.039,0.022,0.068,0.036,0.097c0.017,0.036,0.037,0.07,0.051,0.118
		c0.028,0.098,0.033,0.156,0.043,0.258c0.014,0.142,0.044,0.23,0,0.366c-0.027,0.082-0.021,0.195-0.108,0.193
		c-0.091-0.001-0.054-0.131-0.087-0.215c-0.035-0.092,0.011-0.252-0.086-0.237c-0.059,0.009-0.084,0.053-0.107,0.108
		c-0.03,0.07,0.02,0.117,0.021,0.193c0.001,0.085,0.052,0.175-0.021,0.216c-0.08,0.044-0.109-0.163-0.194-0.129
		c-0.087,0.034-0.06,0.144-0.043,0.236c0.021,0.112,0.117,0.137,0.172,0.237c0.04,0.072,0.064,0.114,0.086,0.193
		c0.033,0.113,0.028,0.184,0.022,0.301c-0.005,0.11-0.054,0.17-0.043,0.28c0.017,0.16,0.141,0.213,0.193,0.366
		c0.039,0.113,0.082,0.182,0.064,0.301c-0.02,0.15-0.16,0.182-0.215,0.323c-0.07,0.18-0.048,0.301-0.043,0.495
		c0.005,0.186,0.047,0.287,0.065,0.473c0.014,0.162,0.038,0.257,0.022,0.414c0,0.005,0,0.011-0.001,0.017
		c-0.016,0.137-0.031,0.217-0.086,0.344c-0.055,0.127-0.123,0.181-0.194,0.301c-0.082,0.139-0.062,0.272-0.193,0.366
		c-0.08,0.057-0.149,0.042-0.237,0.086c-0.071,0.035-0.13,0.041-0.173,0.108c-0.054,0.085-0.061,0.178,0,0.258
		c0.044,0.061,0.127,0.027,0.172,0.086c0.05,0.068-0.026,0.146,0.022,0.216c0.06,0.088,0.154,0.066,0.258,0.086
		c0.156,0.031,0.25,0.01,0.409,0c0.143-0.009,0.223-0.022,0.366-0.043c0.142-0.021,0.239,0.006,0.366-0.065
		c0.077-0.044,0.096-0.104,0.172-0.151c0.076-0.047,0.129-0.058,0.215-0.086c0.099-0.033,0.168-0.013,0.258-0.065
		c0.057-0.033,0.072-0.074,0.129-0.108c0.069-0.04,0.114-0.053,0.193-0.065c0.067-0.01,0.105,0.006,0.172,0
		c0.13-0.011,0.194-0.07,0.323-0.085c0.151-0.018,0.236,0.017,0.388,0.021c0.167,0.005,0.262,0,0.43,0h0.237
		c0.16,0,0.263,0.064,0.409,0c0.087-0.039,0.119-0.091,0.194-0.15c0.121-0.098,0.185-0.156,0.301-0.259
		c0.085-0.075,0.114-0.142,0.215-0.193c0.107-0.056,0.201,0.001,0.301-0.065c0.06-0.038,0.069-0.09,0.129-0.128
		c0.081-0.051,0.148-0.027,0.236-0.065c0.1-0.043,0.134-0.112,0.236-0.15c0.102-0.038,0.17-0.038,0.28-0.043
		c0.117-0.005,0.19-0.014,0.301,0.021c0.072,0.023,0.1,0.068,0.172,0.086c0.106,0.027,0.172-0.003,0.28-0.021
		c0.164-0.028,0.257-0.059,0.409-0.129c0.087-0.04,0.136-0.082,0.208-0.124c0.016-0.009,0.032-0.018,0.05-0.027
		c0.114-0.057,0.178-0.096,0.301-0.129c0.107-0.03,0.17-0.038,0.28-0.043c0.118-0.005,0.183,0.021,0.301,0.022
		c0.135,0.001,0.212-0.001,0.344-0.022c0.111-0.017,0.173-0.097,0.28-0.064c0.102,0.031,0.145,0.099,0.194,0.193
		c0.012,0.025,0.014,0.048,0.018,0.07c0.004,0.02,0.009,0.04,0.025,0.06c0.056,0.065,0.131,0.034,0.215,0.043
		c0.083,0.008,0.132-0.014,0.216,0c0.06,0.009,0.091,0.029,0.15,0.043c0.14,0.033,0.272-0.067,0.366,0.043
		c0.051,0.061,0.023,0.126,0.064,0.194c0.043,0.071,0.146,0.068,0.151,0.15c0.004,0.068-0.077,0.084-0.086,0.151
		c-0.011,0.078,0.043,0.117,0.064,0.193c0.019,0.066,0.034,0.103,0.044,0.172c0.008,0.067-0.013,0.106,0,0.172
		c0.008,0.052,0.033,0.077,0.043,0.129c0.014,0.075,0.01,0.119,0,0.194c-0.012,0.087-0.075,0.128-0.065,0.215
		c0.009,0.075,0.013,0.155,0.087,0.172c0.081,0.02,0.09-0.094,0.15-0.15c0.066-0.061,0.099-0.1,0.172-0.151
		c0.056-0.039,0.112-0.031,0.151-0.086c0.044-0.062-0.021-0.131,0.022-0.194c0.033-0.05,0.075-0.057,0.128-0.086
		c0.079-0.044,0.132-0.05,0.215-0.086c0.076-0.033,0.12-0.049,0.194-0.086c0.077-0.038,0.14-0.04,0.194-0.108
		c0.044-0.056,0.019-0.116,0.064-0.172c0.058-0.073,0.124-0.088,0.215-0.108c0.073-0.015,0.153-0.064,0.193,0
		c0.045,0.071-0.111,0.09-0.129,0.172c-0.009,0.041,0.005,0.066,0,0.107c-0.017,0.116-0.057,0.19-0.152,0.258
		c-0.051,0.038-0.094,0.033-0.15,0.065c-0.064,0.035-0.11,0.047-0.151,0.107c-0.039,0.058-0.008,0.113-0.043,0.172
		c-0.031,0.051-0.068,0.064-0.108,0.107c-0.073,0.079-0.078,0.164-0.172,0.215c-0.068,0.037-0.146-0.018-0.194,0.043
		c-0.036,0.047-0.054,0.101-0.021,0.15c0.038,0.056,0.104,0.02,0.173,0.021c0.085,0.003,0.139,0.015,0.215-0.021
		c0.075-0.035,0.104-0.082,0.151-0.15c0.047-0.069,0.031-0.132,0.086-0.194c0.053-0.06,0.098-0.134,0.172-0.108
		c0.057,0.02,0.073,0.071,0.087,0.129c0.023,0.095-0.043,0.149-0.087,0.236c-0.036,0.071-0.059,0.11-0.107,0.172
		c-0.019,0.024-0.047,0.041-0.075,0.056c-0.059,0.033-0.119,0.055-0.098,0.116c0.035,0.095,0.188-0.094,0.259-0.022
		c0.043,0.045,0.03,0.091,0.043,0.151c0.025,0.115,0.052,0.187,0.021,0.301c-0.022,0.083-0.057,0.123-0.107,0.193
		c-0.044,0.063-0.106,0.076-0.129,0.15c-0.023,0.074,0.001,0.121,0.021,0.194c0.041,0.138,0.166,0.166,0.215,0.301
		c0.033,0.088-0.004,0.156,0.044,0.237c0.048,0.082,0.11,0.104,0.193,0.151c0.086,0.047,0.139,0.076,0.236,0.086
		c0.102,0.011,0.159-0.067,0.258-0.042c0.089,0.02,0.12,0.075,0.194,0.129c0.087,0.062,0.117,0.128,0.215,0.172
		c0.093,0.041,0.16,0.071,0.258,0.043c0.098-0.028,0.115-0.108,0.194-0.172c0.066-0.053,0.095-0.097,0.173-0.129
		c0.1-0.042,0.18,0.026,0.279-0.021c0.07-0.033,0.087-0.084,0.151-0.129c0.086-0.061,0.141-0.173,0.237-0.129
		c0.1,0.045,0.028,0.17,0.043,0.279c0.009,0.068-0.006,0.111,0.022,0.172c0.033,0.076,0.08,0.108,0.15,0.151
		c0.083,0.049,0.143,0.076,0.237,0.064c0.125-0.015,0.151-0.128,0.258-0.193c0.096-0.059,0.155-0.085,0.259-0.129
		c0.09-0.039,0.164-0.02,0.236-0.086c0.07-0.063,0.041-0.149,0.107-0.215c0.094-0.094,0.193-0.081,0.323-0.108
		c0.156-0.032,0.249-0.033,0.408-0.021c0.137,0.011,0.208,0.073,0.345,0.064c0.103-0.006,0.172-0.006,0.258-0.064
		c0.084-0.058,0.096-0.129,0.151-0.215c0.131-0.206,0.11-0.384,0.28-0.56c0.1-0.104,0.204-0.108,0.301-0.215
		c0.086-0.095,0.087-0.183,0.172-0.279C23.628,30.521,23.721,30.499,23.821,30.406z"/>
	<path fill="#231F20" d="M21.813,12.531c-0.082,0.035-0.111,0.085-0.172,0.151c-0.057,0.062-0.079,0.105-0.128,0.172
		c-0.068,0.092-0.179,0.123-0.172,0.237c0.002,0.034,0.003,0.057,0.021,0.086c0.047,0.069,0.136,0.028,0.215,0
		c0.058-0.02,0.074-0.061,0.129-0.086c0.1-0.047,0.197,0.029,0.28-0.043c0.051-0.045,0.061-0.088,0.087-0.151
		c0.032-0.079,0.056-0.13,0.043-0.215c-0.012-0.075-0.022-0.133-0.087-0.172C21.956,12.466,21.891,12.499,21.813,12.531z"/>
	<path fill="#231F20" d="M18.07,8.788c0.09,0.012,0.162,0.013,0.215,0.086c0.05,0.068-0.021,0.142,0.022,0.215
		c0.033,0.056,0.073,0.073,0.129,0.108c0.083,0.052,0.14,0.064,0.236,0.086c0.164,0.037,0.263,0,0.431,0
		c0.076,0,0.142-0.055,0.193,0c0.04,0.044,0.043,0.096,0.022,0.151c-0.045,0.111-0.187-0.097-0.303-0.066
		c-0.076,0.02-0.095,0.089-0.172,0.108c-0.082,0.02-0.131-0.021-0.215-0.022c-0.093-0.001-0.185-0.055-0.236,0.022
		c-0.048,0.07-0.004,0.144,0.044,0.215c0.058,0.088,0.154,0.063,0.236,0.129c0.057,0.044,0.098,0.066,0.129,0.129
		c0.054,0.105-0.04,0.185-0.021,0.301c0.009,0.06,0.006,0.102,0.043,0.151c0.081,0.107,0.237,0.081,0.345,0
		c0.063-0.048,0.045-0.123,0.108-0.172c0.05-0.04,0.089-0.083,0.15-0.064c0.065,0.02,0.034,0.107,0.087,0.151
		c0.072,0.059,0.149,0.009,0.236,0.043c0.063,0.025,0.106,0.035,0.151,0.086c0.052,0.06,0.007,0.139,0.064,0.193
		c0.063,0.058,0.132,0.023,0.215,0.043c0.207,0.049,0.311,0.119,0.517,0.172c0.116,0.03,0.184,0.041,0.302,0.064
		c0.142,0.028,0.247-0.02,0.365,0.064c0.078,0.056,0.085,0.124,0.151,0.193c0.102,0.109,0.234,0.103,0.301,0.237
		c0.046,0.091,0.01,0.162,0.043,0.259c0.039,0.11,0.098,0.154,0.151,0.258c0.047,0.09,0.081,0.139,0.108,0.236
		c0.033,0.122,0.012,0.197,0.022,0.323c0.007,0.101,0.017,0.157,0.021,0.259c0.006,0.126-0.105,0.253,0,0.323
		c0.086,0.055,0.157-0.034,0.259-0.043c0.109-0.009,0.177-0.037,0.28,0c0.117,0.042,0.167,0.112,0.236,0.216
		c0.065,0.097,0.091,0.163,0.108,0.279l-0.001-0.001c0.011,0.074-0.033,0.126,0,0.193c0.066,0.136,0.236,0.013,0.388,0.021
		c0.142,0.009,0.223,0.011,0.366,0.022c0.092,0.007,0.145,0.024,0.237,0.022c0.102-0.004,0.17,0.009,0.258-0.044
		c0.077-0.045,0.1-0.099,0.151-0.172c0.038-0.056,0.077-0.083,0.086-0.151c0.011-0.079-0.111-0.128-0.065-0.193
		c0.036-0.049,0.095-0.018,0.151-0.043c0.045-0.02,0.074-0.029,0.108-0.065c0.055-0.057-0.003-0.15,0.065-0.193
		c0.043-0.028,0.08-0.007,0.129-0.022c0.082-0.025,0.113-0.076,0.193-0.107c0.057-0.022,0.089-0.043,0.151-0.043
		c0.062,0,0.091,0.027,0.15,0.043c0.067,0.018,0.106,0.023,0.173,0.043c0.094,0.028,0.141,0.065,0.236,0.086
		c0.082,0.018,0.137-0.01,0.215,0.021c0.067,0.027,0.123,0.041,0.15,0.108c0.026,0.062-0.03,0.105-0.021,0.171
		c0.015,0.12,0.067,0.199,0.172,0.259c0.06,0.033,0.12-0.002,0.172,0.043c0.083,0.071-0.044,0.192,0.021,0.28
		c0.051,0.069,0.123,0.058,0.194,0.107c0.054,0.038,0.091,0.054,0.128,0.108c0.051,0.071,0.005,0.151,0.065,0.215
		c0.092,0.098,0.214-0.009,0.345,0.021c0.078,0.018,0.12,0.034,0.194,0.065c0.069,0.029,0.098,0.075,0.172,0.086
		c0.067,0.01,0.106-0.034,0.172-0.022c0.078,0.015,0.105,0.065,0.172,0.108c0.092,0.058,0.132,0.119,0.237,0.151
		c0.073,0.022,0.122,0.047,0.194,0.021c0.067-0.025,0.112-0.06,0.128-0.129c0.026-0.105-0.081-0.158-0.171-0.215h0
		c-0.067-0.043-0.144-0.002-0.193-0.065c-0.047-0.06-0.011-0.118-0.022-0.193c-0.007-0.059,0.011-0.102-0.021-0.151
		c-0.049-0.073-0.15-0.007-0.216-0.064c-0.05-0.045-0.047-0.096-0.086-0.151c-0.039-0.056-0.051-0.097-0.108-0.128
		c-0.08-0.046-0.174,0.067-0.237,0c-0.052-0.056-0.003-0.12-0.021-0.194c-0.04-0.161-0.094-0.254-0.216-0.366
		c-0.066-0.062-0.131-0.063-0.193-0.129c-0.054-0.057-0.07-0.103-0.107-0.172c-0.049-0.089-0.088-0.137-0.108-0.236
		c-0.019-0.091-0.044-0.155,0-0.236c0.039-0.074,0.128-0.058,0.172-0.129c0.052-0.087,0.058-0.165,0.022-0.259
		c-0.037-0.094-0.107-0.12-0.193-0.172c-0.033-0.019-0.052-0.026-0.086-0.043c-0.067-0.033-0.106-0.051-0.172-0.087
		c-0.103-0.054-0.191-0.056-0.258-0.151c-0.038-0.051-0.041-0.091-0.065-0.151c-0.047-0.115-0.045-0.193-0.108-0.301
		c-0.058-0.104-0.105-0.157-0.193-0.237c-0.075-0.069-0.12-0.112-0.215-0.15c-0.08-0.032-0.138-0.006-0.215-0.043
		c-0.107-0.051-0.123-0.132-0.215-0.215c-0.101-0.118-0.142-0.199-0.258-0.301c-0.063-0.056-0.093-0.1-0.172-0.129
		c-0.111-0.04-0.184,0.023-0.302,0.022c-0.16-0.001-0.259,0.015-0.409-0.043c-0.08-0.031-0.116-0.067-0.193-0.108
		c-0.14-0.073-0.224-0.105-0.366-0.172l-0.215-0.085c-0.076-0.068-0.105-0.125-0.193-0.172c-0.113-0.061-0.196-0.046-0.324-0.065
		c-0.066-0.01-0.105-0.009-0.172-0.021c-0.147-0.025-0.241-0.027-0.366-0.107c-0.045-0.029-0.061-0.059-0.107-0.086
		c-0.068-0.041-0.122-0.03-0.194-0.065c-0.082-0.04-0.108-0.099-0.193-0.129c-0.087-0.032-0.145-0.036-0.237-0.022
		c-0.089,0.013-0.15,0.024-0.215,0.086c-0.082,0.08-0.005,0.199-0.087,0.28c-0.053,0.053-0.1,0.061-0.172,0.086
		c-0.088,0.031-0.153,0-0.236,0.043c-0.1,0.052-0.094,0.163-0.194,0.215c-0.047,0.024-0.091,0.006-0.128,0.043
		c-0.06,0.059,0.044,0.144,0,0.215c-0.028,0.046-0.06,0.062-0.108,0.086c-0.12,0.061-0.224,0.04-0.344-0.021
		c-0.096-0.048-0.133-0.105-0.194-0.193c-0.057-0.084-0.073-0.142-0.108-0.237c-0.032-0.09-0.044-0.143-0.064-0.236
		c-0.03-0.141-0.016-0.225-0.044-0.367c-0.02-0.101-0.032-0.159-0.065-0.258c-0.033-0.104-0.025-0.187-0.107-0.258
		c-0.085-0.073-0.178-0.018-0.279-0.064C19.171,8.191,19.146,8.13,19.061,8.1c-0.087-0.032-0.147,0-0.237-0.022
		c-0.09-0.022-0.127-0.102-0.215-0.086C18.537,8.006,18.518,8.06,18.458,8.1c-0.082,0.054-0.125,0.091-0.216,0.129
		c-0.103,0.042-0.204-0.019-0.279,0.064c-0.054,0.059-0.028,0.123-0.065,0.193c-0.028,0.054-0.072,0.071-0.086,0.129
		c-0.019,0.075-0.018,0.146,0.043,0.193C17.921,8.861,17.987,8.777,18.07,8.788z"/>
	<path fill="#231F20" d="M28.657,9.583c0.059,0.003,0.11,0.021,0.15-0.022c0.047-0.048,0.034-0.114,0-0.172
		c-0.037-0.066-0.097-0.083-0.172-0.086c-0.061-0.003-0.11-0.002-0.151,0.043c-0.045,0.05-0.053,0.113-0.021,0.172
		C28.501,9.589,28.577,9.579,28.657,9.583z"/>
	<path fill="#231F20" d="M29.13,9.863c0.054,0.073,0.141,0.033,0.215,0.086c0.093,0.067,0.065,0.199,0.172,0.236
		c0.063,0.023,0.115,0.036,0.172,0c0.085-0.054,0.067-0.168,0.021-0.258c-0.038-0.075-0.107-0.077-0.172-0.129
		c-0.078-0.064-0.102-0.128-0.193-0.172c-0.092-0.044-0.211-0.133-0.258-0.043c-0.023,0.045-0.006,0.079,0,0.129
		C29.095,9.773,29.094,9.814,29.13,9.863z"/>
	<path fill="#231F20" d="M28.786,14.038c0.026-0.075-0.038-0.135-0.108-0.172c-0.046-0.024-0.08-0.007-0.129-0.021
		c-0.044-0.012-0.063-0.052-0.108-0.043c-0.071,0.013-0.072,0.1-0.065,0.171c0.005,0.046,0.014,0.074,0.043,0.108
		c0.056,0.065,0.131,0.061,0.215,0.043C28.701,14.11,28.764,14.102,28.786,14.038z"/>
	<path fill="#231F20" d="M28.872,14.404c0.074-0.021,0.153-0.077,0.129-0.151c-0.022-0.069-0.101-0.067-0.173-0.064
		c-0.053,0.002-0.098-0.001-0.129,0.043c-0.029,0.041-0.026,0.086,0,0.129C28.735,14.42,28.805,14.423,28.872,14.404z"/>
	<path fill="#231F20" d="M27.688,11.627c0.109,0.083,0.216,0.02,0.344,0.064c0.079,0.027,0.115,0.061,0.194,0.086
		c0.105,0.033,0.169,0.046,0.28,0.043c0.156-0.004,0.241-0.051,0.388-0.107c0.094-0.036,0.149-0.055,0.236-0.108
		c0.091-0.056,0.119-0.124,0.215-0.172c0.079-0.039,0.139-0.021,0.216-0.064c0.057-0.033,0.083-0.061,0.129-0.108
		c0.072-0.073,0.103-0.124,0.151-0.215c0.045-0.087,0.085-0.139,0.086-0.237c0.001-0.088,0.003-0.159-0.065-0.215
		c-0.053-0.045-0.107-0.021-0.171-0.043c-0.107-0.036-0.151-0.161-0.259-0.129c-0.062,0.019-0.102,0.048-0.129,0.108
		c-0.039,0.088,0.068,0.141,0.065,0.236c-0.002,0.069,0.009,0.127-0.043,0.173c-0.052,0.046-0.111-0.008-0.172,0.021
		c-0.087,0.041-0.079,0.131-0.15,0.194c-0.06,0.052-0.096,0.086-0.173,0.107c-0.073,0.02-0.122,0.025-0.193,0
		c-0.058-0.02-0.069-0.077-0.129-0.086c-0.086-0.012-0.111,0.083-0.194,0.108c-0.105,0.031-0.172,0.009-0.28,0
		c-0.101-0.009-0.156-0.051-0.258-0.043c-0.069,0.006-0.123-0.006-0.172,0.043c-0.049,0.049-0.054,0.104-0.044,0.172
		C27.572,11.538,27.621,11.577,27.688,11.627z"/>
	<path fill="#231F20" d="M30.077,10.853c0.078,0.034,0.149,0.011,0.215-0.043c0.104-0.085,0.07-0.219,0.021-0.345
		c-0.04-0.105-0.093-0.163-0.193-0.215c0,0-0.1,0.177-0.108,0.301C30.005,10.671,29.967,10.804,30.077,10.853z"/>
	<path fill="#231F20" d="M29.001,15.071c0.069-0.018,0.145-0.036,0.15-0.108c0.008-0.09-0.127-0.107-0.215-0.086
		c-0.081,0.019-0.173,0.071-0.151,0.151C28.808,15.111,28.918,15.092,29.001,15.071z"/>
	<path fill="#231F20" d="M29.259,14.748c-0.012,0.066,0.032,0.11,0.087,0.151c0.036,0.027,0.064,0.052,0.108,0.043
		c0.044-0.009,0.068-0.042,0.086-0.086c0.037-0.091-0.031-0.212-0.128-0.215C29.337,14.637,29.272,14.677,29.259,14.748z"/>
	<path fill="#231F20" d="M29.754,15.136c-0.032,0.049,0,0.092,0,0.15l-0.086,0.021c0.084,0.05,0.118,0.138,0.215,0.129
		c0.067-0.007,0.102-0.039,0.151-0.086c0.067-0.065,0.169-0.145,0.108-0.215c-0.045-0.051-0.105-0.02-0.173-0.022
		C29.885,15.112,29.8,15.064,29.754,15.136z"/>
	<path fill="#231F20" d="M31.196,11.972c0.024,0.081-0.023,0.144,0.021,0.215c0.062,0.099,0.163,0.111,0.28,0.108
		c0.11-0.003,0.193-0.021,0.259-0.108c0.071-0.094,0.07-0.194,0.021-0.301c-0.028-0.06-0.062-0.082-0.108-0.129
		c-0.054-0.055-0.107-0.065-0.151-0.128c-0.045-0.066-0.015-0.132-0.064-0.194c-0.055-0.067-0.118-0.067-0.194-0.108
		c-0.066-0.035-0.109-0.126-0.172-0.086c-0.063,0.04,0.03,0.125,0,0.194c-0.028,0.065-0.106,0.062-0.129,0.129
		c-0.016,0.048-0.019,0.082,0,0.129c0.027,0.067,0.103,0.053,0.15,0.108C31.159,11.856,31.175,11.9,31.196,11.972z"/>
	<path fill="#231F20" d="M32.186,12.424c0.031,0.06-0.01,0.113,0.022,0.172c0.046,0.087,0.12,0.107,0.215,0.13
		c0.125,0.028,0.278,0.055,0.323-0.065c0.034-0.092-0.008-0.177-0.086-0.236c-0.061-0.047-0.133,0.005-0.193-0.043
		c-0.059-0.047-0.042-0.111-0.086-0.172c-0.042-0.058-0.062-0.108-0.129-0.129c-0.073-0.024-0.149-0.02-0.193,0.043
		c-0.044,0.063-0.014,0.127,0.022,0.194C32.106,12.368,32.159,12.371,32.186,12.424z"/>
	<path fill="#231F20" d="M32.293,13.392c0.029,0.07,0.098,0.1,0.172,0.087c0.076-0.014,0.074-0.097,0.129-0.151
		c0.047-0.046,0.113-0.044,0.129-0.107c0.02-0.082-0.058-0.127-0.129-0.171h0c-0.059-0.037-0.111-0.077-0.172-0.043
		c-0.068,0.037-0.019,0.12-0.043,0.193C32.354,13.277,32.262,13.315,32.293,13.392z"/>
	<path fill="#231F20" d="M33.24,13.091c0.076,0.067,0.103,0.127,0.194,0.172c0.106,0.052,0.214,0.123,0.301,0.043
		c0.048-0.043,0.075-0.087,0.065-0.15c-0.013-0.077-0.094-0.077-0.151-0.129c-0.079-0.072-0.113-0.123-0.194-0.193
		c-0.071-0.063-0.112-0.1-0.193-0.151c-0.081-0.051-0.125-0.133-0.215-0.108c-0.105,0.029-0.12,0.15-0.108,0.258
		C32.956,12.987,33.124,12.989,33.24,13.091z"/>
	<path fill="#231F20" d="M34.554,13.866c0.026-0.098-0.07-0.142-0.108-0.236c-0.037-0.091-0.001-0.187-0.086-0.237
		c-0.052-0.03-0.097-0.045-0.151-0.021c-0.08,0.034-0.063,0.127-0.065,0.215c-0.001,0.106,0.022,0.173,0.086,0.258
		c0.062,0.082,0.119,0.184,0.216,0.151C34.507,13.974,34.536,13.929,34.554,13.866z"/>
	<path fill="#231F20" d="M33.929,13.909c-0.078-0.017-0.121-0.031-0.194-0.064c-0.082-0.039-0.142-0.205-0.193-0.129
		c-0.028,0.042,0.004,0.079,0,0.129c-0.008,0.069-0.054,0.104-0.044,0.172c0.018,0.118,0.124,0.154,0.236,0.193
		c0.127,0.045,0.232,0.051,0.345-0.021c0.05-0.032,0.092-0.05,0.107-0.107c0.016-0.059-0.001-0.107-0.043-0.151
		C34.086,13.87,34.012,13.926,33.929,13.909z"/>
	<path fill="#231F20" d="M33.649,15.394c0.017,0.008,0.025,0.016,0.043,0.021c0.026,0.007,0.015-0.005-0.007-0.025L33.649,15.394z"
		/>
	<path fill="#231F20" d="M35.091,14.619c-0.041-0.064-0.119,0.014-0.193,0c-0.071-0.013-0.11-0.03-0.172-0.065
		c-0.077-0.044-0.1-0.203-0.172-0.15c-0.044,0.031-0.036,0.076-0.044,0.129c-0.013,0.093-0.002,0.154,0.044,0.236
		c0.019,0.037,0.028,0.064,0.064,0.086c0.058,0.034,0.105-0.012,0.171-0.022c0.093-0.014,0.17,0.022,0.237-0.043
		C35.078,14.741,35.129,14.679,35.091,14.619z"/>
</g>
</svg>
