<?xml version="1.0" encoding="utf-8"?>
<!-- Generator: Adobe Illustrator 18.1.1, SVG Export Plug-In . SVG Version: 6.00 Build 0)  -->
<!DOCTYPE svg PUBLIC "-//W3C//DTD SVG 1.1 Tiny//EN" "http://www.w3.org/Graphics/SVG/1.1/DTD/svg11-tiny.dtd">
<svg version="1.1" baseProfile="tiny" id="Layer_1" xmlns="http://www.w3.org/2000/svg" xmlns:xlink="http://www.w3.org/1999/xlink"
	 x="0px" y="0px" viewBox="0 0 35.996 36" xml:space="preserve">
<rect x="-881" y="-215.827" display="none" fill="#FFFFFF" width="1800" height="504"/>
<g id="industry-aerospace">
	<g id="Deleted_Symbol_29_">
	</g>
</g>
<g id="industry-banking">
	<g id="Deleted_Symbol_28_">
	</g>
</g>
<g id="industry-commercial-contracts">
	<g id="Deleted_Symbol_27_">
	</g>
</g>
<g id="industry-construction">
	<g id="Deleted_Symbol_26_">
	</g>
</g>
<g id="industry-employment">
	<g id="Deleted_Symbol_25_">
	</g>
</g>
<g id="industry-energy">
	<g id="Deleted_Symbol_24_">
	</g>
</g>
<g id="industry-entertainment">
	<g id="Deleted_Symbol_23_">
	</g>
</g>
<g id="industry-finance">
	<g id="Deleted_Symbol_22_">
	</g>
</g>
<g id="industry-franchise-agreements">
	<g id="Deleted_Symbol_21_">
	</g>
</g>
<g id="industry-healthcare">
	<g id="Deleted_Symbol_20_">
	</g>
</g>
<g id="industry-hospitality">
	<g id="Deleted_Symbol_19_">
	</g>
</g>
<g id="industry-insurance-reinsurance">
	<g id="Deleted_Symbol_18_">
	</g>
</g>
<g id="industry-intellectual-property">
	<g id="Deleted_Symbol_17_">
	</g>
</g>
<g id="industry-licensing-agreements">
	<g id="Deleted_Symbol_16_">
	</g>
</g>
<g id="industry-mass-claims-class-actions">
	<g id="Deleted_Symbol_15_">
	</g>
</g>
<g id="industry-mergers-aquisitions">
	<g id="Deleted_Symbol_14_">
	</g>
</g>
<g id="industry-oil-gas">
	<g id="Deleted_Symbol_13_">
	</g>
</g>
<g id="industry-other">
	<g id="Deleted_Symbol_12_">
	</g>
</g>
<g id="industry-partnerships">
	<g id="Deleted_Symbol_11_">
	</g>
</g>
<g id="industry-pharmaceuticals">
	<g id="Deleted_Symbol_10_">
	</g>
</g>
<g id="industry-securities-investments">
	<g id="Deleted_Symbol_9_">
	</g>
</g>
<g id="industry-technology">
	<g id="Deleted_Symbol_8_">
	</g>
</g>
<g id="industry-telecommunications">
	<g id="Deleted_Symbol_7_">
	</g>
</g>
<g id="search-region-africa">
	<g id="Deleted_Symbol_6_">
	</g>
</g>
<g id="search-region-asia">
	<g id="Deleted_Symbol_5_">
	</g>
</g>
<g id="search-region-europe">
	<g id="Deleted_Symbol_4_">
	</g>
</g>
<g id="search-region-latin-amer">
	<g id="Deleted_Symbol_3_">
	</g>
</g>
<g id="search-region-mid-east">
	<g id="Deleted_Symbol_2_">
	</g>
</g>
<g id="search-region-north-amer">
	<g id="Deleted_Symbol_1_">
	</g>
</g>
<g id="search-region-oceania">
	<g id="Deleted_Symbol">
	</g>
</g>
<g id="arrow-gray_x5F_down_3_">
</g>
<g id="arrow-gray_x5F_left_1_">
	<g id="arrow-gray_x5F_right_2_">
		<g id="arrow-gray_x5F_down_2_">
		</g>
	</g>
</g>
<g id="arrow-gray_x5F_right_1_">
	<g id="arrow-gray_x5F_down_1_">
	</g>
</g>
<g id="arrow-gray_x5F_up">
	<g id="arrow-gray_x5F_left">
		<g id="arrow-gray_x5F_right">
			<g id="arrow-gray_x5F_down">
			</g>
		</g>
	</g>
</g>
<g id="check-gray">
</g>
<g id="x-gray">
</g>
<g id="favicon">
	<g id="logo-color-large">
	</g>
</g>
<g id="login-account">
</g>
<g id="login-password">
</g>
<g id="tick">
</g>
<g id="social-fb_2">
</g>
<g id="social-linked_2">
</g>
<g id="social-twitter_2">
	<path fill="#135462" d="M17.998,0C8.056,0,0,8.06,0,18c0,9.942,8.056,18,17.998,18c9.942,0,17.998-8.058,17.998-18.001
		C35.996,8.06,27.94,0,17.998,0z M23.858,24.493c-5.833,3.312-14.328,2.833-18.589-3.186c2.8,2.193,6.938,2.676,10.015-0.381
		c-2.018,0-2.539-1.507-0.943-2.321c-1.51-0.017-2.47-0.495-3.037-1.36c-0.211-0.33-0.214-0.355,0.135-0.605
		c0.383-0.28,0.907-0.402,1.448-0.445c-1.566-0.447-2.523-1.266-2.856-2.364c-0.106-0.361-0.125-0.341,0.244-0.437
		c0.363-0.091,0.828-0.14,1.24-0.162c-1.23-0.744-1.962-1.657-2.15-2.669c-0.178-0.953,0.007-0.709,0.722-0.437
		c3.189,1.223,6.374,2.534,8.257,4.475c0.864-2.702,1.926-4.453,3.146-5.725c0.907-0.948,1.375-1.248,0.841-0.208
		c0.234-0.186,0.574-0.437,0.838-0.572c1.474-0.696,1.372-0.114,0.356,0.513c2.77-0.991,2.674,0.272-0.257,0.9
		c2.394,0.044,4.943,1.571,5.678,4.814c0.102,0.449-0.02,0.407,0.439,0.488c0.996,0.176,1.926,0.165,2.839-0.124
		c-0.099,0.671-0.986,1.106-2.371,1.395c-0.511,0.107-0.617,0.079-0.003,0.216c0.758,0.172,1.603,0.214,2.5,0.173
		c-0.696,0.801-1.807,1.212-3.182,1.227C28.31,20.838,26.348,23.085,23.858,24.493z"/>
</g>
</svg>
