<?xml version="1.0" encoding="utf-8"?>
<!-- Generator: Adobe Illustrator 18.1.1, SVG Export Plug-In . SVG Version: 6.00 Build 0)  -->
<!DOCTYPE svg PUBLIC "-//W3C//DTD SVG 1.1 Tiny//EN" "http://www.w3.org/Graphics/SVG/1.1/DTD/svg11-tiny.dtd">
<svg version="1.1" baseProfile="tiny" id="Layer_1" xmlns="http://www.w3.org/2000/svg" xmlns:xlink="http://www.w3.org/1999/xlink"
	 x="0px" y="0px" viewBox="0 0 35.998 36" xml:space="preserve">
<rect x="-809" y="-215.827" display="none" fill="#FFFFFF" width="1800" height="504"/>
<g id="industry-aerospace">
	<g id="Deleted_Symbol_29_">
	</g>
</g>
<g id="industry-banking">
	<g id="Deleted_Symbol_28_">
	</g>
</g>
<g id="industry-commercial-contracts">
	<g id="Deleted_Symbol_27_">
	</g>
</g>
<g id="industry-construction">
	<g id="Deleted_Symbol_26_">
	</g>
</g>
<g id="industry-employment">
	<g id="Deleted_Symbol_25_">
	</g>
</g>
<g id="industry-energy">
	<g id="Deleted_Symbol_24_">
	</g>
</g>
<g id="industry-entertainment">
	<g id="Deleted_Symbol_23_">
	</g>
</g>
<g id="industry-finance">
	<g id="Deleted_Symbol_22_">
	</g>
</g>
<g id="industry-franchise-agreements">
	<g id="Deleted_Symbol_21_">
	</g>
</g>
<g id="industry-healthcare">
	<g id="Deleted_Symbol_20_">
	</g>
</g>
<g id="industry-hospitality">
	<g id="Deleted_Symbol_19_">
	</g>
</g>
<g id="industry-insurance-reinsurance">
	<g id="Deleted_Symbol_18_">
	</g>
</g>
<g id="industry-intellectual-property">
	<g id="Deleted_Symbol_17_">
	</g>
</g>
<g id="industry-licensing-agreements">
	<g id="Deleted_Symbol_16_">
	</g>
</g>
<g id="industry-mass-claims-class-actions">
	<g id="Deleted_Symbol_15_">
	</g>
</g>
<g id="industry-mergers-aquisitions">
	<g id="Deleted_Symbol_14_">
	</g>
</g>
<g id="industry-oil-gas">
	<g id="Deleted_Symbol_13_">
	</g>
</g>
<g id="industry-other">
	<g id="Deleted_Symbol_12_">
	</g>
</g>
<g id="industry-partnerships">
	<g id="Deleted_Symbol_11_">
	</g>
</g>
<g id="industry-pharmaceuticals">
	<g id="Deleted_Symbol_10_">
	</g>
</g>
<g id="industry-securities-investments">
	<g id="Deleted_Symbol_9_">
	</g>
</g>
<g id="industry-technology">
	<g id="Deleted_Symbol_8_">
	</g>
</g>
<g id="industry-telecommunications">
	<g id="Deleted_Symbol_7_">
	</g>
</g>
<g id="search-region-africa">
	<g id="Deleted_Symbol_6_">
	</g>
</g>
<g id="search-region-asia">
	<g id="Deleted_Symbol_5_">
	</g>
</g>
<g id="search-region-europe">
	<g id="Deleted_Symbol_4_">
	</g>
</g>
<g id="search-region-latin-amer">
	<g id="Deleted_Symbol_3_">
	</g>
</g>
<g id="search-region-mid-east">
	<g id="Deleted_Symbol_2_">
	</g>
</g>
<g id="search-region-north-amer">
	<g id="Deleted_Symbol_1_">
	</g>
</g>
<g id="search-region-oceania">
	<g id="Deleted_Symbol">
	</g>
</g>
<g id="arrow-gray_x5F_down_3_">
</g>
<g id="arrow-gray_x5F_left_1_">
	<g id="arrow-gray_x5F_right_2_">
		<g id="arrow-gray_x5F_down_2_">
		</g>
	</g>
</g>
<g id="arrow-gray_x5F_right_1_">
	<g id="arrow-gray_x5F_down_1_">
	</g>
</g>
<g id="arrow-gray_x5F_up">
	<g id="arrow-gray_x5F_left">
		<g id="arrow-gray_x5F_right">
			<g id="arrow-gray_x5F_down">
			</g>
		</g>
	</g>
</g>
<g id="check-gray">
</g>
<g id="x-gray">
</g>
<g id="drd-favicon">
	<g id="logo-color-large">
	</g>
</g>
<g id="login-account">
</g>
<g id="login-password">
</g>
<g id="tick">
</g>
<g id="social-fb_2">
</g>
<g id="social-linked_2">
	<path fill="#135462" d="M17.997,0C8.055,0,0,8.06,0,18.002C0,27.944,8.055,36,17.997,36s18.001-8.056,18.001-18.001
		C35.998,8.06,27.939,0,17.997,0z M28.348,26.69h-4.187v-7.465c0-1.735-0.607-2.919-2.121-2.919c-1.158,0-1.847,0.798-2.15,1.57
		c-0.109,0.277-0.135,0.659-0.135,1.047v7.767h-4.192v-9.174c0-1.68-0.053-3.083-0.109-4.296h3.638l0.191,1.872h0.086
		c0.547-0.88,1.9-2.173,4.159-2.173c2.752,0,4.82,1.844,4.82,5.807V26.69z M10.996,7.382c1.349,0,2.173,0.909,2.203,2.093
		c0,1.157-0.854,2.094-2.259,2.094c-1.321,0-2.175-0.937-2.175-2.094C8.764,8.291,9.645,7.382,10.996,7.382z M13.06,13.22v13.47
		H8.873V13.22H13.06z"/>
</g>
<g id="social-twitter_2">
</g>
</svg>
